# Created by Kenney (www.kenney.nl) 

mtllib character_zombie.mtl 

g character_zombie %8angles

v 0.13 0.26 -0.13 
v 0.13 0.26 0.13 
v -0.13 0.26 -0.13 
v -0.13 0.26 0.13 
v -0.13 0 -0.13 
v -0.13 0 0.13 
v 0.13 0 0.13 
v 0.13 0 -0.13 

vn 0 1 0 
vn -1 0 0 
vn 0 0 1 
vn 0 -1 0 
vn 1 0 0 
vn 0 0 -1 

vt -0.25 -0.75 
vt -0.25 -0.5 
vt 6.411538E-15 -0.75 
vt 6.411538E-15 -0.5 
vt -0.5 -0.5 
vt -0.5 -0.25 
vt -0.25 -0.25 
vt -1 -0.5 
vt -1.25 -0.5 
vt -1 -0.25 
vt -1.25 -0.25 
vt -1 -0.75 
vt -1.25 -0.75 
vt -0.75 -0.25 
vt -0.75 -0.5 

usemtl zombie

f 2/2/1 1/1/1 3/3/1 
f 3/3/1 4/4/1 2/2/1 
f 3/6/2 5/5/2 6/2/2 
f 6/2/2 4/7/2 3/6/2 
f 6/9/3 7/8/3 2/10/3 
f 2/10/3 4/11/3 6/9/3 
f 8/12/4 7/8/4 6/9/4 
f 6/9/4 5/13/4 8/12/4 
f 8/15/5 1/14/5 2/10/5 
f 2/10/5 7/8/5 8/15/5 
f 8/15/6 5/5/6 3/6/6 
f 3/6/6 1/14/6 8/15/6 
g character_zombie %8angles




usemtl zombie

f 2/2/1 1/1/1 3/3/1 
f 3/3/1 4/4/1 2/2/1 
f 3/6/2 5/5/2 6/2/2 
f 6/2/2 4/7/2 3/6/2 
f 6/9/3 7/8/3 2/10/3 
f 2/10/3 4/11/3 6/9/3 
f 8/12/4 7/8/4 6/9/4 
f 6/9/4 5/13/4 8/12/4 
f 8/15/5 1/14/5 2/10/5 
f 2/10/5 7/8/5 8/15/5 
f 8/15/6 5/5/6 3/6/6 
f 3/6/6 1/14/6 8/15/6 
g head

v 0.13 0.52 -0.13 
v 0.13 0.52 0.13 
v -0.13 0.52 0.13 
v -0.13 0.52 -0.13 


vt 1.096345E-14 -0.75 
vt 9.520162E-15 -0.5 
vt -0.75 5.551115E-16 
vt -1 5.551115E-16 
vt 1.226796E-14 -0.25 
vt 1.226796E-14 1.665335E-16 
vt -0.25 1.665335E-16 
vt -0.5 1.665335E-16 
vt -0.75 1.665335E-16 
vt -0.5 -0.75 
vt -0.5 4.996004E-16 
vt -0.25 4.996004E-16 

usemtl zombie

f 1/1/4 2/16/4 4/17/4 
f 4/17/4 3/2/4 1/1/4 
f 1/14/5 9/18/5 10/19/5 
f 10/19/5 2/10/5 1/14/5 
f 4/7/3 2/20/3 10/21/3 
f 10/21/3 11/22/3 4/7/3 
f 1/14/6 3/6/6 12/23/6 
f 12/23/6 9/24/6 1/14/6 
f 10/5/1 9/25/1 12/1/1 
f 12/1/1 11/2/1 10/5/1 
f 12/26/2 3/6/2 4/7/2 
f 4/7/2 11/27/2 12/26/2 
g left

v -0.13 0.03681599 0.055796 
v -0.241592 0.03681599 0.055796 
v -0.13 0.26 0.055796 
v -0.241592 0.26 0.055796 
v -0.13 0.26 -0.055796 
v -0.13 0.03681599 -0.055796 
v -0.241592 0.26 -0.055796 
v -0.241592 0.03681599 -0.055796 


vt -0.625 -0.75 
vt -0.75 -0.75 
vt -0.625 -0.5 
vt -0.875 -0.5 
vt -0.875 -0.75 
vt -0.875 -0.625 
vt -1 -0.625 
vt -0.25 -15.5 
vt -0.125 -15.5 
vt -0.25 -15.625 
vt -0.125 -15.625 

usemtl zombie

f 14/29/3 13/28/3 15/30/3 
f 15/30/3 16/15/3 14/29/3 
f 18/32/5 17/31/5 15/8/5 
f 15/8/5 13/12/5 18/32/5 
f 15/34/1 17/33/1 19/31/1 
f 19/31/1 16/8/1 15/34/1 
f 19/30/2 20/28/2 14/25/2 
f 14/25/2 16/5/2 19/30/2 
f 18/32/6 20/29/6 19/15/6 
f 19/15/6 17/31/6 18/32/6 
f 18/36/4 13/35/4 14/37/4 
f 14/37/4 20/38/4 18/36/4 
g right

v 0.241592 0.036816 0.055796 
v 0.241592 0.036816 -0.055796 
v 0.13 0.036816 0.055796 
v 0.13 0.036816 -0.055796 
v 0.241592 0.26 -0.055796 
v 0.241592 0.26 0.055796 
v 0.13 0.26 -0.055796 
v 0.13 0.26 0.055796 



usemtl zombie

f 22/37/4 21/38/4 23/36/4 
f 23/36/4 24/35/4 22/37/4 
f 22/25/5 25/5/5 26/30/5 
f 26/30/5 21/28/5 22/25/5 
f 27/8/2 24/12/2 23/32/2 
f 23/32/2 28/31/2 27/8/2 
f 26/31/1 25/8/1 27/34/1 
f 27/34/1 28/33/1 26/31/1 
f 23/32/3 21/29/3 26/15/3 
f 26/15/3 28/31/3 23/32/3 
f 22/29/6 24/28/6 27/30/6 
f 27/30/6 25/15/6 22/29/6 
