# Created by Kenney (www.kenney.nl) 

mtllib columnLarge.mtl 

g columnLarge

v -0.1203058 0.8200001 -0.1203058 
v -0.1203058 0.92 -0.1203058 
v -0.1203058 0.8200001 0.1203058 
v -0.1203058 0.92 0.1203058 
v 0.1203058 0.92 -0.1203058 
v 0.1203058 0.8200001 -0.1203058 
v 0.1203058 0.92 0.1203058 
v 0.1203058 0.8200001 0.1203058 
v 0.1025789 0.8200001 0.1025789 
v -0.1025789 0.8200001 0.1025789 
v -0.1025789 0.8200001 -0.1025789 
v 0.1025789 0.8200001 -0.1025789 
v 0.1025789 0.92 -0.1025789 
v -0.1025789 0.92 -0.1025789 
v -0.1025789 0.92 0.1025789 
v 0.1025789 0.92 0.1025789 
v 0.1203058 0.33 -0.1203058 
v 0.1025789 0.33 0.1025789 
v 0.1203058 0.33 0.1203058 
v -0.1203058 0.33 0.1203058 
v -0.1025789 0.33 0.1025789 
v -0.1025789 0.33 -0.1025789 
v 0.1025789 0.33 -0.1025789 
v -0.1203058 0.33 -0.1203058 
v 0.1203058 0.43 0.1203058 
v 0.1025789 0.43 -0.1025789 
v 0.1203058 0.43 -0.1203058 
v -0.1203058 0.43 -0.1203058 
v -0.1025789 0.43 -0.1025789 
v -0.1025789 0.43 0.1025789 
v 0.1025789 0.43 0.1025789 
v -0.1203058 0.43 0.1203058 
v 0.1025789 1.02 0.1025789 
v -0.1025789 1.02 0.1025789 
v -0.1025789 1.02 -0.1025789 
v 0.1025789 1.02 -0.1025789 
v -0.1025789 0.23 -0.1025789 
v -0.1025789 0.23 0.1025789 
v 0.1025789 0.23 -0.1025789 
v 0.1025789 0.23 0.1025789 
v 0.1303058 1.1 -0.1303058 
v 0.1303058 1.02 -0.1303058 
v 0.1303058 1.1 0.1303058 
v 0.1303058 1.02 0.1303058 
v -0.1303058 1.02 0.1303058 
v -0.1303058 1.02 -0.1303058 
v -0.1303058 1.1 -0.1303058 
v -0.1303058 1.1 0.1303058 
v 0.19 0 0.19 
v 0.19 0 -0.19 
v -0.19 0 0.19 
v -0.19 0 -0.19 
v 0.1691 0.13 0.1691 
v 0.1303058 0.13 -0.1303058 
v 0.1691 0.13 -0.1691 
v -0.1691 0.13 -0.1691 
v -0.1303058 0.13 -0.1303058 
v -0.1303058 0.13 0.1303058 
v 0.1303058 0.13 0.1303058 
v -0.1691 0.13 0.1691 
v -0.1303058 0.23 -0.1303058 
v 0.1303058 0.23 -0.1303058 
v 0.1303058 0.23 0.1303058 
v -0.1303058 0.23 0.1303058 

vn -1 0 0 
vn 1 0 0 
vn 0 -1 0 
vn 0 0 -1 
vn 0 0 1 
vn 0 1 0 
vn 0 0.158731 0.9873219 
vn 0 0.158731 -0.9873219 
vn -0.9873219 0.158731 0 
vn 0.9873219 0.158731 0 

vt -4.736451 32.28347 
vt -4.736451 36.22047 
vt 4.736451 32.28347 
vt 4.736451 36.22047 
vt 4.736451 -4.736451 
vt 4.038538 4.038538 
vt 4.736451 4.736451 
vt -4.736451 4.736451 
vt -4.038538 4.038538 
vt -4.038538 -4.038538 
vt 4.038538 -4.038538 
vt -4.736451 -4.736451 
vt 4.736451 12.99213 
vt -4.736451 12.99213 
vt 4.736451 16.92913 
vt -4.736451 16.92913 
vt 4.038538 16.92913 
vt -4.038538 16.92913 
vt 4.038538 32.28347 
vt -4.038538 32.28347 
vt 4.038538 36.22047 
vt -4.038538 36.22047 
vt 4.038538 40.15748 
vt -4.038538 40.15748 
vt -4.038538 9.055119 
vt -4.038538 12.99213 
vt 4.038538 9.055119 
vt 4.038538 12.99213 
vt 5.130151 43.30709 
vt 5.130151 40.15748 
vt -5.130151 43.30709 
vt -5.130151 40.15748 
vt 5.130151 -5.130151 
vt 5.130151 5.130151 
vt -5.130151 5.130151 
vt -5.130151 -5.130151 
vt 7.480315 7.480315 
vt 7.480315 -7.480315 
vt -7.480315 7.480315 
vt -7.480315 -7.480315 
vt -6.65748 6.65748 
vt -6.65748 -6.65748 
vt 6.65748 -6.65748 
vt 6.65748 6.65748 
vt 5.130151 5.11811 
vt -5.130151 5.11811 
vt 5.130151 9.055119 
vt -5.130151 9.055119 
vt 7.480315 -1.187358 
vt -7.480315 -1.187358 
vt 6.65748 3.996474 
vt -6.65748 3.996474 

usemtl wood

f 2/2/1 1/1/1 3/3/1 
f 3/3/1 4/4/1 2/2/1 
f 6/3/2 5/4/2 7/2/2 
f 7/2/2 8/1/2 6/3/2 
f 9/6/3 6/5/3 8/7/3 
f 8/7/3 3/8/3 9/6/3 
f 3/8/3 10/9/3 9/6/3 
f 3/8/3 11/10/3 10/9/3 
f 6/5/3 9/6/3 12/11/3 
f 12/11/3 1/12/3 6/5/3 
f 12/11/3 11/10/3 1/12/3 
f 11/10/3 3/8/3 1/12/3 
f 6/1/4 1/3/4 2/4/4 
f 2/4/4 5/2/4 6/1/4 
f 3/1/5 8/3/5 7/4/5 
f 7/4/5 4/2/5 3/1/5 
f 13/10/6 7/8/6 5/12/6 
f 5/12/6 2/5/6 13/10/6 
f 2/5/6 14/11/6 13/10/6 
f 2/5/6 15/6/6 14/11/6 
f 7/8/6 13/10/6 16/9/6 
f 16/9/6 4/7/6 7/8/6 
f 16/9/6 15/6/6 4/7/6 
f 15/6/6 2/5/6 4/7/6 
f 18/6/3 17/5/3 19/7/3 
f 19/7/3 20/8/3 18/6/3 
f 20/8/3 21/9/3 18/6/3 
f 20/8/3 22/10/3 21/9/3 
f 17/5/3 18/6/3 23/11/3 
f 23/11/3 24/12/3 17/5/3 
f 23/11/3 22/10/3 24/12/3 
f 22/10/3 20/8/3 24/12/3 
f 26/10/6 25/8/6 27/12/6 
f 27/12/6 28/5/6 26/10/6 
f 28/5/6 29/11/6 26/10/6 
f 28/5/6 30/6/6 29/11/6 
f 25/8/6 26/10/6 31/9/6 
f 31/9/6 32/7/6 25/8/6 
f 31/9/6 30/6/6 32/7/6 
f 30/6/6 28/5/6 32/7/6 
f 20/14/5 19/13/5 25/15/5 
f 25/15/5 32/16/5 20/14/5 
f 17/13/2 27/15/2 25/16/2 
f 25/16/2 19/14/2 17/13/2 
f 17/14/4 24/13/4 28/15/4 
f 28/15/4 27/16/4 17/14/4 
f 28/16/1 24/14/1 20/13/1 
f 20/13/1 32/15/1 28/16/1 

usemtl stone

f 26/18/4 29/17/4 11/19/4 
f 11/19/4 12/20/4 26/18/4 
f 15/22/5 16/21/5 33/23/5 
f 33/23/5 34/24/5 15/22/5 
f 13/22/4 14/21/4 35/23/4 
f 35/23/4 36/24/4 13/22/4 
f 22/26/1 37/25/1 38/27/1 
f 38/27/1 21/28/1 22/26/1 
f 39/27/2 23/28/2 18/26/2 
f 18/26/2 40/25/2 39/27/2 
f 35/24/1 14/22/1 15/21/1 
f 15/21/1 34/23/1 35/24/1 
f 11/20/1 29/18/1 30/17/1 
f 30/17/1 10/19/1 11/20/1 
f 13/21/2 36/23/2 33/24/2 
f 33/24/2 16/22/2 13/21/2 
f 38/25/5 40/27/5 18/28/5 
f 18/28/5 21/26/5 38/25/5 
f 39/25/4 37/27/4 22/28/4 
f 22/28/4 23/26/4 39/25/4 
f 30/18/5 31/17/5 9/19/5 
f 9/19/5 10/20/5 30/18/5 
f 26/17/2 12/19/2 9/20/2 
f 9/20/2 31/18/2 26/17/2 
f 42/30/2 41/29/2 43/31/2 
f 43/31/2 44/32/2 42/30/2 
f 33/6/3 42/33/3 44/34/3 
f 44/34/3 45/35/3 33/6/3 
f 45/35/3 34/9/3 33/6/3 
f 45/35/3 35/10/3 34/9/3 
f 42/33/3 33/6/3 36/11/3 
f 36/11/3 46/36/3 42/33/3 
f 36/11/3 35/10/3 46/36/3 
f 35/10/3 45/35/3 46/36/3 
f 47/31/1 46/32/1 45/30/1 
f 45/30/1 48/29/1 47/31/1 
f 45/32/5 44/30/5 43/29/5 
f 43/29/5 48/31/5 45/32/5 
f 43/35/6 41/36/6 47/33/6 
f 47/33/6 48/34/6 43/35/6 
f 42/32/4 46/30/4 47/29/4 
f 47/29/4 41/31/4 42/32/4 
f 50/38/3 49/37/3 51/39/3 
f 51/39/3 52/40/3 50/38/3 
f 54/36/6 53/41/6 55/42/6 
f 55/42/6 56/43/6 54/36/6 
f 56/43/6 57/33/6 54/36/6 
f 56/43/6 58/34/6 57/33/6 
f 53/41/6 54/36/6 59/35/6 
f 59/35/6 60/44/6 53/41/6 
f 59/35/6 58/34/6 60/44/6 
f 58/34/6 56/43/6 60/44/6 
f 54/46/4 57/45/4 61/47/4 
f 61/47/4 62/48/4 54/46/4 
f 58/46/5 59/45/5 63/47/5 
f 63/47/5 64/48/5 58/46/5 
f 39/10/6 63/35/6 62/36/6 
f 62/36/6 61/33/6 39/10/6 
f 61/33/6 37/11/6 39/10/6 
f 61/33/6 38/6/6 37/11/6 
f 63/35/6 39/10/6 40/9/6 
f 40/9/6 64/34/6 63/35/6 
f 40/9/6 38/6/6 64/34/6 
f 38/6/6 61/33/6 64/34/6 
f 54/45/2 62/47/2 63/48/2 
f 63/48/2 59/46/2 54/45/2 
f 51/50/7 49/49/7 53/51/7 
f 53/51/7 60/52/7 51/50/7 
f 50/50/8 52/49/8 56/51/8 
f 56/51/8 55/52/8 50/50/8 
f 56/52/9 52/50/9 51/49/9 
f 51/49/9 60/51/9 56/52/9 
f 61/48/1 57/46/1 58/45/1 
f 58/45/1 64/47/1 61/48/1 
f 49/50/10 50/49/10 55/51/10 
f 55/51/10 53/52/10 49/50/10 
g columnLarge




usemtl wood

f 2/2/1 1/1/1 3/3/1 
f 3/3/1 4/4/1 2/2/1 
f 6/3/2 5/4/2 7/2/2 
f 7/2/2 8/1/2 6/3/2 
f 9/6/3 6/5/3 8/7/3 
f 8/7/3 3/8/3 9/6/3 
f 3/8/3 10/9/3 9/6/3 
f 3/8/3 11/10/3 10/9/3 
f 6/5/3 9/6/3 12/11/3 
f 12/11/3 1/12/3 6/5/3 
f 12/11/3 11/10/3 1/12/3 
f 11/10/3 3/8/3 1/12/3 
f 6/1/4 1/3/4 2/4/4 
f 2/4/4 5/2/4 6/1/4 
f 3/1/5 8/3/5 7/4/5 
f 7/4/5 4/2/5 3/1/5 
f 13/10/6 7/8/6 5/12/6 
f 5/12/6 2/5/6 13/10/6 
f 2/5/6 14/11/6 13/10/6 
f 2/5/6 15/6/6 14/11/6 
f 7/8/6 13/10/6 16/9/6 
f 16/9/6 4/7/6 7/8/6 
f 16/9/6 15/6/6 4/7/6 
f 15/6/6 2/5/6 4/7/6 
f 18/6/3 17/5/3 19/7/3 
f 19/7/3 20/8/3 18/6/3 
f 20/8/3 21/9/3 18/6/3 
f 20/8/3 22/10/3 21/9/3 
f 17/5/3 18/6/3 23/11/3 
f 23/11/3 24/12/3 17/5/3 
f 23/11/3 22/10/3 24/12/3 
f 22/10/3 20/8/3 24/12/3 
f 26/10/6 25/8/6 27/12/6 
f 27/12/6 28/5/6 26/10/6 
f 28/5/6 29/11/6 26/10/6 
f 28/5/6 30/6/6 29/11/6 
f 25/8/6 26/10/6 31/9/6 
f 31/9/6 32/7/6 25/8/6 
f 31/9/6 30/6/6 32/7/6 
f 30/6/6 28/5/6 32/7/6 
f 20/14/5 19/13/5 25/15/5 
f 25/15/5 32/16/5 20/14/5 
f 17/13/2 27/15/2 25/16/2 
f 25/16/2 19/14/2 17/13/2 
f 17/14/4 24/13/4 28/15/4 
f 28/15/4 27/16/4 17/14/4 
f 28/16/1 24/14/1 20/13/1 
f 20/13/1 32/15/1 28/16/1 

usemtl stone

f 26/18/4 29/17/4 11/19/4 
f 11/19/4 12/20/4 26/18/4 
f 15/22/5 16/21/5 33/23/5 
f 33/23/5 34/24/5 15/22/5 
f 13/22/4 14/21/4 35/23/4 
f 35/23/4 36/24/4 13/22/4 
f 22/26/1 37/25/1 38/27/1 
f 38/27/1 21/28/1 22/26/1 
f 39/27/2 23/28/2 18/26/2 
f 18/26/2 40/25/2 39/27/2 
f 35/24/1 14/22/1 15/21/1 
f 15/21/1 34/23/1 35/24/1 
f 11/20/1 29/18/1 30/17/1 
f 30/17/1 10/19/1 11/20/1 
f 13/21/2 36/23/2 33/24/2 
f 33/24/2 16/22/2 13/21/2 
f 38/25/5 40/27/5 18/28/5 
f 18/28/5 21/26/5 38/25/5 
f 39/25/4 37/27/4 22/28/4 
f 22/28/4 23/26/4 39/25/4 
f 30/18/5 31/17/5 9/19/5 
f 9/19/5 10/20/5 30/18/5 
f 26/17/2 12/19/2 9/20/2 
f 9/20/2 31/18/2 26/17/2 
f 42/30/2 41/29/2 43/31/2 
f 43/31/2 44/32/2 42/30/2 
f 33/6/3 42/33/3 44/34/3 
f 44/34/3 45/35/3 33/6/3 
f 45/35/3 34/9/3 33/6/3 
f 45/35/3 35/10/3 34/9/3 
f 42/33/3 33/6/3 36/11/3 
f 36/11/3 46/36/3 42/33/3 
f 36/11/3 35/10/3 46/36/3 
f 35/10/3 45/35/3 46/36/3 
f 47/31/1 46/32/1 45/30/1 
f 45/30/1 48/29/1 47/31/1 
f 45/32/5 44/30/5 43/29/5 
f 43/29/5 48/31/5 45/32/5 
f 43/35/6 41/36/6 47/33/6 
f 47/33/6 48/34/6 43/35/6 
f 42/32/4 46/30/4 47/29/4 
f 47/29/4 41/31/4 42/32/4 
f 50/38/3 49/37/3 51/39/3 
f 51/39/3 52/40/3 50/38/3 
f 54/36/6 53/41/6 55/42/6 
f 55/42/6 56/43/6 54/36/6 
f 56/43/6 57/33/6 54/36/6 
f 56/43/6 58/34/6 57/33/6 
f 53/41/6 54/36/6 59/35/6 
f 59/35/6 60/44/6 53/41/6 
f 59/35/6 58/34/6 60/44/6 
f 58/34/6 56/43/6 60/44/6 
f 54/46/4 57/45/4 61/47/4 
f 61/47/4 62/48/4 54/46/4 
f 58/46/5 59/45/5 63/47/5 
f 63/47/5 64/48/5 58/46/5 
f 39/10/6 63/35/6 62/36/6 
f 62/36/6 61/33/6 39/10/6 
f 61/33/6 37/11/6 39/10/6 
f 61/33/6 38/6/6 37/11/6 
f 63/35/6 39/10/6 40/9/6 
f 40/9/6 64/34/6 63/35/6 
f 40/9/6 38/6/6 64/34/6 
f 38/6/6 61/33/6 64/34/6 
f 54/45/2 62/47/2 63/48/2 
f 63/48/2 59/46/2 54/45/2 
f 51/50/7 49/49/7 53/51/7 
f 53/51/7 60/52/7 51/50/7 
f 50/50/8 52/49/8 56/51/8 
f 56/51/8 55/52/8 50/50/8 
f 56/52/9 52/50/9 51/49/9 
f 51/49/9 60/51/9 56/52/9 
f 61/48/1 57/46/1 58/45/1 
f 58/45/1 64/47/1 61/48/1 
f 49/50/10 50/49/10 55/51/10 
f 55/51/10 53/52/10 49/50/10 
