# Created by Kenney (www.kenney.nl) 

mtllib crypt.mtl 

g crypt

v -0.1268432 0.0784 0.1263755 
v -0.1268432 0.056 0.1263755 
v -0.1268432 0.0784 0.1928847 
v -0.1268432 0.056 0.1928847 
v -0.1933524 0.056 0.1263755 
v -0.1933524 0.0784 0.1263755 
v -0.1404978 0.392 1.004825 
v -0.6108375 0.392 1.004825 
v -0.3756677 0.5319999 1.004825 
v -0.65797 0.392 1.004825 
v -0.09243008 0.392 1.004825 
v -0.65797 0.3696 1.004825 
v -0.09243008 0.3696 1.004825 
v -0.1404978 0.0784 0.1400301 
v -0.1404978 0.3304 0.1792301 
v -0.1404978 0.3696 0.1400301 
v -0.1404978 0.3696 0.9911699 
v -0.1404978 0.3304 0.9519699 
v -0.1404978 0.0784 0.9519699 
v -0.1404978 0.0784 0.9911699 
v -0.1404978 0.0784 0.1792301 
v -0.557983 0.056 1.004825 
v -0.6244921 0.056 1.004825 
v -0.557983 0.0784 1.004825 
v -0.6244921 0.0784 1.004825 
v -0.1268432 0.0784 0.9383153 
v -0.1268432 0.056 0.9383153 
v -0.1268432 0.0784 1.004825 
v -0.1268432 0.056 1.004825 
v -0.1796978 0.0784 0.9911699 
v -0.1796978 0.3304 0.9911699 
v -0.5716376 0.3304 0.9911699 
v -0.6108375 0.3696 0.9911699 
v -0.6108375 0.0784 0.9911699 
v -0.5716376 0.0784 0.9911699 
v -0.1933524 0.056 1.004825 
v -0.1933524 0.0784 1.004825 
v -0.6244921 0.056 0.9383153 
v -0.6244921 0.0784 0.9383153 
v -0.09243008 0.392 0.1263755 
v -0.1404978 0.392 0.1263755 
v -0.65797 0.3696 0.1263755 
v -0.65797 0.392 0.1263755 
v -0.09243008 0.3696 0.1263755 
v -0.6108375 0.3696 0.1400301 
v -0.6108375 0.392 0.1263755 
v -0.3756677 0.5319999 0.1263755 
v -0.5716376 0.3304 0.1400301 
v -0.5716376 0.0784 0.1400301 
v -0.5716376 0.3304 0.1596301 
v -0.5716376 0.0784 0.1596301 
v -0.5907699 0.0784 0.1792301 
v -0.6108375 0.0784 0.1792301 
v -0.5907699 0.3304 0.1792301 
v -0.6108375 0.3304 0.1792301 
v -0.557983 0.0784 0.1263755 
v -0.557983 0.056 0.1263755 
v -0.557983 0.0784 0.1596301 
v -0.557983 0.056 0.1596301 
v -0.6244921 0.056 0.1928847 
v -0.6244921 0.0784 0.1928847 
v -0.5907699 0.056 0.1928847 
v -0.5907699 0.0784 0.1928847 
v -0.6108375 0.0784 0.9519699 
v -0.6108375 0.3304 0.9519699 
v -0.6108375 0.0784 0.1400301 
v -0.6244921 0.056 0.1263755 
v -0.6244921 0.0784 0.1263755 
v -0.5907699 0.3304 0.9519699 
v -0.1933524 0.056 0.9715699 
v -0.1933524 0.0784 0.9715699 
v -0.5907699 0.0784 0.9519699 
v -0.5907699 0.0784 0.9383153 
v -0.5716376 0.0784 0.9715699 
v -0.557983 0.0784 0.9715699 
v -0.1933524 0.0784 0.1596301 
v -0.1796978 0.0784 0.1596301 
v -0.1796978 0.3304 0.1596301 
v -0.1933524 0.056 0.1596301 
v -0.1796978 0.0784 0.1400301 
v -0.1796978 0.3304 0.1400301 
v -0.5907699 0.056 0.9383153 
v -0.557983 0.056 0.9715699 
v -0.1596301 0.0784 0.9519699 
v -0.1596301 0.3304 0.9519699 
v -0.1596301 0.0784 0.1928847 
v -0.1596301 0.0784 0.1792301 
v -0.1596301 0.3304 0.1792301 
v -0.5716376 0.3304 0.9715699 
v -0.1796978 0.0784 0.9715699 
v -0.1796978 0.3304 0.9715699 
v -0.1596301 0.0784 0.9383153 
v -0.1596301 0.056 0.9383153 
v -0.1596301 0.056 0.1928847 
v -0.09243008 0.056 1.03877 
v -0.09243008 0.056 0.09243008 
v -0.65797 0.056 0.09243008 
v -0.65797 0.056 1.03877 
v -0.65797 0.0336 0.09243008 
v -0.65797 0.0336 1.03877 
v -0.09243008 0.0336 1.03877 
v 0 0.0336 0.0392 
v 0 0.0336 1.092 
v -0.0392 0.0336 0 
v -0.0392 0.0336 1.1312 
v -0.09243008 0.0336 0.09243008 
v -0.7112 0.0336 0 
v -0.7112 0.0336 1.1312 
v -0.7504 0.0336 0.0392 
v -0.7504 0.0336 1.092 
v 0 3.158363E-18 1.092 
v 0 1.579181E-18 0.0392 
v -0.0392 3.158363E-18 1.1312 
v -0.0392 1.579181E-18 0 
v -0.7112 0 1.1312 
v -0.7112 3.158363E-18 0 
v -0.7504 0 1.092 
v -0.7504 3.158363E-18 0.0392 

vn 1 0 0 
vn 0 0 -1 
vn 0 0 1 
vn -1 0 0 
vn 0 1 0 
vn 0 -1 0 
vn -0.5115322 0.8592641 0 
vn 0.7071068 0 -0.7071068 
vn 0.7071068 0 0.7071068 
vn -0.7071068 0 0.7071068 
vn -0.7071068 0 -0.7071068 
vn 0.5115322 0.8592641 0 

vt -8.884665 5.511811 
vt -8.884665 3.937008 
vt -13.56051 5.511811 
vt -13.56051 3.937008 
vt 13.59339 3.937008 
vt 8.917544 3.937008 
vt 13.59339 5.511811 
vt 8.917544 5.511811 
vt -9.877514 27.55906 
vt -42.94415 27.55906 
vt -26.41083 37.40157 
vt -46.25773 27.55906 
vt -6.498178 27.55906 
vt -46.25773 25.98425 
vt -6.498178 25.98425 
vt -9.844635 5.511811 
vt -12.60054 23.22835 
vt -9.844635 25.98425 
vt -69.68292 25.98425 
vt -66.92702 23.22835 
vt -66.92702 5.511811 
vt -69.68292 5.511811 
vt -12.60054 5.511811 
vt -39.22828 3.937008 
vt -43.90412 3.937008 
vt -39.22828 5.511811 
vt -43.90412 5.511811 
vt -65.96705 5.511811 
vt -65.96705 3.937008 
vt -70.64289 5.511811 
vt -70.64289 3.937008 
vt -9.877514 5.511811 
vt -12.63342 5.511811 
vt -9.877514 25.98425 
vt -12.63342 23.22835 
vt -40.18824 23.22835 
vt -42.94415 25.98425 
vt -42.94415 5.511811 
vt -40.18824 5.511811 
vt -8.917544 3.937008 
vt -13.59339 3.937008 
vt -8.917544 5.511811 
vt -13.59339 5.511811 
vt 65.96705 3.937008 
vt 65.96705 5.511811 
vt 70.64289 3.937008 
vt 70.64289 5.511811 
vt 6.498178 8.884665 
vt 6.498178 70.64289 
vt 9.877514 8.884665 
vt 9.877514 70.64289 
vt 8.884665 25.98425 
vt 8.884665 27.55906 
vt 70.64289 25.98425 
vt 70.64289 27.55906 
vt -8.884665 27.55906 
vt -8.884665 25.98425 
vt -70.64289 27.55906 
vt -70.64289 25.98425 
vt -6.498178 8.884665 
vt -9.877514 69.68292 
vt -6.498178 70.64289 
vt -46.25773 70.64289 
vt -42.94415 69.68292 
vt -42.94415 9.844635 
vt -9.877514 9.844635 
vt -46.25773 8.884665 
vt 42.94415 8.884665 
vt 42.94415 70.64289 
vt 46.25773 8.884665 
vt 46.25773 70.64289 
vt 42.94415 27.55906 
vt 9.877514 27.55906 
vt 26.41083 37.40157 
vt 6.498178 27.55906 
vt 46.25773 27.55906 
vt 6.498178 25.98425 
vt 46.25773 25.98425 
vt 9.877514 9.844635 
vt 9.877514 69.68292 
vt 42.94415 9.844635 
vt 42.94415 69.68292 
vt -9.844635 23.22835 
vt -11.22259 23.22835 
vt -11.22259 5.511811 
vt -41.53332 5.511811 
vt -41.53332 23.22835 
vt -42.94415 23.22835 
vt -11.22259 3.937008 
vt -41.53332 3.937008 
vt 66.92702 5.511811 
vt 66.92702 23.22835 
vt 69.68292 5.511811 
vt 69.68292 25.98425 
vt 12.60054 23.22835 
vt 9.844635 25.98425 
vt 12.60054 5.511811 
vt 9.844635 5.511811 
vt 43.90412 3.937008 
vt 39.22828 3.937008 
vt 43.90412 5.511811 
vt 39.22828 5.511811 
vt 8.884665 -3.561771 
vt 70.64289 -3.561771 
vt 8.884665 -22.80302 
vt 70.64289 -22.80302 
vt 8.884665 3.937008 
vt 8.884665 5.511811 
vt 13.56051 3.937008 
vt 13.56051 5.511811 
vt -41.53332 66.92702 
vt -41.53332 12.60054 
vt -42.94415 66.92702 
vt -42.94415 12.60054 
vt 68.30497 3.937008 
vt 68.30497 5.511811 
vt 42.94415 5.511811 
vt 41.53332 5.511811 
vt 42.94415 23.22835 
vt 41.53332 23.22835 
vt 41.53332 65.96705 
vt 41.53332 66.92702 
vt 43.90412 65.96705 
vt 42.94415 66.92702 
vt 43.90412 70.64289 
vt 40.18824 69.68292 
vt 39.22828 70.64289 
vt 40.18824 68.30497 
vt 39.22828 68.30497 
vt 40.18824 5.511811 
vt 40.18824 23.22835 
vt 12.63342 5.511811 
vt 12.63342 23.22835 
vt 9.844635 23.22835 
vt 11.22259 5.511811 
vt 11.22259 23.22835 
vt 40.18824 9.844635 
vt 39.22828 11.22259 
vt 40.18824 11.22259 
vt 39.22828 8.884665 
vt 43.90412 8.884665 
vt 42.94415 12.60054 
vt 43.90412 13.56051 
vt 41.53332 13.56051 
vt 41.53332 12.60054 
vt -68.30497 5.511811 
vt -68.30497 3.937008 
vt 9.877514 5.511811 
vt 9.877514 23.22835 
vt 8.917544 13.56051 
vt 8.917544 8.884665 
vt 13.59339 8.884665 
vt 12.63342 9.844635 
vt 12.63342 11.22259 
vt 13.59339 11.22259 
vt 9.877514 12.60054 
vt 11.22259 13.56051 
vt 11.22259 12.60054 
vt -9.877514 23.22835 
vt -68.30497 23.22835 
vt -69.68292 23.22835 
vt 68.30497 23.22835 
vt 69.68292 23.22835 
vt 11.22259 3.937008 
vt 8.917544 70.64289 
vt 9.877514 66.92702 
vt 8.917544 65.96705 
vt 11.22259 65.96705 
vt 11.22259 66.92702 
vt 13.59339 70.64289 
vt 12.63342 69.68292 
vt 13.59339 68.30497 
vt 12.63342 68.30497 
vt -12.63342 11.22259 
vt -12.63342 9.844635 
vt -40.18824 11.22259 
vt -40.18824 9.844635 
vt 41.53332 3.937008 
vt 6.498178 73.02938 
vt 6.498178 6.498178 
vt 46.25773 6.498178 
vt 46.25773 73.02938 
vt 6.498178 2.362205 
vt 6.498178 3.937008 
vt 73.02938 2.362205 
vt 73.02938 3.937008 
vt -6.498178 2.362205 
vt -46.25773 2.362205 
vt -6.498178 3.937008 
vt -46.25773 3.937008 
vt 0 2.755906 
vt 0 76.77165 
vt 2.755906 0 
vt 2.755906 79.52756 
vt 50 0 
vt 50 79.52756 
vt 52.75591 2.755906 
vt 52.75591 76.77165 
vt -73.02938 3.937008 
vt -73.02938 2.362205 
vt 46.25773 2.362205 
vt 46.25773 3.937008 
vt 1.757951E-34 76.77165 
vt 8.789756E-35 2.755906 
vt -2.755906 79.52756 
vt -2.755906 -1.046009E-34 
vt -50 79.52756 
vt -50 -2.417468E-34 
vt -52.75591 76.77165 
vt -52.75591 2.755906 
vt -12.63342 69.68292 
vt -12.63342 68.30497 
vt -40.18824 69.68292 
vt -40.18824 68.30497 
vt -9.877514 66.92702 
vt -9.877514 12.60054 
vt -11.22259 66.92702 
vt -11.22259 12.60054 
vt 1.94872 1.110223E-16 
vt -1.94872 1.110223E-16 
vt 1.94872 2.362205 
vt -1.94872 2.362205 
vt -54.28576 2.362205 
vt -54.28576 2.220446E-16 
vt -58.1832 2.362205 
vt -58.1832 2.220446E-16 
vt 16.9817 2.577136E-15 
vt 16.9817 2.362205 
vt 20.87914 2.577136E-15 
vt 20.87914 2.362205 
vt -2.755906 2.362205 
vt -2.755906 1.110223E-16 
vt -76.77165 2.362205 
vt -76.77165 2.220446E-16 
vt 39.25278 2.220446E-16 
vt 35.35534 2.220446E-16 
vt 39.25278 2.362205 
vt 35.35534 2.362205 
vt 2.755906 2.220446E-16 
vt 2.755906 2.362205 
vt 76.77165 0 
vt 76.77165 2.362205 
vt -50 0 
vt -50 2.362205 
vt -2.755906 2.220446E-16 
vt -8.884665 22.58474 
vt -70.64289 22.58474 
vt -8.884665 41.82599 
vt -70.64289 41.82599 
vt 42.94415 25.98425 
vt 9.877514 25.98425 
vt 2.755906 1.110223E-16 
vt 50 2.220446E-16 
vt 50 2.362205 

usemtl stone

f 2/2/1 1/1/1 3/3/1 
f 3/3/1 4/4/1 2/2/1 
f 2/6/2 5/5/2 6/7/2 
f 6/7/2 1/8/2 2/6/2 
f 8/10/3 7/9/3 9/11/3 
f 7/9/3 8/10/3 10/12/3 
f 11/13/3 7/9/3 10/12/3 
f 11/13/3 10/12/3 12/14/3 
f 12/14/3 13/15/3 11/13/3 
f 15/17/1 14/16/1 16/18/1 
f 16/18/1 17/19/1 15/17/1 
f 17/19/1 18/20/1 15/17/1 
f 17/19/1 19/21/1 18/20/1 
f 17/19/1 20/22/1 19/21/1 
f 14/16/1 15/17/1 21/23/1 
f 23/25/3 22/24/3 24/26/3 
f 24/26/3 25/27/3 23/25/3 
f 27/29/1 26/28/1 28/30/1 
f 28/30/1 29/31/1 27/29/1 
f 30/33/3 20/32/3 17/34/3 
f 17/34/3 31/35/3 30/33/3 
f 17/34/3 32/36/3 31/35/3 
f 32/36/3 17/34/3 33/37/3 
f 32/36/3 33/37/3 34/38/3 
f 34/38/3 35/39/3 32/36/3 
f 36/41/3 29/40/3 28/42/3 
f 28/42/3 37/43/3 36/41/3 
f 39/45/4 38/44/4 23/46/4 
f 23/46/4 25/47/4 39/45/4 
f 11/49/5 40/48/5 41/50/5 
f 41/50/5 7/51/5 11/49/5 
f 43/53/4 42/52/4 12/54/4 
f 12/54/4 10/55/4 43/53/4 
f 44/57/1 40/56/1 11/58/1 
f 11/58/1 13/59/1 44/57/1 
f 17/61/6 44/60/6 13/62/6 
f 13/62/6 12/63/6 17/61/6 
f 12/63/6 33/64/6 17/61/6 
f 12/63/6 45/65/6 33/64/6 
f 44/60/6 17/61/6 16/66/6 
f 16/66/6 42/67/6 44/60/6 
f 16/66/6 45/65/6 42/67/6 
f 45/65/6 12/63/6 42/67/6 
f 8/69/5 46/68/5 43/70/5 
f 43/70/5 10/71/5 8/69/5 
f 41/73/2 46/72/2 47/74/2 
f 46/72/2 41/73/2 40/75/2 
f 43/76/2 46/72/2 40/75/2 
f 43/76/2 40/75/2 44/77/2 
f 44/77/2 42/78/2 43/76/2 
f 17/80/5 16/79/5 45/81/5 
f 45/81/5 33/82/5 17/80/5 
f 49/16/1 48/83/1 50/84/1 
f 50/84/1 51/85/1 49/16/1 
f 53/38/3 52/86/3 54/87/3 
f 54/87/3 55/88/3 53/38/3 
f 57/2/1 56/1/1 58/85/1 
f 58/85/1 59/89/1 57/2/1 
f 61/27/3 60/25/3 62/90/3 
f 62/90/3 63/86/3 61/27/3 
f 65/92/4 64/91/4 34/93/4 
f 34/93/4 33/94/4 65/92/4 
f 55/95/4 65/92/4 33/94/4 
f 55/95/4 33/94/4 45/96/4 
f 53/97/4 55/95/4 45/96/4 
f 45/96/4 66/98/4 53/97/4 
f 57/100/2 67/99/2 68/101/2 
f 68/101/2 56/102/2 57/100/2 
f 9/104/7 47/103/7 46/105/7 
f 46/105/7 8/106/7 9/104/7 
f 68/108/4 67/107/4 60/109/4 
f 60/109/4 61/110/4 68/108/4 
f 54/112/6 69/111/6 65/113/6 
f 65/113/6 55/114/6 54/112/6 
f 71/116/4 70/115/4 36/46/4 
f 36/46/4 37/47/4 71/116/4 
f 72/118/2 64/117/2 65/119/2 
f 65/119/2 69/120/2 72/118/2 
f 72/122/5 73/121/5 39/123/5 
f 39/123/5 64/124/5 72/122/5 
f 39/123/5 34/82/5 64/124/5 
f 34/82/5 39/123/5 25/125/5 
f 35/126/5 34/82/5 25/125/5 
f 35/126/5 25/125/5 24/127/5 
f 74/128/5 35/126/5 24/127/5 
f 24/127/5 75/129/5 74/128/5 
f 58/102/2 51/130/2 50/131/2 
f 50/131/2 76/7/2 58/102/2 
f 50/131/2 77/132/2 76/7/2 
f 50/131/2 78/133/2 77/132/2 
f 58/102/2 76/7/2 79/5/2 
f 79/5/2 59/100/2 58/102/2 
f 81/134/4 80/98/4 77/135/4 
f 77/135/4 78/136/4 81/134/4 
f 63/110/4 62/109/4 82/44/4 
f 63/110/4 82/44/4 73/45/4 
f 63/110/4 73/45/4 69/92/4 
f 63/110/4 69/92/4 54/95/4 
f 54/95/4 52/97/4 63/110/4 
f 73/45/4 72/91/4 69/92/4 
f 58/138/5 49/137/5 51/139/5 
f 49/137/5 58/138/5 56/140/5 
f 56/140/5 68/141/5 49/137/5 
f 68/141/5 66/81/5 49/137/5 
f 68/141/5 53/142/5 66/81/5 
f 53/142/5 68/141/5 61/143/5 
f 53/142/5 61/143/5 63/144/5 
f 63/144/5 52/145/5 53/142/5 
f 83/147/1 75/146/1 24/30/1 
f 24/30/1 22/31/1 83/147/1 
f 19/148/2 84/135/2 85/136/2 
f 85/136/2 18/149/2 19/148/2 
f 14/79/5 3/150/5 1/151/5 
f 1/151/5 6/152/5 14/79/5 
f 6/152/5 80/153/5 14/79/5 
f 6/152/5 77/154/5 80/153/5 
f 6/152/5 76/155/5 77/154/5 
f 3/150/5 14/79/5 21/156/5 
f 21/156/5 86/157/5 3/150/5 
f 21/156/5 87/158/5 86/157/5 
f 87/85/3 21/32/3 15/159/3 
f 15/159/3 88/84/3 87/85/3 
f 74/146/1 89/160/1 32/161/1 
f 32/161/1 35/22/1 74/146/1 
f 91/162/4 90/116/4 30/93/4 
f 30/93/4 31/163/4 91/162/4 
f 6/108/4 5/107/4 79/164/4 
f 79/164/4 76/135/4 6/108/4 
f 19/166/5 28/165/5 26/167/5 
f 26/167/5 92/168/5 19/166/5 
f 92/168/5 84/169/5 19/166/5 
f 28/165/5 19/166/5 20/80/5 
f 20/80/5 37/170/5 28/165/5 
f 20/80/5 30/171/5 37/170/5 
f 30/171/5 71/172/5 37/170/5 
f 30/171/5 90/173/5 71/172/5 
f 27/6/2 93/164/2 92/135/2 
f 92/135/2 26/8/2 27/6/2 
f 81/175/6 78/174/6 50/176/6 
f 50/176/6 48/177/6 81/175/6 
f 94/89/3 4/40/3 3/42/3 
f 3/42/3 86/85/3 94/89/3 
f 87/23/1 88/17/1 85/20/1 
f 85/20/1 86/3/1 87/23/1 
f 85/20/1 94/4/1 86/3/1 
f 85/20/1 92/28/1 94/4/1 
f 85/20/1 84/21/1 92/28/1 
f 94/4/1 92/28/1 93/29/1 
f 82/178/2 38/99/2 39/101/2 
f 39/101/2 73/118/2 82/178/2 
f 2/151/5 95/179/5 96/180/5 
f 96/180/5 97/181/5 2/151/5 
f 97/181/5 5/152/5 2/151/5 
f 97/181/5 79/155/5 5/152/5 
f 97/181/5 57/140/5 79/155/5 
f 97/181/5 67/141/5 57/140/5 
f 97/181/5 60/143/5 67/141/5 
f 97/181/5 38/123/5 60/143/5 
f 97/181/5 23/125/5 38/123/5 
f 95/179/5 2/151/5 29/165/5 
f 29/165/5 98/182/5 95/179/5 
f 23/125/5 97/181/5 98/182/5 
f 2/151/5 4/150/5 29/165/5 
f 4/150/5 2/151/5 5/152/5 
f 4/150/5 27/167/5 29/165/5 
f 29/165/5 36/170/5 98/182/5 
f 5/152/5 79/155/5 36/170/5 
f 36/170/5 22/127/5 98/182/5 
f 22/127/5 23/125/5 98/182/5 
f 36/170/5 83/129/5 22/127/5 
f 60/143/5 38/123/5 82/121/5 
f 82/121/5 23/125/5 22/127/5 
f 82/121/5 38/123/5 23/125/5 
f 82/121/5 62/144/5 60/143/5 
f 62/144/5 22/127/5 83/129/5 
f 67/141/5 60/143/5 62/144/5 
f 22/127/5 62/144/5 82/121/5 
f 79/155/5 57/140/5 59/138/5 
f 59/138/5 57/140/5 67/141/5 
f 67/141/5 62/144/5 59/138/5 
f 62/144/5 83/129/5 59/138/5 
f 27/167/5 4/150/5 94/157/5 
f 94/157/5 93/168/5 27/167/5 
f 29/165/5 27/167/5 93/168/5 
f 93/168/5 36/170/5 29/165/5 
f 36/170/5 70/172/5 83/129/5 
f 59/138/5 83/129/5 70/172/5 
f 5/152/5 94/157/5 4/150/5 
f 5/152/5 93/168/5 94/157/5 
f 93/168/5 5/152/5 36/170/5 
f 70/172/5 79/155/5 59/138/5 
f 79/155/5 70/172/5 36/170/5 
f 97/184/4 99/183/4 100/185/4 
f 100/185/4 98/186/4 97/184/4 
f 100/188/3 101/187/3 95/189/3 
f 95/189/3 98/190/3 100/188/3 
f 103/192/5 102/191/5 104/193/5 
f 104/193/5 105/194/5 103/192/5 
f 104/193/5 106/180/5 105/194/5 
f 104/193/5 107/195/5 106/180/5 
f 107/195/5 99/181/5 106/180/5 
f 107/195/5 100/182/5 99/181/5 
f 105/194/5 106/180/5 101/179/5 
f 101/179/5 108/196/5 105/194/5 
f 101/179/5 100/182/5 108/196/5 
f 100/182/5 107/195/5 108/196/5 
f 107/195/5 109/197/5 108/196/5 
f 109/197/5 110/198/5 108/196/5 
f 71/43/3 90/33/3 91/35/3 
f 71/43/3 91/35/3 89/36/3 
f 71/43/3 89/36/3 74/39/3 
f 71/43/3 74/39/3 75/26/3 
f 71/43/3 75/26/3 83/24/3 
f 83/24/3 70/41/3 71/43/3 
f 106/187/1 96/189/1 95/199/1 
f 95/199/1 101/200/1 106/187/1 
f 106/183/2 99/201/2 97/202/2 
f 97/202/2 96/184/2 106/183/2 
f 112/204/6 111/203/6 113/205/6 
f 113/205/6 114/206/6 112/204/6 
f 113/205/6 115/207/6 114/206/6 
f 115/207/6 116/208/6 114/206/6 
f 115/207/6 117/209/6 116/208/6 
f 117/209/6 118/210/6 116/208/6 
f 91/212/6 31/211/6 32/213/6 
f 32/213/6 89/214/6 91/212/6 
f 15/216/6 18/215/6 85/217/6 
f 85/217/6 88/218/6 15/216/6 
f 112/220/8 114/219/8 104/221/8 
f 104/221/8 102/222/8 112/220/8 
f 111/224/9 103/223/9 105/225/9 
f 105/225/9 113/226/9 111/224/9 
f 110/228/10 117/227/10 115/229/10 
f 115/229/10 108/230/10 110/228/10 
f 112/232/1 102/231/1 103/233/1 
f 103/233/1 111/234/1 112/232/1 
f 116/236/11 118/235/11 109/237/11 
f 109/237/11 107/238/11 116/236/11 
f 109/240/4 118/239/4 117/241/4 
f 117/241/4 110/242/4 109/240/4 
f 108/244/3 115/243/3 113/245/3 
f 113/245/3 105/231/3 108/244/3 
f 7/247/12 41/246/12 47/248/12 
f 47/248/12 9/249/12 7/247/12 
f 49/130/2 66/117/2 45/250/2 
f 45/250/2 48/131/2 49/130/2 
f 45/250/2 81/133/2 48/131/2 
f 81/133/2 45/250/2 16/251/2 
f 81/133/2 16/251/2 14/148/2 
f 14/148/2 80/132/2 81/133/2 
f 104/240/2 114/252/2 116/253/2 
f 116/253/2 107/254/2 104/240/2 
g crypt




usemtl stone

f 2/2/1 1/1/1 3/3/1 
f 3/3/1 4/4/1 2/2/1 
f 2/6/2 5/5/2 6/7/2 
f 6/7/2 1/8/2 2/6/2 
f 8/10/3 7/9/3 9/11/3 
f 7/9/3 8/10/3 10/12/3 
f 11/13/3 7/9/3 10/12/3 
f 11/13/3 10/12/3 12/14/3 
f 12/14/3 13/15/3 11/13/3 
f 15/17/1 14/16/1 16/18/1 
f 16/18/1 17/19/1 15/17/1 
f 17/19/1 18/20/1 15/17/1 
f 17/19/1 19/21/1 18/20/1 
f 17/19/1 20/22/1 19/21/1 
f 14/16/1 15/17/1 21/23/1 
f 23/25/3 22/24/3 24/26/3 
f 24/26/3 25/27/3 23/25/3 
f 27/29/1 26/28/1 28/30/1 
f 28/30/1 29/31/1 27/29/1 
f 30/33/3 20/32/3 17/34/3 
f 17/34/3 31/35/3 30/33/3 
f 17/34/3 32/36/3 31/35/3 
f 32/36/3 17/34/3 33/37/3 
f 32/36/3 33/37/3 34/38/3 
f 34/38/3 35/39/3 32/36/3 
f 36/41/3 29/40/3 28/42/3 
f 28/42/3 37/43/3 36/41/3 
f 39/45/4 38/44/4 23/46/4 
f 23/46/4 25/47/4 39/45/4 
f 11/49/5 40/48/5 41/50/5 
f 41/50/5 7/51/5 11/49/5 
f 43/53/4 42/52/4 12/54/4 
f 12/54/4 10/55/4 43/53/4 
f 44/57/1 40/56/1 11/58/1 
f 11/58/1 13/59/1 44/57/1 
f 17/61/6 44/60/6 13/62/6 
f 13/62/6 12/63/6 17/61/6 
f 12/63/6 33/64/6 17/61/6 
f 12/63/6 45/65/6 33/64/6 
f 44/60/6 17/61/6 16/66/6 
f 16/66/6 42/67/6 44/60/6 
f 16/66/6 45/65/6 42/67/6 
f 45/65/6 12/63/6 42/67/6 
f 8/69/5 46/68/5 43/70/5 
f 43/70/5 10/71/5 8/69/5 
f 41/73/2 46/72/2 47/74/2 
f 46/72/2 41/73/2 40/75/2 
f 43/76/2 46/72/2 40/75/2 
f 43/76/2 40/75/2 44/77/2 
f 44/77/2 42/78/2 43/76/2 
f 17/80/5 16/79/5 45/81/5 
f 45/81/5 33/82/5 17/80/5 
f 49/16/1 48/83/1 50/84/1 
f 50/84/1 51/85/1 49/16/1 
f 53/38/3 52/86/3 54/87/3 
f 54/87/3 55/88/3 53/38/3 
f 57/2/1 56/1/1 58/85/1 
f 58/85/1 59/89/1 57/2/1 
f 61/27/3 60/25/3 62/90/3 
f 62/90/3 63/86/3 61/27/3 
f 65/92/4 64/91/4 34/93/4 
f 34/93/4 33/94/4 65/92/4 
f 55/95/4 65/92/4 33/94/4 
f 55/95/4 33/94/4 45/96/4 
f 53/97/4 55/95/4 45/96/4 
f 45/96/4 66/98/4 53/97/4 
f 57/100/2 67/99/2 68/101/2 
f 68/101/2 56/102/2 57/100/2 
f 9/104/7 47/103/7 46/105/7 
f 46/105/7 8/106/7 9/104/7 
f 68/108/4 67/107/4 60/109/4 
f 60/109/4 61/110/4 68/108/4 
f 54/112/6 69/111/6 65/113/6 
f 65/113/6 55/114/6 54/112/6 
f 71/116/4 70/115/4 36/46/4 
f 36/46/4 37/47/4 71/116/4 
f 72/118/2 64/117/2 65/119/2 
f 65/119/2 69/120/2 72/118/2 
f 72/122/5 73/121/5 39/123/5 
f 39/123/5 64/124/5 72/122/5 
f 39/123/5 34/82/5 64/124/5 
f 34/82/5 39/123/5 25/125/5 
f 35/126/5 34/82/5 25/125/5 
f 35/126/5 25/125/5 24/127/5 
f 74/128/5 35/126/5 24/127/5 
f 24/127/5 75/129/5 74/128/5 
f 58/102/2 51/130/2 50/131/2 
f 50/131/2 76/7/2 58/102/2 
f 50/131/2 77/132/2 76/7/2 
f 50/131/2 78/133/2 77/132/2 
f 58/102/2 76/7/2 79/5/2 
f 79/5/2 59/100/2 58/102/2 
f 81/134/4 80/98/4 77/135/4 
f 77/135/4 78/136/4 81/134/4 
f 63/110/4 62/109/4 82/44/4 
f 63/110/4 82/44/4 73/45/4 
f 63/110/4 73/45/4 69/92/4 
f 63/110/4 69/92/4 54/95/4 
f 54/95/4 52/97/4 63/110/4 
f 73/45/4 72/91/4 69/92/4 
f 58/138/5 49/137/5 51/139/5 
f 49/137/5 58/138/5 56/140/5 
f 56/140/5 68/141/5 49/137/5 
f 68/141/5 66/81/5 49/137/5 
f 68/141/5 53/142/5 66/81/5 
f 53/142/5 68/141/5 61/143/5 
f 53/142/5 61/143/5 63/144/5 
f 63/144/5 52/145/5 53/142/5 
f 83/147/1 75/146/1 24/30/1 
f 24/30/1 22/31/1 83/147/1 
f 19/148/2 84/135/2 85/136/2 
f 85/136/2 18/149/2 19/148/2 
f 14/79/5 3/150/5 1/151/5 
f 1/151/5 6/152/5 14/79/5 
f 6/152/5 80/153/5 14/79/5 
f 6/152/5 77/154/5 80/153/5 
f 6/152/5 76/155/5 77/154/5 
f 3/150/5 14/79/5 21/156/5 
f 21/156/5 86/157/5 3/150/5 
f 21/156/5 87/158/5 86/157/5 
f 87/85/3 21/32/3 15/159/3 
f 15/159/3 88/84/3 87/85/3 
f 74/146/1 89/160/1 32/161/1 
f 32/161/1 35/22/1 74/146/1 
f 91/162/4 90/116/4 30/93/4 
f 30/93/4 31/163/4 91/162/4 
f 6/108/4 5/107/4 79/164/4 
f 79/164/4 76/135/4 6/108/4 
f 19/166/5 28/165/5 26/167/5 
f 26/167/5 92/168/5 19/166/5 
f 92/168/5 84/169/5 19/166/5 
f 28/165/5 19/166/5 20/80/5 
f 20/80/5 37/170/5 28/165/5 
f 20/80/5 30/171/5 37/170/5 
f 30/171/5 71/172/5 37/170/5 
f 30/171/5 90/173/5 71/172/5 
f 27/6/2 93/164/2 92/135/2 
f 92/135/2 26/8/2 27/6/2 
f 81/175/6 78/174/6 50/176/6 
f 50/176/6 48/177/6 81/175/6 
f 94/89/3 4/40/3 3/42/3 
f 3/42/3 86/85/3 94/89/3 
f 87/23/1 88/17/1 85/20/1 
f 85/20/1 86/3/1 87/23/1 
f 85/20/1 94/4/1 86/3/1 
f 85/20/1 92/28/1 94/4/1 
f 85/20/1 84/21/1 92/28/1 
f 94/4/1 92/28/1 93/29/1 
f 82/178/2 38/99/2 39/101/2 
f 39/101/2 73/118/2 82/178/2 
f 2/151/5 95/179/5 96/180/5 
f 96/180/5 97/181/5 2/151/5 
f 97/181/5 5/152/5 2/151/5 
f 97/181/5 79/155/5 5/152/5 
f 97/181/5 57/140/5 79/155/5 
f 97/181/5 67/141/5 57/140/5 
f 97/181/5 60/143/5 67/141/5 
f 97/181/5 38/123/5 60/143/5 
f 97/181/5 23/125/5 38/123/5 
f 95/179/5 2/151/5 29/165/5 
f 29/165/5 98/182/5 95/179/5 
f 23/125/5 97/181/5 98/182/5 
f 2/151/5 4/150/5 29/165/5 
f 4/150/5 2/151/5 5/152/5 
f 4/150/5 27/167/5 29/165/5 
f 29/165/5 36/170/5 98/182/5 
f 5/152/5 79/155/5 36/170/5 
f 36/170/5 22/127/5 98/182/5 
f 22/127/5 23/125/5 98/182/5 
f 36/170/5 83/129/5 22/127/5 
f 60/143/5 38/123/5 82/121/5 
f 82/121/5 23/125/5 22/127/5 
f 82/121/5 38/123/5 23/125/5 
f 82/121/5 62/144/5 60/143/5 
f 62/144/5 22/127/5 83/129/5 
f 67/141/5 60/143/5 62/144/5 
f 22/127/5 62/144/5 82/121/5 
f 79/155/5 57/140/5 59/138/5 
f 59/138/5 57/140/5 67/141/5 
f 67/141/5 62/144/5 59/138/5 
f 62/144/5 83/129/5 59/138/5 
f 27/167/5 4/150/5 94/157/5 
f 94/157/5 93/168/5 27/167/5 
f 29/165/5 27/167/5 93/168/5 
f 93/168/5 36/170/5 29/165/5 
f 36/170/5 70/172/5 83/129/5 
f 59/138/5 83/129/5 70/172/5 
f 5/152/5 94/157/5 4/150/5 
f 5/152/5 93/168/5 94/157/5 
f 93/168/5 5/152/5 36/170/5 
f 70/172/5 79/155/5 59/138/5 
f 79/155/5 70/172/5 36/170/5 
f 97/184/4 99/183/4 100/185/4 
f 100/185/4 98/186/4 97/184/4 
f 100/188/3 101/187/3 95/189/3 
f 95/189/3 98/190/3 100/188/3 
f 103/192/5 102/191/5 104/193/5 
f 104/193/5 105/194/5 103/192/5 
f 104/193/5 106/180/5 105/194/5 
f 104/193/5 107/195/5 106/180/5 
f 107/195/5 99/181/5 106/180/5 
f 107/195/5 100/182/5 99/181/5 
f 105/194/5 106/180/5 101/179/5 
f 101/179/5 108/196/5 105/194/5 
f 101/179/5 100/182/5 108/196/5 
f 100/182/5 107/195/5 108/196/5 
f 107/195/5 109/197/5 108/196/5 
f 109/197/5 110/198/5 108/196/5 
f 71/43/3 90/33/3 91/35/3 
f 71/43/3 91/35/3 89/36/3 
f 71/43/3 89/36/3 74/39/3 
f 71/43/3 74/39/3 75/26/3 
f 71/43/3 75/26/3 83/24/3 
f 83/24/3 70/41/3 71/43/3 
f 106/187/1 96/189/1 95/199/1 
f 95/199/1 101/200/1 106/187/1 
f 106/183/2 99/201/2 97/202/2 
f 97/202/2 96/184/2 106/183/2 
f 112/204/6 111/203/6 113/205/6 
f 113/205/6 114/206/6 112/204/6 
f 113/205/6 115/207/6 114/206/6 
f 115/207/6 116/208/6 114/206/6 
f 115/207/6 117/209/6 116/208/6 
f 117/209/6 118/210/6 116/208/6 
f 91/212/6 31/211/6 32/213/6 
f 32/213/6 89/214/6 91/212/6 
f 15/216/6 18/215/6 85/217/6 
f 85/217/6 88/218/6 15/216/6 
f 112/220/8 114/219/8 104/221/8 
f 104/221/8 102/222/8 112/220/8 
f 111/224/9 103/223/9 105/225/9 
f 105/225/9 113/226/9 111/224/9 
f 110/228/10 117/227/10 115/229/10 
f 115/229/10 108/230/10 110/228/10 
f 112/232/1 102/231/1 103/233/1 
f 103/233/1 111/234/1 112/232/1 
f 116/236/11 118/235/11 109/237/11 
f 109/237/11 107/238/11 116/236/11 
f 109/240/4 118/239/4 117/241/4 
f 117/241/4 110/242/4 109/240/4 
f 108/244/3 115/243/3 113/245/3 
f 113/245/3 105/231/3 108/244/3 
f 7/247/12 41/246/12 47/248/12 
f 47/248/12 9/249/12 7/247/12 
f 49/130/2 66/117/2 45/250/2 
f 45/250/2 48/131/2 49/130/2 
f 45/250/2 81/133/2 48/131/2 
f 81/133/2 45/250/2 16/251/2 
f 81/133/2 16/251/2 14/148/2 
f 14/148/2 80/132/2 81/133/2 
f 104/240/2 114/252/2 116/253/2 
f 116/253/2 107/254/2 104/240/2 
