# Created by Kenney (www.kenney.nl) 

mtllib detailPlate.mtl 

g detailPlate

v -0.01734088 0 0.06471703 
v -0.0335 0 0.0580237 
v -0.02757199 0.0268 0.1029001 
v -0.053265 0.0268 0.09225769 
v 0.1029001 0.0268 0.02757199 
v 0.06471703 0 0.01734088 
v 0.09225769 0.0268 0.053265 
v 0.0580237 0 0.0335 
v 0.02757199 0.0268 -0.1029001 
v 4.836807E-15 0.0268 -0.10653 
v 0.01734088 0 -0.06471703 
v 0 0 -0.067 
v 0.01902124 0.0268 0.07098823 
v 4.836807E-15 0.0268 0.07349242 
v 0.01255402 0.0134 0.04685223 
v 2.902084E-15 0.0134 0.04850499 
v -0.0580237 0 0.0335 
v -0.06471703 0 0.01734088 
v -0.09225769 0.0268 0.053265 
v -0.1029001 0.0268 0.02757199 
v -0.02757199 0.0268 -0.1029001 
v -0.01734088 0 -0.06471703 
v 0.03674621 0.0268 0.0636463 
v 0.0242525 0.0134 0.04200656 
v 0.07532809 0.0268 0.07532809 
v 0.04737616 0 0.04737616 
v 0.053265 0.0268 0.09225769 
v 0.0335 0 0.0580237 
v -0.04737616 0 0.04737616 
v -0.07532809 0.0268 0.07532809 
v -0.067 0 3.023004E-17 
v -0.10653 0.0268 -3.325304E-16 
v 0.07532809 0.0268 -0.07532809 
v 0.053265 0.0268 -0.09225769 
v 0.04737616 0 -0.04737616 
v 0.0335 0 -0.0580237 
v -0.0580237 0 -0.0335 
v -0.09225769 0.0268 -0.053265 
v -0.06471703 0 -0.01734088 
v -0.1029001 0.0268 -0.02757199 
v 0.1029001 0.0268 -0.02757199 
v 0.09225769 0.0268 -0.053265 
v 0.06471703 0 -0.01734088 
v 0.0580237 0 -0.0335 
v 0.07098823 0.0268 0.01902124 
v 0.0636463 0.0268 0.03674621 
v 0.04685223 0.0134 0.01255402 
v 0.04200656 0.0134 0.0242525 
v 0.02757199 0.0268 0.1029001 
v 0.01734088 0 0.06471703 
v 4.836807E-15 0.0268 0.10653 
v 0 0 0.067 
v -0.0335 0 -0.0580237 
v -0.053265 0.0268 -0.09225769 
v -0.04737616 0 -0.04737616 
v -0.07532809 0.0268 -0.07532809 
v 0.10653 0.0268 -3.325304E-16 
v 0.067 0 3.023004E-17 
v 0.05196699 0.0268 -0.05196699 
v 0.03429822 0.0134 -0.03429822 
v 0.03674621 0.0268 -0.0636463 
v 0.0242525 0.0134 -0.04200656 
v 0.07349242 0.0268 -1.511502E-16 
v 0.04850499 0.0134 -3.325304E-16 
v 0.05196699 0.0268 0.05196699 
v 0.03429822 0.0134 0.03429822 
v -0.04685223 0.0134 -0.01255402 
v -0.04850499 0.0134 -3.325304E-16 
v -0.07098823 0.0268 -0.01902124 
v -0.07349242 0.0268 -2.418403E-16 
v 0.0636463 0.0268 -0.03674621 
v 0.04200656 0.0134 -0.0242525 
v 0.07098823 0.0268 -0.01902124 
v 0.04685223 0.0134 -0.01255402 
v -0.03429822 0.0134 -0.03429822 
v -0.04200656 0.0134 -0.0242525 
v -0.05196699 0.0268 -0.05196699 
v -0.0636463 0.0268 -0.03674621 
v -0.04685223 0.0134 0.01255402 
v -0.07098823 0.0268 0.01902124 
v 0.01902124 0.0268 -0.07098823 
v 0.01255402 0.0134 -0.04685223 
v 2.902084E-15 0.0268 -0.07349242 
v 2.902084E-15 0.0134 -0.04850499 
v -0.04200656 0.0134 0.0242525 
v -0.0636463 0.0268 0.03674621 
v -0.01902124 0.0268 -0.07098823 
v -0.01255402 0.0134 -0.04685223 
v -0.0242525 0.0134 -0.04200656 
v -0.03674621 0.0268 -0.0636463 
v -0.03429822 0.0134 0.03429822 
v -0.05196699 0.0268 0.05196699 
v -0.01902124 0.0268 0.07098823 
v -0.01255402 0.0134 0.04685223 
v -0.0242525 0.0134 0.04200656 
v -0.03674621 0.0268 0.0636463 

vn -0.1452385 -0.8277085 0.5420373 
vn -0.2805791 -0.8277085 0.4859774 
vn 0.5420373 -0.8277085 0.1452385 
vn 0.4859774 -0.8277085 0.2805791 
vn 0.1452385 -0.8277085 -0.5420373 
vn 0 -0.8277085 -0.5611582 
vn -0.1223183 0.8812761 -0.4564982 
vn 0 0.8812761 -0.4726017 
vn -0.4859774 -0.8277085 0.2805791 
vn -0.5420373 -0.8277085 0.1452385 
vn -0.1452385 -0.8277085 -0.5420373 
vn -0.2363009 0.8812761 -0.4092851 
vn 0.3967988 -0.8277085 0.3967988 
vn 0.2805791 -0.8277085 0.4859774 
vn -0.3967988 -0.8277085 0.3967988 
vn -0.5611582 -0.8277085 0 
vn 0.3967988 -0.8277085 -0.3967988 
vn 0.2805791 -0.8277085 -0.4859774 
vn -0.4859774 -0.8277085 -0.2805791 
vn -0.5420373 -0.8277085 -0.1452385 
vn 0.5420373 -0.8277085 -0.1452385 
vn 0.4859774 -0.8277085 -0.2805791 
vn -0.4564982 0.8812761 -0.1223183 
vn -0.4092851 0.8812761 -0.2363009 
vn 0.1452385 -0.8277085 0.5420373 
vn 0 -0.8277085 0.5611582 
vn -0.2805791 -0.8277085 -0.4859774 
vn -0.3967988 -0.8277085 -0.3967988 
vn 0.5611582 -0.8277085 0 
vn -0.3341799 0.8812761 0.3341799 
vn -0.2363009 0.8812761 0.4092851 
vn -0.4726017 0.8812761 0 
vn -0.3341799 0.8812761 -0.3341799 
vn 0.4564982 0.8812761 0.1223183 
vn 0.4726017 0.8812761 0 
vn -0.4092851 0.8812761 0.2363009 
vn -0.4564982 0.8812761 0.1223183 
vn 0.3341799 0.8812761 0.3341799 
vn 0.4092851 0.8812761 0.2363009 
vn 0.4564982 0.8812761 -0.1223183 
vn -0.1223183 0.8812761 0.4564982 
vn 0 0.8812761 0.4726017 
vn 0.4092851 0.8812761 -0.2363009 
vn 0.1223183 0.8812761 0.4564982 
vn 0.2363009 0.8812761 0.4092851 
vn 0.3341799 0.8812761 -0.3341799 
vn 0.1223183 0.8812761 -0.4564982 
vn 0.2363009 0.8812761 -0.4092851 
vn 0 1 0 
vn 0 -1 0 

vt 0.2569413 1.611018 
vt -0.2569413 1.611018 
vt 0.4085367 3.005977 
vt -0.4085367 3.005977 
vt -0.2818394 2.257593 
vt 0.2818394 2.257593 
vt -0.186014 1.430073 
vt 0.186014 1.430073 
vt -1.425109 -9.769963E-15 
vt -1.376549 0.3688453 
vt -1.376549 -0.3688453 
vt -1.23418 -0.7125543 
vt -1.23418 0.7125543 
vt -1.007704 -1.007704 
vt -1.007704 1.007704 
vt -0.7125543 -1.23418 
vt -0.7125543 1.23418 
vt -0.3688453 -1.376549 
vt -0.3688453 1.376549 
vt -8.526513E-14 -1.425109 
vt -8.526513E-14 1.425109 
vt 0.3688453 -1.376549 
vt 0.3688453 1.376549 
vt 0.7125543 -1.23418 
vt 0.7125543 1.23418 
vt 1.007704 1.007704 
vt 1.007704 -1.007704 
vt 1.23418 -0.7125543 
vt 1.23418 0.7125543 
vt 1.376549 -0.3688453 
vt 1.376549 0.3688453 
vt 1.425109 -9.769963E-15 
vt 1.968504 8.881784E-16 
vt 1.901429 -0.5094863 
vt 1.901429 0.5094863 
vt 1.704774 0.984252 
vt 1.704774 -0.984252 
vt 1.391943 1.391943 
vt 1.391943 -1.391943 
vt 0.984252 1.704774 
vt 0.984252 -1.704774 
vt 0.5094863 1.901429 
vt 0.5094863 -1.901429 
vt 0 1.968504 
vt 0 -1.968504 
vt -0.5094863 1.901429 
vt -0.5094863 -1.901429 
vt -0.984252 1.704774 
vt -0.984252 -1.704774 
vt -1.391943 1.391943 
vt -1.391943 -1.391943 
vt -1.704774 0.984252 
vt -1.704774 -0.984252 
vt -1.901429 0.5094863 
vt -1.901429 -0.5094863 
vt -1.968504 8.881784E-16 
vt -3.129921 -9.769963E-15 
vt -3.023272 0.8100832 
vt -3.023272 -0.8100832 
vt -2.710591 -1.564961 
vt -2.710591 1.564961 
vt -2.213189 -2.213189 
vt -2.213189 2.213189 
vt -2.159256 -4.440892E-15 
vt -2.085681 -0.5588564 
vt -1.564961 -2.710591 
vt -1.86997 -1.079628 
vt -1.526824 -1.526824 
vt -0.8100832 -3.023272 
vt -1.079628 -1.86997 
vt -0.5588564 -2.085681 
vt -1.421085E-13 -3.129921 
vt -8.526513E-14 -2.159256 
vt 0.8100832 -3.023272 
vt 0.5588564 -2.085681 
vt 1.079628 -1.86997 
vt 1.564961 -2.710591 
vt 1.526824 -1.526824 
vt 1.86997 -1.079628 
vt 2.213189 -2.213189 
vt 2.085681 -0.5588564 
vt 2.159256 -7.105427E-15 
vt 2.213189 2.213189 
vt 2.085681 0.5588564 
vt 1.86997 1.079628 
vt 1.564961 2.710591 
vt 1.526824 1.526824 
vt 1.079628 1.86997 
vt 0.8100832 3.023272 
vt 0.5588564 2.085681 
vt -1.421085E-13 3.129921 
vt -1.421085E-13 2.159256 
vt -0.5588564 2.085681 
vt -0.8100832 3.023272 
vt -1.079628 1.86997 
vt -1.526824 1.526824 
vt -1.564961 2.710591 
vt -1.86997 1.079628 
vt -2.085681 0.5588564 
vt 2.710591 -1.564961 
vt 2.710591 1.564961 
vt 3.023272 -0.8100832 
vt 3.023272 0.8100832 
vt 3.129921 -9.769963E-15 

usemtl gold

f 2/2/2 1/1/1 3/3/1 
f 3/3/1 4/4/2 2/2/2 
f 6/1/3 5/3/3 7/4/4 
f 7/4/4 8/2/4 6/1/3 
f 10/3/6 9/4/5 11/2/5 
f 11/2/5 12/1/6 10/3/6 
f 14/6/8 13/5/7 15/7/7 
f 15/7/7 16/8/8 14/6/8 
f 18/2/10 17/1/9 19/3/9 
f 19/3/9 20/4/10 18/2/10 
f 21/3/11 10/4/6 12/2/6 
f 12/2/6 22/1/11 21/3/11 
f 13/6/7 23/5/12 24/7/12 
f 24/7/12 15/8/7 13/6/7 
f 26/1/13 25/3/13 27/4/14 
f 27/4/14 28/2/14 26/1/13 
f 17/2/9 29/1/15 30/3/15 
f 30/3/15 19/4/9 17/2/9 
f 31/2/16 18/1/10 20/3/10 
f 20/3/10 32/4/16 31/2/16 
f 29/2/15 2/1/2 4/3/2 
f 4/3/2 30/4/15 29/2/15 
f 34/3/18 33/4/17 35/2/17 
f 35/2/17 36/1/18 34/3/18 
f 38/4/19 37/2/19 39/1/20 
f 39/1/20 40/3/20 38/4/19 
f 42/3/22 41/4/21 43/2/21 
f 43/2/21 44/1/22 42/3/22 
f 9/3/5 34/4/18 36/2/18 
f 36/2/18 11/1/5 9/3/5 
f 46/6/24 45/5/23 47/7/23 
f 47/7/23 48/8/24 46/6/24 
f 50/1/25 49/3/25 51/4/26 
f 51/4/26 52/2/26 50/1/25 
f 54/4/27 53/2/27 55/1/28 
f 55/1/28 56/3/28 54/4/27 
f 28/1/14 27/3/14 49/4/25 
f 49/4/25 50/2/25 28/1/14 
f 52/1/26 51/3/26 3/4/1 
f 3/4/1 1/2/1 52/1/26 
f 33/3/17 42/4/22 44/2/22 
f 44/2/22 35/1/17 33/3/17 
f 58/1/29 57/3/29 5/4/3 
f 5/4/3 6/2/3 58/1/29 
f 21/4/11 22/2/11 53/1/27 
f 53/1/27 54/3/27 21/4/11 
f 60/8/30 59/6/30 61/5/31 
f 61/5/31 62/7/31 60/8/30 
f 45/6/23 63/5/32 64/7/32 
f 64/7/32 47/8/23 45/6/23 
f 65/6/33 46/5/24 48/7/24 
f 48/7/24 66/8/33 65/6/33 
f 68/7/35 67/8/34 69/6/34 
f 69/6/34 70/5/35 68/7/35 
f 23/6/12 65/5/33 66/7/33 
f 66/7/33 24/8/12 23/6/12 
f 72/8/36 71/6/36 59/5/30 
f 59/5/30 60/7/30 72/8/36 
f 64/8/32 63/6/32 73/5/37 
f 73/5/37 74/7/37 64/8/32 
f 76/7/39 75/8/38 77/6/38 
f 77/6/38 78/5/39 76/7/39 
f 80/5/40 79/7/40 68/8/35 
f 68/8/35 70/6/35 80/5/40 
f 82/8/41 81/6/41 83/5/42 
f 83/5/42 84/7/42 82/8/41 
f 86/5/43 85/7/43 79/8/40 
f 79/8/40 80/6/40 86/5/43 
f 84/8/42 83/6/42 87/5/44 
f 87/5/44 88/7/44 84/8/42 
f 67/7/34 76/8/39 78/6/39 
f 78/6/39 69/5/34 67/7/34 
f 75/7/38 89/8/45 90/6/45 
f 90/6/45 77/5/38 75/7/38 
f 92/5/46 91/7/46 85/8/43 
f 85/8/43 86/6/43 92/5/46 
f 74/8/37 73/6/37 71/5/36 
f 71/5/36 72/7/36 74/8/37 
f 89/7/45 88/8/44 87/6/44 
f 87/6/44 90/5/45 89/7/45 
f 93/6/47 14/5/8 16/7/8 
f 16/7/8 94/8/47 93/6/47 
f 96/5/48 95/7/48 91/8/46 
f 91/8/46 92/6/46 96/5/48 
f 93/5/47 94/7/47 95/8/48 
f 95/8/48 96/6/48 93/5/47 
f 62/8/31 61/6/31 81/5/41 
f 81/5/41 82/7/41 62/8/31 
f 47/10/49 64/9/49 74/11/49 
f 74/11/49 72/12/49 47/10/49 
f 72/12/49 48/13/49 47/10/49 
f 72/12/49 60/14/49 48/13/49 
f 60/14/49 66/15/49 48/13/49 
f 60/14/49 62/16/49 66/15/49 
f 62/16/49 24/17/49 66/15/49 
f 62/16/49 82/18/49 24/17/49 
f 82/18/49 15/19/49 24/17/49 
f 82/18/49 84/20/49 15/19/49 
f 84/20/49 16/21/49 15/19/49 
f 84/20/49 88/22/49 16/21/49 
f 88/22/49 94/23/49 16/21/49 
f 88/22/49 89/24/49 94/23/49 
f 89/24/49 95/25/49 94/23/49 
f 89/24/49 91/26/49 95/25/49 
f 89/24/49 75/27/49 91/26/49 
f 75/27/49 76/28/49 91/26/49 
f 76/28/49 85/29/49 91/26/49 
f 76/28/49 67/30/49 85/29/49 
f 67/30/49 79/31/49 85/29/49 
f 67/30/49 68/32/49 79/31/49 
f 43/34/50 58/33/50 6/35/50 
f 6/35/50 8/36/50 43/34/50 
f 8/36/50 44/37/50 43/34/50 
f 8/36/50 26/38/50 44/37/50 
f 26/38/50 35/39/50 44/37/50 
f 26/38/50 28/40/50 35/39/50 
f 28/40/50 36/41/50 35/39/50 
f 28/40/50 50/42/50 36/41/50 
f 50/42/50 11/43/50 36/41/50 
f 50/42/50 52/44/50 11/43/50 
f 52/44/50 12/45/50 11/43/50 
f 52/44/50 1/46/50 12/45/50 
f 1/46/50 22/47/50 12/45/50 
f 1/46/50 2/48/50 22/47/50 
f 2/48/50 53/49/50 22/47/50 
f 2/48/50 29/50/50 53/49/50 
f 29/50/50 55/51/50 53/49/50 
f 29/50/50 17/52/50 55/51/50 
f 17/52/50 37/53/50 55/51/50 
f 17/52/50 18/54/50 37/53/50 
f 18/54/50 39/55/50 37/53/50 
f 18/54/50 31/56/50 39/55/50 
f 5/58/49 57/57/49 41/59/49 
f 41/59/49 42/60/49 5/58/49 
f 42/60/49 7/61/49 5/58/49 
f 42/60/49 33/62/49 7/61/49 
f 33/62/49 25/63/49 7/61/49 
f 33/62/49 63/64/49 25/63/49 
f 33/62/49 73/65/49 63/64/49 
f 33/62/49 34/66/49 73/65/49 
f 34/66/49 71/67/49 73/65/49 
f 34/66/49 59/68/49 71/67/49 
f 34/66/49 9/69/49 59/68/49 
f 9/69/49 61/70/49 59/68/49 
f 9/69/49 81/71/49 61/70/49 
f 9/69/49 10/72/49 81/71/49 
f 10/72/49 83/73/49 81/71/49 
f 10/72/49 21/74/49 83/73/49 
f 21/74/49 87/75/49 83/73/49 
f 21/74/49 90/76/49 87/75/49 
f 21/74/49 54/77/49 90/76/49 
f 54/77/49 77/78/49 90/76/49 
f 54/77/49 78/79/49 77/78/49 
f 54/77/49 56/80/49 78/79/49 
f 56/80/49 69/81/49 78/79/49 
f 56/80/49 70/82/49 69/81/49 
f 70/82/49 56/80/49 30/83/49 
f 80/84/49 70/82/49 30/83/49 
f 86/85/49 80/84/49 30/83/49 
f 86/85/49 30/83/49 4/86/49 
f 92/87/49 86/85/49 4/86/49 
f 96/88/49 92/87/49 4/86/49 
f 96/88/49 4/86/49 3/89/49 
f 93/90/49 96/88/49 3/89/49 
f 93/90/49 3/89/49 51/91/49 
f 14/92/49 93/90/49 51/91/49 
f 13/93/49 14/92/49 51/91/49 
f 13/93/49 51/91/49 49/94/49 
f 23/95/49 13/93/49 49/94/49 
f 65/96/49 23/95/49 49/94/49 
f 65/96/49 49/94/49 27/97/49 
f 46/98/49 65/96/49 27/97/49 
f 45/99/49 46/98/49 27/97/49 
f 45/99/49 27/97/49 25/63/49 
f 25/63/49 63/64/49 45/99/49 
f 56/80/49 38/100/49 30/83/49 
f 38/100/49 19/101/49 30/83/49 
f 38/100/49 40/102/49 19/101/49 
f 40/102/49 20/103/49 19/101/49 
f 40/102/49 32/104/49 20/103/49 
f 56/4/28 55/2/28 37/1/19 
f 37/1/19 38/3/19 56/4/28 
f 40/4/20 39/2/20 31/1/16 
f 31/1/16 32/3/16 40/4/20 
f 41/3/21 57/4/29 58/2/29 
f 58/2/29 43/1/21 41/3/21 
f 8/1/4 7/3/4 25/4/13 
f 25/4/13 26/2/13 8/1/4 
g detailPlate




usemtl gold

f 2/2/2 1/1/1 3/3/1 
f 3/3/1 4/4/2 2/2/2 
f 6/1/3 5/3/3 7/4/4 
f 7/4/4 8/2/4 6/1/3 
f 10/3/6 9/4/5 11/2/5 
f 11/2/5 12/1/6 10/3/6 
f 14/6/8 13/5/7 15/7/7 
f 15/7/7 16/8/8 14/6/8 
f 18/2/10 17/1/9 19/3/9 
f 19/3/9 20/4/10 18/2/10 
f 21/3/11 10/4/6 12/2/6 
f 12/2/6 22/1/11 21/3/11 
f 13/6/7 23/5/12 24/7/12 
f 24/7/12 15/8/7 13/6/7 
f 26/1/13 25/3/13 27/4/14 
f 27/4/14 28/2/14 26/1/13 
f 17/2/9 29/1/15 30/3/15 
f 30/3/15 19/4/9 17/2/9 
f 31/2/16 18/1/10 20/3/10 
f 20/3/10 32/4/16 31/2/16 
f 29/2/15 2/1/2 4/3/2 
f 4/3/2 30/4/15 29/2/15 
f 34/3/18 33/4/17 35/2/17 
f 35/2/17 36/1/18 34/3/18 
f 38/4/19 37/2/19 39/1/20 
f 39/1/20 40/3/20 38/4/19 
f 42/3/22 41/4/21 43/2/21 
f 43/2/21 44/1/22 42/3/22 
f 9/3/5 34/4/18 36/2/18 
f 36/2/18 11/1/5 9/3/5 
f 46/6/24 45/5/23 47/7/23 
f 47/7/23 48/8/24 46/6/24 
f 50/1/25 49/3/25 51/4/26 
f 51/4/26 52/2/26 50/1/25 
f 54/4/27 53/2/27 55/1/28 
f 55/1/28 56/3/28 54/4/27 
f 28/1/14 27/3/14 49/4/25 
f 49/4/25 50/2/25 28/1/14 
f 52/1/26 51/3/26 3/4/1 
f 3/4/1 1/2/1 52/1/26 
f 33/3/17 42/4/22 44/2/22 
f 44/2/22 35/1/17 33/3/17 
f 58/1/29 57/3/29 5/4/3 
f 5/4/3 6/2/3 58/1/29 
f 21/4/11 22/2/11 53/1/27 
f 53/1/27 54/3/27 21/4/11 
f 60/8/30 59/6/30 61/5/31 
f 61/5/31 62/7/31 60/8/30 
f 45/6/23 63/5/32 64/7/32 
f 64/7/32 47/8/23 45/6/23 
f 65/6/33 46/5/24 48/7/24 
f 48/7/24 66/8/33 65/6/33 
f 68/7/35 67/8/34 69/6/34 
f 69/6/34 70/5/35 68/7/35 
f 23/6/12 65/5/33 66/7/33 
f 66/7/33 24/8/12 23/6/12 
f 72/8/36 71/6/36 59/5/30 
f 59/5/30 60/7/30 72/8/36 
f 64/8/32 63/6/32 73/5/37 
f 73/5/37 74/7/37 64/8/32 
f 76/7/39 75/8/38 77/6/38 
f 77/6/38 78/5/39 76/7/39 
f 80/5/40 79/7/40 68/8/35 
f 68/8/35 70/6/35 80/5/40 
f 82/8/41 81/6/41 83/5/42 
f 83/5/42 84/7/42 82/8/41 
f 86/5/43 85/7/43 79/8/40 
f 79/8/40 80/6/40 86/5/43 
f 84/8/42 83/6/42 87/5/44 
f 87/5/44 88/7/44 84/8/42 
f 67/7/34 76/8/39 78/6/39 
f 78/6/39 69/5/34 67/7/34 
f 75/7/38 89/8/45 90/6/45 
f 90/6/45 77/5/38 75/7/38 
f 92/5/46 91/7/46 85/8/43 
f 85/8/43 86/6/43 92/5/46 
f 74/8/37 73/6/37 71/5/36 
f 71/5/36 72/7/36 74/8/37 
f 89/7/45 88/8/44 87/6/44 
f 87/6/44 90/5/45 89/7/45 
f 93/6/47 14/5/8 16/7/8 
f 16/7/8 94/8/47 93/6/47 
f 96/5/48 95/7/48 91/8/46 
f 91/8/46 92/6/46 96/5/48 
f 93/5/47 94/7/47 95/8/48 
f 95/8/48 96/6/48 93/5/47 
f 62/8/31 61/6/31 81/5/41 
f 81/5/41 82/7/41 62/8/31 
f 47/10/49 64/9/49 74/11/49 
f 74/11/49 72/12/49 47/10/49 
f 72/12/49 48/13/49 47/10/49 
f 72/12/49 60/14/49 48/13/49 
f 60/14/49 66/15/49 48/13/49 
f 60/14/49 62/16/49 66/15/49 
f 62/16/49 24/17/49 66/15/49 
f 62/16/49 82/18/49 24/17/49 
f 82/18/49 15/19/49 24/17/49 
f 82/18/49 84/20/49 15/19/49 
f 84/20/49 16/21/49 15/19/49 
f 84/20/49 88/22/49 16/21/49 
f 88/22/49 94/23/49 16/21/49 
f 88/22/49 89/24/49 94/23/49 
f 89/24/49 95/25/49 94/23/49 
f 89/24/49 91/26/49 95/25/49 
f 89/24/49 75/27/49 91/26/49 
f 75/27/49 76/28/49 91/26/49 
f 76/28/49 85/29/49 91/26/49 
f 76/28/49 67/30/49 85/29/49 
f 67/30/49 79/31/49 85/29/49 
f 67/30/49 68/32/49 79/31/49 
f 43/34/50 58/33/50 6/35/50 
f 6/35/50 8/36/50 43/34/50 
f 8/36/50 44/37/50 43/34/50 
f 8/36/50 26/38/50 44/37/50 
f 26/38/50 35/39/50 44/37/50 
f 26/38/50 28/40/50 35/39/50 
f 28/40/50 36/41/50 35/39/50 
f 28/40/50 50/42/50 36/41/50 
f 50/42/50 11/43/50 36/41/50 
f 50/42/50 52/44/50 11/43/50 
f 52/44/50 12/45/50 11/43/50 
f 52/44/50 1/46/50 12/45/50 
f 1/46/50 22/47/50 12/45/50 
f 1/46/50 2/48/50 22/47/50 
f 2/48/50 53/49/50 22/47/50 
f 2/48/50 29/50/50 53/49/50 
f 29/50/50 55/51/50 53/49/50 
f 29/50/50 17/52/50 55/51/50 
f 17/52/50 37/53/50 55/51/50 
f 17/52/50 18/54/50 37/53/50 
f 18/54/50 39/55/50 37/53/50 
f 18/54/50 31/56/50 39/55/50 
f 5/58/49 57/57/49 41/59/49 
f 41/59/49 42/60/49 5/58/49 
f 42/60/49 7/61/49 5/58/49 
f 42/60/49 33/62/49 7/61/49 
f 33/62/49 25/63/49 7/61/49 
f 33/62/49 63/64/49 25/63/49 
f 33/62/49 73/65/49 63/64/49 
f 33/62/49 34/66/49 73/65/49 
f 34/66/49 71/67/49 73/65/49 
f 34/66/49 59/68/49 71/67/49 
f 34/66/49 9/69/49 59/68/49 
f 9/69/49 61/70/49 59/68/49 
f 9/69/49 81/71/49 61/70/49 
f 9/69/49 10/72/49 81/71/49 
f 10/72/49 83/73/49 81/71/49 
f 10/72/49 21/74/49 83/73/49 
f 21/74/49 87/75/49 83/73/49 
f 21/74/49 90/76/49 87/75/49 
f 21/74/49 54/77/49 90/76/49 
f 54/77/49 77/78/49 90/76/49 
f 54/77/49 78/79/49 77/78/49 
f 54/77/49 56/80/49 78/79/49 
f 56/80/49 69/81/49 78/79/49 
f 56/80/49 70/82/49 69/81/49 
f 70/82/49 56/80/49 30/83/49 
f 80/84/49 70/82/49 30/83/49 
f 86/85/49 80/84/49 30/83/49 
f 86/85/49 30/83/49 4/86/49 
f 92/87/49 86/85/49 4/86/49 
f 96/88/49 92/87/49 4/86/49 
f 96/88/49 4/86/49 3/89/49 
f 93/90/49 96/88/49 3/89/49 
f 93/90/49 3/89/49 51/91/49 
f 14/92/49 93/90/49 51/91/49 
f 13/93/49 14/92/49 51/91/49 
f 13/93/49 51/91/49 49/94/49 
f 23/95/49 13/93/49 49/94/49 
f 65/96/49 23/95/49 49/94/49 
f 65/96/49 49/94/49 27/97/49 
f 46/98/49 65/96/49 27/97/49 
f 45/99/49 46/98/49 27/97/49 
f 45/99/49 27/97/49 25/63/49 
f 25/63/49 63/64/49 45/99/49 
f 56/80/49 38/100/49 30/83/49 
f 38/100/49 19/101/49 30/83/49 
f 38/100/49 40/102/49 19/101/49 
f 40/102/49 20/103/49 19/101/49 
f 40/102/49 32/104/49 20/103/49 
f 56/4/28 55/2/28 37/1/19 
f 37/1/19 38/3/19 56/4/28 
f 40/4/20 39/2/20 31/1/16 
f 31/1/16 32/3/16 40/4/20 
f 41/3/21 57/4/29 58/2/29 
f 58/2/29 43/1/21 41/3/21 
f 8/1/4 7/3/4 25/4/13 
f 25/4/13 26/2/13 8/1/4 
