# Created by Kenney (www.kenney.nl) 

mtllib fenceBroken.mtl 

g fenceBroken

v 0.5 -2.003707E-32 -0.46128 
v 0.3333333 -2.003707E-32 -0.46128 
v 0.5 0.19 -0.46128 
v 0.3333333 0.19 -0.46128 
v -0.1666667 -2.003707E-32 -0.46128 
v -0.3333333 -2.003707E-32 -0.46128 
v -0.1666667 0.19 -0.46128 
v -0.3333333 0.19 -0.46128 
v 0.3333333 0.316844 -0.47096 
v 0.3333333 0.316844 -0.46128 
v 0.1666667 0.316844 -0.47096 
v 0.145 0.316844 -0.44128 
v 0.5 0.316844 -0.44128 
v 0.5 0.316844 -0.46128 
v 0.145 0.316844 -0.52 
v 0.1666667 0.316844 -0.49032 
v 0.3333333 0.316844 -0.49032 
v 0.3333333 0.316844 -0.5 
v 0.5 0.316844 -0.5 
v 0.5 0.316844 -0.52 
v 0.1666667 0.4477 -0.49032 
v 0.1666667 0.4477 -0.47096 
v 0.3333333 0.4477 -0.47096 
v 0.3333333 0.4477 -0.46128 
v 0.3333333 -2.003707E-32 -0.47096 
v 0.3333333 0.19 -0.47096 
v 0.3333333 -2.003707E-32 -0.5 
v 0.5 0 -0.5 
v 0.3333333 0.19 -0.5 
v 0.5 0.19 -0.5 
v 0.3333333 0.4477 -0.5 
v 0.5 0.4477 -0.5 
v 0.4166667 0.4961 -0.5 
v 0.1666667 -2.003707E-32 -0.47096 
v 0.1666667 0.19 -0.47096 
v 0.5 0.4477 -0.46128 
v 0.4166667 0.4961 -0.46128 
v -0.5 -2.003707E-32 -0.49032 
v -0.3333333 -2.003707E-32 -0.49032 
v -0.5 0.19 -0.49032 
v -0.3333333 0.19 -0.49032 
v 0.3333333 -2.003707E-32 -0.49032 
v 0.3333333 0.19 -0.49032 
v -0.1666667 0.19 -0.5 
v -0.1666667 -2.003707E-32 -0.5 
v 0.3333333 0.4477 -0.49032 
v -0.3333333 -2.003707E-32 -0.5 
v -0.3333333 0.19 -0.5 
v 0.25 0.4961 -0.47096 
v 0.1666667 -2.003707E-32 -0.49032 
v 0.1666667 0.19 -0.49032 
v 0.25 0.4961 -0.49032 
v -0.5 0.316844 -0.49032 
v -0.3333333 0.316844 -0.49032 
v -0.5 0.4477 -0.49032 
v -0.3333333 0.4477 -0.49032 
v -0.4166667 0.4961 -0.49032 
v -0.3333333 -2.003707E-32 -0.47096 
v -0.5 -2.003707E-32 -0.47096 
v -0.3333333 0.19 -0.47096 
v -0.5 0.19 -0.47096 
v -0.3333333 0.316844 -0.47096 
v -0.5 0.316844 -0.47096 
v -0.3333333 0.4477 -0.47096 
v -0.5 0.4477 -0.47096 
v -0.4166667 0.4961 -0.47096 
v -0.3333333 0.316844 -0.46128 
v -0.3333333 0.4477 -0.46128 
v 0.5 0.19 -0.44128 
v 0.5 0.19 -0.52 
v -0.1666667 0.4477 -0.5 
v -0.1666667 0.4477 -0.46128 
v -0.25 0.4961 -0.5 
v -0.25 0.4961 -0.46128 
v -0.5 0.19 -0.44128 
v -0.5 0.316844 -0.44128 
v -0.145 0.19 -0.44128 
v -0.145 0.316844 -0.44128 
v -0.3333333 0.316844 -0.5 
v -0.3333333 0.4477 -0.5 
v -0.1666667 0.316844 -0.46128 
v 0.145 0.19 -0.52 
v -0.5 0.316844 -0.52 
v -0.5 0.19 -0.52 
v -0.1666667 0.316844 -0.5 
v -0.145 0.316844 -0.52 
v 0.145 0.19 -0.44128 
v -0.145 0.19 -0.52 
v -0.1105652 0.03872 -0.5 
v -0.1867482 0.03872 -0.3517639 
v -0.1105652 2.586473E-14 -0.5 
v -0.1867482 1.527237E-13 -0.3517639 
v 0.2925828 2.833615E-13 -0.1991157 
v 0.2114435 3.278549E-13 -0.1471212 
v 0.2925828 0.03872 -0.1991157 
v 0.2114435 0.03872 -0.1471212 
v 0.2876265 0.03872 -0.2953573 
v 0.2876265 2.009959E-13 -0.2953573 

vn 0 0 1 
vn 0 1 0 
vn -1 0 0 
vn 0 0 -1 
vn 1 0 0 
vn 0.5022357 0.8647308 0 
vn -0.5022357 0.8647308 0 
vn 0 -1 0 
vn -0.8894164 0 -0.4570979 
vn 0.5395349 0 0.8419633 
vn -0.4570979 0 0.8894164 
vn 0.9986766 0 -0.05142993 
vn 0.4570979 0 -0.8894164 

vt 19.68504 -7.888609E-31 
vt 13.12336 -7.888609E-31 
vt 19.68504 7.480315 
vt 13.12336 7.480315 
vt -6.56168 -1.725048E-14 
vt -13.12336 -1.725048E-14 
vt -6.56168 7.480315 
vt -13.12336 7.480315 
vt -13.12336 -18.54173 
vt -13.12336 -18.16063 
vt -6.56168 -18.54173 
vt -5.708662 -17.37323 
vt -19.68504 -17.37323 
vt -19.68504 -18.16063 
vt -5.708662 -20.47244 
vt -6.56168 -19.30394 
vt -13.12336 -19.30394 
vt -13.12336 -19.68504 
vt -19.68504 -19.68504 
vt -19.68504 -20.47244 
vt -19.30394 12.47417 
vt -19.30394 17.62598 
vt -18.54173 12.47417 
vt -18.54173 17.62598 
vt -18.16063 12.47417 
vt -18.16063 17.62598 
vt -18.54173 -7.888609E-31 
vt -18.54173 7.480315 
vt -18.16063 -7.888609E-31 
vt -18.16063 7.480315 
vt -13.12336 -7.888609E-31 
vt -19.68504 0 
vt -19.68504 7.480315 
vt -13.12336 12.47417 
vt -19.68504 12.47417 
vt -13.12336 17.62598 
vt -19.68504 17.62598 
vt -16.4042 19.5315 
vt 6.56168 -7.888609E-31 
vt 6.56168 7.480315 
vt 19.68504 12.47417 
vt 13.12336 12.47417 
vt 19.68504 17.62598 
vt 13.12336 17.62598 
vt 16.4042 19.5315 
vt -19.68504 -7.888609E-31 
vt -19.30394 -7.888609E-31 
vt -19.30394 7.480315 
vt 19.68504 -2.251636E-29 
vt 18.16063 7.480315 
vt 18.16063 -2.251636E-29 
vt 6.56168 12.47417 
vt 6.56168 17.62598 
vt 9.84252 19.5315 
vt -19.30394 -8.310441E-15 
vt -18.54173 -8.310441E-15 
vt -6.56168 -7.888609E-31 
vt -6.56168 12.47417 
vt -6.56168 17.62598 
vt -9.84252 19.5315 
vt 18.16063 12.47417 
vt 17.37323 12.47417 
vt 17.37323 7.480315 
vt 18.16063 -7.888609E-31 
vt 18.16063 17.62598 
vt 19.68504 0 
vt 20.47244 7.480315 
vt 20.47244 12.47417 
vt 19.30394 20.20057 
vt 18.54173 20.20057 
vt 19.30394 23.99463 
vt 18.54173 23.99463 
vt 19.68504 14.52648 
vt 18.16063 14.52648 
vt 19.68504 18.32054 
vt 18.16063 18.32054 
vt -5.708662 7.480315 
vt -5.708662 12.47417 
vt -19.30394 18.32054 
vt -18.54173 18.32054 
vt -19.30394 14.52648 
vt -18.54173 14.52648 
vt 19.68504 -8.169862 
vt 18.16063 -8.169862 
vt 19.68504 -4.375803 
vt 18.16063 -4.375803 
vt -19.30394 -4.375803 
vt -18.54173 -4.375803 
vt -19.30394 -8.169862 
vt -18.54173 -8.169862 
vt -19.68504 23.99463 
vt -18.16063 23.99463 
vt -19.68504 20.20057 
vt -18.16063 20.20057 
vt -19.30394 20.20057 
vt -18.54173 20.20057 
vt 19.30394 -2.495776 
vt 18.54173 -2.495776 
vt 19.30394 1.298284 
vt 18.54173 1.298284 
vt -17.37323 7.480315 
vt -17.37323 12.47417 
vt -20.47244 12.47417 
vt -20.47244 7.480315 
vt -6.56168 -18.16063 
vt -6.56168 -19.68504 
vt -19.68504 -18.54173 
vt -19.68504 -19.30394 
vt -19.68504 1.298284 
vt -18.16063 1.298284 
vt -19.68504 -2.495776 
vt -19.30394 -2.495776 
vt -18.54173 -2.495776 
vt -18.16063 -2.495776 
vt 13.12336 -18.54173 
vt 13.12336 -19.30394 
vt 6.56168 -18.54173 
vt 6.56168 -19.30394 
vt 13.12336 -19.68504 
vt 13.12336 -18.16063 
vt 19.68504 -19.68504 
vt 19.68504 -18.16063 
vt 5.708662 -17.37323 
vt 6.56168 -19.68504 
vt 5.708662 -20.47244 
vt 19.68504 -20.47244 
vt 19.68504 -19.30394 
vt 6.56168 -18.16063 
vt 19.68504 -17.37323 
vt 19.68504 -18.54173 
vt 5.708662 7.480315 
vt 5.708662 12.47417 
vt -15.51847 1.524409 
vt -8.956787 1.524409 
vt -15.51847 6.049476E-12 
vt -8.956787 1.104393E-11 
vt 13.9281 1.143368E-11 
vt 10.13404 1.318539E-11 
vt 13.9281 1.524409 
vt 10.13404 1.524409 
vt -11.51901 -7.8392 
vt -8.324548 -5.792173 
vt -11.32388 -11.62824 
vt 4.352961 -19.68504 
vt 7.352291 -13.84897 
vt 11.51901 -7.8392 
vt 11.32388 -11.62824 
vt 8.324548 -5.792173 
vt -4.352961 -19.68504 
vt -7.352291 -13.84897 
vt -12.86959 1.283028E-11 
vt -12.86959 1.524409 
vt 4.756399 1.972521E-11 
vt 4.756399 1.524409 
vt 11.03046 1.524409 
vt 11.03046 8.437818E-12 
vt 7.236404 1.524409 
vt 7.236404 1.168056E-11 
vt 12.86959 1.282343E-11 
vt -4.756399 1.971835E-11 
vt 12.86959 1.524409 
vt -4.756399 1.524409 

usemtl wood

f 2/2/1 1/1/1 3/3/1 
f 3/3/1 4/4/1 2/2/1 
f 6/6/1 5/5/1 7/7/1 
f 7/7/1 8/8/1 6/6/1 
f 10/10/2 9/9/2 11/11/2 
f 10/10/2 11/11/2 12/12/2 
f 10/10/2 12/12/2 13/13/2 
f 13/13/2 14/14/2 10/10/2 
f 11/11/2 15/15/2 12/12/2 
f 15/15/2 11/11/2 16/16/2 
f 15/15/2 16/16/2 17/17/2 
f 15/15/2 17/17/2 18/18/2 
f 15/15/2 18/18/2 19/19/2 
f 19/19/2 20/20/2 15/15/2 
f 21/22/3 16/21/3 11/23/3 
f 11/23/3 22/24/3 21/22/3 
f 23/24/3 9/23/3 10/25/3 
f 10/25/3 24/26/3 23/24/3 
f 26/28/3 25/27/3 2/29/3 
f 2/29/3 4/30/3 26/28/3 
f 28/32/4 27/31/4 29/8/4 
f 29/8/4 30/33/4 28/32/4 
f 19/35/4 18/34/4 31/36/4 
f 31/36/4 32/37/4 19/35/4 
f 31/36/4 33/38/4 32/37/4 
f 34/39/1 25/2/1 26/4/1 
f 26/4/1 35/40/1 34/39/1 
f 10/42/1 14/41/1 36/43/1 
f 36/43/1 24/44/1 10/42/1 
f 36/43/1 37/45/1 24/44/1 
f 39/2/4 38/1/4 40/3/4 
f 40/3/4 41/4/4 39/2/4 
f 29/33/3 27/46/3 42/47/3 
f 42/47/3 43/48/3 29/33/3 
f 45/49/5 44/3/5 7/50/5 
f 7/50/5 5/51/5 45/49/5 
f 31/37/3 18/35/3 17/21/3 
f 17/21/3 46/22/3 31/37/3 
f 48/33/3 47/46/3 39/47/3 
f 39/47/3 41/48/3 48/33/3 
f 45/39/4 47/2/4 48/4/4 
f 48/4/4 44/40/4 45/39/4 
f 11/52/1 9/42/1 23/44/1 
f 23/44/1 22/53/1 11/52/1 
f 23/44/1 49/54/1 22/53/1 
f 51/48/3 50/55/3 34/56/3 
f 34/56/3 35/28/3 51/48/3 
f 42/31/4 50/57/4 51/7/4 
f 51/7/4 43/8/4 42/31/4 
f 17/34/4 16/58/4 21/59/4 
f 21/59/4 46/36/4 17/34/4 
f 21/59/4 52/60/4 46/36/4 
f 54/42/4 53/41/4 55/43/4 
f 55/43/4 56/44/4 54/42/4 
f 55/43/4 57/45/4 56/44/4 
f 59/46/1 58/31/1 60/8/1 
f 60/8/1 61/33/1 59/46/1 
f 63/35/1 62/34/1 64/36/1 
f 64/36/1 65/37/1 63/35/1 
f 64/36/1 66/38/1 65/37/1 
f 64/24/3 62/23/3 67/25/3 
f 67/25/3 68/26/3 64/24/3 
f 3/50/5 14/61/5 13/62/5 
f 13/62/5 69/63/5 3/50/5 
f 14/61/5 3/50/5 1/64/5 
f 36/65/5 14/61/5 1/64/5 
f 36/65/5 1/64/5 28/66/5 
f 36/65/5 28/66/5 30/3/5 
f 36/65/5 30/3/5 19/41/5 
f 19/41/5 32/43/5 36/65/5 
f 19/41/5 30/3/5 70/67/5 
f 70/67/5 20/68/5 19/41/5 
f 64/70/6 56/69/6 57/71/6 
f 57/71/6 66/72/6 64/70/6 
f 72/74/6 71/73/6 73/75/6 
f 73/75/6 74/76/6 72/74/6 
f 76/35/1 75/33/1 77/77/1 
f 77/77/1 78/78/1 76/35/1 
f 49/80/7 52/79/7 21/81/7 
f 21/81/7 22/82/7 49/80/7 
f 60/28/3 58/27/3 6/29/3 
f 6/29/3 8/30/3 60/28/3 
f 36/84/6 32/83/6 33/85/6 
f 33/85/6 37/86/6 36/84/6 
f 80/37/3 79/35/3 54/21/3 
f 54/21/3 56/22/3 80/37/3 
f 67/34/1 81/58/1 72/59/1 
f 72/59/1 68/36/1 67/34/1 
f 72/59/1 74/60/1 68/36/1 
f 66/88/7 57/87/7 55/89/7 
f 55/89/7 65/90/7 66/88/7 
f 70/33/4 82/77/4 15/78/4 
f 15/78/4 20/35/4 70/33/4 
f 37/92/7 33/91/7 31/93/7 
f 31/93/7 24/94/7 37/92/7 
f 31/93/7 46/95/7 24/94/7 
f 46/95/7 23/96/7 24/94/7 
f 23/98/6 46/97/6 52/99/6 
f 52/99/6 49/100/6 23/98/6 
f 63/23/3 61/28/3 75/101/3 
f 75/101/3 76/102/3 63/23/3 
f 61/28/3 63/23/3 65/24/3 
f 59/27/3 61/28/3 65/24/3 
f 59/27/3 65/24/3 55/22/3 
f 59/27/3 55/22/3 53/21/3 
f 59/27/3 53/21/3 40/48/3 
f 40/48/3 38/47/3 59/27/3 
f 40/48/3 53/21/3 83/103/3 
f 83/103/3 84/104/3 40/48/3 
f 85/41/5 71/43/5 72/65/5 
f 72/65/5 81/61/5 85/41/5 
f 45/106/8 5/105/8 6/10/8 
f 6/10/8 58/9/8 45/106/8 
f 45/106/8 58/9/8 39/17/8 
f 39/17/8 58/9/8 59/107/8 
f 59/107/8 38/108/8 39/17/8 
f 39/17/8 47/18/8 45/106/8 
f 74/110/7 73/109/7 80/111/7 
f 80/111/7 56/112/7 74/110/7 
f 74/110/7 56/112/7 64/113/7 
f 64/113/7 68/114/7 74/110/7 
f 85/52/4 79/42/4 80/44/4 
f 80/44/4 71/53/4 85/52/4 
f 80/44/4 73/54/4 71/53/4 
f 42/116/8 25/115/8 34/117/8 
f 34/117/8 50/118/8 42/116/8 
f 25/115/8 42/116/8 27/119/8 
f 2/120/8 25/115/8 27/119/8 
f 2/120/8 27/119/8 28/121/8 
f 28/121/8 1/122/8 2/120/8 
f 85/124/2 78/123/2 86/125/2 
f 86/125/2 83/126/2 85/124/2 
f 83/126/2 79/119/2 85/124/2 
f 79/119/2 83/126/2 53/127/2 
f 53/127/2 54/116/2 79/119/2 
f 78/123/2 85/124/2 81/128/2 
f 81/128/2 76/129/2 78/123/2 
f 81/128/2 67/120/2 76/129/2 
f 67/120/2 63/130/2 76/129/2 
f 67/120/2 62/115/2 63/130/2 
f 15/103/3 82/104/3 87/101/3 
f 87/101/3 12/102/3 15/103/3 
f 88/67/5 86/68/5 78/62/5 
f 78/62/5 77/63/5 88/67/5 
f 87/131/1 69/3/1 13/41/1 
f 13/41/1 12/132/1 87/131/1 
f 86/132/4 88/131/4 84/3/4 
f 84/3/4 83/41/4 86/132/4 
f 29/119/8 43/116/8 51/118/8 
f 29/119/8 51/118/8 82/125/8 
f 29/119/8 82/125/8 70/126/8 
f 70/126/8 30/121/8 29/119/8 
f 51/118/8 35/117/8 82/125/8 
f 35/117/8 87/123/8 82/125/8 
f 87/123/8 35/117/8 26/115/8 
f 87/123/8 26/115/8 4/120/8 
f 87/123/8 4/120/8 3/122/8 
f 3/122/8 69/129/8 87/123/8 
f 7/105/8 88/15/8 77/12/8 
f 77/12/8 75/13/8 7/105/8 
f 75/13/8 8/10/8 7/105/8 
f 8/10/8 75/13/8 61/107/8 
f 61/107/8 60/9/8 8/10/8 
f 88/15/8 7/105/8 44/106/8 
f 44/106/8 84/20/8 88/15/8 
f 44/106/8 48/18/8 84/20/8 
f 48/18/8 40/108/8 84/20/8 
f 48/18/8 41/17/8 40/108/8 
f 90/134/9 89/133/9 91/135/9 
f 91/135/9 92/136/9 90/134/9 
f 94/138/10 93/137/10 95/139/10 
f 95/139/10 96/140/10 94/138/10 
f 96/142/2 95/141/2 97/143/2 
f 97/143/2 89/144/2 96/142/2 
f 89/144/2 90/145/2 96/142/2 
f 98/147/8 93/146/8 94/148/8 
f 94/148/8 91/149/8 98/147/8 
f 94/148/8 92/150/8 91/149/8 
f 90/152/11 92/151/11 94/153/11 
f 94/153/11 96/154/11 90/152/11 
f 98/156/12 97/155/12 95/157/12 
f 95/157/12 93/158/12 98/156/12 
f 98/160/13 91/159/13 89/161/13 
f 89/161/13 97/162/13 98/160/13 
g fenceBroken




usemtl wood

f 2/2/1 1/1/1 3/3/1 
f 3/3/1 4/4/1 2/2/1 
f 6/6/1 5/5/1 7/7/1 
f 7/7/1 8/8/1 6/6/1 
f 10/10/2 9/9/2 11/11/2 
f 10/10/2 11/11/2 12/12/2 
f 10/10/2 12/12/2 13/13/2 
f 13/13/2 14/14/2 10/10/2 
f 11/11/2 15/15/2 12/12/2 
f 15/15/2 11/11/2 16/16/2 
f 15/15/2 16/16/2 17/17/2 
f 15/15/2 17/17/2 18/18/2 
f 15/15/2 18/18/2 19/19/2 
f 19/19/2 20/20/2 15/15/2 
f 21/22/3 16/21/3 11/23/3 
f 11/23/3 22/24/3 21/22/3 
f 23/24/3 9/23/3 10/25/3 
f 10/25/3 24/26/3 23/24/3 
f 26/28/3 25/27/3 2/29/3 
f 2/29/3 4/30/3 26/28/3 
f 28/32/4 27/31/4 29/8/4 
f 29/8/4 30/33/4 28/32/4 
f 19/35/4 18/34/4 31/36/4 
f 31/36/4 32/37/4 19/35/4 
f 31/36/4 33/38/4 32/37/4 
f 34/39/1 25/2/1 26/4/1 
f 26/4/1 35/40/1 34/39/1 
f 10/42/1 14/41/1 36/43/1 
f 36/43/1 24/44/1 10/42/1 
f 36/43/1 37/45/1 24/44/1 
f 39/2/4 38/1/4 40/3/4 
f 40/3/4 41/4/4 39/2/4 
f 29/33/3 27/46/3 42/47/3 
f 42/47/3 43/48/3 29/33/3 
f 45/49/5 44/3/5 7/50/5 
f 7/50/5 5/51/5 45/49/5 
f 31/37/3 18/35/3 17/21/3 
f 17/21/3 46/22/3 31/37/3 
f 48/33/3 47/46/3 39/47/3 
f 39/47/3 41/48/3 48/33/3 
f 45/39/4 47/2/4 48/4/4 
f 48/4/4 44/40/4 45/39/4 
f 11/52/1 9/42/1 23/44/1 
f 23/44/1 22/53/1 11/52/1 
f 23/44/1 49/54/1 22/53/1 
f 51/48/3 50/55/3 34/56/3 
f 34/56/3 35/28/3 51/48/3 
f 42/31/4 50/57/4 51/7/4 
f 51/7/4 43/8/4 42/31/4 
f 17/34/4 16/58/4 21/59/4 
f 21/59/4 46/36/4 17/34/4 
f 21/59/4 52/60/4 46/36/4 
f 54/42/4 53/41/4 55/43/4 
f 55/43/4 56/44/4 54/42/4 
f 55/43/4 57/45/4 56/44/4 
f 59/46/1 58/31/1 60/8/1 
f 60/8/1 61/33/1 59/46/1 
f 63/35/1 62/34/1 64/36/1 
f 64/36/1 65/37/1 63/35/1 
f 64/36/1 66/38/1 65/37/1 
f 64/24/3 62/23/3 67/25/3 
f 67/25/3 68/26/3 64/24/3 
f 3/50/5 14/61/5 13/62/5 
f 13/62/5 69/63/5 3/50/5 
f 14/61/5 3/50/5 1/64/5 
f 36/65/5 14/61/5 1/64/5 
f 36/65/5 1/64/5 28/66/5 
f 36/65/5 28/66/5 30/3/5 
f 36/65/5 30/3/5 19/41/5 
f 19/41/5 32/43/5 36/65/5 
f 19/41/5 30/3/5 70/67/5 
f 70/67/5 20/68/5 19/41/5 
f 64/70/6 56/69/6 57/71/6 
f 57/71/6 66/72/6 64/70/6 
f 72/74/6 71/73/6 73/75/6 
f 73/75/6 74/76/6 72/74/6 
f 76/35/1 75/33/1 77/77/1 
f 77/77/1 78/78/1 76/35/1 
f 49/80/7 52/79/7 21/81/7 
f 21/81/7 22/82/7 49/80/7 
f 60/28/3 58/27/3 6/29/3 
f 6/29/3 8/30/3 60/28/3 
f 36/84/6 32/83/6 33/85/6 
f 33/85/6 37/86/6 36/84/6 
f 80/37/3 79/35/3 54/21/3 
f 54/21/3 56/22/3 80/37/3 
f 67/34/1 81/58/1 72/59/1 
f 72/59/1 68/36/1 67/34/1 
f 72/59/1 74/60/1 68/36/1 
f 66/88/7 57/87/7 55/89/7 
f 55/89/7 65/90/7 66/88/7 
f 70/33/4 82/77/4 15/78/4 
f 15/78/4 20/35/4 70/33/4 
f 37/92/7 33/91/7 31/93/7 
f 31/93/7 24/94/7 37/92/7 
f 31/93/7 46/95/7 24/94/7 
f 46/95/7 23/96/7 24/94/7 
f 23/98/6 46/97/6 52/99/6 
f 52/99/6 49/100/6 23/98/6 
f 63/23/3 61/28/3 75/101/3 
f 75/101/3 76/102/3 63/23/3 
f 61/28/3 63/23/3 65/24/3 
f 59/27/3 61/28/3 65/24/3 
f 59/27/3 65/24/3 55/22/3 
f 59/27/3 55/22/3 53/21/3 
f 59/27/3 53/21/3 40/48/3 
f 40/48/3 38/47/3 59/27/3 
f 40/48/3 53/21/3 83/103/3 
f 83/103/3 84/104/3 40/48/3 
f 85/41/5 71/43/5 72/65/5 
f 72/65/5 81/61/5 85/41/5 
f 45/106/8 5/105/8 6/10/8 
f 6/10/8 58/9/8 45/106/8 
f 45/106/8 58/9/8 39/17/8 
f 39/17/8 58/9/8 59/107/8 
f 59/107/8 38/108/8 39/17/8 
f 39/17/8 47/18/8 45/106/8 
f 74/110/7 73/109/7 80/111/7 
f 80/111/7 56/112/7 74/110/7 
f 74/110/7 56/112/7 64/113/7 
f 64/113/7 68/114/7 74/110/7 
f 85/52/4 79/42/4 80/44/4 
f 80/44/4 71/53/4 85/52/4 
f 80/44/4 73/54/4 71/53/4 
f 42/116/8 25/115/8 34/117/8 
f 34/117/8 50/118/8 42/116/8 
f 25/115/8 42/116/8 27/119/8 
f 2/120/8 25/115/8 27/119/8 
f 2/120/8 27/119/8 28/121/8 
f 28/121/8 1/122/8 2/120/8 
f 85/124/2 78/123/2 86/125/2 
f 86/125/2 83/126/2 85/124/2 
f 83/126/2 79/119/2 85/124/2 
f 79/119/2 83/126/2 53/127/2 
f 53/127/2 54/116/2 79/119/2 
f 78/123/2 85/124/2 81/128/2 
f 81/128/2 76/129/2 78/123/2 
f 81/128/2 67/120/2 76/129/2 
f 67/120/2 63/130/2 76/129/2 
f 67/120/2 62/115/2 63/130/2 
f 15/103/3 82/104/3 87/101/3 
f 87/101/3 12/102/3 15/103/3 
f 88/67/5 86/68/5 78/62/5 
f 78/62/5 77/63/5 88/67/5 
f 87/131/1 69/3/1 13/41/1 
f 13/41/1 12/132/1 87/131/1 
f 86/132/4 88/131/4 84/3/4 
f 84/3/4 83/41/4 86/132/4 
f 29/119/8 43/116/8 51/118/8 
f 29/119/8 51/118/8 82/125/8 
f 29/119/8 82/125/8 70/126/8 
f 70/126/8 30/121/8 29/119/8 
f 51/118/8 35/117/8 82/125/8 
f 35/117/8 87/123/8 82/125/8 
f 87/123/8 35/117/8 26/115/8 
f 87/123/8 26/115/8 4/120/8 
f 87/123/8 4/120/8 3/122/8 
f 3/122/8 69/129/8 87/123/8 
f 7/105/8 88/15/8 77/12/8 
f 77/12/8 75/13/8 7/105/8 
f 75/13/8 8/10/8 7/105/8 
f 8/10/8 75/13/8 61/107/8 
f 61/107/8 60/9/8 8/10/8 
f 88/15/8 7/105/8 44/106/8 
f 44/106/8 84/20/8 88/15/8 
f 44/106/8 48/18/8 84/20/8 
f 48/18/8 40/108/8 84/20/8 
f 48/18/8 41/17/8 40/108/8 
f 90/134/9 89/133/9 91/135/9 
f 91/135/9 92/136/9 90/134/9 
f 94/138/10 93/137/10 95/139/10 
f 95/139/10 96/140/10 94/138/10 
f 96/142/2 95/141/2 97/143/2 
f 97/143/2 89/144/2 96/142/2 
f 89/144/2 90/145/2 96/142/2 
f 98/147/8 93/146/8 94/148/8 
f 94/148/8 91/149/8 98/147/8 
f 94/148/8 92/150/8 91/149/8 
f 90/152/11 92/151/11 94/153/11 
f 94/153/11 96/154/11 90/152/11 
f 98/156/12 97/155/12 95/157/12 
f 95/157/12 93/158/12 98/156/12 
f 98/160/13 91/159/13 89/161/13 
f 89/161/13 97/162/13 98/160/13 
