# Created by Kenney (www.kenney.nl) 

mtllib fenceIronGate.mtl 

g fenceIronGate

v -2.616929E-15 0.2839 0.045 
v -2.616929E-15 0.2658538 0.045 
v -2.616929E-15 0.2839 0.055 
v -2.616929E-15 0.2658538 0.055 
v -0.109 0.2839 0.045 
v -0.109 0.2839 0.055 
v -0.109 0.2658538 0.055 
v -0.109 0.2658538 0.045 
v -2.616929E-15 0.1839 0.045 
v -2.616929E-15 0.1839 0.055 
v -0.109 0.1839 0.045 
v -0.109 0.1839 0.055 
v -2.616929E-15 0.1658538 0.045 
v -2.616929E-15 0.1658538 0.055 
v -0.109 0.1658538 0.055 
v -0.109 0.1658538 0.045 
v -2.616929E-15 0.6039 0.045 
v -2.616929E-15 0.6039 0.055 
v -0.109 0.6039 0.045 
v -0.109 0.6039 0.055 
v -2.616929E-15 0.5858538 0.055 
v -0.109 0.5858538 0.055 
v -2.616929E-15 0.5858538 0.045 
v -0.109 0.5858538 0.045 
v -2.616929E-15 0.7039 0.045 
v -2.616929E-15 0.6858538 0.045 
v -2.616929E-15 0.7039 0.055 
v -2.616929E-15 0.6858538 0.055 
v -0.109 0.6858538 0.055 
v -0.109 0.6858538 0.045 
v -0.109 0.7039 0.045 
v -0.109 0.7039 0.055 
v -0.891 0.1658538 0.055 
v -1 0.1658538 0.055 
v -0.891 0.1839 0.055 
v -1 0.1839 0.055 
v -1 0.1658538 0.045 
v -0.891 0.1658538 0.045 
v -1 0.1839 0.045 
v -0.891 0.1839 0.045 
v -1 0.6858538 0.045 
v -1 0.7039 0.045 
v -1 0.6858538 0.055 
v -1 0.7039 0.055 
v -0.891 0.6858538 0.045 
v -0.891 0.7039 0.045 
v -0.891 0.6858538 0.055 
v -0.891 0.7039 0.055 
v -0.891 0.6039 0.045 
v -0.891 0.6039 0.055 
v -1 0.6039 0.045 
v -1 0.6039 0.055 
v -1 0.5858538 0.045 
v -0.891 0.5858538 0.045 
v -0.891 0.5858538 0.055 
v -1 0.5858538 0.055 
v -1 0.2658538 0.045 
v -1 0.2839 0.045 
v -1 0.2658538 0.055 
v -1 0.2839 0.055 
v -0.891 0.2658538 0.045 
v -0.891 0.2839 0.045 
v -0.891 0.2658538 0.055 
v -0.891 0.2839 0.055 
v -1 0 0 
v -1 0.07 0 
v -1 0 0.1 
v -1 0.09 0.007 
v -1 0.09 0.09299999 
v -1 0.07 0.1 
v -2.52669E-15 0.07 0 
v 0 0 0 
v -2.52669E-15 0.09 0.007 
v -2.52669E-15 0 0.1 
v -2.52669E-15 0.09 0.09299999 
v -2.52669E-15 0.07 0.1 
v -0.109 0.13 0.091 
v -0.191 0.13 0.091 
v -0.109 0.72 0.091 
v -0.191 0.72 0.091 
v -0.2 0 0 
v -0.2 0 0.1 
v -0.1 0.11 0 
v -0.1 0.11 0.1 
v -0.109 0.13 0.009000001 
v -0.191 0.13 0.009000001 
v -0.191 0.72 0.009000001 
v -0.109 0.72 0.009000001 
v -0.2 0.11 0 
v -0.1 0.7399999 0.1 
v -0.2 0.7399999 0.1 
v -0.1 0.79 0.1 
v -0.2 0.79 0.1 
v -0.2 0.7399999 0 
v -0.1 0.7399999 0 
v -0.2 0.79 0 
v -0.1 0.79 0 
v -0.2 0.11 0.1 
v -0.1 0.07 0.1 
v -0.1 0.07 0 
v -0.8 0 0.1 
v -0.8 0.11 0.1 
v -0.9 0.07 0.1 
v -0.9 0.11 0.1 
v -0.8 0 0 
v -0.9 0.07 0 
v -0.8 0.11 0 
v -0.9 0.11 0 
v -0.891 0.13 0.009000001 
v -0.891 0.13 0.091 
v -0.809 0.13 0.009000001 
v -0.809 0.13 0.091 
v -0.809 0.72 0.009000001 
v -0.809 0.72 0.091 
v -0.891 0.72 0.091 
v -0.8 0.7399999 0.1 
v -0.9 0.7399999 0.1 
v -0.891 0.72 0.009000001 
v -0.9 0.7399999 0 
v -0.8 0.7399999 0 
v -0.8 0.79 0 
v -0.8 0.79 0.1 
v -0.9 0.79 0 
v -0.9 0.79 0.1 
v -0.9 0.09 0.007 
v -0.9 0.09 0.09299999 
v -0.1 0.09 0.007 
v -0.1 0.09 0.09299999 

vn 1 0 0 
vn 0 1 0 
vn 0 0 1 
vn 0 0 -1 
vn 0 -1 0 
vn -1 0 0 
vn 0.9119215 0.4103647 0 
vn 0 0.4103647 -0.9119215 
vn 0.9119215 -0.4103647 0 
vn 0 0.4103647 0.9119215 
vn 0 -0.4103647 0.9119215 
vn 0 -0.4103647 -0.9119215 
vn -0.9119215 -0.4103647 0 
vn -0.9119215 0.4103647 0 
vn 0 0.3303504 0.9438583 
vn 0 0.3303504 -0.9438583 

vt -1.771654 11.17717 
vt -1.771654 10.46669 
vt -2.165354 11.17717 
vt -2.165354 10.46669 
vt 1.030287E-13 1.771654 
vt 1.030287E-13 2.165354 
vt 4.291338 1.771654 
vt 4.291338 2.165354 
vt -1.030287E-13 10.46669 
vt -4.291338 10.46669 
vt -1.030287E-13 11.17717 
vt -4.291338 11.17717 
vt 4.291338 10.46669 
vt 1.030287E-13 10.46669 
vt 4.291338 11.17717 
vt 1.030287E-13 11.17717 
vt -1.030287E-13 2.165354 
vt -1.030287E-13 1.771654 
vt -4.291338 2.165354 
vt -4.291338 1.771654 
vt -1.771654 7.240158 
vt -1.771654 6.529679 
vt -2.165354 7.240158 
vt -2.165354 6.529679 
vt 4.291338 6.529679 
vt 1.030287E-13 6.529679 
vt 4.291338 7.240158 
vt 1.030287E-13 7.240158 
vt -1.030287E-13 6.529679 
vt -4.291338 6.529679 
vt -1.030287E-13 7.240158 
vt -4.291338 7.240158 
vt -1.030287E-13 23.06511 
vt -4.291338 23.06511 
vt -1.030287E-13 23.77559 
vt -4.291338 23.77559 
vt -1.771654 23.77559 
vt -1.771654 23.06511 
vt -2.165354 23.77559 
vt -2.165354 23.06511 
vt 4.291338 23.06511 
vt 1.030287E-13 23.06511 
vt 4.291338 23.77559 
vt 1.030287E-13 23.77559 
vt -1.771654 27.7126 
vt -1.771654 27.00212 
vt -2.165354 27.7126 
vt -2.165354 27.00212 
vt 4.291338 27.00212 
vt 1.030287E-13 27.00212 
vt 4.291338 27.7126 
vt 1.030287E-13 27.7126 
vt -1.030287E-13 27.00212 
vt -4.291338 27.00212 
vt -1.030287E-13 27.7126 
vt -4.291338 27.7126 
vt -35.07874 6.529679 
vt -39.37008 6.529679 
vt -35.07874 7.240158 
vt -39.37008 7.240158 
vt 39.37008 6.529679 
vt 35.07874 6.529679 
vt 39.37008 7.240158 
vt 35.07874 7.240158 
vt 1.771654 6.529679 
vt 1.771654 7.240158 
vt 2.165354 6.529679 
vt 2.165354 7.240158 
vt -35.07874 2.165354 
vt -35.07874 1.771654 
vt -39.37008 2.165354 
vt -39.37008 1.771654 
vt 35.07874 1.771654 
vt 35.07874 2.165354 
vt 39.37008 1.771654 
vt 39.37008 2.165354 
vt 1.771654 27.00212 
vt 1.771654 27.7126 
vt 2.165354 27.00212 
vt 2.165354 27.7126 
vt 39.37008 27.00212 
vt 35.07874 27.00212 
vt 39.37008 27.7126 
vt 35.07874 27.7126 
vt -35.07874 27.00212 
vt -39.37008 27.00212 
vt -35.07874 27.7126 
vt -39.37008 27.7126 
vt 39.37008 23.06511 
vt 35.07874 23.06511 
vt 39.37008 23.77559 
vt 35.07874 23.77559 
vt -35.07874 23.06511 
vt -39.37008 23.06511 
vt -35.07874 23.77559 
vt -39.37008 23.77559 
vt 1.771654 23.06511 
vt 1.771654 23.77559 
vt 2.165354 23.06511 
vt 2.165354 23.77559 
vt 1.771654 10.46669 
vt 1.771654 11.17717 
vt 2.165354 10.46669 
vt 2.165354 11.17717 
vt 39.37008 10.46669 
vt 35.07874 10.46669 
vt 39.37008 11.17717 
vt 35.07874 11.17717 
vt -35.07874 10.46669 
vt -39.37008 10.46669 
vt -35.07874 11.17717 
vt -39.37008 11.17717 
vt 0 0 
vt 0 2.755906 
vt 3.937008 0 
vt 0.2755905 3.543307 
vt 3.661417 3.543307 
vt 3.937008 2.755906 
vt -9.174513E-28 2.755906 
vt -0.2755905 3.543307 
vt -3.937008 9.528349E-28 
vt -3.661417 3.543307 
vt -3.937008 2.755906 
vt -4.291338 5.11811 
vt -7.519685 5.11811 
vt -4.291338 28.34646 
vt -7.519685 28.34646 
vt -7.874016 0 
vt -9.947598E-14 3.937008 
vt -7.874016 3.937008 
vt 0 5.564875 
vt -3.937008 5.564875 
vt -0.3543307 6.428329 
vt -3.582677 6.428329 
vt 7.519685 5.11811 
vt 4.291338 5.11811 
vt 7.519685 28.34646 
vt 4.291338 28.34646 
vt -0.3543307 5.11811 
vt -0.3543307 28.34646 
vt -3.582677 28.34646 
vt -3.582677 5.11811 
vt 7.874016 3.949266 
vt 3.937008 3.949266 
vt 7.519685 4.81272 
vt 4.291338 4.81272 
vt -3.937008 29.13386 
vt -7.874016 29.13386 
vt -3.937008 31.10236 
vt -7.874016 31.10236 
vt 7.874016 29.13386 
vt 3.937008 29.13386 
vt 7.874016 31.10236 
vt 3.937008 31.10236 
vt 0 24.95218 
vt -0.3543307 24.08873 
vt -3.937008 24.95218 
vt -3.582677 24.08873 
vt 0.3543307 5.11811 
vt 0.3543307 28.34646 
vt 3.582677 5.11811 
vt 3.582677 28.34646 
vt 3.937008 3.937008 
vt 7.874016 0 
vt 7.874016 3.937008 
vt -3.937008 2.333658 
vt -7.874016 2.333658 
vt -4.291338 3.197111 
vt -7.519685 3.197111 
vt -4.291338 27.31995 
vt -7.519685 27.31995 
vt -3.937008 28.1834 
vt -7.874016 28.1834 
vt 7.519685 25.70434 
vt 4.291338 25.70434 
vt 7.874016 26.56779 
vt 3.937008 26.56779 
vt 0 29.79901 
vt 3.937008 29.79901 
vt 0.3543307 28.93556 
vt 3.582677 28.93556 
vt 0 31.10236 
vt 0 29.13386 
vt 0 0.7180485 
vt 0.3543307 1.581502 
vt 3.937008 0.7180485 
vt 3.582677 1.581502 
vt -9.947598E-14 0 
vt -9.947598E-14 2.755906 
vt -7.874016 4.330709 
vt -3.937008 4.330709 
vt 7.874016 4.330709 
vt 3.937008 4.330709 
vt 9.947598E-14 2.755906 
vt -31.49606 0 
vt -39.37008 0 
vt -31.49606 4.330709 
vt -35.43307 2.755906 
vt -35.43307 4.330709 
vt -39.37008 2.755906 
vt 39.37008 0 
vt 31.49606 0 
vt 39.37008 2.755906 
vt 35.43307 2.755906 
vt 31.49606 4.330709 
vt 35.43307 4.330709 
vt 0 -10.59121 
vt 0.3543307 -9.727761 
vt 3.937008 -10.59121 
vt 3.582677 -9.727761 
vt 35.43307 3.949266 
vt 31.49606 3.949266 
vt 35.07874 4.81272 
vt 31.85039 4.81272 
vt 0 16.87414 
vt -3.937008 16.87414 
vt -0.3543307 17.73759 
vt -3.582677 17.73759 
vt -31.85039 27.31995 
vt -35.07874 27.31995 
vt -31.49606 28.1834 
vt -35.43307 28.1834 
vt 35.07874 25.70434 
vt 31.85039 25.70434 
vt 35.43307 26.56779 
vt 31.49606 26.56779 
vt -31.49606 2.333658 
vt -35.43307 2.333658 
vt -31.85039 3.197111 
vt -35.07874 3.197111 
vt 0 13.64292 
vt -0.3543307 12.77947 
vt -3.937008 13.64292 
vt -3.582677 12.77947 
vt -31.49606 3.937008 
vt -39.37008 3.937008 
vt 0 41.10827 
vt 3.937008 41.10827 
vt 0.3543307 40.24482 
vt 3.582677 40.24482 
vt 31.49606 3.937008 
vt 35.43307 0 
vt 35.43307 3.937008 
vt 35.43307 29.13386 
vt 31.49606 29.13386 
vt 35.43307 31.10236 
vt 31.49606 31.10236 
vt -31.85039 5.11811 
vt -35.07874 5.11811 
vt -31.85039 28.34646 
vt -35.07874 28.34646 
vt 35.07874 5.11811 
vt 31.85039 5.11811 
vt 35.07874 28.34646 
vt 31.85039 28.34646 
vt -31.49606 29.13386 
vt -35.43307 29.13386 
vt -31.49606 31.10236 
vt -35.43307 31.10236 
vt 0 4.330709 
vt 9.947598E-14 0.2755905 
vt 9.947598E-14 3.661417 
vt 3.937008 0.2755905 
vt 3.937008 3.661417 
vt -9.947598E-14 1.300592 
vt -3.937008 1.300592 
vt -9.947598E-14 2.134829 
vt -3.937008 2.134829 
vt 3.937008 2.601184 
vt 9.947598E-14 2.601184 
vt 3.937008 3.435421 
vt 9.947598E-14 3.435421 
vt 35.43307 2.601184 
vt 35.43307 3.435421 
vt 39.37008 2.601184 
vt 39.37008 3.435421 
vt -35.43307 1.300592 
vt -39.37008 1.300592 
vt -35.43307 2.134829 
vt -39.37008 2.134829 
vt 35.43307 0.2755905 
vt 35.43307 3.661417 
vt 39.37008 0.2755905 
vt 39.37008 3.661417 
vt -3.937008 0 

usemtl metal

f 2/2/1 1/1/1 3/3/1 
f 3/3/1 4/4/1 2/2/1 
f 3/6/2 1/5/2 5/7/2 
f 5/7/2 6/8/2 3/6/2 
f 7/10/3 4/9/3 3/11/3 
f 3/11/3 6/12/3 7/10/3 
f 2/14/4 8/13/4 5/15/4 
f 5/15/4 1/16/4 2/14/4 
f 2/18/5 4/17/5 7/19/5 
f 7/19/5 8/20/5 2/18/5 
f 10/6/2 9/5/2 11/7/2 
f 11/7/2 12/8/2 10/6/2 
f 13/22/1 9/21/1 10/23/1 
f 10/23/1 14/24/1 13/22/1 
f 13/18/5 14/17/5 15/19/5 
f 15/19/5 16/20/5 13/18/5 
f 13/26/4 16/25/4 11/27/4 
f 11/27/4 9/28/4 13/26/4 
f 15/30/3 14/29/3 10/31/3 
f 10/31/3 12/32/3 15/30/3 
f 18/6/2 17/5/2 19/7/2 
f 19/7/2 20/8/2 18/6/2 
f 22/34/3 21/33/3 18/35/3 
f 18/35/3 20/36/3 22/34/3 
f 23/38/1 17/37/1 18/39/1 
f 18/39/1 21/40/1 23/38/1 
f 23/42/4 24/41/4 19/43/4 
f 19/43/4 17/44/4 23/42/4 
f 23/18/5 21/17/5 22/19/5 
f 22/19/5 24/20/5 23/18/5 
f 26/46/1 25/45/1 27/47/1 
f 27/47/1 28/48/1 26/46/1 
f 26/18/5 28/17/5 29/19/5 
f 29/19/5 30/20/5 26/18/5 
f 27/6/2 25/5/2 31/7/2 
f 31/7/2 32/8/2 27/6/2 
f 26/50/4 30/49/4 31/51/4 
f 31/51/4 25/52/4 26/50/4 
f 29/54/3 28/53/3 27/55/3 
f 27/55/3 32/56/3 29/54/3 
f 34/58/3 33/57/3 35/59/3 
f 35/59/3 36/60/3 34/58/3 
f 38/62/4 37/61/4 39/63/4 
f 39/63/4 40/64/4 38/62/4 
f 39/66/6 37/65/6 34/67/6 
f 34/67/6 36/68/6 39/66/6 
f 38/70/5 33/69/5 34/71/5 
f 34/71/5 37/72/5 38/70/5 
f 35/74/2 40/73/2 39/75/2 
f 39/75/2 36/76/2 35/74/2 
f 42/78/6 41/77/6 43/79/6 
f 43/79/6 44/80/6 42/78/6 
f 45/82/4 41/81/4 42/83/4 
f 42/83/4 46/84/4 45/82/4 
f 45/70/5 47/69/5 43/71/5 
f 43/71/5 41/72/5 45/70/5 
f 48/74/2 46/73/2 42/75/2 
f 42/75/2 44/76/2 48/74/2 
f 43/86/3 47/85/3 48/87/3 
f 48/87/3 44/88/3 43/86/3 
f 50/74/2 49/73/2 51/75/2 
f 51/75/2 52/76/2 50/74/2 
f 54/90/4 53/89/4 51/91/4 
f 51/91/4 49/92/4 54/90/4 
f 56/94/3 55/93/3 50/95/3 
f 50/95/3 52/96/3 56/94/3 
f 51/98/6 53/97/6 56/99/6 
f 56/99/6 52/100/6 51/98/6 
f 54/70/5 55/69/5 56/71/5 
f 56/71/5 53/72/5 54/70/5 
f 58/102/6 57/101/6 59/103/6 
f 59/103/6 60/104/6 58/102/6 
f 61/106/4 57/105/4 58/107/4 
f 58/107/4 62/108/4 61/106/4 
f 59/110/3 63/109/3 64/111/3 
f 64/111/3 60/112/3 59/110/3 
f 61/70/5 63/69/5 59/71/5 
f 59/71/5 57/72/5 61/70/5 
f 64/74/2 62/73/2 58/75/2 
f 58/75/2 60/76/2 64/74/2 

usemtl stone

f 66/114/6 65/113/6 67/115/6 
f 67/115/6 68/116/6 66/114/6 
f 67/115/6 69/117/6 68/116/6 
f 67/115/6 70/118/6 69/117/6 
f 72/113/1 71/119/1 73/120/1 
f 73/120/1 74/121/1 72/113/1 
f 73/120/1 75/122/1 74/121/1 
f 75/122/1 76/123/1 74/121/1 
f 78/125/3 77/124/3 79/126/3 
f 79/126/3 80/127/3 78/125/3 
f 81/128/5 72/113/5 74/129/5 
f 74/129/5 82/130/5 81/128/5 
f 84/132/7 83/131/7 85/133/7 
f 85/133/7 77/134/7 84/132/7 
f 85/136/4 86/135/4 87/137/4 
f 87/137/4 88/138/4 85/136/4 
f 31/45/1 85/139/1 88/140/1 
f 88/140/1 79/141/1 31/45/1 
f 79/141/1 32/47/1 31/45/1 
f 79/141/1 29/48/1 32/47/1 
f 79/141/1 20/39/1 29/48/1 
f 79/141/1 22/40/1 20/39/1 
f 79/141/1 6/3/1 22/40/1 
f 79/141/1 7/4/1 6/3/1 
f 79/141/1 12/23/1 7/4/1 
f 79/141/1 15/24/1 12/23/1 
f 85/139/1 31/45/1 16/22/1 
f 16/22/1 77/142/1 85/139/1 
f 16/22/1 15/24/1 77/142/1 
f 15/24/1 79/141/1 77/142/1 
f 31/45/1 30/46/1 16/22/1 
f 30/46/1 19/37/1 16/22/1 
f 19/37/1 30/46/1 29/48/1 
f 29/48/1 20/39/1 19/37/1 
f 19/37/1 24/38/1 16/22/1 
f 24/38/1 5/1/1 16/22/1 
f 5/1/1 24/38/1 22/40/1 
f 22/40/1 6/3/1 5/1/1 
f 5/1/1 8/2/1 16/22/1 
f 8/2/1 11/21/1 16/22/1 
f 11/21/1 8/2/1 7/4/1 
f 7/4/1 12/23/1 11/21/1 
f 83/144/8 89/143/8 86/145/8 
f 86/145/8 85/146/8 83/144/8 
f 91/148/3 90/147/3 92/149/3 
f 92/149/3 93/150/3 91/148/3 
f 95/152/4 94/151/4 96/153/4 
f 96/153/4 97/154/4 95/152/4 
f 88/156/9 95/155/9 90/157/9 
f 90/157/9 79/158/9 88/156/9 
f 87/160/6 86/159/6 78/161/6 
f 78/161/6 80/162/6 87/160/6 
f 92/163/2 97/115/2 96/164/2 
f 96/164/2 93/165/2 92/163/2 
f 98/167/10 84/166/10 77/168/10 
f 77/168/10 78/169/10 98/167/10 
f 80/171/11 79/170/11 90/172/11 
f 90/172/11 91/173/11 80/171/11 
f 88/175/12 87/174/12 94/176/12 
f 94/176/12 95/177/12 88/175/12 
f 91/179/13 94/178/13 87/180/13 
f 87/180/13 80/181/13 91/179/13 
f 95/183/1 97/182/1 92/149/1 
f 92/149/1 90/147/1 95/183/1 
f 86/185/14 89/184/14 98/186/14 
f 98/186/14 78/187/14 86/185/14 
f 82/128/3 74/188/3 76/189/3 
f 76/189/3 99/123/3 82/128/3 
f 99/123/3 98/190/3 82/128/3 
f 99/123/3 84/191/3 98/190/3 
f 72/113/4 81/164/4 89/192/4 
f 89/192/4 100/118/4 72/113/4 
f 89/192/4 83/193/4 100/118/4 
f 72/113/4 100/118/4 71/194/4 
f 96/182/6 94/183/6 91/152/6 
f 91/152/6 93/154/6 96/182/6 
f 67/196/3 101/195/3 102/197/3 
f 102/197/3 103/198/3 67/196/3 
f 102/197/3 104/199/3 103/198/3 
f 67/196/3 103/198/3 70/200/3 
f 105/202/4 65/201/4 66/203/4 
f 66/203/4 106/204/4 105/202/4 
f 107/205/4 105/202/4 106/204/4 
f 106/204/4 108/206/4 107/205/4 
f 109/208/14 108/207/14 104/209/14 
f 104/209/14 110/210/14 109/208/14 
f 107/212/8 108/211/8 109/213/8 
f 109/213/8 111/214/8 107/212/8 
f 102/216/7 107/215/7 111/217/7 
f 111/217/7 112/218/7 102/216/7 
f 111/139/1 113/140/1 114/141/1 
f 114/141/1 112/142/1 111/139/1 
f 115/220/11 114/219/11 116/221/11 
f 116/221/11 117/222/11 115/220/11 
f 113/224/12 118/223/12 119/225/12 
f 119/225/12 120/226/12 113/224/12 
f 104/228/10 102/227/10 112/229/10 
f 112/229/10 110/230/10 104/228/10 
f 113/232/9 120/231/9 116/233/9 
f 116/233/9 114/234/9 113/232/9 
f 120/183/1 121/182/1 122/149/1 
f 122/149/1 116/147/1 120/183/1 
f 105/195/5 101/235/5 67/236/5 
f 67/236/5 65/196/5 105/195/5 
f 117/238/13 119/237/13 118/239/13 
f 118/239/13 115/240/13 117/238/13 
f 122/241/2 121/202/2 123/242/2 
f 123/242/2 124/243/2 122/241/2 
f 120/245/4 119/244/4 123/246/4 
f 123/246/4 121/247/4 120/245/4 
f 38/65/6 118/160/6 109/159/6 
f 109/159/6 110/161/6 38/65/6 
f 110/161/6 33/67/6 38/65/6 
f 110/161/6 35/68/6 33/67/6 
f 110/161/6 63/103/6 35/68/6 
f 110/161/6 64/104/6 63/103/6 
f 110/161/6 55/99/6 64/104/6 
f 110/161/6 50/100/6 55/99/6 
f 110/161/6 47/79/6 50/100/6 
f 110/161/6 48/80/6 47/79/6 
f 118/160/6 38/65/6 46/78/6 
f 46/78/6 115/162/6 118/160/6 
f 46/78/6 48/80/6 115/162/6 
f 48/80/6 110/161/6 115/162/6 
f 38/65/6 40/66/6 46/78/6 
f 40/66/6 61/101/6 46/78/6 
f 61/101/6 40/66/6 35/68/6 
f 35/68/6 63/103/6 61/101/6 
f 61/101/6 62/102/6 46/78/6 
f 62/102/6 54/97/6 46/78/6 
f 54/97/6 62/102/6 64/104/6 
f 64/104/6 55/99/6 54/97/6 
f 54/97/6 49/98/6 46/78/6 
f 49/98/6 45/77/6 46/78/6 
f 45/77/6 49/98/6 50/100/6 
f 50/100/6 47/79/6 45/77/6 
f 110/249/3 112/248/3 114/250/3 
f 114/250/3 115/251/3 110/249/3 
f 123/182/6 119/183/6 117/152/6 
f 117/152/6 124/154/6 123/182/6 
f 111/253/4 109/252/4 118/254/4 
f 118/254/4 113/255/4 111/253/4 
f 117/257/3 116/256/3 122/258/3 
f 122/258/3 124/259/3 117/257/3 
f 108/260/6 106/114/6 125/116/6 
f 125/116/6 104/193/6 108/260/6 
f 125/116/6 126/117/6 104/193/6 
f 126/117/6 103/118/6 104/193/6 
f 127/120/1 100/114/1 83/260/1 
f 83/260/1 84/191/1 127/120/1 
f 84/191/1 128/122/1 127/120/1 
f 84/191/1 99/123/1 128/122/1 
f 75/262/2 73/261/2 127/263/2 
f 127/263/2 128/264/2 75/262/2 
f 99/266/15 76/265/15 75/267/15 
f 75/267/15 128/268/15 99/266/15 
f 71/270/16 100/269/16 127/271/16 
f 127/271/16 73/272/16 71/270/16 
f 125/274/16 106/273/16 66/275/16 
f 66/275/16 68/276/16 125/274/16 
f 70/278/15 103/277/15 126/279/15 
f 126/279/15 69/280/15 70/278/15 
f 126/282/2 125/281/2 68/283/2 
f 68/283/2 69/284/2 126/282/2 
f 89/260/6 81/113/6 82/115/6 
f 82/115/6 98/193/6 89/260/6 
f 105/113/1 107/260/1 102/191/1 
f 102/191/1 101/285/1 105/113/1 
g fenceIronGate




usemtl metal

f 2/2/1 1/1/1 3/3/1 
f 3/3/1 4/4/1 2/2/1 
f 3/6/2 1/5/2 5/7/2 
f 5/7/2 6/8/2 3/6/2 
f 7/10/3 4/9/3 3/11/3 
f 3/11/3 6/12/3 7/10/3 
f 2/14/4 8/13/4 5/15/4 
f 5/15/4 1/16/4 2/14/4 
f 2/18/5 4/17/5 7/19/5 
f 7/19/5 8/20/5 2/18/5 
f 10/6/2 9/5/2 11/7/2 
f 11/7/2 12/8/2 10/6/2 
f 13/22/1 9/21/1 10/23/1 
f 10/23/1 14/24/1 13/22/1 
f 13/18/5 14/17/5 15/19/5 
f 15/19/5 16/20/5 13/18/5 
f 13/26/4 16/25/4 11/27/4 
f 11/27/4 9/28/4 13/26/4 
f 15/30/3 14/29/3 10/31/3 
f 10/31/3 12/32/3 15/30/3 
f 18/6/2 17/5/2 19/7/2 
f 19/7/2 20/8/2 18/6/2 
f 22/34/3 21/33/3 18/35/3 
f 18/35/3 20/36/3 22/34/3 
f 23/38/1 17/37/1 18/39/1 
f 18/39/1 21/40/1 23/38/1 
f 23/42/4 24/41/4 19/43/4 
f 19/43/4 17/44/4 23/42/4 
f 23/18/5 21/17/5 22/19/5 
f 22/19/5 24/20/5 23/18/5 
f 26/46/1 25/45/1 27/47/1 
f 27/47/1 28/48/1 26/46/1 
f 26/18/5 28/17/5 29/19/5 
f 29/19/5 30/20/5 26/18/5 
f 27/6/2 25/5/2 31/7/2 
f 31/7/2 32/8/2 27/6/2 
f 26/50/4 30/49/4 31/51/4 
f 31/51/4 25/52/4 26/50/4 
f 29/54/3 28/53/3 27/55/3 
f 27/55/3 32/56/3 29/54/3 
f 34/58/3 33/57/3 35/59/3 
f 35/59/3 36/60/3 34/58/3 
f 38/62/4 37/61/4 39/63/4 
f 39/63/4 40/64/4 38/62/4 
f 39/66/6 37/65/6 34/67/6 
f 34/67/6 36/68/6 39/66/6 
f 38/70/5 33/69/5 34/71/5 
f 34/71/5 37/72/5 38/70/5 
f 35/74/2 40/73/2 39/75/2 
f 39/75/2 36/76/2 35/74/2 
f 42/78/6 41/77/6 43/79/6 
f 43/79/6 44/80/6 42/78/6 
f 45/82/4 41/81/4 42/83/4 
f 42/83/4 46/84/4 45/82/4 
f 45/70/5 47/69/5 43/71/5 
f 43/71/5 41/72/5 45/70/5 
f 48/74/2 46/73/2 42/75/2 
f 42/75/2 44/76/2 48/74/2 
f 43/86/3 47/85/3 48/87/3 
f 48/87/3 44/88/3 43/86/3 
f 50/74/2 49/73/2 51/75/2 
f 51/75/2 52/76/2 50/74/2 
f 54/90/4 53/89/4 51/91/4 
f 51/91/4 49/92/4 54/90/4 
f 56/94/3 55/93/3 50/95/3 
f 50/95/3 52/96/3 56/94/3 
f 51/98/6 53/97/6 56/99/6 
f 56/99/6 52/100/6 51/98/6 
f 54/70/5 55/69/5 56/71/5 
f 56/71/5 53/72/5 54/70/5 
f 58/102/6 57/101/6 59/103/6 
f 59/103/6 60/104/6 58/102/6 
f 61/106/4 57/105/4 58/107/4 
f 58/107/4 62/108/4 61/106/4 
f 59/110/3 63/109/3 64/111/3 
f 64/111/3 60/112/3 59/110/3 
f 61/70/5 63/69/5 59/71/5 
f 59/71/5 57/72/5 61/70/5 
f 64/74/2 62/73/2 58/75/2 
f 58/75/2 60/76/2 64/74/2 

usemtl stone

f 66/114/6 65/113/6 67/115/6 
f 67/115/6 68/116/6 66/114/6 
f 67/115/6 69/117/6 68/116/6 
f 67/115/6 70/118/6 69/117/6 
f 72/113/1 71/119/1 73/120/1 
f 73/120/1 74/121/1 72/113/1 
f 73/120/1 75/122/1 74/121/1 
f 75/122/1 76/123/1 74/121/1 
f 78/125/3 77/124/3 79/126/3 
f 79/126/3 80/127/3 78/125/3 
f 81/128/5 72/113/5 74/129/5 
f 74/129/5 82/130/5 81/128/5 
f 84/132/7 83/131/7 85/133/7 
f 85/133/7 77/134/7 84/132/7 
f 85/136/4 86/135/4 87/137/4 
f 87/137/4 88/138/4 85/136/4 
f 31/45/1 85/139/1 88/140/1 
f 88/140/1 79/141/1 31/45/1 
f 79/141/1 32/47/1 31/45/1 
f 79/141/1 29/48/1 32/47/1 
f 79/141/1 20/39/1 29/48/1 
f 79/141/1 22/40/1 20/39/1 
f 79/141/1 6/3/1 22/40/1 
f 79/141/1 7/4/1 6/3/1 
f 79/141/1 12/23/1 7/4/1 
f 79/141/1 15/24/1 12/23/1 
f 85/139/1 31/45/1 16/22/1 
f 16/22/1 77/142/1 85/139/1 
f 16/22/1 15/24/1 77/142/1 
f 15/24/1 79/141/1 77/142/1 
f 31/45/1 30/46/1 16/22/1 
f 30/46/1 19/37/1 16/22/1 
f 19/37/1 30/46/1 29/48/1 
f 29/48/1 20/39/1 19/37/1 
f 19/37/1 24/38/1 16/22/1 
f 24/38/1 5/1/1 16/22/1 
f 5/1/1 24/38/1 22/40/1 
f 22/40/1 6/3/1 5/1/1 
f 5/1/1 8/2/1 16/22/1 
f 8/2/1 11/21/1 16/22/1 
f 11/21/1 8/2/1 7/4/1 
f 7/4/1 12/23/1 11/21/1 
f 83/144/8 89/143/8 86/145/8 
f 86/145/8 85/146/8 83/144/8 
f 91/148/3 90/147/3 92/149/3 
f 92/149/3 93/150/3 91/148/3 
f 95/152/4 94/151/4 96/153/4 
f 96/153/4 97/154/4 95/152/4 
f 88/156/9 95/155/9 90/157/9 
f 90/157/9 79/158/9 88/156/9 
f 87/160/6 86/159/6 78/161/6 
f 78/161/6 80/162/6 87/160/6 
f 92/163/2 97/115/2 96/164/2 
f 96/164/2 93/165/2 92/163/2 
f 98/167/10 84/166/10 77/168/10 
f 77/168/10 78/169/10 98/167/10 
f 80/171/11 79/170/11 90/172/11 
f 90/172/11 91/173/11 80/171/11 
f 88/175/12 87/174/12 94/176/12 
f 94/176/12 95/177/12 88/175/12 
f 91/179/13 94/178/13 87/180/13 
f 87/180/13 80/181/13 91/179/13 
f 95/183/1 97/182/1 92/149/1 
f 92/149/1 90/147/1 95/183/1 
f 86/185/14 89/184/14 98/186/14 
f 98/186/14 78/187/14 86/185/14 
f 82/128/3 74/188/3 76/189/3 
f 76/189/3 99/123/3 82/128/3 
f 99/123/3 98/190/3 82/128/3 
f 99/123/3 84/191/3 98/190/3 
f 72/113/4 81/164/4 89/192/4 
f 89/192/4 100/118/4 72/113/4 
f 89/192/4 83/193/4 100/118/4 
f 72/113/4 100/118/4 71/194/4 
f 96/182/6 94/183/6 91/152/6 
f 91/152/6 93/154/6 96/182/6 
f 67/196/3 101/195/3 102/197/3 
f 102/197/3 103/198/3 67/196/3 
f 102/197/3 104/199/3 103/198/3 
f 67/196/3 103/198/3 70/200/3 
f 105/202/4 65/201/4 66/203/4 
f 66/203/4 106/204/4 105/202/4 
f 107/205/4 105/202/4 106/204/4 
f 106/204/4 108/206/4 107/205/4 
f 109/208/14 108/207/14 104/209/14 
f 104/209/14 110/210/14 109/208/14 
f 107/212/8 108/211/8 109/213/8 
f 109/213/8 111/214/8 107/212/8 
f 102/216/7 107/215/7 111/217/7 
f 111/217/7 112/218/7 102/216/7 
f 111/139/1 113/140/1 114/141/1 
f 114/141/1 112/142/1 111/139/1 
f 115/220/11 114/219/11 116/221/11 
f 116/221/11 117/222/11 115/220/11 
f 113/224/12 118/223/12 119/225/12 
f 119/225/12 120/226/12 113/224/12 
f 104/228/10 102/227/10 112/229/10 
f 112/229/10 110/230/10 104/228/10 
f 113/232/9 120/231/9 116/233/9 
f 116/233/9 114/234/9 113/232/9 
f 120/183/1 121/182/1 122/149/1 
f 122/149/1 116/147/1 120/183/1 
f 105/195/5 101/235/5 67/236/5 
f 67/236/5 65/196/5 105/195/5 
f 117/238/13 119/237/13 118/239/13 
f 118/239/13 115/240/13 117/238/13 
f 122/241/2 121/202/2 123/242/2 
f 123/242/2 124/243/2 122/241/2 
f 120/245/4 119/244/4 123/246/4 
f 123/246/4 121/247/4 120/245/4 
f 38/65/6 118/160/6 109/159/6 
f 109/159/6 110/161/6 38/65/6 
f 110/161/6 33/67/6 38/65/6 
f 110/161/6 35/68/6 33/67/6 
f 110/161/6 63/103/6 35/68/6 
f 110/161/6 64/104/6 63/103/6 
f 110/161/6 55/99/6 64/104/6 
f 110/161/6 50/100/6 55/99/6 
f 110/161/6 47/79/6 50/100/6 
f 110/161/6 48/80/6 47/79/6 
f 118/160/6 38/65/6 46/78/6 
f 46/78/6 115/162/6 118/160/6 
f 46/78/6 48/80/6 115/162/6 
f 48/80/6 110/161/6 115/162/6 
f 38/65/6 40/66/6 46/78/6 
f 40/66/6 61/101/6 46/78/6 
f 61/101/6 40/66/6 35/68/6 
f 35/68/6 63/103/6 61/101/6 
f 61/101/6 62/102/6 46/78/6 
f 62/102/6 54/97/6 46/78/6 
f 54/97/6 62/102/6 64/104/6 
f 64/104/6 55/99/6 54/97/6 
f 54/97/6 49/98/6 46/78/6 
f 49/98/6 45/77/6 46/78/6 
f 45/77/6 49/98/6 50/100/6 
f 50/100/6 47/79/6 45/77/6 
f 110/249/3 112/248/3 114/250/3 
f 114/250/3 115/251/3 110/249/3 
f 123/182/6 119/183/6 117/152/6 
f 117/152/6 124/154/6 123/182/6 
f 111/253/4 109/252/4 118/254/4 
f 118/254/4 113/255/4 111/253/4 
f 117/257/3 116/256/3 122/258/3 
f 122/258/3 124/259/3 117/257/3 
f 108/260/6 106/114/6 125/116/6 
f 125/116/6 104/193/6 108/260/6 
f 125/116/6 126/117/6 104/193/6 
f 126/117/6 103/118/6 104/193/6 
f 127/120/1 100/114/1 83/260/1 
f 83/260/1 84/191/1 127/120/1 
f 84/191/1 128/122/1 127/120/1 
f 84/191/1 99/123/1 128/122/1 
f 75/262/2 73/261/2 127/263/2 
f 127/263/2 128/264/2 75/262/2 
f 99/266/15 76/265/15 75/267/15 
f 75/267/15 128/268/15 99/266/15 
f 71/270/16 100/269/16 127/271/16 
f 127/271/16 73/272/16 71/270/16 
f 125/274/16 106/273/16 66/275/16 
f 66/275/16 68/276/16 125/274/16 
f 70/278/15 103/277/15 126/279/15 
f 126/279/15 69/280/15 70/278/15 
f 126/282/2 125/281/2 68/283/2 
f 68/283/2 69/284/2 126/282/2 
f 89/260/6 81/113/6 82/115/6 
f 82/115/6 98/193/6 89/260/6 
f 105/113/1 107/260/1 102/191/1 
f 102/191/1 101/285/1 105/113/1 
