# Created by Kenney (www.kenney.nl) 

mtllib fenceStoneStraight.mtl 

g fenceStoneStraight

v -1 0 0 
v -1 0.07 0 
v -1 0 0.1 
v -1 0.09 0.007 
v -1 0.09 0.03291415 
v -1 0.09 0.06708585 
v -1 0.6019141 0.03291415 
v -1 0.09 0.09299999 
v -1 0.07 0.1 
v -1 0.6019141 0.06708585 
v -1 0.6519141 0.07708585 
v -1 0.6519141 0.02291415 
v -1 0.6019141 0.02291415 
v -1 0.6019141 0.07708585 
v -7.219114E-16 0.6519141 0.02291415 
v -7.219114E-16 0.6019141 0.02291415 
v -7.219114E-16 0.6519141 0.07708585 
v 7.219114E-16 0.6019141 0.03291415 
v 7.219114E-16 0.6019141 0.06708585 
v 7.219114E-16 0.09 0.03291415 
v -7.219114E-16 0.6019141 0.07708585 
v 7.219114E-16 0.09 0.06708585 
v 7.219114E-16 -6.742496E-16 0.1 
v 7.219114E-16 0.09 0.007 
v 0 0 0 
v 7.219114E-16 0.07 -5.775291E-15 
v 7.219114E-16 0.09 0.09299999 
v 7.219114E-16 0.07 0.1 

vn -1 0 0 
vn 1 0 0 
vn 0 1 0 
vn 0 0 1 
vn 0 0 -1 
vn 0 0.3303504 -0.9438583 
vn 0 -1 0 
vn 0 0.3303504 0.9438583 

vt -2.395051E-13 -2.387139E-14 
vt -2.395051E-13 2.755906 
vt 3.937008 -2.387139E-14 
vt 0.2755905 3.543307 
vt 1.295833 3.543307 
vt 2.641175 3.543307 
vt 1.295833 23.69741 
vt 3.661417 3.543307 
vt 3.937008 2.755906 
vt 2.641175 23.69741 
vt 3.034876 25.66591 
vt 0.902132 25.66591 
vt 0.902132 23.69741 
vt 3.034876 23.69741 
vt -0.902132 25.66591 
vt -0.902132 23.69741 
vt -3.034876 25.66591 
vt -1.295833 23.69741 
vt -2.641175 23.69741 
vt -1.295833 3.543307 
vt -3.034876 23.69741 
vt -2.641175 3.543307 
vt -3.937008 -2.654526E-14 
vt -0.2755905 3.543307 
vt 0 0 
vt 2.273737E-13 2.755906 
vt -3.661417 3.543307 
vt -3.937008 2.755906 
vt -2.603264E-14 2.641175 
vt -2.603264E-14 3.661417 
vt 39.37008 2.641175 
vt 39.37008 3.661417 
vt 1.316815E-14 3.543307 
vt -39.37008 3.543307 
vt 1.316815E-14 23.69741 
vt -39.37008 23.69741 
vt -2.09379E-14 3.543307 
vt -2.09379E-14 23.69741 
vt 39.37008 3.543307 
vt 39.37008 23.69741 
vt -2.603264E-14 0.2755905 
vt -2.603264E-14 1.295833 
vt 39.37008 0.2755905 
vt 39.37008 1.295833 
vt -2.842171E-14 2.601184 
vt -2.647925E-14 3.435421 
vt 39.37008 2.601184 
vt 39.37008 3.435421 
vt 39.37008 4.689819E-27 
vt 39.37008 2.755906 
vt -2.842171E-14 2.755906 
vt 2.842171E-14 3.937008 
vt -39.37008 3.937008 
vt -39.37008 4.474532E-29 
vt 5.684342E-15 -2.654526E-14 
vt -39.37008 6.155387E-30 
vt 5.684342E-15 2.755906 
vt -39.37008 2.755906 
vt -1.185843E-15 1.300592 
vt -39.37008 1.300592 
vt 8.866858E-16 2.134829 
vt -39.37008 2.134829 
vt 2.200642E-14 1.295833 
vt -3.483699E-14 0.902132 
vt -39.37008 1.295833 
vt -39.37008 0.902132 
vt 2.842171E-14 23.69741 
vt 39.37008 25.66591 
vt 2.842171E-14 25.66591 
vt 2.842171E-14 0.902132 
vt 2.842171E-14 3.034876 
vt 39.37008 0.902132 
vt 39.37008 3.034876 
vt -2.842171E-14 23.69741 
vt -2.842171E-14 25.66591 
vt -39.37008 25.66591 
vt 2.200642E-14 2.641175 
vt -39.37008 2.641175 
vt -3.483699E-14 3.034876 
vt -39.37008 3.034876 

usemtl stone

f 2/2/1 1/1/1 3/3/1 
f 3/3/1 4/4/1 2/2/1 
f 3/3/1 5/5/1 4/4/1 
f 3/3/1 6/6/1 5/5/1 
f 6/6/1 7/7/1 5/5/1 
f 3/3/1 8/8/1 6/6/1 
f 3/3/1 9/9/1 8/8/1 
f 7/7/1 6/6/1 10/10/1 
f 7/7/1 10/10/1 11/11/1 
f 7/7/1 11/11/1 12/12/1 
f 12/12/1 13/13/1 7/7/1 
f 10/10/1 14/14/1 11/11/1 
f 16/16/2 15/15/2 17/17/2 
f 17/17/2 18/18/2 16/16/2 
f 17/17/2 19/19/2 18/18/2 
f 19/19/2 20/20/2 18/18/2 
f 17/17/2 21/21/2 19/19/2 
f 20/20/2 19/19/2 22/22/2 
f 20/20/2 22/22/2 23/23/2 
f 24/24/2 20/20/2 23/23/2 
f 24/24/2 23/23/2 25/25/2 
f 25/25/2 26/26/2 24/24/2 
f 22/22/2 27/27/2 23/23/2 
f 27/27/2 28/28/2 23/23/2 
f 27/30/3 22/29/3 6/31/3 
f 6/31/3 8/32/3 27/30/3 
f 6/34/4 22/33/4 19/35/4 
f 19/35/4 10/36/4 6/34/4 
f 18/38/5 20/37/5 5/39/5 
f 5/39/5 7/40/5 18/38/5 
f 20/42/3 24/41/3 4/43/3 
f 4/43/3 5/44/3 20/42/3 
f 24/46/6 26/45/6 2/47/6 
f 2/47/6 4/48/6 24/46/6 
f 25/25/5 1/49/5 2/50/5 
f 2/50/5 26/51/5 25/25/5 
f 25/25/7 23/52/7 3/53/7 
f 3/53/7 1/54/7 25/25/7 
f 3/56/4 23/55/4 28/57/4 
f 28/57/4 9/58/4 3/56/4 
f 9/60/8 28/59/8 27/61/8 
f 27/61/8 8/62/8 9/60/8 
f 16/64/7 18/63/7 7/65/7 
f 7/65/7 13/66/7 16/64/7 
f 16/67/5 13/40/5 12/68/5 
f 12/68/5 15/69/5 16/67/5 
f 17/71/3 15/70/3 12/72/3 
f 12/72/3 11/73/3 17/71/3 
f 14/36/4 21/74/4 17/75/4 
f 17/75/4 11/76/4 14/36/4 
f 10/78/7 19/77/7 21/79/7 
f 21/79/7 14/80/7 10/78/7 
g fenceStoneStraight




usemtl stone

f 2/2/1 1/1/1 3/3/1 
f 3/3/1 4/4/1 2/2/1 
f 3/3/1 5/5/1 4/4/1 
f 3/3/1 6/6/1 5/5/1 
f 6/6/1 7/7/1 5/5/1 
f 3/3/1 8/8/1 6/6/1 
f 3/3/1 9/9/1 8/8/1 
f 7/7/1 6/6/1 10/10/1 
f 7/7/1 10/10/1 11/11/1 
f 7/7/1 11/11/1 12/12/1 
f 12/12/1 13/13/1 7/7/1 
f 10/10/1 14/14/1 11/11/1 
f 16/16/2 15/15/2 17/17/2 
f 17/17/2 18/18/2 16/16/2 
f 17/17/2 19/19/2 18/18/2 
f 19/19/2 20/20/2 18/18/2 
f 17/17/2 21/21/2 19/19/2 
f 20/20/2 19/19/2 22/22/2 
f 20/20/2 22/22/2 23/23/2 
f 24/24/2 20/20/2 23/23/2 
f 24/24/2 23/23/2 25/25/2 
f 25/25/2 26/26/2 24/24/2 
f 22/22/2 27/27/2 23/23/2 
f 27/27/2 28/28/2 23/23/2 
f 27/30/3 22/29/3 6/31/3 
f 6/31/3 8/32/3 27/30/3 
f 6/34/4 22/33/4 19/35/4 
f 19/35/4 10/36/4 6/34/4 
f 18/38/5 20/37/5 5/39/5 
f 5/39/5 7/40/5 18/38/5 
f 20/42/3 24/41/3 4/43/3 
f 4/43/3 5/44/3 20/42/3 
f 24/46/6 26/45/6 2/47/6 
f 2/47/6 4/48/6 24/46/6 
f 25/25/5 1/49/5 2/50/5 
f 2/50/5 26/51/5 25/25/5 
f 25/25/7 23/52/7 3/53/7 
f 3/53/7 1/54/7 25/25/7 
f 3/56/4 23/55/4 28/57/4 
f 28/57/4 9/58/4 3/56/4 
f 9/60/8 28/59/8 27/61/8 
f 27/61/8 8/62/8 9/60/8 
f 16/64/7 18/63/7 7/65/7 
f 7/65/7 13/66/7 16/64/7 
f 16/67/5 13/40/5 12/68/5 
f 12/68/5 15/69/5 16/67/5 
f 17/71/3 15/70/3 12/72/3 
f 12/72/3 11/73/3 17/71/3 
f 14/36/4 21/74/4 17/75/4 
f 17/75/4 11/76/4 14/36/4 
f 10/78/7 19/77/7 21/79/7 
f 21/79/7 14/80/7 10/78/7 
