# Created by Kenney (www.kenney.nl) 

mtllib gravestoneBroken.mtl 

g gravestoneBroken

v 0 0.078 0 
v 0 0.078 0.1495 
v -0.02145 0.117 0.0082225 
v -0.02145 0.117 0.1412775 
v -0.36855 0.117 0.1412775 
v -0.14793 0.2266031 0.1412775 
v -0.08008526 0.2616009 0.1412775 
v -0.02145 0.3163005 0.1412775 
v -0.05145 0.3163005 0.1412775 
v -0.1200853 0.2616009 0.1412775 
v -0.20793 0.2266031 0.1412775 
v -0.2605385 0.249601 0.1412775 
v -0.36855 0.3580808 0.1412775 
v -0.2305384 0.249601 0.1412775 
v -0.3216303 0.3296725 0.1412775 
v -0.3016303 0.3296725 0.1412775 
v -0.3394014 0.3580808 0.1412775 
v 0 0 0.1495 
v -0.39 0 0.1495 
v -0.39 0.078 0.1495 
v -0.02145 0.3163005 0.0082225 
v -0.39 0 0 
v 0 0 0 
v -0.39 0.078 0 
v -0.36855 0.117 0.0082225 
v -0.36855 0.3580808 0.0082225 
v -0.2605385 0.249601 0.0082225 
v -0.20793 0.2266031 0.0082225 
v -0.3216303 0.3296725 0.0082225 
v -0.3394014 0.3580808 0.0082225 
v -0.3016303 0.3296725 0.0082225 
v -0.2305384 0.249601 0.0082225 
v -0.14793 0.2266031 0.0082225 
v -0.08008526 0.2616009 0.0082225 
v -0.1200853 0.2616009 0.0082225 
v -0.05145 0.3163005 0.0082225 
v -0.07993864 0 -0.145424 
v -0.07993864 0.04 -0.145424 
v -0.1449925 0 -0.08037021 
v -0.1449925 0.04 -0.08037021 
v -0.09973763 0 -0.03511538 
v -0.09973763 0.04 -0.03511538 
v -0.03468381 0 -0.1001692 
v -0.03468381 0.04 -0.1001692 
v 0.09638287 0.04 -0.04684797 
v 0.09638287 0 -0.04684797 
v 0.05654193 0.04 0.003238956 
v 0.05654193 0 0.003238956 
v -0.01545802 0 -0.05403239 
v -0.01545802 0.04 -0.05403239 
v 0.02438292 0 -0.1041193 
v 0.02438292 0.04 -0.1041193 

vn 0.8762159 0.4819188 0 
vn 0 0 1 
vn 1 0 0 
vn 0 0 -1 
vn -1 0 0 
vn 0 0.2062982 0.9784892 
vn 0 0.2062982 -0.9784892 
vn -0.8762159 0.4819188 0 
vn 0 -1 0 
vn 0 1 0 
vn -0.8859438 0.4637924 0 
vn -0.7825401 0.6226001 0 
vn 0.7131183 0.7010437 0 
vn 0.8896842 0.4565764 0 
vn 0.8477854 0.5303392 0 
vn -0.7071068 0 -0.7071068 
vn 0.7071068 0 0.7071068 
vn -0.7071068 0 0.7071068 
vn 0.7071068 0 -0.7071068 
vn 0.7826082 0 0.6225147 
vn -0.7826082 0 -0.6225147 
vn -0.6225147 0 0.7826082 
vn 0.6225147 0 -0.7826082 

vt 1.92593E-34 2.690742 
vt -5.885827 2.690742 
vt -0.3237205 4.443088 
vt -5.562106 4.443088 
vt -14.50984 4.606299 
vt -5.824016 8.921383 
vt -0.8444882 4.606299 
vt -3.152963 10.29925 
vt -0.8444882 12.45277 
vt -2.025591 12.45277 
vt -4.727766 10.29925 
vt -8.186221 8.921383 
vt -10.25742 9.82681 
vt -14.50984 14.09767 
vt -9.076317 9.82681 
vt -12.66261 12.97923 
vt -11.87521 12.97923 
vt -13.36226 14.09767 
vt 0 0 
vt -15.35433 0 
vt 0 3.070866 
vt -15.35433 3.070866 
vt -0.3237205 12.45277 
vt -0.3237205 4.606299 
vt -5.562106 12.45277 
vt -5.562106 4.606299 
vt 15.35433 0 
vt 15.35433 3.070866 
vt 5.885827 0 
vt 5.885827 3.070866 
vt -5.885827 3.070866 
vt -5.885827 0 
vt -1.219796E-19 1.790574 
vt -15.35433 1.790574 
vt -0.8444882 3.359762 
vt -14.50984 3.359762 
vt 15.35433 3.004809 
vt -1.504633E-36 3.004809 
vt 14.50984 4.573997 
vt 0.8444882 4.573997 
vt 0.3237205 4.606299 
vt 0.3237205 14.09767 
vt 5.562106 4.606299 
vt 5.562106 14.09767 
vt 2.784209E-17 -4.708798 
vt 0.3237205 -2.956453 
vt 5.885827 -4.708798 
vt 5.562106 -2.956453 
vt 0 5.885827 
vt -15.35433 5.885827 
vt 0.8444882 4.606299 
vt 10.25742 9.82681 
vt 14.50984 4.606299 
vt 14.50984 14.09767 
vt 8.186221 8.921383 
vt 12.66261 12.97923 
vt 13.36226 14.09767 
vt 11.87521 12.97923 
vt 9.076317 9.82681 
vt 5.824016 8.921383 
vt 3.152963 10.29925 
vt 0.8444882 12.45277 
vt 4.727766 10.29925 
vt 2.025591 12.45277 
vt 0.8444882 0.3237205 
vt 0.8444882 5.562106 
vt 2.025591 0.3237205 
vt 2.025591 5.562106 
vt 0.3237205 10.09301 
vt 5.562106 10.09301 
vt 0.3237205 7.662236 
vt 5.562106 7.662236 
vt 3.152963 0.3237205 
vt 3.152963 5.562106 
vt 4.727766 0.3237205 
vt 4.727766 5.562106 
vt 0.3237205 3.355307 
vt 0.3237205 5.116068 
vt 5.562106 3.355307 
vt 5.562106 5.116068 
vt 5.824016 0.3237205 
vt 5.824016 5.562106 
vt 8.186221 0.3237205 
vt 8.186221 5.562106 
vt -0.3237205 13.37057 
vt -0.3237205 12.1009 
vt -5.562106 13.37057 
vt -5.562106 12.1009 
vt 9.076317 0.3237205 
vt 9.076317 5.562106 
vt 10.25742 0.3237205 
vt 10.25742 5.562106 
vt -0.3237205 16.96936 
vt -0.3237205 13.42605 
vt -5.562106 16.96936 
vt -5.562106 13.42605 
vt 11.87521 0.3237205 
vt 11.87521 5.562106 
vt 12.66261 0.3237205 
vt 12.66261 5.562106 
vt -0.3237205 19.03833 
vt -0.3237205 17.71909 
vt -5.562106 19.03833 
vt -5.562106 17.71909 
vt 13.36226 0.3237205 
vt 13.36226 5.562106 
vt 14.50984 0.3237205 
vt 14.50984 5.562106 
vt -1.823038 0 
vt -1.823038 1.574803 
vt 1.799009 0 
vt 1.799009 1.574803 
vt -3.754153 0 
vt -6.273838 0 
vt -3.754153 1.574803 
vt -6.273838 1.574803 
vt -1.365504 -3.943669 
vt -3.147191 -5.725356 
vt -3.926678 -1.382495 
vt -5.708365 -3.164181 
vt 1.823038 1.574803 
vt 1.823038 0 
vt -1.799009 1.574803 
vt -1.799009 0 
vt 6.273838 0 
vt 3.754153 0 
vt 6.273838 1.574803 
vt 3.754153 1.574803 
vt 1.365504 -3.943669 
vt 3.926678 -1.382495 
vt 3.147191 -5.725356 
vt 5.708365 -3.164181 
vt 3.805644 1.574803 
vt 3.805644 0 
vt 1.285959 1.574803 
vt 1.285959 0 
vt 1.821515 0 
vt -1.800532 0 
vt 1.821515 1.574803 
vt -1.800532 1.574803 
vt 3.794601 -1.844408 
vt 0.9599575 -4.099185 
vt 2.22606 0.127518 
vt -0.6085833 -2.127259 
vt -3.794601 -1.844408 
vt -2.22606 0.127518 
vt -0.9599575 -4.099185 
vt 0.6085833 -2.127259 
vt 1.800532 0 
vt -1.821515 0 
vt 1.800532 1.574803 
vt -1.821515 1.574803 
vt -3.805644 0 
vt -3.805644 1.574803 
vt -1.285959 0 
vt -1.285959 1.574803 

usemtl stone

f 2/2/1 1/1/1 3/3/1 
f 3/3/1 4/4/1 2/2/1 
f 6/6/2 5/5/2 4/7/2 
f 4/7/2 7/8/2 6/6/2 
f 4/7/2 8/9/2 7/8/2 
f 8/9/2 9/10/2 7/8/2 
f 6/6/2 7/8/2 10/11/2 
f 5/5/2 6/6/2 11/12/2 
f 5/5/2 11/12/2 12/13/2 
f 12/13/2 13/14/2 5/5/2 
f 11/12/2 14/15/2 12/13/2 
f 12/13/2 15/16/2 13/14/2 
f 12/13/2 16/17/2 15/16/2 
f 15/16/2 17/18/2 13/14/2 
f 19/20/2 18/19/2 2/21/2 
f 2/21/2 20/22/2 19/20/2 
f 3/24/3 21/23/3 8/25/3 
f 8/25/3 4/26/3 3/24/3 
f 23/19/4 22/27/4 24/28/4 
f 24/28/4 1/21/4 23/19/4 
f 24/21/5 22/19/5 19/29/5 
f 19/29/5 20/30/5 24/21/5 
f 23/19/3 1/21/3 2/31/3 
f 2/31/3 18/32/3 23/19/3 
f 20/34/6 2/33/6 4/35/6 
f 4/35/6 5/36/6 20/34/6 
f 1/38/7 24/37/7 25/39/7 
f 25/39/7 3/40/7 1/38/7 
f 26/42/5 25/41/5 5/43/5 
f 5/43/5 13/44/5 26/42/5 
f 25/46/8 24/45/8 20/47/8 
f 20/47/8 5/48/8 25/46/8 
f 23/19/9 18/49/9 19/50/9 
f 19/50/9 22/20/9 23/19/9 
f 27/52/4 3/51/4 25/53/4 
f 25/53/4 26/54/4 27/52/4 
f 27/52/4 28/55/4 3/51/4 
f 26/54/4 29/56/4 27/52/4 
f 26/54/4 30/57/4 29/56/4 
f 27/52/4 29/56/4 31/58/4 
f 28/55/4 27/52/4 32/59/4 
f 3/51/4 28/55/4 33/60/4 
f 3/51/4 33/60/4 34/61/4 
f 34/61/4 21/62/4 3/51/4 
f 33/60/4 35/63/4 34/61/4 
f 34/61/4 36/64/4 21/62/4 
f 8/66/10 21/65/10 36/67/10 
f 36/67/10 9/68/10 8/66/10 
f 9/70/11 36/69/11 34/71/11 
f 34/71/11 7/72/11 9/70/11 
f 7/74/10 34/73/10 35/75/10 
f 35/75/10 10/76/10 7/74/10 
f 35/78/12 33/77/12 6/79/12 
f 6/79/12 10/80/12 35/78/12 
f 6/82/10 33/81/10 28/83/10 
f 28/83/10 11/84/10 6/82/10 
f 28/86/13 32/85/13 14/87/13 
f 14/87/13 11/88/13 28/86/13 
f 14/90/10 32/89/10 27/91/10 
f 27/91/10 12/92/10 14/90/10 
f 27/94/14 31/93/14 16/95/14 
f 16/95/14 12/96/14 27/94/14 
f 16/98/10 31/97/10 29/99/10 
f 29/99/10 15/100/10 16/98/10 
f 29/102/15 30/101/15 17/103/15 
f 17/103/15 15/104/15 29/102/15 
f 17/106/10 30/105/10 26/107/10 
f 26/107/10 13/108/10 17/106/10 
f 38/110/16 37/109/16 39/111/16 
f 39/111/16 40/112/16 38/110/16 
f 38/110/17 39/111/17 37/109/17 
f 39/111/17 38/110/17 40/112/17 
f 39/114/18 41/113/18 42/115/18 
f 42/115/18 40/116/18 39/114/18 
f 39/114/19 42/115/19 41/113/19 
f 42/115/19 39/114/19 40/116/19 
f 37/118/9 43/117/9 41/119/9 
f 41/119/9 39/120/9 37/118/9 
f 37/118/10 41/119/10 43/117/10 
f 41/119/10 37/118/10 39/120/10 
f 43/122/17 44/121/17 42/123/17 
f 42/123/17 41/124/17 43/122/17 
f 43/122/16 42/123/16 44/121/16 
f 42/123/16 43/122/16 41/124/16 
f 43/126/19 37/125/19 38/127/19 
f 38/127/19 44/128/19 43/126/19 
f 43/126/18 38/127/18 37/125/18 
f 38/127/18 43/126/18 44/128/18 
f 42/130/10 44/129/10 38/131/10 
f 38/131/10 40/132/10 42/130/10 
f 42/130/9 38/131/9 44/129/9 
f 38/131/9 42/130/9 40/132/9 
f 46/134/20 45/133/20 47/135/20 
f 47/135/20 48/136/20 46/134/20 
f 46/134/21 47/135/21 45/133/21 
f 47/135/21 46/134/21 48/136/21 
f 49/138/22 48/137/22 47/139/22 
f 47/139/22 50/140/22 49/138/22 
f 49/138/23 47/139/23 48/137/23 
f 47/139/23 49/138/23 50/140/23 
f 51/142/9 46/141/9 48/143/9 
f 48/143/9 49/144/9 51/142/9 
f 51/142/10 48/143/10 46/141/10 
f 48/143/10 51/142/10 49/144/10 
f 47/146/10 45/145/10 52/147/10 
f 52/147/10 50/148/10 47/146/10 
f 47/146/9 52/147/9 45/145/9 
f 52/147/9 47/146/9 50/148/9 
f 46/150/23 51/149/23 52/151/23 
f 52/151/23 45/152/23 46/150/23 
f 46/150/22 52/151/22 51/149/22 
f 52/151/22 46/150/22 45/152/22 
f 52/154/21 51/153/21 49/155/21 
f 49/155/21 50/156/21 52/154/21 
f 52/154/20 49/155/20 51/153/20 
f 49/155/20 52/154/20 50/156/20 
g gravestoneBroken




usemtl stone

f 2/2/1 1/1/1 3/3/1 
f 3/3/1 4/4/1 2/2/1 
f 6/6/2 5/5/2 4/7/2 
f 4/7/2 7/8/2 6/6/2 
f 4/7/2 8/9/2 7/8/2 
f 8/9/2 9/10/2 7/8/2 
f 6/6/2 7/8/2 10/11/2 
f 5/5/2 6/6/2 11/12/2 
f 5/5/2 11/12/2 12/13/2 
f 12/13/2 13/14/2 5/5/2 
f 11/12/2 14/15/2 12/13/2 
f 12/13/2 15/16/2 13/14/2 
f 12/13/2 16/17/2 15/16/2 
f 15/16/2 17/18/2 13/14/2 
f 19/20/2 18/19/2 2/21/2 
f 2/21/2 20/22/2 19/20/2 
f 3/24/3 21/23/3 8/25/3 
f 8/25/3 4/26/3 3/24/3 
f 23/19/4 22/27/4 24/28/4 
f 24/28/4 1/21/4 23/19/4 
f 24/21/5 22/19/5 19/29/5 
f 19/29/5 20/30/5 24/21/5 
f 23/19/3 1/21/3 2/31/3 
f 2/31/3 18/32/3 23/19/3 
f 20/34/6 2/33/6 4/35/6 
f 4/35/6 5/36/6 20/34/6 
f 1/38/7 24/37/7 25/39/7 
f 25/39/7 3/40/7 1/38/7 
f 26/42/5 25/41/5 5/43/5 
f 5/43/5 13/44/5 26/42/5 
f 25/46/8 24/45/8 20/47/8 
f 20/47/8 5/48/8 25/46/8 
f 23/19/9 18/49/9 19/50/9 
f 19/50/9 22/20/9 23/19/9 
f 27/52/4 3/51/4 25/53/4 
f 25/53/4 26/54/4 27/52/4 
f 27/52/4 28/55/4 3/51/4 
f 26/54/4 29/56/4 27/52/4 
f 26/54/4 30/57/4 29/56/4 
f 27/52/4 29/56/4 31/58/4 
f 28/55/4 27/52/4 32/59/4 
f 3/51/4 28/55/4 33/60/4 
f 3/51/4 33/60/4 34/61/4 
f 34/61/4 21/62/4 3/51/4 
f 33/60/4 35/63/4 34/61/4 
f 34/61/4 36/64/4 21/62/4 
f 8/66/10 21/65/10 36/67/10 
f 36/67/10 9/68/10 8/66/10 
f 9/70/11 36/69/11 34/71/11 
f 34/71/11 7/72/11 9/70/11 
f 7/74/10 34/73/10 35/75/10 
f 35/75/10 10/76/10 7/74/10 
f 35/78/12 33/77/12 6/79/12 
f 6/79/12 10/80/12 35/78/12 
f 6/82/10 33/81/10 28/83/10 
f 28/83/10 11/84/10 6/82/10 
f 28/86/13 32/85/13 14/87/13 
f 14/87/13 11/88/13 28/86/13 
f 14/90/10 32/89/10 27/91/10 
f 27/91/10 12/92/10 14/90/10 
f 27/94/14 31/93/14 16/95/14 
f 16/95/14 12/96/14 27/94/14 
f 16/98/10 31/97/10 29/99/10 
f 29/99/10 15/100/10 16/98/10 
f 29/102/15 30/101/15 17/103/15 
f 17/103/15 15/104/15 29/102/15 
f 17/106/10 30/105/10 26/107/10 
f 26/107/10 13/108/10 17/106/10 
f 38/110/16 37/109/16 39/111/16 
f 39/111/16 40/112/16 38/110/16 
f 38/110/17 39/111/17 37/109/17 
f 39/111/17 38/110/17 40/112/17 
f 39/114/18 41/113/18 42/115/18 
f 42/115/18 40/116/18 39/114/18 
f 39/114/19 42/115/19 41/113/19 
f 42/115/19 39/114/19 40/116/19 
f 37/118/9 43/117/9 41/119/9 
f 41/119/9 39/120/9 37/118/9 
f 37/118/10 41/119/10 43/117/10 
f 41/119/10 37/118/10 39/120/10 
f 43/122/17 44/121/17 42/123/17 
f 42/123/17 41/124/17 43/122/17 
f 43/122/16 42/123/16 44/121/16 
f 42/123/16 43/122/16 41/124/16 
f 43/126/19 37/125/19 38/127/19 
f 38/127/19 44/128/19 43/126/19 
f 43/126/18 38/127/18 37/125/18 
f 38/127/18 43/126/18 44/128/18 
f 42/130/10 44/129/10 38/131/10 
f 38/131/10 40/132/10 42/130/10 
f 42/130/9 38/131/9 44/129/9 
f 38/131/9 42/130/9 40/132/9 
f 46/134/20 45/133/20 47/135/20 
f 47/135/20 48/136/20 46/134/20 
f 46/134/21 47/135/21 45/133/21 
f 47/135/21 46/134/21 48/136/21 
f 49/138/22 48/137/22 47/139/22 
f 47/139/22 50/140/22 49/138/22 
f 49/138/23 47/139/23 48/137/23 
f 47/139/23 49/138/23 50/140/23 
f 51/142/9 46/141/9 48/143/9 
f 48/143/9 49/144/9 51/142/9 
f 51/142/10 48/143/10 46/141/10 
f 48/143/10 51/142/10 49/144/10 
f 47/146/10 45/145/10 52/147/10 
f 52/147/10 50/148/10 47/146/10 
f 47/146/9 52/147/9 45/145/9 
f 52/147/9 47/146/9 50/148/9 
f 46/150/23 51/149/23 52/151/23 
f 52/151/23 45/152/23 46/150/23 
f 46/150/22 52/151/22 51/149/22 
f 52/151/22 46/150/22 45/152/22 
f 52/154/21 51/153/21 49/155/21 
f 49/155/21 50/156/21 52/154/21 
f 52/154/20 49/155/20 51/153/20 
f 49/155/20 52/154/20 50/156/20 
