# Created by Kenney (www.kenney.nl) 

mtllib gravestoneFlatOpen.mtl 

g gravestoneFlatOpen

v -0.4602 0.136 0.0252 
v -0.44899 0.168 0.04914 
v -0.4602 0.136 1.1068 
v -0.44899 0.168 1.08286 
v -0.0118 0.136 1.1068 
v -0.02301 0.168 1.08286 
v -0.02301 0.2539334 1.08286 
v -0.44899 0.2539334 1.08286 
v -0.44899 0.2539334 0.04914 
v -0.02301 0.2539334 0.04914 
v -0.02301 0.168 0.04914 
v -0.0118 0.136 0.0252 
v 0 0 1.132 
v 0 0 0 
v -0.472 0 1.132 
v -0.472 0 0 
v -0.4602 0.096 0.0252 
v -0.4602 0.096 1.1068 
v 0 0.064 0 
v 0 0.064 1.132 
v -0.0118 0.096 0.0252 
v -0.0118 0.096 1.1068 
v -0.472 0.064 0 
v -0.472 0.064 1.132 
v -0.05326966 0.2539334 0.07939966 
v -0.4187303 0.2539334 0.07939966 
v -0.4187303 0.2539334 1.0526 
v -0.05326966 0.2539334 1.0526 
v -0.05326966 0.1239334 0.07939966 
v -0.05326966 0.1239334 1.0526 
v -0.4187303 0.1239334 0.07939966 
v -0.4187303 0.1239334 1.0526 

vn -0.9437664 0.3306132 0 
vn 0 0.5990387 0.8007201 
vn 0 0 1 
vn -1 0 0 
vn 1 0 0 
vn 0 0.5990387 -0.8007201 
vn 0 -1 0 
vn 0.938243 0.3459771 0 
vn 0 0.6186886 -0.7856363 
vn 0 0 -1 
vn 0 0.6186886 0.7856363 
vn -0.938243 0.3459771 0 
vn 0.9437664 0.3306132 0 
vn 0 1 0 

vt 0.992126 -0.9368483 
vt 1.934646 0.398061 
vt 43.5748 -0.9368483 
vt 42.63228 0.398061 
vt -0.4645669 -21.81567 
vt -18.11811 -21.81567 
vt -0.9059055 -20.24229 
vt -17.67677 -20.24229 
vt -0.9059055 6.614173 
vt -17.67677 6.614173 
vt -0.9059055 9.997377 
vt -17.67677 9.997377 
vt 1.934646 6.614173 
vt 1.934646 9.997377 
vt 42.63228 6.614173 
vt 42.63228 9.997377 
vt -1.934646 9.997377 
vt -1.934646 6.614173 
vt -42.63228 9.997377 
vt -42.63228 6.614173 
vt 18.11811 4.881642 
vt 0.4645669 4.881642 
vt 17.67677 6.455029 
vt 0.9059055 6.455029 
vt 0 44.56693 
vt 0 0 
vt -18.58268 44.56693 
vt -18.58268 0 
vt 0.992126 3.779528 
vt 0.992126 5.354331 
vt 43.5748 3.779528 
vt 43.5748 5.354331 
vt 4.814825E-35 2.364077 
vt -44.56693 2.364077 
vt -0.992126 3.706845 
vt -43.5748 3.706845 
vt 0 2.519685 
vt 44.56693 0 
vt 44.56693 2.519685 
vt -18.58268 2.519685 
vt 18.58268 1.979556 
vt 0 1.979556 
vt 18.11811 3.583151 
vt 0.4645669 3.583151 
vt -0.4645669 3.779528 
vt -18.11811 3.779528 
vt -0.4645669 5.354331 
vt -18.11811 5.354331 
vt 18.58268 0 
vt 18.58268 2.519685 
vt 3.470517E-17 -25.59349 
vt -18.58268 -25.59349 
vt -0.4645669 -23.9899 
vt -18.11811 -23.9899 
vt 18.11811 3.779528 
vt 0.4645669 3.779528 
vt 18.11811 5.354331 
vt 0.4645669 5.354331 
vt -0.992126 5.354331 
vt -0.992126 3.779528 
vt -43.5748 5.354331 
vt -43.5748 3.779528 
vt 5.538507E-18 -4.065104 
vt 0.992126 -2.722336 
vt 44.56693 -4.065104 
vt 43.5748 -2.722336 
vt -0.992126 5.206829 
vt -43.5748 5.206829 
vt -1.934646 6.541739 
vt -42.63228 6.541739 
vt -44.56693 2.519685 
vt -44.56693 0 
vt 17.67677 6.614173 
vt 0.9059055 6.614173 
vt 17.67677 9.997377 
vt 0.9059055 9.997377 
vt 0.9059055 42.63228 
vt 2.097231 3.125971 
vt 0.9059055 1.934646 
vt 17.67677 1.934646 
vt 16.48545 3.125971 
vt 16.48545 41.44096 
vt 2.097231 41.44096 
vt 17.67677 42.63228 
vt 3.125971 4.879267 
vt 3.125971 9.997377 
vt 41.44096 4.879267 
vt 41.44096 9.997377 
vt -2.097231 4.879267 
vt -16.48545 4.879267 
vt -2.097231 9.997377 
vt -16.48545 9.997377 
vt -3.125971 9.997377 
vt -3.125971 4.879267 
vt -41.44096 9.997377 
vt -41.44096 4.879267 
vt 16.48545 4.879267 
vt 2.097231 4.879267 
vt 16.48545 9.997377 
vt 2.097231 9.997377 

usemtl stone

f 2/2/1 1/1/1 3/3/1 
f 3/3/1 4/4/1 2/2/1 
f 3/6/2 5/5/2 6/7/2 
f 6/7/2 4/8/2 3/6/2 
f 4/10/3 6/9/3 7/11/3 
f 7/11/3 8/12/3 4/10/3 
f 9/14/4 2/13/4 4/15/4 
f 4/15/4 8/16/4 9/14/4 
f 11/18/5 10/17/5 7/19/5 
f 7/19/5 6/20/5 11/18/5 
f 12/22/6 1/21/6 2/23/6 
f 2/23/6 11/24/6 12/22/6 
f 14/26/7 13/25/7 15/27/7 
f 15/27/7 16/28/7 14/26/7 
f 1/30/4 17/29/4 18/31/4 
f 18/31/4 3/32/4 1/30/4 
f 20/34/8 19/33/8 21/35/8 
f 21/35/8 22/36/8 20/34/8 
f 23/37/4 16/26/4 15/38/4 
f 15/38/4 24/39/4 23/37/4 
f 15/28/3 13/26/3 20/37/3 
f 20/37/3 24/40/3 15/28/3 
f 19/42/9 23/41/9 17/43/9 
f 17/43/9 21/44/9 19/42/9 
f 18/46/3 22/45/3 5/47/3 
f 5/47/3 3/48/3 18/46/3 
f 14/26/10 16/49/10 23/50/10 
f 23/50/10 19/37/10 14/26/10 
f 24/52/11 20/51/11 22/53/11 
f 22/53/11 18/54/11 24/52/11 
f 21/56/10 17/55/10 1/57/10 
f 1/57/10 12/58/10 21/56/10 
f 21/60/5 12/59/5 5/61/5 
f 5/61/5 22/62/5 21/60/5 
f 17/64/12 23/63/12 24/65/12 
f 24/65/12 18/66/12 17/64/12 
f 5/68/13 12/67/13 11/69/13 
f 11/69/13 6/70/13 5/68/13 
f 14/26/5 19/37/5 20/71/5 
f 20/71/5 13/72/5 14/26/5 
f 11/74/10 2/73/10 9/75/10 
f 9/75/10 10/76/10 11/74/10 
f 25/78/14 7/77/14 10/79/14 
f 10/79/14 9/80/14 25/78/14 
f 9/80/14 26/81/14 25/78/14 
f 9/80/14 27/82/14 26/81/14 
f 7/77/14 25/78/14 28/83/14 
f 28/83/14 8/84/14 7/77/14 
f 28/83/14 27/82/14 8/84/14 
f 27/82/14 9/80/14 8/84/14 
f 30/83/14 29/78/14 31/81/14 
f 31/81/14 32/82/14 30/83/14 
f 25/86/4 29/85/4 30/87/4 
f 30/87/4 28/88/4 25/86/4 
f 31/90/3 29/89/3 25/91/3 
f 25/91/3 26/92/3 31/90/3 
f 31/94/5 26/93/5 27/95/5 
f 27/95/5 32/96/5 31/94/5 
f 30/98/10 32/97/10 27/99/10 
f 27/99/10 28/100/10 30/98/10 
g gravestoneFlatOpen




usemtl stone

f 2/2/1 1/1/1 3/3/1 
f 3/3/1 4/4/1 2/2/1 
f 3/6/2 5/5/2 6/7/2 
f 6/7/2 4/8/2 3/6/2 
f 4/10/3 6/9/3 7/11/3 
f 7/11/3 8/12/3 4/10/3 
f 9/14/4 2/13/4 4/15/4 
f 4/15/4 8/16/4 9/14/4 
f 11/18/5 10/17/5 7/19/5 
f 7/19/5 6/20/5 11/18/5 
f 12/22/6 1/21/6 2/23/6 
f 2/23/6 11/24/6 12/22/6 
f 14/26/7 13/25/7 15/27/7 
f 15/27/7 16/28/7 14/26/7 
f 1/30/4 17/29/4 18/31/4 
f 18/31/4 3/32/4 1/30/4 
f 20/34/8 19/33/8 21/35/8 
f 21/35/8 22/36/8 20/34/8 
f 23/37/4 16/26/4 15/38/4 
f 15/38/4 24/39/4 23/37/4 
f 15/28/3 13/26/3 20/37/3 
f 20/37/3 24/40/3 15/28/3 
f 19/42/9 23/41/9 17/43/9 
f 17/43/9 21/44/9 19/42/9 
f 18/46/3 22/45/3 5/47/3 
f 5/47/3 3/48/3 18/46/3 
f 14/26/10 16/49/10 23/50/10 
f 23/50/10 19/37/10 14/26/10 
f 24/52/11 20/51/11 22/53/11 
f 22/53/11 18/54/11 24/52/11 
f 21/56/10 17/55/10 1/57/10 
f 1/57/10 12/58/10 21/56/10 
f 21/60/5 12/59/5 5/61/5 
f 5/61/5 22/62/5 21/60/5 
f 17/64/12 23/63/12 24/65/12 
f 24/65/12 18/66/12 17/64/12 
f 5/68/13 12/67/13 11/69/13 
f 11/69/13 6/70/13 5/68/13 
f 14/26/5 19/37/5 20/71/5 
f 20/71/5 13/72/5 14/26/5 
f 11/74/10 2/73/10 9/75/10 
f 9/75/10 10/76/10 11/74/10 
f 25/78/14 7/77/14 10/79/14 
f 10/79/14 9/80/14 25/78/14 
f 9/80/14 26/81/14 25/78/14 
f 9/80/14 27/82/14 26/81/14 
f 7/77/14 25/78/14 28/83/14 
f 28/83/14 8/84/14 7/77/14 
f 28/83/14 27/82/14 8/84/14 
f 27/82/14 9/80/14 8/84/14 
f 30/83/14 29/78/14 31/81/14 
f 31/81/14 32/82/14 30/83/14 
f 25/86/4 29/85/4 30/87/4 
f 30/87/4 28/88/4 25/86/4 
f 31/90/3 29/89/3 25/91/3 
f 25/91/3 26/92/3 31/90/3 
f 31/94/5 26/93/5 27/95/5 
f 27/95/5 32/96/5 31/94/5 
f 30/98/10 32/97/10 27/99/10 
f 27/99/10 28/100/10 30/98/10 
g gravestoneFlatLid

v -0.44899 0.272 0.04914 
v -0.02301 0.272 0.04914 
v -0.236 0.32 0.04914 
v -0.02301 0.272 1.08286 
v -0.44899 0.272 1.08286 
v -0.236 0.32 1.08286 

vn -0.2198489 0.9755339 0 
vn 0.2198489 -0.9755339 0 
vn 0.2198489 0.9755339 0 
vn -0.2198489 -0.9755339 0 

vt 16.77087 0 
vt 16.77087 0.7112839 
vt 0 0.7112839 
vt 8.385433 2.601048 
vt -16.77087 0 
vt -16.77087 0.7112839 
vt -8.385433 2.601048 
vt -40.69764 0.7112839 
vt -40.69764 0 
vt 0 40.69764 
vt -16.77087 40.69764 
vt 40.69764 0 
vt 40.69764 0.7112839 
vt 0 -7.608437 
vt 40.69764 -7.608437 
vt 0 -16.20417 
vt 40.69764 -16.20417 
vt 0 0.156375 
vt -40.69764 0.156375 
vt 0 8.752112 
vt -40.69764 8.752112 

usemtl stone

f 10/26/10 9/101/10 33/102/10 
f 33/102/10 34/103/10 10/26/10 
f 33/102/10 35/104/10 34/103/10 
f 10/26/3 33/102/3 9/101/3 
f 33/102/3 10/26/3 34/103/3 
f 33/102/3 34/103/3 35/104/3 
f 8/105/3 7/26/3 36/103/3 
f 36/103/3 37/106/3 8/105/3 
f 36/103/3 38/107/3 37/106/3 
f 8/105/10 36/103/10 7/26/10 
f 36/103/10 8/105/10 37/106/10 
f 36/103/10 37/106/10 38/107/10 
f 10/26/5 34/103/5 36/108/5 
f 36/108/5 7/109/5 10/26/5 
f 10/26/4 36/108/4 34/103/4 
f 36/108/4 10/26/4 7/109/4 
f 10/26/7 7/110/7 8/111/7 
f 8/111/7 9/105/7 10/26/7 
f 10/26/14 8/111/14 7/110/14 
f 8/111/14 10/26/14 9/105/14 
f 33/103/4 9/26/4 8/112/4 
f 8/112/4 37/113/4 33/103/4 
f 33/103/5 8/112/5 9/26/5 
f 8/112/5 33/103/5 37/113/5 
f 38/115/15 35/114/15 33/116/15 
f 33/116/15 37/117/15 38/115/15 
f 38/115/16 33/116/16 35/114/16 
f 33/116/16 38/115/16 37/117/16 
f 36/119/17 34/118/17 35/120/17 
f 35/120/17 38/121/17 36/119/17 
f 36/119/18 35/120/18 34/118/18 
f 35/120/18 36/119/18 38/121/18 
