# Created by Kenney (www.kenney.nl) 

mtllib gravestoneFlat.mtl 

g gravestoneFlat

v -0.4602 0.136 0.0252 
v -0.44899 0.168 0.04914 
v -0.4602 0.136 1.1068 
v -0.44899 0.168 1.08286 
v -0.0118 0.136 1.1068 
v -0.02301 0.168 1.08286 
v -0.236 0.32 0.04914 
v -0.236 0.32 1.08286 
v -0.44899 0.272 0.04914 
v -0.44899 0.272 1.08286 
v -0.02301 0.272 1.08286 
v -0.02301 0.272 0.04914 
v -0.02301 0.168 0.04914 
v -0.0118 0.136 0.0252 
v 0 0 1.132 
v 0 0 0 
v -0.472 0 1.132 
v -0.472 0 0 
v -0.4602 0.096 0.0252 
v -0.4602 0.096 1.1068 
v 0 0.064 0 
v 0 0.064 1.132 
v -0.0118 0.096 0.0252 
v -0.0118 0.096 1.1068 
v -0.472 0.064 0 
v -0.472 0.064 1.132 

vn -0.9437664 0.3306132 0 
vn 0 0.5990387 0.8007201 
vn -0.2198489 0.9755339 0 
vn 0 0 1 
vn -1 0 0 
vn 1 0 0 
vn 0.2198489 0.9755339 0 
vn 0 0.5990387 -0.8007201 
vn 0 0 -1 
vn 0 -1 0 
vn 0.938243 0.3459771 0 
vn 0 0.6186886 -0.7856363 
vn 0 0.6186886 0.7856363 
vn -0.938243 0.3459771 0 
vn 0.9437664 0.3306132 0 

vt 0.992126 -0.9368483 
vt 1.934646 0.398061 
vt 43.5748 -0.9368483 
vt 42.63228 0.398061 
vt -0.4645669 -21.81567 
vt -18.11811 -21.81567 
vt -0.9059055 -20.24229 
vt -17.67677 -20.24229 
vt 1.934646 -6.294265 
vt 42.63228 -6.294265 
vt 1.934646 -14.89 
vt 42.63228 -14.89 
vt -0.9059055 6.614173 
vt -17.67677 6.614173 
vt -0.9059055 10.70866 
vt -17.67677 10.70866 
vt -9.291339 12.59842 
vt 1.934646 6.614173 
vt 1.934646 10.70866 
vt 42.63228 6.614173 
vt 42.63228 10.70866 
vt -1.934646 10.70866 
vt -1.934646 6.614173 
vt -42.63228 10.70866 
vt -42.63228 6.614173 
vt -1.934646 3.238029 
vt -42.63228 3.238029 
vt -1.934646 11.83377 
vt -42.63228 11.83377 
vt 18.11811 4.881642 
vt 0.4645669 4.881642 
vt 17.67677 6.455029 
vt 0.9059055 6.455029 
vt 17.67677 6.614173 
vt 0.9059055 6.614173 
vt 17.67677 10.70866 
vt 0.9059055 10.70866 
vt 9.291339 12.59842 
vt 0 44.56693 
vt 0 0 
vt -18.58268 44.56693 
vt -18.58268 0 
vt 0.992126 3.779528 
vt 0.992126 5.354331 
vt 43.5748 3.779528 
vt 43.5748 5.354331 
vt 4.814825E-35 2.364077 
vt -44.56693 2.364077 
vt -0.992126 3.706845 
vt -43.5748 3.706845 
vt 0 2.519685 
vt 44.56693 0 
vt 44.56693 2.519685 
vt -18.58268 2.519685 
vt 18.58268 1.979556 
vt 0 1.979556 
vt 18.11811 3.583151 
vt 0.4645669 3.583151 
vt -0.4645669 3.779528 
vt -18.11811 3.779528 
vt -0.4645669 5.354331 
vt -18.11811 5.354331 
vt 18.58268 0 
vt 18.58268 2.519685 
vt 3.470517E-17 -25.59349 
vt -18.58268 -25.59349 
vt -0.4645669 -23.9899 
vt -18.11811 -23.9899 
vt 18.11811 3.779528 
vt 0.4645669 3.779528 
vt 18.11811 5.354331 
vt 0.4645669 5.354331 
vt -0.992126 5.354331 
vt -0.992126 3.779528 
vt -43.5748 5.354331 
vt -43.5748 3.779528 
vt 5.538507E-18 -4.065104 
vt 0.992126 -2.722336 
vt 44.56693 -4.065104 
vt 43.5748 -2.722336 
vt -0.992126 5.206829 
vt -43.5748 5.206829 
vt -1.934646 6.541739 
vt -42.63228 6.541739 
vt -44.56693 2.519685 
vt -44.56693 0 

usemtl stone

f 2/2/1 1/1/1 3/3/1 
f 3/3/1 4/4/1 2/2/1 
f 3/6/2 5/5/2 6/7/2 
f 6/7/2 4/8/2 3/6/2 
f 8/10/3 7/9/3 9/11/3 
f 9/11/3 10/12/3 8/10/3 
f 4/14/4 6/13/4 11/15/4 
f 11/15/4 10/16/4 4/14/4 
f 11/15/4 8/17/4 10/16/4 
f 9/19/5 2/18/5 4/20/5 
f 4/20/5 10/21/5 9/19/5 
f 13/23/6 12/22/6 11/24/6 
f 11/24/6 6/25/6 13/23/6 
f 11/27/7 12/26/7 7/28/7 
f 7/28/7 8/29/7 11/27/7 
f 14/31/8 1/30/8 2/32/8 
f 2/32/8 13/33/8 14/31/8 
f 13/35/9 2/34/9 9/36/9 
f 9/36/9 12/37/9 13/35/9 
f 9/36/9 7/38/9 12/37/9 
f 16/40/10 15/39/10 17/41/10 
f 17/41/10 18/42/10 16/40/10 
f 1/44/5 19/43/5 20/45/5 
f 20/45/5 3/46/5 1/44/5 
f 22/48/11 21/47/11 23/49/11 
f 23/49/11 24/50/11 22/48/11 
f 25/51/5 18/40/5 17/52/5 
f 17/52/5 26/53/5 25/51/5 
f 17/42/4 15/40/4 22/51/4 
f 22/51/4 26/54/4 17/42/4 
f 21/56/12 25/55/12 19/57/12 
f 19/57/12 23/58/12 21/56/12 
f 20/60/4 24/59/4 5/61/4 
f 5/61/4 3/62/4 20/60/4 
f 16/40/9 18/63/9 25/64/9 
f 25/64/9 21/51/9 16/40/9 
f 26/66/13 22/65/13 24/67/13 
f 24/67/13 20/68/13 26/66/13 
f 23/70/9 19/69/9 1/71/9 
f 1/71/9 14/72/9 23/70/9 
f 23/74/6 14/73/6 5/75/6 
f 5/75/6 24/76/6 23/74/6 
f 19/78/14 25/77/14 26/79/14 
f 26/79/14 20/80/14 19/78/14 
f 5/82/15 14/81/15 13/83/15 
f 13/83/15 6/84/15 5/82/15 
f 16/40/6 21/51/6 22/85/6 
f 22/85/6 15/86/6 16/40/6 
g gravestoneFlat




usemtl stone

f 2/2/1 1/1/1 3/3/1 
f 3/3/1 4/4/1 2/2/1 
f 3/6/2 5/5/2 6/7/2 
f 6/7/2 4/8/2 3/6/2 
f 8/10/3 7/9/3 9/11/3 
f 9/11/3 10/12/3 8/10/3 
f 4/14/4 6/13/4 11/15/4 
f 11/15/4 10/16/4 4/14/4 
f 11/15/4 8/17/4 10/16/4 
f 9/19/5 2/18/5 4/20/5 
f 4/20/5 10/21/5 9/19/5 
f 13/23/6 12/22/6 11/24/6 
f 11/24/6 6/25/6 13/23/6 
f 11/27/7 12/26/7 7/28/7 
f 7/28/7 8/29/7 11/27/7 
f 14/31/8 1/30/8 2/32/8 
f 2/32/8 13/33/8 14/31/8 
f 13/35/9 2/34/9 9/36/9 
f 9/36/9 12/37/9 13/35/9 
f 9/36/9 7/38/9 12/37/9 
f 16/40/10 15/39/10 17/41/10 
f 17/41/10 18/42/10 16/40/10 
f 1/44/5 19/43/5 20/45/5 
f 20/45/5 3/46/5 1/44/5 
f 22/48/11 21/47/11 23/49/11 
f 23/49/11 24/50/11 22/48/11 
f 25/51/5 18/40/5 17/52/5 
f 17/52/5 26/53/5 25/51/5 
f 17/42/4 15/40/4 22/51/4 
f 22/51/4 26/54/4 17/42/4 
f 21/56/12 25/55/12 19/57/12 
f 19/57/12 23/58/12 21/56/12 
f 20/60/4 24/59/4 5/61/4 
f 5/61/4 3/62/4 20/60/4 
f 16/40/9 18/63/9 25/64/9 
f 25/64/9 21/51/9 16/40/9 
f 26/66/13 22/65/13 24/67/13 
f 24/67/13 20/68/13 26/66/13 
f 23/70/9 19/69/9 1/71/9 
f 1/71/9 14/72/9 23/70/9 
f 23/74/6 14/73/6 5/75/6 
f 5/75/6 24/76/6 23/74/6 
f 19/78/14 25/77/14 26/79/14 
f 26/79/14 20/80/14 19/78/14 
f 5/82/15 14/81/15 13/83/15 
f 13/83/15 6/84/15 5/82/15 
f 16/40/6 21/51/6 22/85/6 
f 22/85/6 15/86/6 16/40/6 
