# Created by Kenney (www.kenney.nl) 

mtllib gravestoneDebris.mtl 

g gravestoneDebris

v 0 0.078 0 
v 0 0.078 0.1495 
v -0.02145 0.117 0.0082225 
v -0.02145 0.117 0.1412775 
v 0 0 0.1495 
v -0.39 0 0.1495 
v -0.39 0.078 0.1495 
v -0.39 0 0 
v 0 0 0 
v -0.39 0.078 0 
v -0.36855 0.117 0.1412775 
v -0.36855 0.117 0.0082225 
v -0.169412 0.1485123 0.1412775 
v -0.02145 0.2510171 0.1412775 
v -0.36855 0.1485123 0.1412775 
v -0.2854451 0.1791117 0.1412775 
v -0.02145 0.2510171 0.0082225 
v -0.36855 0.1485123 0.0082225 
v -0.169412 0.1485123 0.0082225 
v -0.2854451 0.1791117 0.0082225 
v -0.2686238 0.1412775 0.6405469 
v -0.2545781 0.1412775 0.6751373 
v -0.2686238 0.133055 0.6405469 
v -0.2686238 1.773195E-14 0.6405469 
v -0.2686238 -0.0082225 0.6405469 
v -0.2545781 -0.0082225 0.6751373 
v 0.05502652 1.067075E-14 0.4810643 
v 0.09272234 1.123475E-14 0.4938194 
v 0.05502652 0.133055 0.4810643 
v 0.09272234 0.133055 0.4938194 
v 0.106768 -0.0082225 0.5284098 
v -0.05434137 -0.0082225 0.649953 
v 0.106768 0.1412775 0.5284098 
v -0.05434137 0.1412775 0.649953 
v -0.1948507 3.38396E-16 0.2359079 
v -0.2908464 3.3614E-15 0.3079135 
v -0.2504916 1.617533E-14 0.6051224 
v -0.2691286 1.513758E-14 0.5822899 
v -0.3793577 3.541878E-15 0.3108284 
v -0.06838708 1.662652E-14 0.6153626 
v -0.01919479 1.985256E-15 0.2752146 
v 0.05246949 9.362288E-15 0.4517024 
v 0.09272234 0.1412775 0.4938194 
v 0.09272234 -0.0082225 0.4938194 
v -0.01919479 0.133055 0.2752146 
v 0.05246949 0.133055 0.4517024 
v -0.3793577 0.133055 0.3108284 
v -0.2691286 0.133055 0.5822899 
v -0.1948507 0.133055 0.2359079 
v -0.2504916 0.133055 0.6051224 
v -0.2908464 0.133055 0.3079135 
v -0.06838708 0.133055 0.6153626 
v -0.06838708 0.1412775 0.6153626 
v -0.06838708 -0.0082225 0.6153626 

vn 0.8762159 0.4819188 0 
vn 0 0 1 
vn 0 0 -1 
vn -1 0 0 
vn 1 0 0 
vn 0 0.2062982 0.9784892 
vn 0 0.2062982 -0.9784892 
vn -0.8762159 0.4819188 0 
vn 0 -1 0 
vn -0.5694711 0.8220114 0 
vn 0.2549949 0.9669424 0 
vn -0.3455245 0.9384097 0 
vn -0.9265287 0 0.3762243 
vn 0.3205164 0 -0.947243 
vn 0.6022528 0 0.7983054 
vn 0.9265287 0 -0.3762243 
vn 0.1247892 0 0.9921833 
vn 0 1 0 
vn 0.9962294 0 -0.0867583 
vn -0.7746922 0 0.6323383 
vn -0.8901663 0 -0.4556357 
vn -0.6022528 0 -0.7983054 
vn -0.1247892 0 -0.9921833 
vn -0.03291419 0 -0.9994581 
vn -0.6000473 0 -0.7999645 
vn 0.2183707 0 -0.975866 

vt 3.85186E-34 2.690742 
vt -5.885827 2.690742 
vt -0.3237205 4.443088 
vt -5.562106 4.443088 
vt 0 0 
vt -15.35433 0 
vt 0 3.070866 
vt -15.35433 3.070866 
vt 15.35433 0 
vt 15.35433 3.070866 
vt 5.885827 0 
vt 5.885827 3.070866 
vt -5.885827 3.070866 
vt -5.885827 0 
vt -1.219796E-19 1.790574 
vt -15.35433 1.790574 
vt -0.8444882 3.359762 
vt -14.50984 3.359762 
vt 15.35433 3.004809 
vt -1.504633E-36 3.004809 
vt 14.50984 4.573997 
vt 0.8444882 4.573997 
vt 2.784209E-17 -4.708798 
vt 0.3237205 -2.956453 
vt 5.885827 -4.708798 
vt 5.562106 -2.956453 
vt 0 5.885827 
vt -15.35433 5.885827 
vt -14.50984 4.606299 
vt -6.669765 5.846941 
vt -0.8444882 4.606299 
vt -0.8444882 9.882564 
vt -14.50984 5.846941 
vt -11.238 7.051641 
vt -0.3237205 9.882564 
vt -0.3237205 4.606299 
vt -5.562106 9.882564 
vt -5.562106 4.606299 
vt 0.3237205 4.606299 
vt 0.3237205 5.846941 
vt 5.562106 4.606299 
vt 5.562106 5.846941 
vt 14.50984 5.846941 
vt 6.669765 5.846941 
vt 11.238 7.051641 
vt 0.8444882 4.606299 
vt 14.50984 4.606299 
vt 0.8444882 9.882564 
vt 0.3237205 4.933655 
vt 5.562106 4.933655 
vt 0.3237205 -2.152959 
vt 5.562106 -2.152959 
vt -0.3237205 7.940219 
vt -5.562106 7.940219 
vt -0.3237205 12.66463 
vt -5.562106 12.66463 
vt 0.3237205 -8.109331 
vt 5.562106 -8.109331 
vt 0.3237205 -11.59592 
vt 5.562106 -11.59592 
vt 19.3867 5.562106 
vt 20.85652 5.562106 
vt 19.3867 5.238386 
vt 19.3867 3.765799E-13 
vt 19.3867 -0.3237205 
vt 20.85652 -0.3237205 
vt -8.12254 -3.036836E-13 
vt -9.689283 -2.814791E-13 
vt -8.12254 5.238386 
vt -9.689283 5.238386 
vt -9.173339 -0.3237205 
vt -17.11878 -0.3237205 
vt -9.173339 5.562106 
vt -17.11878 5.562106 
vt -7.671286 9.287711 
vt -11.45065 12.12258 
vt -9.861876 23.82372 
vt -10.59561 22.9248 
vt -14.93534 12.23734 
vt -2.692405 24.22688 
vt -0.7557005 10.83522 
vt 2.065728 17.78356 
vt 2.166399 18.93954 
vt 3.650486 19.44171 
vt -10.57574 25.21838 
vt -19.3867 5.562106 
vt -19.3867 5.238386 
vt -20.85652 5.562106 
vt -19.3867 3.767591E-13 
vt -19.3867 -0.3237205 
vt -20.85652 -0.3237205 
vt -5.315895 -0.3237205 
vt -13.26134 -0.3237205 
vt -5.315895 5.562106 
vt -13.26134 5.562106 
vt -9.754828 5.238386 
vt -9.754828 -1.472635E-15 
vt -17.25415 5.238386 
vt -17.25415 2.889617E-13 
vt 5.719206 5.238386 
vt 17.25415 5.238386 
vt 5.719206 -1.680057E-13 
vt 17.25415 2.88518E-13 
vt 7.671286 9.287711 
vt 9.861876 23.82372 
vt 11.45065 12.12258 
vt 10.59561 22.9248 
vt 14.93534 12.23734 
vt 2.692405 24.22688 
vt 0.7557005 10.83522 
vt -2.065728 17.78356 
vt -2.166399 18.93954 
vt -3.650486 19.44171 
vt 10.57574 25.21838 
vt -17.89573 5.238386 
vt -17.89573 3.705742E-13 
vt -19.05608 5.238386 
vt -19.05608 4.220885E-13 
vt 11.05965 5.238386 
vt 12.22001 5.238386 
vt 11.05965 -4.021523E-14 
vt 12.22001 6.409756E-16 
vt 25.70049 5.238386 
vt 27.26724 5.238386 
vt 25.70049 5.949049E-13 
vt 27.26724 6.561892E-13 
vt -4.203466 20.80354 
vt 2.139424 25.5887 
vt 10.02276 26.58021 
vt 8.794621 5.238386 
vt 8.794621 5.562106 
vt 16.74006 5.238386 
vt 16.74006 5.562106 
vt 5.694611 5.238386 
vt 5.694611 5.562106 
vt 13.64005 5.238386 
vt 13.64005 5.562106 
vt 4.203466 20.80354 
vt -2.139424 25.5887 
vt -10.02276 26.58021 
vt 5.694611 -0.3237205 
vt 5.694611 -3.874593E-13 
vt 13.64005 -0.3237205 
vt 13.64005 -3.439385E-13 
vt 11.84345 -3.874961E-13 
vt 11.84345 5.238386 
vt 15.33003 -3.803907E-13 
vt 15.33003 5.238386 
vt 11.70982 -8.604452E-14 
vt 11.70982 5.238386 
vt 16.43423 3.297138E-14 
vt 16.43423 5.238386 
vt 8.794621 -0.3237205 
vt 8.794621 -1.844827E-13 
vt 16.74006 -0.3237205 
vt 16.74006 2.779198E-14 
vt 5.457982 -4.5102E-13 
vt -1.628632 -3.86183E-13 
vt 5.457982 5.238386 
vt -1.628632 5.238386 

usemtl stone

f 2/2/1 1/1/1 3/3/1 
f 3/3/1 4/4/1 2/2/1 
f 6/6/2 5/5/2 2/7/2 
f 2/7/2 7/8/2 6/6/2 
f 9/5/3 8/9/3 10/10/3 
f 10/10/3 1/7/3 9/5/3 
f 10/7/4 8/5/4 6/11/4 
f 6/11/4 7/12/4 10/7/4 
f 9/5/5 1/7/5 2/13/5 
f 2/13/5 5/14/5 9/5/5 
f 7/16/6 2/15/6 4/17/6 
f 4/17/6 11/18/6 7/16/6 
f 1/20/7 10/19/7 12/21/7 
f 12/21/7 3/22/7 1/20/7 
f 12/24/8 10/23/8 7/25/8 
f 7/25/8 11/26/8 12/24/8 
f 9/5/9 5/27/9 6/28/9 
f 6/28/9 8/6/9 9/5/9 
f 13/30/2 11/29/2 4/31/2 
f 4/31/2 14/32/2 13/30/2 
f 15/33/2 11/29/2 13/30/2 
f 13/30/2 16/34/2 15/33/2 
f 3/36/5 17/35/5 14/37/5 
f 14/37/5 4/38/5 3/36/5 
f 18/40/4 12/39/4 11/41/4 
f 11/41/4 15/42/4 18/40/4 
f 19/44/3 18/43/3 20/45/3 
f 18/43/3 19/44/3 3/46/3 
f 3/46/3 12/47/3 18/43/3 
f 19/44/3 17/48/3 3/46/3 
f 14/50/10 17/49/10 19/51/10 
f 19/51/10 13/52/10 14/50/10 
f 13/54/11 19/53/11 20/55/11 
f 20/55/11 16/56/11 13/54/11 
f 16/58/12 20/57/12 18/59/12 
f 18/59/12 15/60/12 16/58/12 
f 22/62/13 21/61/13 23/63/13 
f 23/63/13 24/64/13 22/62/13 
f 24/64/13 25/65/13 22/62/13 
f 25/65/13 26/66/13 22/62/13 
f 28/68/14 27/67/14 29/69/14 
f 29/69/14 30/70/14 28/68/14 
f 32/72/15 31/71/15 33/73/15 
f 33/73/15 34/74/15 32/72/15 
f 36/76/9 35/75/9 37/77/9 
f 37/77/9 38/78/9 36/76/9 
f 38/78/9 39/79/9 36/76/9 
f 40/80/9 37/77/9 35/75/9 
f 40/80/9 35/75/9 41/81/9 
f 40/80/9 41/81/9 42/82/9 
f 40/80/9 42/82/9 27/83/9 
f 27/83/9 28/84/9 40/80/9 
f 40/80/9 24/85/9 37/77/9 
f 30/87/16 43/86/16 33/88/16 
f 33/88/16 28/89/16 30/87/16 
f 33/88/16 44/90/16 28/89/16 
f 33/88/16 31/91/16 44/90/16 
f 26/93/17 32/92/17 34/94/17 
f 34/94/17 22/95/17 26/93/17 
f 41/97/16 45/96/16 46/98/16 
f 46/98/16 42/99/16 41/97/16 
f 48/101/13 47/100/13 39/102/13 
f 39/102/13 38/103/13 48/101/13 
f 50/105/18 49/104/18 51/106/18 
f 51/106/18 48/107/18 50/105/18 
f 51/106/18 47/108/18 48/107/18 
f 49/104/18 50/105/18 52/109/18 
f 45/110/18 49/104/18 52/109/18 
f 46/111/18 45/110/18 52/109/18 
f 29/112/18 46/111/18 52/109/18 
f 52/109/18 30/113/18 29/112/18 
f 50/105/18 23/114/18 52/109/18 
f 42/116/19 46/115/19 29/117/19 
f 29/117/19 27/118/19 42/116/19 
f 50/120/20 48/119/20 38/121/20 
f 38/121/20 37/122/20 50/120/20 
f 23/124/21 50/123/21 37/125/21 
f 37/125/21 24/126/21 23/124/21 
f 34/128/18 33/127/18 43/113/18 
f 43/113/18 53/109/18 34/128/18 
f 53/109/18 22/129/18 34/128/18 
f 53/109/18 21/114/18 22/129/18 
f 43/131/22 30/130/22 52/132/22 
f 52/132/22 53/133/22 43/131/22 
f 53/135/23 52/134/23 23/136/23 
f 23/136/23 21/137/23 53/135/23 
f 44/84/9 31/138/9 32/139/9 
f 32/139/9 54/80/9 44/84/9 
f 32/139/9 26/140/9 54/80/9 
f 26/140/9 25/85/9 54/80/9 
f 40/142/23 54/141/23 25/143/23 
f 25/143/23 24/144/23 40/142/23 
f 51/146/24 36/145/24 39/147/24 
f 39/147/24 47/148/24 51/146/24 
f 49/150/25 35/149/25 36/151/25 
f 36/151/25 51/152/25 49/150/25 
f 28/154/22 44/153/22 54/155/22 
f 54/155/22 40/156/22 28/154/22 
f 41/158/26 35/157/26 49/159/26 
f 49/159/26 45/160/26 41/158/26 
g gravestoneDebris




usemtl stone

f 2/2/1 1/1/1 3/3/1 
f 3/3/1 4/4/1 2/2/1 
f 6/6/2 5/5/2 2/7/2 
f 2/7/2 7/8/2 6/6/2 
f 9/5/3 8/9/3 10/10/3 
f 10/10/3 1/7/3 9/5/3 
f 10/7/4 8/5/4 6/11/4 
f 6/11/4 7/12/4 10/7/4 
f 9/5/5 1/7/5 2/13/5 
f 2/13/5 5/14/5 9/5/5 
f 7/16/6 2/15/6 4/17/6 
f 4/17/6 11/18/6 7/16/6 
f 1/20/7 10/19/7 12/21/7 
f 12/21/7 3/22/7 1/20/7 
f 12/24/8 10/23/8 7/25/8 
f 7/25/8 11/26/8 12/24/8 
f 9/5/9 5/27/9 6/28/9 
f 6/28/9 8/6/9 9/5/9 
f 13/30/2 11/29/2 4/31/2 
f 4/31/2 14/32/2 13/30/2 
f 15/33/2 11/29/2 13/30/2 
f 13/30/2 16/34/2 15/33/2 
f 3/36/5 17/35/5 14/37/5 
f 14/37/5 4/38/5 3/36/5 
f 18/40/4 12/39/4 11/41/4 
f 11/41/4 15/42/4 18/40/4 
f 19/44/3 18/43/3 20/45/3 
f 18/43/3 19/44/3 3/46/3 
f 3/46/3 12/47/3 18/43/3 
f 19/44/3 17/48/3 3/46/3 
f 14/50/10 17/49/10 19/51/10 
f 19/51/10 13/52/10 14/50/10 
f 13/54/11 19/53/11 20/55/11 
f 20/55/11 16/56/11 13/54/11 
f 16/58/12 20/57/12 18/59/12 
f 18/59/12 15/60/12 16/58/12 
f 22/62/13 21/61/13 23/63/13 
f 23/63/13 24/64/13 22/62/13 
f 24/64/13 25/65/13 22/62/13 
f 25/65/13 26/66/13 22/62/13 
f 28/68/14 27/67/14 29/69/14 
f 29/69/14 30/70/14 28/68/14 
f 32/72/15 31/71/15 33/73/15 
f 33/73/15 34/74/15 32/72/15 
f 36/76/9 35/75/9 37/77/9 
f 37/77/9 38/78/9 36/76/9 
f 38/78/9 39/79/9 36/76/9 
f 40/80/9 37/77/9 35/75/9 
f 40/80/9 35/75/9 41/81/9 
f 40/80/9 41/81/9 42/82/9 
f 40/80/9 42/82/9 27/83/9 
f 27/83/9 28/84/9 40/80/9 
f 40/80/9 24/85/9 37/77/9 
f 30/87/16 43/86/16 33/88/16 
f 33/88/16 28/89/16 30/87/16 
f 33/88/16 44/90/16 28/89/16 
f 33/88/16 31/91/16 44/90/16 
f 26/93/17 32/92/17 34/94/17 
f 34/94/17 22/95/17 26/93/17 
f 41/97/16 45/96/16 46/98/16 
f 46/98/16 42/99/16 41/97/16 
f 48/101/13 47/100/13 39/102/13 
f 39/102/13 38/103/13 48/101/13 
f 50/105/18 49/104/18 51/106/18 
f 51/106/18 48/107/18 50/105/18 
f 51/106/18 47/108/18 48/107/18 
f 49/104/18 50/105/18 52/109/18 
f 45/110/18 49/104/18 52/109/18 
f 46/111/18 45/110/18 52/109/18 
f 29/112/18 46/111/18 52/109/18 
f 52/109/18 30/113/18 29/112/18 
f 50/105/18 23/114/18 52/109/18 
f 42/116/19 46/115/19 29/117/19 
f 29/117/19 27/118/19 42/116/19 
f 50/120/20 48/119/20 38/121/20 
f 38/121/20 37/122/20 50/120/20 
f 23/124/21 50/123/21 37/125/21 
f 37/125/21 24/126/21 23/124/21 
f 34/128/18 33/127/18 43/113/18 
f 43/113/18 53/109/18 34/128/18 
f 53/109/18 22/129/18 34/128/18 
f 53/109/18 21/114/18 22/129/18 
f 43/131/22 30/130/22 52/132/22 
f 52/132/22 53/133/22 43/131/22 
f 53/135/23 52/134/23 23/136/23 
f 23/136/23 21/137/23 53/135/23 
f 44/84/9 31/138/9 32/139/9 
f 32/139/9 54/80/9 44/84/9 
f 32/139/9 26/140/9 54/80/9 
f 26/140/9 25/85/9 54/80/9 
f 40/142/23 54/141/23 25/143/23 
f 25/143/23 24/144/23 40/142/23 
f 51/146/24 36/145/24 39/147/24 
f 39/147/24 47/148/24 51/146/24 
f 49/150/25 35/149/25 36/151/25 
f 36/151/25 51/152/25 49/150/25 
f 28/154/22 44/153/22 54/155/22 
f 54/155/22 40/156/22 28/154/22 
f 41/158/26 35/157/26 49/159/26 
f 49/159/26 45/160/26 41/158/26 
