# Created by Kenney (www.kenney.nl) 

mtllib gravestoneDecorative.mtl 

g gravestoneDecorative

v -0.39 0.494 4.399148E-17 
v -0.39 0.494 0.1495 
v -0.36855 0.4615 0.0082225 
v -0.36855 0.4615 0.1412775 
v 0 0.078 0 
v 0 0.078 0.1495 
v -0.02145 0.117 0.0082225 
v -0.02145 0.117 0.1412775 
v -0.36855 0.117 0.1412775 
v -0.02145 0.4615 0.1412775 
v -0.338 0.5395 4.399148E-17 
v -0.338 0.5395 0.1495 
v -0.39 0.5395 4.399148E-17 
v -0.39 0.5395 0.1495 
v -0.195 0.585 4.399148E-17 
v -0.195 0.585 0.1495 
v -0.338 0.52 4.399148E-17 
v -0.338 0.52 0.1495 
v -1.516014E-14 0.494 0.1495 
v 0 0 0.1495 
v -0.39 0 0.1495 
v -0.39 0.078 0.1495 
v -0.36855 0.117 0.0082225 
v -0.02145 0.4615 0.0082225 
v -0.052 0.52 4.399148E-17 
v -0.052 0.52 0.1495 
v -1.516014E-14 0.5395 4.399148E-17 
v -1.516014E-14 0.494 4.399148E-17 
v -1.516014E-14 0.5395 0.1495 
v -0.052 0.5395 4.399148E-17 
v -0.052 0.5395 0.1495 
v -0.39 0 0 
v 0 0 0 
v -0.39 0.078 0 

vn -0.8346094 -0.5508422 0 
vn 0.8762159 0.4819188 0 
vn 0 0 1 
vn 0 1 0 
vn -0.413803 0.9103665 0 
vn 0 -0.2452719 0.9694543 
vn 0 0 -1 
vn 0.413803 0.9103665 0 
vn -1 0 0 
vn 1 0 0 
vn 0 -0.2452719 -0.9694543 
vn 0 0.2062982 0.9784892 
vn 0 0.2062982 -0.9784892 
vn -0.8762159 0.4819188 0 
vn 0.8346094 -0.5508422 0 
vn 0 -1 0 

vt 1.743085E-15 24.68998 
vt 5.885827 24.68998 
vt 0.3237205 23.15689 
vt 5.562106 23.15689 
vt 0 2.690742 
vt -5.885827 2.690742 
vt -0.3237205 4.443088 
vt -5.562106 4.443088 
vt -0.8444882 4.606299 
vt -14.50984 4.606299 
vt -0.8444882 18.16929 
vt -14.50984 18.16929 
vt 13.30709 1.731948E-15 
vt 13.30709 5.885827 
vt 15.35433 1.731948E-15 
vt 15.35433 5.885827 
vt 1.731948E-15 2.541467 
vt 5.885827 2.541467 
vt 1.731948E-15 -3.642769 
vt 5.885827 -3.642769 
vt -0.8444882 18.97853 
vt -14.50984 18.97853 
vt -5.968481E-13 20.29837 
vt -15.35433 20.29837 
vt 0 0 
vt -15.35433 0 
vt 0 3.070866 
vt -15.35433 3.070866 
vt 14.50984 4.606299 
vt 0.8444882 4.606299 
vt 14.50984 18.16929 
vt 0.8444882 18.16929 
vt -1.731948E-15 10.3353 
vt -5.885827 10.3353 
vt -1.731948E-15 16.51954 
vt -5.885827 16.51954 
vt 1.731948E-15 19.44882 
vt 1.731948E-15 21.24016 
vt 5.885827 19.44882 
vt 5.885827 21.24016 
vt -1.731948E-15 21.24016 
vt -1.731948E-15 19.44882 
vt -5.885827 21.24016 
vt -5.885827 19.44882 
vt 1.731948E-15 20.47244 
vt 5.885827 20.47244 
vt -0.3237205 18.16929 
vt -0.3237205 4.606299 
vt -5.562106 18.16929 
vt -5.562106 4.606299 
vt 14.50984 17.5349 
vt 0.8444882 17.5349 
vt 15.35433 18.85474 
vt 5.968559E-13 18.85474 
vt 15.35433 0 
vt 15.35433 3.070866 
vt 5.885827 0 
vt 5.885827 3.070866 
vt -5.885827 3.070866 
vt -5.885827 0 
vt -1.219796E-19 1.790574 
vt -15.35433 1.790574 
vt -0.8444882 3.359762 
vt -14.50984 3.359762 
vt 15.35433 3.004809 
vt -1.504633E-36 3.004809 
vt 14.50984 4.573997 
vt 0.8444882 4.573997 
vt 0.3237205 4.606299 
vt 0.3237205 18.16929 
vt 5.562106 4.606299 
vt 5.562106 18.16929 
vt 2.784209E-17 -4.708798 
vt 0.3237205 -2.956453 
vt 5.885827 -4.708798 
vt 5.562106 -2.956453 
vt -1.731948E-15 16.23217 
vt -0.3237205 14.69908 
vt -5.885827 16.23217 
vt -5.562106 14.69908 
vt 5.968559E-13 1.731948E-15 
vt 5.968559E-13 5.885827 
vt 2.047244 1.731948E-15 
vt 2.047244 5.885827 
vt -1.731948E-15 20.47244 
vt -5.885827 20.47244 
vt 5.968559E-13 19.44882 
vt 13.30709 20.47244 
vt 15.35433 19.44882 
vt 15.35433 21.24016 
vt 13.30709 21.24016 
vt 2.047244 20.47244 
vt 7.677166 23.0315 
vt 5.968559E-13 21.24016 
vt 2.047244 21.24016 
vt -15.35433 19.44882 
vt -2.047244 20.47244 
vt -5.968559E-13 19.44882 
vt -5.968559E-13 21.24016 
vt -2.047244 21.24016 
vt -13.30709 20.47244 
vt -7.677166 23.0315 
vt -15.35433 21.24016 
vt -13.30709 21.24016 
vt 0 5.885827 
vt -15.35433 5.885827 

usemtl stone

f 2/2/1 1/1/1 3/3/1 
f 3/3/1 4/4/1 2/2/1 
f 6/6/2 5/5/2 7/7/2 
f 7/7/2 8/8/2 6/6/2 
f 9/10/3 8/9/3 10/11/3 
f 10/11/3 4/12/3 9/10/3 
f 12/14/4 11/13/4 13/15/4 
f 13/15/4 14/16/4 12/14/4 
f 16/18/5 15/17/5 17/19/5 
f 17/19/5 18/20/5 16/18/5 
f 4/22/6 10/21/6 19/23/6 
f 19/23/6 2/24/6 4/22/6 
f 21/26/3 20/25/3 6/27/3 
f 6/27/3 22/28/3 21/26/3 
f 7/30/7 23/29/7 3/31/7 
f 3/31/7 24/32/7 7/30/7 
f 26/34/8 25/33/8 15/35/8 
f 15/35/8 16/36/8 26/34/8 
f 13/38/9 1/37/9 2/39/9 
f 2/39/9 14/40/9 13/38/9 
f 28/42/10 27/41/10 29/43/10 
f 29/43/10 19/44/10 28/42/10 
f 30/38/9 25/45/9 26/46/9 
f 26/46/9 31/40/9 30/38/9 
f 7/48/10 24/47/10 10/49/10 
f 10/49/10 8/50/10 7/48/10 
f 24/52/11 3/51/11 1/53/11 
f 1/53/11 28/54/11 24/52/11 
f 33/25/7 32/55/7 34/56/7 
f 34/56/7 5/27/7 33/25/7 
f 34/27/9 32/25/9 21/57/9 
f 21/57/9 22/58/9 34/27/9 
f 33/25/10 5/27/10 6/59/10 
f 6/59/10 20/60/10 33/25/10 
f 22/62/12 6/61/12 8/63/12 
f 8/63/12 9/64/12 22/62/12 
f 5/66/13 34/65/13 23/67/13 
f 23/67/13 7/68/13 5/66/13 
f 3/70/9 23/69/9 9/71/9 
f 9/71/9 4/72/9 3/70/9 
f 23/74/14 34/73/14 22/75/14 
f 22/75/14 9/76/14 23/74/14 
f 24/78/15 28/77/15 19/79/15 
f 19/79/15 10/80/15 24/78/15 
f 29/82/4 27/81/4 30/83/4 
f 30/83/4 31/84/4 29/82/4 
f 17/85/10 11/41/10 12/43/10 
f 12/43/10 18/86/10 17/85/10 
f 17/88/7 28/87/7 1/89/7 
f 1/89/7 13/90/7 17/88/7 
f 13/90/7 11/91/7 17/88/7 
f 28/87/7 17/88/7 25/92/7 
f 25/92/7 17/88/7 15/93/7 
f 25/92/7 27/94/7 28/87/7 
f 25/92/7 30/95/7 27/94/7 
f 26/97/3 2/96/3 19/98/3 
f 19/98/3 29/99/3 26/97/3 
f 29/99/3 31/100/3 26/97/3 
f 2/96/3 26/97/3 18/101/3 
f 18/101/3 26/97/3 16/102/3 
f 18/101/3 14/103/3 2/96/3 
f 18/101/3 12/104/3 14/103/3 
f 33/25/16 20/105/16 21/106/16 
f 21/106/16 32/26/16 33/25/16 
g gravestoneDecorative




usemtl stone

f 2/2/1 1/1/1 3/3/1 
f 3/3/1 4/4/1 2/2/1 
f 6/6/2 5/5/2 7/7/2 
f 7/7/2 8/8/2 6/6/2 
f 9/10/3 8/9/3 10/11/3 
f 10/11/3 4/12/3 9/10/3 
f 12/14/4 11/13/4 13/15/4 
f 13/15/4 14/16/4 12/14/4 
f 16/18/5 15/17/5 17/19/5 
f 17/19/5 18/20/5 16/18/5 
f 4/22/6 10/21/6 19/23/6 
f 19/23/6 2/24/6 4/22/6 
f 21/26/3 20/25/3 6/27/3 
f 6/27/3 22/28/3 21/26/3 
f 7/30/7 23/29/7 3/31/7 
f 3/31/7 24/32/7 7/30/7 
f 26/34/8 25/33/8 15/35/8 
f 15/35/8 16/36/8 26/34/8 
f 13/38/9 1/37/9 2/39/9 
f 2/39/9 14/40/9 13/38/9 
f 28/42/10 27/41/10 29/43/10 
f 29/43/10 19/44/10 28/42/10 
f 30/38/9 25/45/9 26/46/9 
f 26/46/9 31/40/9 30/38/9 
f 7/48/10 24/47/10 10/49/10 
f 10/49/10 8/50/10 7/48/10 
f 24/52/11 3/51/11 1/53/11 
f 1/53/11 28/54/11 24/52/11 
f 33/25/7 32/55/7 34/56/7 
f 34/56/7 5/27/7 33/25/7 
f 34/27/9 32/25/9 21/57/9 
f 21/57/9 22/58/9 34/27/9 
f 33/25/10 5/27/10 6/59/10 
f 6/59/10 20/60/10 33/25/10 
f 22/62/12 6/61/12 8/63/12 
f 8/63/12 9/64/12 22/62/12 
f 5/66/13 34/65/13 23/67/13 
f 23/67/13 7/68/13 5/66/13 
f 3/70/9 23/69/9 9/71/9 
f 9/71/9 4/72/9 3/70/9 
f 23/74/14 34/73/14 22/75/14 
f 22/75/14 9/76/14 23/74/14 
f 24/78/15 28/77/15 19/79/15 
f 19/79/15 10/80/15 24/78/15 
f 29/82/4 27/81/4 30/83/4 
f 30/83/4 31/84/4 29/82/4 
f 17/85/10 11/41/10 12/43/10 
f 12/43/10 18/86/10 17/85/10 
f 17/88/7 28/87/7 1/89/7 
f 1/89/7 13/90/7 17/88/7 
f 13/90/7 11/91/7 17/88/7 
f 28/87/7 17/88/7 25/92/7 
f 25/92/7 17/88/7 15/93/7 
f 25/92/7 27/94/7 28/87/7 
f 25/92/7 30/95/7 27/94/7 
f 26/97/3 2/96/3 19/98/3 
f 19/98/3 29/99/3 26/97/3 
f 29/99/3 31/100/3 26/97/3 
f 2/96/3 26/97/3 18/101/3 
f 18/101/3 26/97/3 16/102/3 
f 18/101/3 14/103/3 2/96/3 
f 18/101/3 12/104/3 14/103/3 
f 33/25/16 20/105/16 21/106/16 
f 21/106/16 32/26/16 33/25/16 
