# Created by Kenney (www.kenney.nl) 

mtllib gravestoneRound.mtl 

g gravestoneRound

v 0 0.078 0 
v 0 0.078 0.1495 
v -0.02145 0.117 0.0082225 
v -0.02145 0.117 0.1412775 
v 0 0 0.1495 
v -0.39 0 0.1495 
v -0.39 0.078 0.1495 
v -0.02145 0.3457531 0.0082225 
v -0.02145 0.3457531 0.1412775 
v -0.07913289 0 -2.819966E-18 
v 0 0 0 
v -0.07913289 0.078 -2.819966E-18 
v -0.39 0 0 
v -0.39 0.078 0 
v -0.36855 0.117 0.1412775 
v -0.3108671 0.078 3.871031E-18 
v -0.3108671 0.117 0.0082225 
v -0.36855 0.117 0.0082225 
v -0.36855 0.3457531 0.0082225 
v -0.36855 0.3457531 0.1412775 
v -0.07913289 0 0.0582225 
v -0.3108671 0 0.0582225 
v -0.3108671 0 3.871031E-18 
v -0.02736357 0.456368 0 
v -0.02145 0.41145 4.511946E-17 
v -0.02736357 0.456368 0.1495 
v -0.02145 0.41145 0.1495 
v -0.04470129 0.498225 0 
v -0.04470129 0.498225 0.1495 
v -0.07228161 0.5341684 0 
v -0.07228161 0.5341684 0.1495 
v -0.108225 0.5617487 0 
v -0.108225 0.5617487 0.1495 
v -0.150082 0.5790864 0 
v -0.150082 0.5790864 0.1495 
v -0.195 0.585 0 
v -0.195 0.585 0.1495 
v -0.239918 0.5790864 0 
v -0.239918 0.5790864 0.1495 
v -0.281775 0.5617487 0 
v -0.281775 0.5617487 0.1495 
v -0.3177184 0.5341684 0 
v -0.3177184 0.5341684 0.1495 
v -0.3452987 0.498225 0 
v -0.3452987 0.498225 0.1495 
v -0.3626364 0.456368 0 
v -0.3626364 0.456368 0.1495 
v -0.36855 0.41145 4.511946E-17 
v -0.36855 0.41145 0.1495 
v -0.1134215 0.4930285 0.0382225 
v -0.1134215 0.4930285 0 
v -0.1373153 0.5113628 0.0382225 
v -0.1373153 0.5113628 0 
v -0.0950872 0.4691347 0 
v -0.0950872 0.4691347 0.0382225 
v -0.08356176 0.4413098 0 
v -0.08356176 0.4413098 0.0382225 
v -0.07913289 0.4076692 4.511946E-17 
v -0.07913289 0.4076692 0.0382225 
v -0.3108671 0.4076692 4.511946E-17 
v -0.3108671 0.3457531 4.511946E-17 
v -0.3108671 0.4076692 0.0382225 
v -0.3108671 0.3457531 0.0082225 
v -0.3108671 0.3457531 0.0382225 
v -0.3108671 0.3457531 0.0582225 
v -0.3064382 0.4413098 0 
v -0.3064382 0.4413098 0.0382225 
v -0.2949128 0.4691347 0 
v -0.2949128 0.4691347 0.0382225 
v -0.2765785 0.4930285 0 
v -0.2765785 0.4930285 0.0382225 
v -0.2526847 0.5113628 0.0382225 
v -0.2526847 0.5113628 0 
v -0.2248598 0.5228882 0.0382225 
v -0.2248598 0.5228882 0 
v -0.195 0.5268193 0.0382225 
v -0.195 0.5268193 0 
v -0.1651402 0.5228882 0.0382225 
v -0.1651402 0.5228882 0 
v -0.07913289 0.117 0.0082225 
v -0.07913289 0.3457531 0.0382225 
v -0.07913289 0.3457531 0.0582225 
v -0.07913289 0.3457531 0.0082225 
v -0.07913289 0.3457531 4.511946E-17 
v -7.219114E-16 0.41145 4.511946E-17 
v -7.219114E-16 0.3457531 4.511946E-17 
v -7.219114E-16 0.41145 0.1495 
v -7.219114E-16 0.3457531 0.1495 
v -0.39 0.3457531 4.511946E-17 
v -0.39 0.41145 4.511946E-17 
v -0.39 0.3457531 0.1495 
v -0.39 0.41145 0.1495 

vn 0.8762159 0.4819188 0 
vn 0 0 1 
vn 1 0 0 
vn 0 0 -1 
vn -1 0 0 
vn 0 0.2062982 0.9784892 
vn 0 0.2062982 -0.9784892 
vn -0.8762159 0.4819188 0 
vn 0 -1 0 
vn 0.9659258 0.258819 0 
vn 0.9914449 0.1305262 0 
vn 0.8660254 0.5 0 
vn 0.7071068 0.7071068 0 
vn 0.5 0.8660254 0 
vn 0.258819 0.9659258 0 
vn 0 1 0 
vn -0.258819 0.9659258 0 
vn -0.5 0.8660254 0 
vn -0.7071068 0.7071068 0 
vn -0.8660254 0.5 0 
vn -0.9659258 0.258819 0 
vn -0.9914449 0.1305262 0 
vn -0.7071068 -0.7071068 0 
vn -0.5 -0.8660254 0 
vn -0.8660254 -0.5 0 
vn -0.9659258 -0.258819 0 
vn -0.9914449 -0.1305262 0 
vn 0.9659258 -0.258819 0 
vn 0.9914449 -0.1305262 0 
vn 0.8660254 -0.5 0 
vn 0.7071068 -0.7071068 0 
vn 0.5 -0.8660254 0 
vn 0.258819 -0.9659258 0 
vn -0.258819 -0.9659258 0 

vt 0 2.690742 
vt -5.885827 2.690742 
vt -0.3237205 4.443088 
vt -5.562106 4.443088 
vt 0 0 
vt -15.35433 0 
vt 0 3.070866 
vt -15.35433 3.070866 
vt -0.3237205 13.61233 
vt -0.3237205 4.606299 
vt -5.562106 13.61233 
vt -5.562106 4.606299 
vt 3.115468 0 
vt 3.115468 3.070866 
vt 5.885827 0 
vt 5.885827 3.070866 
vt -5.885827 3.070866 
vt -5.885827 0 
vt -1.219796E-19 1.790574 
vt -15.35433 1.790574 
vt -0.8444882 3.359762 
vt -14.50984 3.359762 
vt 12.23886 3.004809 
vt 12.23886 4.573997 
vt 15.35433 3.004809 
vt 14.50984 4.573997 
vt 0.3237205 4.606299 
vt 0.3237205 13.61233 
vt 5.562106 4.606299 
vt 5.562106 13.61233 
vt 2.784209E-17 -4.708798 
vt 0.3237205 -2.956453 
vt 5.885827 -4.708798 
vt 5.562106 -2.956453 
vt -3.115468 2.292224 
vt 0 5.885827 
vt -15.35433 5.885827 
vt -12.23886 2.292224 
vt -12.23886 1.524028E-16 
vt -3.115468 -1.110223E-16 
vt 1.831384E-18 17.95415 
vt -1.774921E-15 16.17046 
vt -5.885827 17.95415 
vt -5.885827 16.17046 
vt 0 18.79552 
vt 0 17.01184 
vt -5.885827 18.79552 
vt -5.885827 17.01184 
vt 0 18.41679 
vt 0 16.63311 
vt -5.885827 18.41679 
vt -5.885827 16.63311 
vt 0 15.06008 
vt -5.885827 15.06008 
vt 0 16.84376 
vt -5.885827 16.84376 
vt 0 12.39995 
vt -5.885827 12.39995 
vt 0 14.18364 
vt -5.885827 14.18364 
vt 0 8.834013 
vt -5.885827 8.834013 
vt 0 10.6177 
vt -5.885827 10.6177 
vt 0 -4.605273 
vt 5.885827 -4.605273 
vt 0 -6.388959 
vt 5.885827 -6.388959 
vt 0 -0.00191299 
vt 5.885827 -0.00191299 
vt 0 -1.7856 
vt 5.885827 -1.7856 
vt 0 4.662354 
vt 5.885827 4.662354 
vt 0 2.878668 
vt 5.885827 2.878668 
vt 0 7.285982 
vt 0 9.069668 
vt 5.885827 7.285982 
vt 5.885827 9.069668 
vt 0 11.13599 
vt 0 12.91968 
vt 5.885827 11.13599 
vt 5.885827 12.91968 
vt -6.148337E-18 15.95001 
vt 5.885827 15.95001 
vt 1.770108E-15 14.16632 
vt 5.885827 14.16632 
vt 1.504823 15.35906 
vt -7.316594E-16 15.35906 
vt 1.504823 16.54478 
vt -8.857933E-16 16.54478 
vt -3.611891E-16 16.93209 
vt -4.308322E-16 18.11781 
vt 1.504823 16.93209 
vt 1.504823 18.11781 
vt -1.713733E-16 17.31082 
vt -1.950104E-16 18.49654 
vt 1.504823 17.31082 
vt 1.504823 18.49654 
vt -5.451517E-17 17.65517 
vt 1.504823 17.65517 
vt 1.724731E-15 16.31931 
vt 1.504823 16.31931 
vt -9.071161E-15 16.04997 
vt -9.071161E-15 13.61233 
vt -1.504823 16.04997 
vt -1.504823 13.61233 
vt -2.292224 2.346371E-14 
vt -7.447207E-15 2.346371E-14 
vt -7.447207E-15 3.070866 
vt -2.292224 13.61233 
vt -1.994201E-16 15.65103 
vt -1.978659E-15 14.31517 
vt -1.504823 15.65103 
vt -1.504823 14.31517 
vt -6.043449E-16 12.6207 
vt -6.279632E-16 11.43497 
vt -1.504823 12.6207 
vt -1.504823 11.43497 
vt -1.050135E-15 8.770688 
vt -1.119748E-15 7.584962 
vt -1.504823 8.770688 
vt -1.504823 7.584962 
vt -1.504823 4.363375 
vt -1.629607E-15 4.363375 
vt -1.504823 3.177648 
vt -1.783702E-15 3.177648 
vt -1.504823 -0.3008932 
vt -2.686563E-15 -0.3008932 
vt -1.504823 -1.486619 
vt -3.019008E-15 -1.486619 
vt -1.504823 -4.904253 
vt -7.330528E-15 -4.904253 
vt -1.504823 -6.089979 
vt -8.453031E-15 -6.089979 
vt 1.504823 9.132993 
vt -6.208294E-15 9.132993 
vt 1.504823 10.31872 
vt -7.330846E-15 10.31872 
vt 1.504823 12.69893 
vt -1.640829E-15 12.69893 
vt 1.504823 13.88466 
vt -1.973319E-15 13.88466 
vt 3.115468 3.004809 
vt -3.081488E-33 3.004809 
vt 3.115468 4.573997 
vt 0.8444882 4.573997 
vt -1.110223E-16 0 
vt -1.110223E-16 3.070866 
vt 2.292224 0 
vt 1.504823 13.61233 
vt 2.292224 13.61233 
vt 1.504823 16.04997 
vt 1.776357E-15 16.04997 
vt 1.776357E-15 13.61233 
vt 14.50984 4.606299 
vt 12.23886 4.606299 
vt 14.50984 13.61233 
vt 12.23886 13.61233 
vt 15.35433 0 
vt 12.23886 0 
vt 15.35433 3.070866 
vt 12.23886 3.070866 
vt -1.776357E-15 16.19882 
vt -1.776357E-15 13.61233 
vt -5.885827 16.19882 
vt -5.885827 13.61233 
vt 2.842171E-14 1.776357E-15 
vt 2.842171E-14 5.885827 
vt 0.8444882 1.776357E-15 
vt 0.8444882 5.885827 
vt 1.776357E-15 16.19882 
vt 5.885827 13.61233 
vt 5.885827 16.19882 
vt 14.50984 1.776357E-15 
vt 14.50984 5.885827 
vt 15.35433 1.776357E-15 
vt 15.35433 5.885827 
vt 0.8444882 4.606299 
vt 0.8444882 13.61233 
vt 3.115468 4.606299 
vt 3.115468 13.61233 
vt 15.35433 13.61233 
vt 15.35433 16.19882 
vt 12.23886 16.04997 
vt 14.50984 16.19882 
vt 12.0645 17.3744 
vt 14.27702 17.96725 
vt 11.61074 18.46987 
vt 13.59444 19.61516 
vt 10.88892 19.41057 
vt 9.948215 20.13239 
vt 12.5086 21.03025 
vt 8.852748 20.58615 
vt 7.677166 20.74092 
vt 2.845733 21.03025 
vt 6.501583 20.58615 
vt 5.406115 20.13239 
vt 1.759893 19.61516 
vt 4.465415 19.41057 
vt 3.743591 18.46987 
vt 1.077306 17.96725 
vt 3.289833 17.3744 
vt 0.8444882 16.19882 
vt 3.115468 16.04997 
vt 11.0935 22.11609 
vt 4.260827 22.11609 
vt 9.445592 22.79868 
vt 5.908739 22.79868 
vt 7.677166 23.0315 
vt 2.842171E-14 16.19882 
vt 2.842171E-14 13.61233 
vt -3.115468 -8.041732E-16 
vt -0.8444882 0.3237205 
vt -2.829624E-14 -8.041732E-16 
vt -0.8444882 5.562106 
vt -3.115468 0.3237205 
vt -2.829624E-14 5.885827 
vt -14.50984 5.562106 
vt -14.50984 0.3237205 
vt -15.35433 -8.041732E-16 
vt -12.23886 -8.041732E-16 
vt -12.23886 0.3237205 
vt -0.8444882 4.606299 
vt -14.50984 4.606299 
vt -0.8444882 13.61233 
vt -14.50984 13.61233 
vt -0.8444882 16.19882 
vt -14.50984 16.19882 
vt -1.077306 17.96725 
vt -14.27702 17.96725 
vt -13.59444 19.61516 
vt -1.759893 19.61516 
vt -12.5086 21.03025 
vt -2.845733 21.03025 
vt -11.0935 22.11609 
vt -4.260827 22.11609 
vt -9.445592 22.79868 
vt -5.908739 22.79868 
vt -7.677166 23.0315 
vt -15.35433 16.19882 
vt -2.842171E-14 16.19882 
vt -15.35433 13.61233 
vt -2.842171E-14 13.61233 
vt -3.115468 1.504823 
vt -12.23886 1.504823 

usemtl stone

f 2/2/1 1/1/1 3/3/1 
f 3/3/1 4/4/1 2/2/1 
f 6/6/2 5/5/2 2/7/2 
f 2/7/2 7/8/2 6/6/2 
f 3/10/3 8/9/3 9/11/3 
f 9/11/3 4/12/3 3/10/3 
f 11/5/4 10/13/4 12/14/4 
f 12/14/4 1/7/4 11/5/4 
f 14/7/5 13/5/5 6/15/5 
f 6/15/5 7/16/5 14/7/5 
f 11/5/3 1/7/3 2/17/3 
f 2/17/3 5/18/3 11/5/3 
f 7/20/6 2/19/6 4/21/6 
f 4/21/6 15/22/6 7/20/6 
f 17/24/7 16/23/7 14/25/7 
f 14/25/7 18/26/7 17/24/7 
f 19/28/5 18/27/5 15/29/5 
f 15/29/5 20/30/5 19/28/5 
f 18/32/8 14/31/8 7/33/8 
f 7/33/8 15/34/8 18/32/8 
f 21/35/9 11/5/9 5/36/9 
f 5/36/9 6/37/9 21/35/9 
f 6/37/9 22/38/9 21/35/9 
f 6/37/9 23/39/9 22/38/9 
f 6/37/9 13/6/9 23/39/9 
f 11/5/9 21/35/9 10/40/9 
f 25/42/11 24/41/10 26/43/10 
f 26/43/10 27/44/11 25/42/11 
f 24/46/10 28/45/12 29/47/12 
f 29/47/12 26/48/10 24/46/10 
f 28/50/12 30/49/13 31/51/13 
f 31/51/13 29/52/12 28/50/12 
f 31/54/13 30/53/13 32/55/14 
f 32/55/14 33/56/14 31/54/13 
f 33/58/14 32/57/14 34/59/15 
f 34/59/15 35/60/15 33/58/14 
f 35/62/15 34/61/15 36/63/16 
f 36/63/16 37/64/16 35/62/15 
f 37/66/16 36/65/16 38/67/17 
f 38/67/17 39/68/17 37/66/16 
f 39/70/17 38/69/17 40/71/18 
f 40/71/18 41/72/18 39/70/17 
f 41/74/18 40/73/18 42/75/19 
f 42/75/19 43/76/19 41/74/18 
f 42/78/19 44/77/20 45/79/20 
f 45/79/20 43/80/19 42/78/19 
f 44/82/20 46/81/21 47/83/21 
f 47/83/21 45/84/20 44/82/20 
f 47/86/21 46/85/21 48/87/22 
f 48/87/22 49/88/22 47/86/21 
f 51/90/23 50/89/23 52/91/24 
f 52/91/24 53/92/24 51/90/23 
f 51/94/23 54/93/25 55/95/25 
f 55/95/25 50/96/23 51/94/23 
f 54/98/25 56/97/26 57/99/26 
f 57/99/26 55/100/25 54/98/25 
f 57/102/26 56/101/26 58/103/27 
f 58/103/27 59/104/27 57/102/26 
f 61/106/3 60/105/3 62/107/3 
f 62/107/3 63/9/3 61/106/3 
f 62/107/3 17/10/3 63/9/3 
f 17/10/3 62/107/3 64/108/3 
f 17/10/3 64/108/3 22/109/3 
f 17/10/3 22/109/3 23/110/3 
f 23/110/3 16/111/3 17/10/3 
f 64/108/3 65/112/3 22/109/3 
f 60/114/29 66/113/28 67/115/28 
f 67/115/28 62/116/29 60/114/29 
f 66/118/28 68/117/30 69/119/30 
f 69/119/30 67/120/28 66/118/28 
f 68/122/30 70/121/31 71/123/31 
f 71/123/31 69/124/30 68/122/30 
f 73/126/32 72/125/32 71/127/31 
f 71/127/31 70/128/31 73/126/32 
f 75/130/33 74/129/33 72/131/32 
f 72/131/32 73/132/32 75/130/33 
f 77/134/9 76/133/9 74/135/33 
f 74/135/33 75/136/33 77/134/9 
f 79/138/34 78/137/34 76/139/9 
f 76/139/9 77/140/9 79/138/34 
f 53/142/24 52/141/24 78/143/34 
f 78/143/34 79/144/34 53/142/24 
f 1/146/7 12/145/7 80/147/7 
f 80/147/7 3/148/7 1/146/7 
f 12/150/5 10/149/5 21/151/5 
f 21/151/5 80/27/5 12/150/5 
f 21/151/5 81/152/5 80/27/5 
f 21/151/5 82/153/5 81/152/5 
f 80/27/5 81/152/5 59/154/5 
f 83/28/5 80/27/5 59/154/5 
f 83/28/5 59/154/5 58/155/5 
f 58/155/5 84/156/5 83/28/5 
f 17/158/4 18/157/4 19/159/4 
f 19/159/4 63/160/4 17/158/4 
f 23/162/4 13/161/4 14/163/4 
f 14/163/4 16/164/4 23/162/4 
f 86/166/3 85/165/3 87/167/3 
f 87/167/3 88/168/3 86/166/3 
f 87/170/16 85/169/16 25/171/16 
f 25/171/16 27/172/16 87/170/16 
f 90/173/5 89/156/5 91/174/5 
f 91/174/5 92/175/5 90/173/5 
f 49/177/16 48/176/16 90/178/16 
f 90/178/16 92/179/16 49/177/16 
f 8/181/4 3/180/4 80/182/4 
f 80/182/4 83/183/4 8/181/4 
f 61/160/4 89/184/4 90/185/4 
f 90/185/4 60/186/4 61/160/4 
f 90/185/4 48/187/4 60/186/4 
f 48/187/4 66/188/4 60/186/4 
f 48/187/4 46/189/4 66/188/4 
f 46/189/4 68/190/4 66/188/4 
f 46/189/4 44/191/4 68/190/4 
f 44/191/4 70/192/4 68/190/4 
f 44/191/4 73/193/4 70/192/4 
f 44/191/4 42/194/4 73/193/4 
f 42/194/4 75/195/4 73/193/4 
f 42/194/4 77/196/4 75/195/4 
f 77/196/4 42/194/4 30/197/4 
f 79/198/4 77/196/4 30/197/4 
f 53/199/4 79/198/4 30/197/4 
f 53/199/4 30/197/4 28/200/4 
f 51/201/4 53/199/4 28/200/4 
f 54/202/4 51/201/4 28/200/4 
f 54/202/4 28/200/4 24/203/4 
f 56/204/4 54/202/4 24/203/4 
f 56/204/4 24/203/4 25/205/4 
f 25/205/4 58/206/4 56/204/4 
f 42/194/4 40/207/4 30/197/4 
f 40/207/4 32/208/4 30/197/4 
f 40/207/4 38/209/4 32/208/4 
f 38/209/4 34/210/4 32/208/4 
f 38/209/4 36/211/4 34/210/4 
f 58/206/4 25/205/4 85/212/4 
f 58/206/4 85/212/4 86/213/4 
f 86/213/4 84/183/4 58/206/4 
f 8/215/9 84/214/9 86/216/9 
f 86/216/9 9/217/9 8/215/9 
f 8/215/9 83/218/9 84/214/9 
f 9/217/9 86/216/9 88/219/9 
f 88/219/9 91/37/9 9/217/9 
f 91/37/9 20/220/9 9/217/9 
f 91/37/9 19/221/9 20/220/9 
f 19/221/9 91/37/9 89/222/9 
f 19/221/9 89/222/9 61/223/9 
f 61/223/9 63/224/9 19/221/9 
f 15/226/2 4/225/2 9/227/2 
f 9/227/2 20/228/2 15/226/2 
f 49/230/2 27/229/2 26/231/2 
f 26/231/2 47/232/2 49/230/2 
f 26/231/2 45/233/2 47/232/2 
f 26/231/2 29/234/2 45/233/2 
f 29/234/2 43/235/2 45/233/2 
f 29/234/2 31/236/2 43/235/2 
f 31/236/2 41/237/2 43/235/2 
f 31/236/2 33/238/2 41/237/2 
f 33/238/2 39/239/2 41/237/2 
f 33/238/2 35/240/2 39/239/2 
f 35/240/2 37/241/2 39/239/2 
f 27/229/2 49/230/2 92/242/2 
f 87/243/2 27/229/2 92/242/2 
f 87/243/2 92/242/2 91/244/2 
f 91/244/2 88/245/2 87/243/2 
f 21/13/4 22/162/4 65/160/4 
f 65/160/4 82/183/4 21/13/4 
f 81/183/4 64/160/4 62/186/4 
f 62/186/4 59/206/4 81/183/4 
f 62/186/4 67/188/4 59/206/4 
f 67/188/4 57/204/4 59/206/4 
f 67/188/4 69/190/4 57/204/4 
f 69/190/4 55/202/4 57/204/4 
f 69/190/4 71/192/4 55/202/4 
f 71/192/4 50/201/4 55/202/4 
f 71/192/4 52/199/4 50/201/4 
f 71/192/4 72/193/4 52/199/4 
f 72/193/4 74/195/4 52/199/4 
f 74/195/4 78/198/4 52/199/4 
f 74/195/4 76/196/4 78/198/4 
f 81/246/9 82/35/9 65/38/9 
f 65/38/9 64/247/9 81/246/9 
g gravestoneRound




usemtl stone

f 2/2/1 1/1/1 3/3/1 
f 3/3/1 4/4/1 2/2/1 
f 6/6/2 5/5/2 2/7/2 
f 2/7/2 7/8/2 6/6/2 
f 3/10/3 8/9/3 9/11/3 
f 9/11/3 4/12/3 3/10/3 
f 11/5/4 10/13/4 12/14/4 
f 12/14/4 1/7/4 11/5/4 
f 14/7/5 13/5/5 6/15/5 
f 6/15/5 7/16/5 14/7/5 
f 11/5/3 1/7/3 2/17/3 
f 2/17/3 5/18/3 11/5/3 
f 7/20/6 2/19/6 4/21/6 
f 4/21/6 15/22/6 7/20/6 
f 17/24/7 16/23/7 14/25/7 
f 14/25/7 18/26/7 17/24/7 
f 19/28/5 18/27/5 15/29/5 
f 15/29/5 20/30/5 19/28/5 
f 18/32/8 14/31/8 7/33/8 
f 7/33/8 15/34/8 18/32/8 
f 21/35/9 11/5/9 5/36/9 
f 5/36/9 6/37/9 21/35/9 
f 6/37/9 22/38/9 21/35/9 
f 6/37/9 23/39/9 22/38/9 
f 6/37/9 13/6/9 23/39/9 
f 11/5/9 21/35/9 10/40/9 
f 25/42/11 24/41/10 26/43/10 
f 26/43/10 27/44/11 25/42/11 
f 24/46/10 28/45/12 29/47/12 
f 29/47/12 26/48/10 24/46/10 
f 28/50/12 30/49/13 31/51/13 
f 31/51/13 29/52/12 28/50/12 
f 31/54/13 30/53/13 32/55/14 
f 32/55/14 33/56/14 31/54/13 
f 33/58/14 32/57/14 34/59/15 
f 34/59/15 35/60/15 33/58/14 
f 35/62/15 34/61/15 36/63/16 
f 36/63/16 37/64/16 35/62/15 
f 37/66/16 36/65/16 38/67/17 
f 38/67/17 39/68/17 37/66/16 
f 39/70/17 38/69/17 40/71/18 
f 40/71/18 41/72/18 39/70/17 
f 41/74/18 40/73/18 42/75/19 
f 42/75/19 43/76/19 41/74/18 
f 42/78/19 44/77/20 45/79/20 
f 45/79/20 43/80/19 42/78/19 
f 44/82/20 46/81/21 47/83/21 
f 47/83/21 45/84/20 44/82/20 
f 47/86/21 46/85/21 48/87/22 
f 48/87/22 49/88/22 47/86/21 
f 51/90/23 50/89/23 52/91/24 
f 52/91/24 53/92/24 51/90/23 
f 51/94/23 54/93/25 55/95/25 
f 55/95/25 50/96/23 51/94/23 
f 54/98/25 56/97/26 57/99/26 
f 57/99/26 55/100/25 54/98/25 
f 57/102/26 56/101/26 58/103/27 
f 58/103/27 59/104/27 57/102/26 
f 61/106/3 60/105/3 62/107/3 
f 62/107/3 63/9/3 61/106/3 
f 62/107/3 17/10/3 63/9/3 
f 17/10/3 62/107/3 64/108/3 
f 17/10/3 64/108/3 22/109/3 
f 17/10/3 22/109/3 23/110/3 
f 23/110/3 16/111/3 17/10/3 
f 64/108/3 65/112/3 22/109/3 
f 60/114/29 66/113/28 67/115/28 
f 67/115/28 62/116/29 60/114/29 
f 66/118/28 68/117/30 69/119/30 
f 69/119/30 67/120/28 66/118/28 
f 68/122/30 70/121/31 71/123/31 
f 71/123/31 69/124/30 68/122/30 
f 73/126/32 72/125/32 71/127/31 
f 71/127/31 70/128/31 73/126/32 
f 75/130/33 74/129/33 72/131/32 
f 72/131/32 73/132/32 75/130/33 
f 77/134/9 76/133/9 74/135/33 
f 74/135/33 75/136/33 77/134/9 
f 79/138/34 78/137/34 76/139/9 
f 76/139/9 77/140/9 79/138/34 
f 53/142/24 52/141/24 78/143/34 
f 78/143/34 79/144/34 53/142/24 
f 1/146/7 12/145/7 80/147/7 
f 80/147/7 3/148/7 1/146/7 
f 12/150/5 10/149/5 21/151/5 
f 21/151/5 80/27/5 12/150/5 
f 21/151/5 81/152/5 80/27/5 
f 21/151/5 82/153/5 81/152/5 
f 80/27/5 81/152/5 59/154/5 
f 83/28/5 80/27/5 59/154/5 
f 83/28/5 59/154/5 58/155/5 
f 58/155/5 84/156/5 83/28/5 
f 17/158/4 18/157/4 19/159/4 
f 19/159/4 63/160/4 17/158/4 
f 23/162/4 13/161/4 14/163/4 
f 14/163/4 16/164/4 23/162/4 
f 86/166/3 85/165/3 87/167/3 
f 87/167/3 88/168/3 86/166/3 
f 87/170/16 85/169/16 25/171/16 
f 25/171/16 27/172/16 87/170/16 
f 90/173/5 89/156/5 91/174/5 
f 91/174/5 92/175/5 90/173/5 
f 49/177/16 48/176/16 90/178/16 
f 90/178/16 92/179/16 49/177/16 
f 8/181/4 3/180/4 80/182/4 
f 80/182/4 83/183/4 8/181/4 
f 61/160/4 89/184/4 90/185/4 
f 90/185/4 60/186/4 61/160/4 
f 90/185/4 48/187/4 60/186/4 
f 48/187/4 66/188/4 60/186/4 
f 48/187/4 46/189/4 66/188/4 
f 46/189/4 68/190/4 66/188/4 
f 46/189/4 44/191/4 68/190/4 
f 44/191/4 70/192/4 68/190/4 
f 44/191/4 73/193/4 70/192/4 
f 44/191/4 42/194/4 73/193/4 
f 42/194/4 75/195/4 73/193/4 
f 42/194/4 77/196/4 75/195/4 
f 77/196/4 42/194/4 30/197/4 
f 79/198/4 77/196/4 30/197/4 
f 53/199/4 79/198/4 30/197/4 
f 53/199/4 30/197/4 28/200/4 
f 51/201/4 53/199/4 28/200/4 
f 54/202/4 51/201/4 28/200/4 
f 54/202/4 28/200/4 24/203/4 
f 56/204/4 54/202/4 24/203/4 
f 56/204/4 24/203/4 25/205/4 
f 25/205/4 58/206/4 56/204/4 
f 42/194/4 40/207/4 30/197/4 
f 40/207/4 32/208/4 30/197/4 
f 40/207/4 38/209/4 32/208/4 
f 38/209/4 34/210/4 32/208/4 
f 38/209/4 36/211/4 34/210/4 
f 58/206/4 25/205/4 85/212/4 
f 58/206/4 85/212/4 86/213/4 
f 86/213/4 84/183/4 58/206/4 
f 8/215/9 84/214/9 86/216/9 
f 86/216/9 9/217/9 8/215/9 
f 8/215/9 83/218/9 84/214/9 
f 9/217/9 86/216/9 88/219/9 
f 88/219/9 91/37/9 9/217/9 
f 91/37/9 20/220/9 9/217/9 
f 91/37/9 19/221/9 20/220/9 
f 19/221/9 91/37/9 89/222/9 
f 19/221/9 89/222/9 61/223/9 
f 61/223/9 63/224/9 19/221/9 
f 15/226/2 4/225/2 9/227/2 
f 9/227/2 20/228/2 15/226/2 
f 49/230/2 27/229/2 26/231/2 
f 26/231/2 47/232/2 49/230/2 
f 26/231/2 45/233/2 47/232/2 
f 26/231/2 29/234/2 45/233/2 
f 29/234/2 43/235/2 45/233/2 
f 29/234/2 31/236/2 43/235/2 
f 31/236/2 41/237/2 43/235/2 
f 31/236/2 33/238/2 41/237/2 
f 33/238/2 39/239/2 41/237/2 
f 33/238/2 35/240/2 39/239/2 
f 35/240/2 37/241/2 39/239/2 
f 27/229/2 49/230/2 92/242/2 
f 87/243/2 27/229/2 92/242/2 
f 87/243/2 92/242/2 91/244/2 
f 91/244/2 88/245/2 87/243/2 
f 21/13/4 22/162/4 65/160/4 
f 65/160/4 82/183/4 21/13/4 
f 81/183/4 64/160/4 62/186/4 
f 62/186/4 59/206/4 81/183/4 
f 62/186/4 67/188/4 59/206/4 
f 67/188/4 57/204/4 59/206/4 
f 67/188/4 69/190/4 57/204/4 
f 69/190/4 55/202/4 57/204/4 
f 69/190/4 71/192/4 55/202/4 
f 71/192/4 50/201/4 55/202/4 
f 71/192/4 52/199/4 50/201/4 
f 71/192/4 72/193/4 52/199/4 
f 72/193/4 74/195/4 52/199/4 
f 74/195/4 78/198/4 52/199/4 
f 74/195/4 76/196/4 78/198/4 
f 81/246/9 82/35/9 65/38/9 
f 65/38/9 64/247/9 81/246/9 
