# Created by Kenney (www.kenney.nl) 

mtllib gravestoneWide.mtl 

g gravestoneWide

v -0.2176667 0.468652 0.04055188 
v -0.2176667 0.468652 0.1752481 
v -0.2755947 0.4803207 0.04055188 
v -0.2755947 0.4803207 0.1752481 
v -0.3342665 0.4873514 0.04055188 
v -0.3342665 0.4873514 0.1752481 
v -0.3933113 0.4897 0.04055188 
v -0.3933113 0.4897 0.1752481 
v -0.1054992 0.4317251 0.04055188 
v -0.1054992 0.4317251 0.1752481 
v -0.1608486 0.4524193 0.04055188 
v -0.1608486 0.4524193 0.1752481 
v -0.4523561 0.4873514 0.04055188 
v -0.4523561 0.4873514 0.1752481 
v -0.5110278 0.4803207 0.04055188 
v -0.5110278 0.4803207 0.1752481 
v -0.5689558 0.468652 0.04055188 
v -0.5689558 0.468652 0.1752481 
v -0.6257739 0.4524193 0.04055188 
v -0.6257739 0.4524193 0.1752481 
v -0.6811233 0.4317251 0.04055188 
v -0.6811233 0.4317251 0.1752481 
v -0.05196833 0.4067 0.04055188 
v -0.05196833 0.4067 0.1752481 
v -0.05196833 0.083 0.04055188 
v -0.05196833 0.083 0.1752481 
v -0.6811059 0.1365483 0.04055188 
v -0.7346542 0.083 0.04055188 
v -0.7346542 0.4067 0.04055188 
v -0.6811059 0.3726224 0.04055188 
v -0.6603753 0.3823137 0.04055188 
v -0.609016 0.4015161 0.04055188 
v -0.5562938 0.4165787 0.04055188 
v -0.5025418 0.4274061 0.04055188 
v -0.4480996 0.43393 0.04055188 
v -0.3933113 0.4361093 0.04055188 
v -0.3385229 0.43393 0.04055188 
v -0.2840807 0.4274061 0.04055188 
v -0.2303288 0.4165787 0.04055188 
v -0.1776065 0.4015161 0.04055188 
v -0.1262472 0.3823137 0.04055188 
v -0.1055167 0.3726224 0.04055188 
v -0.1055167 0.1365483 0.04055188 
v -0.7346542 0.083 0.1752481 
v -0.7346542 0.4067 0.1752481 
v -0.01573245 0.083 0.211484 
v -0.01573245 0.083 0.004316 
v -0.7708901 0.083 0.004316 
v -0.7708901 0.083 0.211484 
v 0 0.0581 0.2158 
v -0.7866225 0.0581 0.2158 
v 0 0.0581 0 
v -0.7866225 0.0581 0 
v -0.1261462 0.1571779 0.05715188 
v -0.1261462 0.1571779 0.07375189 
v -0.6604763 0.1571779 0.05715188 
v -0.6604763 0.1571779 0.07375189 
v -0.1055167 0.1365483 0.05715188 
v -0.6811059 0.1365483 0.05715188 
v -0.6811059 0.3726224 0.05715188 
v -0.6604763 0.359494 0.05715188 
v -0.6523821 0.3632779 0.05715188 
v -0.60256 0.3819057 0.05715188 
v -0.6603753 0.3823137 0.05715188 
v -0.5514157 0.3965174 0.05715188 
v -0.609016 0.4015161 0.05715188 
v -0.4992725 0.4070208 0.05715188 
v -0.5562938 0.4165787 0.05715188 
v -0.4464598 0.4133494 0.05715188 
v -0.3933113 0.4154634 0.05715188 
v -0.1055167 0.3726224 0.05715188 
v -0.1261462 0.359494 0.05715188 
v -0.1342404 0.3632779 0.05715188 
v -0.1840626 0.3819057 0.05715188 
v -0.1262472 0.3823137 0.05715188 
v -0.2352068 0.3965174 0.05715188 
v -0.1776065 0.4015161 0.05715188 
v -0.28735 0.4070208 0.05715188 
v -0.2303288 0.4165787 0.05715188 
v -0.3401627 0.4133494 0.05715188 
v -0.5025418 0.4274061 0.05715188 
v -0.2840807 0.4274061 0.05715188 
v -0.4480996 0.43393 0.05715188 
v -0.3385229 0.43393 0.05715188 
v -0.3933113 0.4361093 0.05715188 
v -0.1261462 0.359494 0.07375189 
v -0.1342404 0.3632779 0.07375189 
v -0.6604763 0.359494 0.07375189 
v -0.6523821 0.3632779 0.07375189 
v -0.1840626 0.3819057 0.07375189 
v -0.60256 0.3819057 0.07375189 
v -0.5514157 0.3965174 0.07375189 
v -0.2352068 0.3965174 0.07375189 
v -0.4992725 0.4070208 0.07375189 
v -0.28735 0.4070208 0.07375189 
v -0.4464598 0.4133494 0.07375189 
v -0.3401627 0.4133494 0.07375189 
v -0.3933113 0.4154634 0.07375189 
v -0.7866225 0 0 
v 0 0 0 
v -0.7866225 0 0.2158 
v 0 0 0.2158 

vn 0.2362727 0.9716868 0 
vn 0.1583494 0.9873832 0 
vn 0.07942563 0.9968408 0 
vn 0 1 0 
vn 0.3871576 0.9220135 0 
vn 0.312703 0.949851 0 
vn -0.07942563 0.9968408 0 
vn -0.1583494 0.9873832 0 
vn -0.2362727 0.9716868 0 
vn -0.312703 0.949851 0 
vn -0.3871576 0.9220135 0 
vn 0.4234965 0.9058978 0 
vn 1 0 0 
vn 0 0 -1 
vn 0 0 1 
vn -1 0 0 
vn 0 0.1707867 0.985308 
vn 0.8453948 0.534142 0 
vn -0.8453948 0.534142 0 
vn 0 0.1707867 -0.985308 
vn -0.4234965 -0.9058978 0 
vn -0.3871576 -0.9220135 0 
vn 0.3871576 -0.9220135 0 
vn 0.4234965 -0.9058978 0 
vn 0.312703 -0.949851 0 
vn 0.2362727 -0.9716868 0 
vn 0 -1 0 
vn 0.07942563 -0.9968408 0 
vn -0.07942563 -0.9968408 0 
vn 0.1583494 -0.9873832 0 
vn -0.312703 -0.949851 0 
vn -0.1583494 -0.9873832 0 
vn -0.2362727 -0.9716868 0 
vn -0.4234965 0.9058978 0 

vt -1.923531 14.51115 
vt -8.312689 14.51115 
vt -1.923531 17.31409 
vt -8.312689 17.31409 
vt -1.923531 16.76178 
vt -8.312689 16.76178 
vt -1.923531 19.56471 
vt -8.312689 19.56471 
vt -1.923531 11.859 
vt -8.312689 11.859 
vt -1.923531 14.66193 
vt -8.312689 14.66193 
vt 1.923531 -18.55407 
vt 8.312689 -18.55407 
vt 1.923531 -21.35701 
vt 8.312689 -21.35701 
vt 1.923531 -19.26373 
vt 8.312689 -19.26373 
vt 1.923531 -22.06667 
vt 8.312689 -22.06667 
vt 1.923531 -20.28767 
vt 8.312689 -20.28767 
vt 1.923531 -23.09061 
vt 8.312689 -23.09061 
vt -1.923531 13.2313 
vt -8.312689 13.2313 
vt -1.923531 16.03424 
vt -8.312689 16.03424 
vt 1.923531 -19.84282 
vt 8.312689 -19.84282 
vt 1.923531 -22.64575 
vt 8.312689 -22.64575 
vt -1.923531 10.4029 
vt -8.312689 10.4029 
vt -1.923531 13.20584 
vt -8.312689 13.20584 
vt 1.923531 -17.71833 
vt 8.312689 -17.71833 
vt 1.923531 -20.52126 
vt 8.312689 -20.52126 
vt -1.923531 15.69046 
vt -8.312689 15.69046 
vt -1.923531 18.4934 
vt -8.312689 18.4934 
vt -1.923531 19.29134 
vt -1.923531 3.937008 
vt -8.312689 19.29134 
vt -8.312689 3.937008 
vt 2.465057 3.937008 
vt 32.30746 6.477011 
vt 34.84746 3.937008 
vt 34.84746 19.29134 
vt 32.30746 17.67491 
vt 31.32413 18.1346 
vt 28.88796 19.04545 
vt 26.38715 19.75992 
vt 32.30829 20.47837 
vt 23.83748 20.27351 
vt 21.25508 20.58296 
vt 29.68286 21.45998 
vt 18.65626 20.68633 
vt 7.629664 21.45998 
vt 10.32477 22.22996 
vt 26.98775 22.22996 
vt 13.07251 22.78345 
vt 24.24001 22.78345 
vt 21.45698 23.11695 
vt 15.85554 23.11695 
vt 18.65626 23.22835 
vt 16.05744 20.58296 
vt 5.004231 20.47837 
vt 13.47504 20.27351 
vt 10.92537 19.75992 
vt 2.465057 19.29134 
vt 8.424559 19.04545 
vt 5.98839 18.1346 
vt 5.005061 17.67491 
vt 5.005061 6.477011 
vt -2.465057 3.937008 
vt -34.84746 3.937008 
vt -2.465057 19.29134 
vt -34.84746 19.29134 
vt -5.004231 20.47837 
vt -32.30829 20.47837 
vt -7.629664 21.45998 
vt -29.68286 21.45998 
vt -10.32477 22.22996 
vt -26.98775 22.22996 
vt -13.07251 22.78345 
vt -24.24001 22.78345 
vt -15.85554 23.11695 
vt -21.45698 23.11695 
vt -18.65626 23.22835 
vt 1.923531 3.937008 
vt 1.923531 19.29134 
vt 8.312689 3.937008 
vt 8.312689 19.29134 
vt 0.7462504 10.0315 
vt 2.465057 1.923531 
vt 0.7462504 0.2047244 
vt 36.56627 0.2047244 
vt 34.84746 1.923531 
vt 34.84746 8.312689 
vt 2.465057 8.312689 
vt 36.56627 10.0315 
vt -6.796694E-20 0.9672052 
vt -37.31252 0.9672052 
vt -0.7462504 2.165919 
vt -36.56627 2.165919 
vt 0 2.329828 
vt -10.23622 2.329828 
vt -0.2047244 3.72693 
vt -10.0315 3.72693 
vt -7.705585E-19 -17.60035 
vt 0.2047244 -16.20325 
vt 10.23622 -17.60035 
vt 10.0315 -16.20325 
vt 37.31252 2.715416 
vt 3.761582E-37 2.715416 
vt 36.56627 3.91413 
vt 0.7462504 3.91413 
vt 5.983597 2.710933 
vt 5.983597 3.498334 
vt 31.32892 2.710933 
vt 31.32892 3.498334 
vt 31.32892 7.455548 
vt 31.32892 17.05218 
vt 30.94498 17.23166 
vt 28.58173 18.11525 
vt 26.15576 18.80834 
vt 23.68241 19.30655 
vt 21.1773 19.60675 
vt 18.65626 19.70702 
vt 5.983597 7.455548 
vt 5.983597 17.05218 
vt 6.367538 17.23166 
vt 8.730792 18.11525 
vt 11.15676 18.80834 
vt 13.63011 19.30655 
vt 16.13522 19.60675 
vt 3.498334 12.64206 
vt 2.710933 12.64206 
vt 3.498334 13.06589 
vt 2.710933 13.06589 
vt -2.710933 7.455548 
vt -3.498334 7.455548 
vt -2.710933 17.05218 
vt -3.498334 17.05218 
vt 2.710933 7.455548 
vt 2.710933 17.05218 
vt 3.498334 7.455548 
vt 3.498334 17.05218 
vt -3.498334 -20.73544 
vt -2.710933 -20.73544 
vt -3.498334 -21.15926 
vt -2.710933 -21.15926 
vt -3.498334 -20.42763 
vt -2.710933 -20.42763 
vt -3.498334 -22.95066 
vt -2.710933 -22.95066 
vt -3.498334 -19.98277 
vt -2.710933 -19.98277 
vt -3.498334 -22.5058 
vt -2.710933 -22.5058 
vt 37.31252 0 
vt 0 0 
vt 37.31252 2.755906 
vt 0 2.755906 
vt 10.23622 0 
vt 10.23622 2.755906 
vt -3.498334 -17.85828 
vt -2.710933 -17.85828 
vt -3.498334 -20.38131 
vt -2.710933 -20.38131 
vt 3.498334 16.90173 
vt 2.710933 16.90173 
vt 3.498334 19.42476 
vt 2.710933 19.42476 
vt 5.005061 1.923531 
vt 5.005061 2.710933 
vt 32.30746 1.923531 
vt 32.30746 2.710933 
vt -37.31252 0 
vt -37.31252 2.755906 
vt 1.923531 6.477011 
vt 1.923531 17.67491 
vt 2.710933 6.477011 
vt 2.710933 17.67491 
vt -1.923531 6.477011 
vt -2.710933 6.477011 
vt -1.923531 17.67491 
vt -2.710933 17.67491 
vt -2.710933 -20.3887 
vt -1.923531 -20.3887 
vt -2.710933 -22.98958 
vt -1.923531 -22.98958 
vt -2.710933 -19.94385 
vt -1.923531 -19.94385 
vt -2.710933 -22.54472 
vt -1.923531 -22.54472 
vt -2.710933 -19.36476 
vt -1.923531 -19.36476 
vt -2.710933 -21.96564 
vt -1.923531 -21.96564 
vt -2.710933 -18.6551 
vt -1.923531 -18.6551 
vt -2.710933 -21.25598 
vt -1.923531 -21.25598 
vt 3.498334 11.99895 
vt 2.710933 11.99895 
vt 3.498334 14.52198 
vt 2.710933 14.52198 
vt -3.498334 -18.69403 
vt -2.710933 -18.69403 
vt -3.498334 -21.21706 
vt -2.710933 -21.21706 
vt -3.498334 -19.40368 
vt -2.710933 -19.40368 
vt -3.498334 -21.92671 
vt -2.710933 -21.92671 
vt -2.710933 -20.69652 
vt -1.923531 -20.69652 
vt -2.710933 -21.78199 
vt -1.923531 -21.78199 
vt 3.498334 15.83041 
vt 2.710933 15.83041 
vt 3.498334 18.35345 
vt 2.710933 18.35345 
vt -10.23622 2.755906 
vt -10.23622 0 
vt 3.498334 13.37125 
vt 2.710933 13.37125 
vt 3.498334 15.89429 
vt 2.710933 15.89429 
vt 3.498334 14.6511 
vt 2.710933 14.6511 
vt 3.498334 17.17414 
vt 2.710933 17.17414 
vt 1.923531 -20.59549 
vt 8.312689 -20.59549 
vt 1.923531 -23.39843 
vt 8.312689 -23.39843 
vt 2.710933 11.96003 
vt 1.923531 11.96003 
vt 2.710933 14.5609 
vt 1.923531 14.5609 
vt 2.710933 12.01933 
vt 1.923531 12.01933 
vt 2.710933 13.10481 
vt 1.923531 13.10481 
vt 2.710933 15.79149 
vt 1.923531 15.79149 
vt 2.710933 18.39237 
vt 1.923531 18.39237 
vt 2.710933 14.61218 
vt 1.923531 14.61218 
vt 2.710933 17.21306 
vt 1.923531 17.21306 
vt 0 10.23622 
vt -37.31252 10.23622 
vt -2.710933 -17.81936 
vt -1.923531 -17.81936 
vt -2.710933 -20.42023 
vt -1.923531 -20.42023 
vt 2.710933 16.86281 
vt 1.923531 16.86281 
vt 2.710933 19.46368 
vt 1.923531 19.46368 
vt 2.710933 13.33233 
vt 1.923531 13.33233 
vt 2.710933 15.93321 
vt 1.923531 15.93321 

usemtl stone

f 2/2/1 1/1/1 3/3/2 
f 3/3/2 4/4/2 2/2/1 
f 6/6/3 5/5/3 7/7/4 
f 7/7/4 8/8/4 6/6/3 
f 10/10/5 9/9/5 11/11/6 
f 11/11/6 12/12/6 10/10/5 
f 14/14/7 13/13/7 15/15/8 
f 15/15/8 16/16/8 14/14/7 
f 16/18/8 15/17/8 17/19/9 
f 17/19/9 18/20/9 16/18/8 
f 20/22/10 19/21/10 21/23/11 
f 21/23/11 22/24/11 20/22/10 
f 12/26/6 11/25/6 1/27/1 
f 1/27/1 2/28/1 12/26/6 
f 18/30/9 17/29/9 19/31/10 
f 19/31/10 20/32/10 18/30/9 
f 24/34/12 23/33/12 9/35/5 
f 9/35/5 10/36/5 24/34/12 
f 8/38/4 7/37/4 13/39/7 
f 13/39/7 14/40/7 8/38/4 
f 4/42/2 3/41/2 5/43/3 
f 5/43/3 6/44/3 4/42/2 
f 25/46/13 23/45/13 24/47/13 
f 24/47/13 26/48/13 25/46/13 
f 27/50/14 25/49/14 28/51/14 
f 28/51/14 29/52/14 27/50/14 
f 29/52/14 30/53/14 27/50/14 
f 29/52/14 31/54/14 30/53/14 
f 29/52/14 32/55/14 31/54/14 
f 29/52/14 33/56/14 32/55/14 
f 29/52/14 21/57/14 33/56/14 
f 21/57/14 34/58/14 33/56/14 
f 21/57/14 35/59/14 34/58/14 
f 21/57/14 19/60/14 35/59/14 
f 19/60/14 36/61/14 35/59/14 
f 19/60/14 11/62/14 36/61/14 
f 19/60/14 1/63/14 11/62/14 
f 19/60/14 17/64/14 1/63/14 
f 17/64/14 3/65/14 1/63/14 
f 17/64/14 15/66/14 3/65/14 
f 15/66/14 13/67/14 3/65/14 
f 13/67/14 5/68/14 3/65/14 
f 13/67/14 7/69/14 5/68/14 
f 37/70/14 36/61/14 11/62/14 
f 37/70/14 11/62/14 9/71/14 
f 38/72/14 37/70/14 9/71/14 
f 39/73/14 38/72/14 9/71/14 
f 39/73/14 9/71/14 23/74/14 
f 40/75/14 39/73/14 23/74/14 
f 41/76/14 40/75/14 23/74/14 
f 42/77/14 41/76/14 23/74/14 
f 43/78/14 42/77/14 23/74/14 
f 43/78/14 23/74/14 25/49/14 
f 25/49/14 27/50/14 43/78/14 
f 44/80/15 26/79/15 24/81/15 
f 24/81/15 45/82/15 44/80/15 
f 24/81/15 10/83/15 45/82/15 
f 10/83/15 22/84/15 45/82/15 
f 10/83/15 12/85/15 22/84/15 
f 12/85/15 20/86/15 22/84/15 
f 12/85/15 2/87/15 20/86/15 
f 2/87/15 18/88/15 20/86/15 
f 2/87/15 4/89/15 18/88/15 
f 4/89/15 16/90/15 18/88/15 
f 4/89/15 6/91/15 16/90/15 
f 6/91/15 14/92/15 16/90/15 
f 6/91/15 8/93/15 14/92/15 
f 29/95/16 28/94/16 44/96/16 
f 44/96/16 45/97/16 29/95/16 
f 25/99/4 46/98/4 47/100/4 
f 47/100/4 48/101/4 25/99/4 
f 48/101/4 28/102/4 25/99/4 
f 48/101/4 44/103/4 28/102/4 
f 46/98/4 25/99/4 26/104/4 
f 26/104/4 49/105/4 46/98/4 
f 26/104/4 44/103/4 49/105/4 
f 44/103/4 48/101/4 49/105/4 
f 51/107/17 50/106/17 46/108/17 
f 46/108/17 49/109/17 51/107/17 
f 50/111/18 52/110/18 47/112/18 
f 47/112/18 46/113/18 50/111/18 
f 48/115/19 53/114/19 51/116/19 
f 51/116/19 49/117/19 48/115/19 
f 52/119/20 53/118/20 48/120/20 
f 48/120/20 47/121/20 52/119/20 
f 55/123/4 54/122/4 56/124/4 
f 56/124/4 57/125/4 55/123/4 
f 56/126/14 58/78/14 59/50/14 
f 59/50/14 60/53/14 56/126/14 
f 60/53/14 61/127/14 56/126/14 
f 60/53/14 62/128/14 61/127/14 
f 60/53/14 63/129/14 62/128/14 
f 60/53/14 64/54/14 63/129/14 
f 64/54/14 65/130/14 63/129/14 
f 64/54/14 66/55/14 65/130/14 
f 66/55/14 67/131/14 65/130/14 
f 66/55/14 68/56/14 67/131/14 
f 68/56/14 69/132/14 67/131/14 
f 68/56/14 70/133/14 69/132/14 
f 58/78/14 56/126/14 54/134/14 
f 54/134/14 71/77/14 58/78/14 
f 54/134/14 72/135/14 71/77/14 
f 72/135/14 73/136/14 71/77/14 
f 73/136/14 74/137/14 71/77/14 
f 74/137/14 75/76/14 71/77/14 
f 74/137/14 76/138/14 75/76/14 
f 76/138/14 77/75/14 75/76/14 
f 76/138/14 78/139/14 77/75/14 
f 78/139/14 79/73/14 77/75/14 
f 70/133/14 68/56/14 79/73/14 
f 78/139/14 80/140/14 79/73/14 
f 80/140/14 70/133/14 79/73/14 
f 68/56/14 81/58/14 79/73/14 
f 81/58/14 82/72/14 79/73/14 
f 81/58/14 83/59/14 82/72/14 
f 83/59/14 84/70/14 82/72/14 
f 83/59/14 85/61/14 84/70/14 
f 72/142/21 86/141/21 87/143/22 
f 87/143/22 73/144/22 72/142/21 
f 57/146/13 56/145/13 61/147/13 
f 61/147/13 88/148/13 57/146/13 
f 55/134/14 57/126/14 88/127/14 
f 88/127/14 86/135/14 55/134/14 
f 88/127/14 89/128/14 86/135/14 
f 89/128/14 87/136/14 86/135/14 
f 89/128/14 90/137/14 87/136/14 
f 89/128/14 91/129/14 90/137/14 
f 91/129/14 92/130/14 90/137/14 
f 92/130/14 93/138/14 90/137/14 
f 92/130/14 94/131/14 93/138/14 
f 94/131/14 95/139/14 93/138/14 
f 94/131/14 96/132/14 95/139/14 
f 96/132/14 97/140/14 95/139/14 
f 96/132/14 98/133/14 97/140/14 
f 72/150/16 54/149/16 55/151/16 
f 55/151/16 86/152/16 72/150/16 
f 62/154/23 89/153/23 88/155/24 
f 88/155/24 61/156/24 62/154/23 
f 63/158/25 91/157/25 89/159/23 
f 89/159/23 62/160/23 63/158/25 
f 65/162/26 92/161/26 91/163/25 
f 91/163/25 63/164/25 65/162/26 
f 100/166/14 99/165/14 53/167/14 
f 53/167/14 52/168/14 100/166/14 
f 53/168/16 99/166/16 101/169/16 
f 101/169/16 51/170/16 53/168/16 
f 70/172/27 98/171/27 96/173/28 
f 96/173/28 69/174/28 70/172/27 
f 80/176/29 97/175/29 98/177/27 
f 98/177/27 70/178/27 80/176/29 
f 58/180/4 43/179/4 27/181/4 
f 27/181/4 59/182/4 58/180/4 
f 101/183/15 102/166/15 50/168/15 
f 50/168/15 51/184/15 101/183/15 
f 42/186/16 43/185/16 58/187/16 
f 58/187/16 71/188/16 42/186/16 
f 59/190/13 27/189/13 30/191/13 
f 30/191/13 60/192/13 59/190/13 
f 32/194/25 66/193/25 64/195/23 
f 64/195/23 31/196/23 32/194/25 
f 33/198/26 68/197/26 66/199/25 
f 66/199/25 32/200/25 33/198/26 
f 34/202/30 81/201/30 68/203/26 
f 68/203/26 33/204/26 34/202/30 
f 35/206/28 83/205/28 81/207/30 
f 81/207/30 34/208/30 35/206/28 
f 73/210/22 87/209/22 90/211/31 
f 90/211/31 74/212/31 73/210/22 
f 69/214/28 96/213/28 94/215/30 
f 94/215/30 67/216/30 69/214/28 
f 67/218/30 94/217/30 92/219/26 
f 92/219/26 65/220/26 67/218/30 
f 31/222/23 64/221/23 60/223/24 
f 60/223/24 30/224/24 31/222/23 
f 78/226/32 95/225/32 97/227/29 
f 97/227/29 80/228/29 78/226/32 
f 100/166/13 52/168/13 50/229/13 
f 50/229/13 102/230/13 100/166/13 
f 74/232/31 90/231/31 93/233/33 
f 93/233/33 76/234/33 74/232/31 
f 76/236/33 93/235/33 95/237/32 
f 95/237/32 78/238/32 76/236/33 
f 22/240/11 21/239/11 29/241/34 
f 29/241/34 45/242/34 22/240/11 
f 41/244/22 75/243/22 77/245/31 
f 77/245/31 40/246/31 41/244/22 
f 42/248/21 71/247/21 75/249/22 
f 75/249/22 41/250/22 42/248/21 
f 38/252/32 82/251/32 84/253/29 
f 84/253/29 37/254/29 38/252/32 
f 39/256/33 79/255/33 82/257/32 
f 82/257/32 38/258/32 39/256/33 
f 100/166/27 102/259/27 101/260/27 
f 101/260/27 99/183/27 100/166/27 
f 36/262/27 85/261/27 83/263/28 
f 83/263/28 35/264/28 36/262/27 
f 37/266/29 84/265/29 85/267/27 
f 85/267/27 36/268/27 37/266/29 
f 40/270/31 77/269/31 79/271/33 
f 79/271/33 39/272/33 40/270/31 
g gravestoneWide




usemtl stone

f 2/2/1 1/1/1 3/3/2 
f 3/3/2 4/4/2 2/2/1 
f 6/6/3 5/5/3 7/7/4 
f 7/7/4 8/8/4 6/6/3 
f 10/10/5 9/9/5 11/11/6 
f 11/11/6 12/12/6 10/10/5 
f 14/14/7 13/13/7 15/15/8 
f 15/15/8 16/16/8 14/14/7 
f 16/18/8 15/17/8 17/19/9 
f 17/19/9 18/20/9 16/18/8 
f 20/22/10 19/21/10 21/23/11 
f 21/23/11 22/24/11 20/22/10 
f 12/26/6 11/25/6 1/27/1 
f 1/27/1 2/28/1 12/26/6 
f 18/30/9 17/29/9 19/31/10 
f 19/31/10 20/32/10 18/30/9 
f 24/34/12 23/33/12 9/35/5 
f 9/35/5 10/36/5 24/34/12 
f 8/38/4 7/37/4 13/39/7 
f 13/39/7 14/40/7 8/38/4 
f 4/42/2 3/41/2 5/43/3 
f 5/43/3 6/44/3 4/42/2 
f 25/46/13 23/45/13 24/47/13 
f 24/47/13 26/48/13 25/46/13 
f 27/50/14 25/49/14 28/51/14 
f 28/51/14 29/52/14 27/50/14 
f 29/52/14 30/53/14 27/50/14 
f 29/52/14 31/54/14 30/53/14 
f 29/52/14 32/55/14 31/54/14 
f 29/52/14 33/56/14 32/55/14 
f 29/52/14 21/57/14 33/56/14 
f 21/57/14 34/58/14 33/56/14 
f 21/57/14 35/59/14 34/58/14 
f 21/57/14 19/60/14 35/59/14 
f 19/60/14 36/61/14 35/59/14 
f 19/60/14 11/62/14 36/61/14 
f 19/60/14 1/63/14 11/62/14 
f 19/60/14 17/64/14 1/63/14 
f 17/64/14 3/65/14 1/63/14 
f 17/64/14 15/66/14 3/65/14 
f 15/66/14 13/67/14 3/65/14 
f 13/67/14 5/68/14 3/65/14 
f 13/67/14 7/69/14 5/68/14 
f 37/70/14 36/61/14 11/62/14 
f 37/70/14 11/62/14 9/71/14 
f 38/72/14 37/70/14 9/71/14 
f 39/73/14 38/72/14 9/71/14 
f 39/73/14 9/71/14 23/74/14 
f 40/75/14 39/73/14 23/74/14 
f 41/76/14 40/75/14 23/74/14 
f 42/77/14 41/76/14 23/74/14 
f 43/78/14 42/77/14 23/74/14 
f 43/78/14 23/74/14 25/49/14 
f 25/49/14 27/50/14 43/78/14 
f 44/80/15 26/79/15 24/81/15 
f 24/81/15 45/82/15 44/80/15 
f 24/81/15 10/83/15 45/82/15 
f 10/83/15 22/84/15 45/82/15 
f 10/83/15 12/85/15 22/84/15 
f 12/85/15 20/86/15 22/84/15 
f 12/85/15 2/87/15 20/86/15 
f 2/87/15 18/88/15 20/86/15 
f 2/87/15 4/89/15 18/88/15 
f 4/89/15 16/90/15 18/88/15 
f 4/89/15 6/91/15 16/90/15 
f 6/91/15 14/92/15 16/90/15 
f 6/91/15 8/93/15 14/92/15 
f 29/95/16 28/94/16 44/96/16 
f 44/96/16 45/97/16 29/95/16 
f 25/99/4 46/98/4 47/100/4 
f 47/100/4 48/101/4 25/99/4 
f 48/101/4 28/102/4 25/99/4 
f 48/101/4 44/103/4 28/102/4 
f 46/98/4 25/99/4 26/104/4 
f 26/104/4 49/105/4 46/98/4 
f 26/104/4 44/103/4 49/105/4 
f 44/103/4 48/101/4 49/105/4 
f 51/107/17 50/106/17 46/108/17 
f 46/108/17 49/109/17 51/107/17 
f 50/111/18 52/110/18 47/112/18 
f 47/112/18 46/113/18 50/111/18 
f 48/115/19 53/114/19 51/116/19 
f 51/116/19 49/117/19 48/115/19 
f 52/119/20 53/118/20 48/120/20 
f 48/120/20 47/121/20 52/119/20 
f 55/123/4 54/122/4 56/124/4 
f 56/124/4 57/125/4 55/123/4 
f 56/126/14 58/78/14 59/50/14 
f 59/50/14 60/53/14 56/126/14 
f 60/53/14 61/127/14 56/126/14 
f 60/53/14 62/128/14 61/127/14 
f 60/53/14 63/129/14 62/128/14 
f 60/53/14 64/54/14 63/129/14 
f 64/54/14 65/130/14 63/129/14 
f 64/54/14 66/55/14 65/130/14 
f 66/55/14 67/131/14 65/130/14 
f 66/55/14 68/56/14 67/131/14 
f 68/56/14 69/132/14 67/131/14 
f 68/56/14 70/133/14 69/132/14 
f 58/78/14 56/126/14 54/134/14 
f 54/134/14 71/77/14 58/78/14 
f 54/134/14 72/135/14 71/77/14 
f 72/135/14 73/136/14 71/77/14 
f 73/136/14 74/137/14 71/77/14 
f 74/137/14 75/76/14 71/77/14 
f 74/137/14 76/138/14 75/76/14 
f 76/138/14 77/75/14 75/76/14 
f 76/138/14 78/139/14 77/75/14 
f 78/139/14 79/73/14 77/75/14 
f 70/133/14 68/56/14 79/73/14 
f 78/139/14 80/140/14 79/73/14 
f 80/140/14 70/133/14 79/73/14 
f 68/56/14 81/58/14 79/73/14 
f 81/58/14 82/72/14 79/73/14 
f 81/58/14 83/59/14 82/72/14 
f 83/59/14 84/70/14 82/72/14 
f 83/59/14 85/61/14 84/70/14 
f 72/142/21 86/141/21 87/143/22 
f 87/143/22 73/144/22 72/142/21 
f 57/146/13 56/145/13 61/147/13 
f 61/147/13 88/148/13 57/146/13 
f 55/134/14 57/126/14 88/127/14 
f 88/127/14 86/135/14 55/134/14 
f 88/127/14 89/128/14 86/135/14 
f 89/128/14 87/136/14 86/135/14 
f 89/128/14 90/137/14 87/136/14 
f 89/128/14 91/129/14 90/137/14 
f 91/129/14 92/130/14 90/137/14 
f 92/130/14 93/138/14 90/137/14 
f 92/130/14 94/131/14 93/138/14 
f 94/131/14 95/139/14 93/138/14 
f 94/131/14 96/132/14 95/139/14 
f 96/132/14 97/140/14 95/139/14 
f 96/132/14 98/133/14 97/140/14 
f 72/150/16 54/149/16 55/151/16 
f 55/151/16 86/152/16 72/150/16 
f 62/154/23 89/153/23 88/155/24 
f 88/155/24 61/156/24 62/154/23 
f 63/158/25 91/157/25 89/159/23 
f 89/159/23 62/160/23 63/158/25 
f 65/162/26 92/161/26 91/163/25 
f 91/163/25 63/164/25 65/162/26 
f 100/166/14 99/165/14 53/167/14 
f 53/167/14 52/168/14 100/166/14 
f 53/168/16 99/166/16 101/169/16 
f 101/169/16 51/170/16 53/168/16 
f 70/172/27 98/171/27 96/173/28 
f 96/173/28 69/174/28 70/172/27 
f 80/176/29 97/175/29 98/177/27 
f 98/177/27 70/178/27 80/176/29 
f 58/180/4 43/179/4 27/181/4 
f 27/181/4 59/182/4 58/180/4 
f 101/183/15 102/166/15 50/168/15 
f 50/168/15 51/184/15 101/183/15 
f 42/186/16 43/185/16 58/187/16 
f 58/187/16 71/188/16 42/186/16 
f 59/190/13 27/189/13 30/191/13 
f 30/191/13 60/192/13 59/190/13 
f 32/194/25 66/193/25 64/195/23 
f 64/195/23 31/196/23 32/194/25 
f 33/198/26 68/197/26 66/199/25 
f 66/199/25 32/200/25 33/198/26 
f 34/202/30 81/201/30 68/203/26 
f 68/203/26 33/204/26 34/202/30 
f 35/206/28 83/205/28 81/207/30 
f 81/207/30 34/208/30 35/206/28 
f 73/210/22 87/209/22 90/211/31 
f 90/211/31 74/212/31 73/210/22 
f 69/214/28 96/213/28 94/215/30 
f 94/215/30 67/216/30 69/214/28 
f 67/218/30 94/217/30 92/219/26 
f 92/219/26 65/220/26 67/218/30 
f 31/222/23 64/221/23 60/223/24 
f 60/223/24 30/224/24 31/222/23 
f 78/226/32 95/225/32 97/227/29 
f 97/227/29 80/228/29 78/226/32 
f 100/166/13 52/168/13 50/229/13 
f 50/229/13 102/230/13 100/166/13 
f 74/232/31 90/231/31 93/233/33 
f 93/233/33 76/234/33 74/232/31 
f 76/236/33 93/235/33 95/237/32 
f 95/237/32 78/238/32 76/236/33 
f 22/240/11 21/239/11 29/241/34 
f 29/241/34 45/242/34 22/240/11 
f 41/244/22 75/243/22 77/245/31 
f 77/245/31 40/246/31 41/244/22 
f 42/248/21 71/247/21 75/249/22 
f 75/249/22 41/250/22 42/248/21 
f 38/252/32 82/251/32 84/253/29 
f 84/253/29 37/254/29 38/252/32 
f 39/256/33 79/255/33 82/257/32 
f 82/257/32 38/258/32 39/256/33 
f 100/166/27 102/259/27 101/260/27 
f 101/260/27 99/183/27 100/166/27 
f 36/262/27 85/261/27 83/263/28 
f 83/263/28 35/264/28 36/262/27 
f 37/266/29 84/265/29 85/267/27 
f 85/267/27 36/268/27 37/266/29 
f 40/270/31 77/269/31 79/271/33 
f 79/271/33 39/272/33 40/270/31 
