# Created by Kenney (www.kenney.nl) 

mtllib pillarObelisk.mtl 

g pillarObelisk

v -0.01707787 0.2262 0.01707787 
v -0.01707787 0.2262 0.1891221 
v -0.05492761 0.9756 0.05492761 
v -0.05492761 0.9756 0.1512724 
v -0.1891221 0.2262 0.01707787 
v -0.1512724 0.9756 0.05492761 
v -0.1891221 0.2262 0.1891221 
v -0.1512724 0.9756 0.1512724 
v -0.1031 1.0456 0.1031 
v 0 0 0.2062 
v 0 0 0 
v -0.2062 0 0.2062 
v -0.2062 0 0 
v -0.01707787 0.087 0.1891221 
v -0.1891221 0.087 0.1891221 
v -0.1891221 0.087 0.01707787 
v -0.01707787 0.087 0.01707787 
v -0.1891221 0.174 0.01707787 
v -0.01707787 0.174 0.01707787 
v -0.1891221 0.174 0.1891221 
v -0.01707787 0.174 0.1891221 
v 0 0.2262 1.565081E-16 
v 0 0.174 1.565081E-16 
v 0 0.2262 0.2062 
v 0 0.174 0.2062 
v -0.2062 0.174 0.2062 
v -0.2062 0.174 1.565081E-16 
v -0.2062 0.2262 1.565081E-16 
v -0.2062 0.2262 0.2062 

vn 0.9987269 0.05044242 0 
vn -0.9987269 -0.05044242 0 
vn -0.9987269 0.05044242 0 
vn 0.9987269 -0.05044242 0 
vn 0 0.05044242 0.9987269 
vn 0 -0.05044242 -0.9987269 
vn 0 0.05044242 -0.9987269 
vn 0 -0.05044242 0.9987269 
vn 0 0.5669075 0.8237815 
vn 0 -0.5669075 -0.8237815 
vn 0 0.5669075 -0.8237815 
vn 0 -0.5669075 0.8237815 
vn 0.8237815 0.5669075 0 
vn -0.8237815 -0.5669075 0 
vn -0.8237815 0.5669075 0 
vn 0 -1 0 
vn 0 1 0 
vn 0 0.1926214 0.9812732 
vn 0 -0.1926214 -0.9812732 
vn -0.9812732 0.1926214 0 
vn 0.9812732 -0.1926214 0 
vn 0.9812732 0.1926214 0 
vn -0.9812732 -0.1926214 0 
vn 0 0 -1 
vn 0 0 1 
vn -1 0 0 
vn 1 0 0 
vn 0 0.1926214 -0.9812732 
vn 0 -0.1926214 0.9812732 

vt -0.6723572 8.92809 
vt -7.445753 8.92809 
vt -2.162504 38.46964 
vt -5.955606 38.46964 
vt 0.6723572 8.518593 
vt 2.162504 38.06014 
vt 7.445753 8.518593 
vt 5.955606 38.06014 
vt -0.6723572 8.518593 
vt -7.445753 8.518593 
vt -2.162504 38.06014 
vt -5.955606 38.06014 
vt 7.445753 8.92809 
vt 0.6723572 8.92809 
vt 5.955606 38.46964 
vt 2.162504 38.46964 
vt -2.162504 28.26472 
vt -5.955606 28.26472 
vt -4.059055 31.61015 
vt 5.955606 32.86693 
vt 2.162504 32.86693 
vt 4.059055 36.21236 
vt -4.059055 36.21236 
vt -2.162504 32.86693 
vt -5.955606 32.86693 
vt 2.162504 28.26472 
vt 4.059055 31.61015 
vt 5.955606 28.26472 
vt 0 8.118111 
vt 0 0 
vt -8.118111 8.118111 
vt -8.118111 0 
vt 7.33316E-30 -1.563721 
vt -8.118111 -1.563721 
vt -0.6723572 1.926843 
vt -7.445753 1.926843 
vt 2.078392E-17 -1.563721 
vt 0.6723572 1.926843 
vt 8.118111 -1.563721 
vt 7.445753 1.926843 
vt -8.118111 -2.208915E-18 
vt -0.6723572 3.490564 
vt -7.445753 3.490564 
vt 7.445753 3.425197 
vt 0.6723572 3.425197 
vt 7.445753 6.850394 
vt 0.6723572 6.850394 
vt 8.118111 1.765654E-31 
vt 7.445753 3.490564 
vt 0.6723572 3.490564 
vt -0.6723572 3.425197 
vt -7.445753 3.425197 
vt -0.6723572 6.850394 
vt -7.445753 6.850394 
vt -6.161738E-15 8.905512 
vt -6.161738E-15 6.850394 
vt -8.118111 8.905512 
vt -8.118111 6.850394 
vt 0 6.161738E-15 
vt -0.6723572 7.445753 
vt -7.445753 7.445753 
vt -7.445753 0.6723572 
vt -0.6723572 0.6723572 
vt -8.118111 6.161738E-15 
vt 8.118111 6.850394 
vt 0 6.850394 
vt 8.118111 8.905512 
vt 0 8.905512 
vt 0.6723572 0.6723572 
vt 8.118111 6.161738E-15 
vt 7.445753 0.6723572 
vt 7.445753 7.445753 
vt 0.6723572 7.445753 
vt 8.118111 8.118111 
vt 6.161738E-15 6.850394 
vt 6.161738E-15 8.905512 

usemtl stone

f 2/2/1 1/1/1 3/3/1 
f 3/3/1 4/4/1 2/2/1 
f 2/2/2 3/3/2 1/1/2 
f 3/3/2 2/2/2 4/4/2 
f 6/6/3 5/5/3 7/7/3 
f 7/7/3 8/8/3 6/6/3 
f 6/6/4 7/7/4 5/5/4 
f 7/7/4 6/6/4 8/8/4 
f 7/10/5 2/9/5 4/11/5 
f 4/11/5 8/12/5 7/10/5 
f 7/10/6 4/11/6 2/9/6 
f 4/11/6 7/10/6 8/12/6 
f 1/14/7 5/13/7 6/15/7 
f 6/15/7 3/16/7 1/14/7 
f 1/14/8 6/15/8 5/13/8 
f 6/15/8 1/14/8 3/16/8 
f 8/18/9 4/17/9 9/19/9 
f 8/18/10 9/19/10 4/17/10 
f 3/21/11 6/20/11 9/22/11 
f 3/21/12 9/22/12 6/20/12 
f 3/24/13 9/23/13 4/25/13 
f 3/24/14 4/25/14 9/23/14 
f 9/27/15 6/26/15 8/28/15 
f 11/30/16 10/29/16 12/31/16 
f 12/31/16 13/32/16 11/30/16 
f 11/30/17 12/31/17 10/29/17 
f 12/31/17 11/30/17 13/32/17 
f 12/34/18 10/33/18 14/35/18 
f 14/35/18 15/36/18 12/34/18 
f 12/34/19 14/35/19 10/33/19 
f 14/35/19 12/34/19 15/36/19 
f 16/38/20 13/37/20 12/39/20 
f 12/39/20 15/40/20 16/38/20 
f 16/38/21 12/39/21 13/37/21 
f 12/39/21 16/38/21 15/40/21 
f 10/41/22 11/30/22 17/42/22 
f 17/42/22 14/43/22 10/41/22 
f 10/41/23 17/42/23 11/30/23 
f 17/42/23 10/41/23 14/43/23 
f 17/45/24 16/44/24 18/46/24 
f 18/46/24 19/47/24 17/45/24 
f 17/45/25 18/46/25 16/44/25 
f 18/46/25 17/45/25 19/47/25 
f 18/47/26 16/45/26 15/44/26 
f 15/44/26 20/46/26 18/47/26 
f 18/47/27 15/44/27 16/45/27 
f 15/44/27 18/47/27 20/46/27 
f 11/30/28 13/48/28 16/49/28 
f 16/49/28 17/50/28 11/30/28 
f 11/30/29 16/49/29 13/48/29 
f 16/49/29 11/30/29 17/50/29 
f 15/52/25 14/51/25 21/53/25 
f 21/53/25 20/54/25 15/52/25 
f 15/52/24 21/53/24 14/51/24 
f 21/53/24 15/52/24 20/54/24 
f 23/56/27 22/55/27 24/57/27 
f 24/57/27 25/58/27 23/56/27 
f 23/56/26 24/57/26 22/55/26 
f 24/57/26 23/56/26 25/58/26 
f 17/51/27 19/53/27 21/54/27 
f 21/54/27 14/52/27 17/51/27 
f 17/51/26 21/54/26 19/53/26 
f 21/54/26 17/51/26 14/52/26 
f 21/60/16 23/59/16 25/29/16 
f 25/29/16 26/31/16 21/60/16 
f 26/31/16 20/61/16 21/60/16 
f 26/31/16 18/62/16 20/61/16 
f 23/59/16 21/60/16 19/63/16 
f 19/63/16 27/64/16 23/59/16 
f 19/63/16 18/62/16 27/64/16 
f 18/62/16 26/31/16 27/64/16 
f 21/60/17 25/29/17 23/59/17 
f 25/29/17 21/60/17 26/31/17 
f 26/31/17 21/60/17 20/61/17 
f 26/31/17 20/61/17 18/62/17 
f 23/59/17 19/63/17 21/60/17 
f 19/63/17 23/59/17 27/64/17 
f 19/63/17 27/64/17 18/62/17 
f 18/62/17 27/64/17 26/31/17 
f 23/66/24 27/65/24 28/67/24 
f 28/67/24 22/68/24 23/66/24 
f 23/66/25 28/67/25 27/65/25 
f 28/67/25 23/66/25 22/68/25 
f 26/58/25 25/66/25 24/68/25 
f 24/68/25 29/57/25 26/58/25 
f 26/58/24 24/68/24 25/66/24 
f 24/68/24 26/58/24 29/57/24 
f 1/69/17 24/29/17 22/59/17 
f 22/59/17 28/70/17 1/69/17 
f 28/70/17 5/71/17 1/69/17 
f 28/70/17 7/72/17 5/71/17 
f 24/29/17 1/69/17 2/73/17 
f 2/73/17 29/74/17 24/29/17 
f 2/73/17 7/72/17 29/74/17 
f 7/72/17 28/70/17 29/74/17 
f 1/69/16 22/59/16 24/29/16 
f 22/59/16 1/69/16 28/70/16 
f 28/70/16 1/69/16 5/71/16 
f 28/70/16 5/71/16 7/72/16 
f 24/29/16 2/73/16 1/69/16 
f 2/73/16 24/29/16 29/74/16 
f 2/73/16 29/74/16 7/72/16 
f 7/72/16 29/74/16 28/70/16 
f 28/76/26 27/75/26 26/65/26 
f 26/65/26 29/67/26 28/76/26 
f 28/76/27 26/65/27 27/75/27 
f 26/65/27 28/76/27 29/67/27 
g pillarObelisk




usemtl stone

f 2/2/1 1/1/1 3/3/1 
f 3/3/1 4/4/1 2/2/1 
f 2/2/2 3/3/2 1/1/2 
f 3/3/2 2/2/2 4/4/2 
f 6/6/3 5/5/3 7/7/3 
f 7/7/3 8/8/3 6/6/3 
f 6/6/4 7/7/4 5/5/4 
f 7/7/4 6/6/4 8/8/4 
f 7/10/5 2/9/5 4/11/5 
f 4/11/5 8/12/5 7/10/5 
f 7/10/6 4/11/6 2/9/6 
f 4/11/6 7/10/6 8/12/6 
f 1/14/7 5/13/7 6/15/7 
f 6/15/7 3/16/7 1/14/7 
f 1/14/8 6/15/8 5/13/8 
f 6/15/8 1/14/8 3/16/8 
f 8/18/9 4/17/9 9/19/9 
f 8/18/10 9/19/10 4/17/10 
f 3/21/11 6/20/11 9/22/11 
f 3/21/12 9/22/12 6/20/12 
f 3/24/13 9/23/13 4/25/13 
f 3/24/14 4/25/14 9/23/14 
f 9/27/15 6/26/15 8/28/15 
f 11/30/16 10/29/16 12/31/16 
f 12/31/16 13/32/16 11/30/16 
f 11/30/17 12/31/17 10/29/17 
f 12/31/17 11/30/17 13/32/17 
f 12/34/18 10/33/18 14/35/18 
f 14/35/18 15/36/18 12/34/18 
f 12/34/19 14/35/19 10/33/19 
f 14/35/19 12/34/19 15/36/19 
f 16/38/20 13/37/20 12/39/20 
f 12/39/20 15/40/20 16/38/20 
f 16/38/21 12/39/21 13/37/21 
f 12/39/21 16/38/21 15/40/21 
f 10/41/22 11/30/22 17/42/22 
f 17/42/22 14/43/22 10/41/22 
f 10/41/23 17/42/23 11/30/23 
f 17/42/23 10/41/23 14/43/23 
f 17/45/24 16/44/24 18/46/24 
f 18/46/24 19/47/24 17/45/24 
f 17/45/25 18/46/25 16/44/25 
f 18/46/25 17/45/25 19/47/25 
f 18/47/26 16/45/26 15/44/26 
f 15/44/26 20/46/26 18/47/26 
f 18/47/27 15/44/27 16/45/27 
f 15/44/27 18/47/27 20/46/27 
f 11/30/28 13/48/28 16/49/28 
f 16/49/28 17/50/28 11/30/28 
f 11/30/29 16/49/29 13/48/29 
f 16/49/29 11/30/29 17/50/29 
f 15/52/25 14/51/25 21/53/25 
f 21/53/25 20/54/25 15/52/25 
f 15/52/24 21/53/24 14/51/24 
f 21/53/24 15/52/24 20/54/24 
f 23/56/27 22/55/27 24/57/27 
f 24/57/27 25/58/27 23/56/27 
f 23/56/26 24/57/26 22/55/26 
f 24/57/26 23/56/26 25/58/26 
f 17/51/27 19/53/27 21/54/27 
f 21/54/27 14/52/27 17/51/27 
f 17/51/26 21/54/26 19/53/26 
f 21/54/26 17/51/26 14/52/26 
f 21/60/16 23/59/16 25/29/16 
f 25/29/16 26/31/16 21/60/16 
f 26/31/16 20/61/16 21/60/16 
f 26/31/16 18/62/16 20/61/16 
f 23/59/16 21/60/16 19/63/16 
f 19/63/16 27/64/16 23/59/16 
f 19/63/16 18/62/16 27/64/16 
f 18/62/16 26/31/16 27/64/16 
f 21/60/17 25/29/17 23/59/17 
f 25/29/17 21/60/17 26/31/17 
f 26/31/17 21/60/17 20/61/17 
f 26/31/17 20/61/17 18/62/17 
f 23/59/17 19/63/17 21/60/17 
f 19/63/17 23/59/17 27/64/17 
f 19/63/17 27/64/17 18/62/17 
f 18/62/17 27/64/17 26/31/17 
f 23/66/24 27/65/24 28/67/24 
f 28/67/24 22/68/24 23/66/24 
f 23/66/25 28/67/25 27/65/25 
f 28/67/25 23/66/25 22/68/25 
f 26/58/25 25/66/25 24/68/25 
f 24/68/25 29/57/25 26/58/25 
f 26/58/24 24/68/24 25/66/24 
f 24/68/24 26/58/24 29/57/24 
f 1/69/17 24/29/17 22/59/17 
f 22/59/17 28/70/17 1/69/17 
f 28/70/17 5/71/17 1/69/17 
f 28/70/17 7/72/17 5/71/17 
f 24/29/17 1/69/17 2/73/17 
f 2/73/17 29/74/17 24/29/17 
f 2/73/17 7/72/17 29/74/17 
f 7/72/17 28/70/17 29/74/17 
f 1/69/16 22/59/16 24/29/16 
f 22/59/16 1/69/16 28/70/16 
f 28/70/16 1/69/16 5/71/16 
f 28/70/16 5/71/16 7/72/16 
f 24/29/16 2/73/16 1/69/16 
f 2/73/16 24/29/16 29/74/16 
f 2/73/16 29/74/16 7/72/16 
f 7/72/16 29/74/16 28/70/16 
f 28/76/26 27/75/26 26/65/26 
f 26/65/26 29/67/26 28/76/26 
f 28/76/27 26/65/27 27/75/27 
f 26/65/27 28/76/27 29/67/27 
