# Created by Kenney (www.kenney.nl) 

mtllib pumpkinCarved.mtl 

g pumpkinCarved

v -0.15 0 0 
v -0.1785 0.06 7.219114E-16 
v -0.075 0 0.1299038 
v -0.08925 0.06 0.1545855 
v 0.15 0 0 
v 0.075 0 0.1299038 
v 0.1785 0.06 7.219114E-16 
v 0.08925 0.06 0.1545855 
v 0.075 0 -0.1299038 
v -0.075 0 -0.1299038 
v -0.08925 0.06 -0.1545855 
v 0.08925 0.06 -0.1545855 
v 0.0714 0.16 0.1236684 
v -0.0714 0.16 0.1236684 
v 0.1071 0.16 -0.06183422 
v 0.1428 0.16 7.219114E-16 
v 0.05982511 0.16 7.219114E-16 
v 1.804779E-16 0.16 -0.1236684 
v 0.02991255 0.16 -0.05181006 
v -0.02991255 0.16 -0.05181006 
v -0.1071 0.16 -0.06183422 
v -0.05982511 0.16 7.219114E-16 
v -0.1428 0.16 7.219114E-16 
v 0.02991255 0.16 0.05181006 
v -0.02991255 0.16 0.05181006 
v -0.06466652 0.07083903 -0.1512344 
v -0.044625 0.11 -0.139127 
v -0.01616663 0.07083903 -0.1512344 
v 0.06466652 0.07083903 -0.1512344 
v 0.03233326 0.07083903 -0.1512344 
v 0.01616663 0.07083903 -0.1512344 
v -0.03233326 0.07083903 -0.1512344 
v -0.03938919 0.09916097 -0.1424781 
v 0.044625 0.11 -0.139127 
v 0.03938919 0.09916097 -0.1424781 
v -0.0223125 0.135 -0.1313977 
v 0.0223125 0.135 -0.1313977 
v 1.804779E-16 0.085 -0.1468563 
v 0.06127233 0.1383688 -0.1061268 
v 0.06899466 0.1167377 -0.1195022 
v -0.06687959 0.1226622 -0.1158388 
v -0.0602148 0.1413311 -0.1042951 
v 0.01616663 0.0649315 -0.1321268 
v 1.804779E-16 0.07909247 -0.1277486 
v -0.01616663 0.0649315 -0.1321268 
v -0.03233326 0.0649315 -0.1321268 
v -0.06466652 0.0649315 -0.1321268 
v -0.03938919 0.09325345 -0.1233705 
v 0.03938919 0.09325345 -0.1233705 
v 0.06466652 0.0649315 -0.1321268 
v 0.03233326 0.0649315 -0.1321268 
v 0.05455413 0.1071266 -0.1062497 
v 0.04891683 0.1229174 -0.09648563 
v 0.02047616 0.1204581 -0.1149334 
v 0.03676428 0.1022081 -0.1205758 
v -0.03647875 0.102608 -0.1203285 
v -0.0527246 0.1118514 -0.1033282 
v -0.02019062 0.120858 -0.1146861 
v -0.0478593 0.1254797 -0.0949012 
v -0.027 0.16 -0.027 
v -0.002605868 0.21733 -0.01260587 
v -0.027 0.16 0.027 
v -0.002605868 0.21733 0.01260587 
v 0.02260587 0.21733 -0.01260587 
v -0.0216721 0.25828 -0.0116721 
v 0.0016721 0.25828 -0.0116721 
v 0.027 0.16 0.027 
v 0.02260587 0.21733 0.01260587 
v 0.0016721 0.25828 0.0116721 
v -0.0216721 0.25828 0.0116721 
v 0.027 0.16 -0.027 

vn -0.8009083 -0.3804314 0.4624046 
vn 0.8009083 -0.3804314 0.4624046 
vn 0 -0.3804314 0.9248092 
vn 0 -1 0 
vn 0 -0.3804314 -0.9248092 
vn -0.8009083 -0.3804314 -0.4624046 
vn 0 0.2953762 0.955381 
vn 0.8273842 0.2953762 -0.4776905 
vn 0 1 0 
vn 0.8009083 -0.3804314 -0.4624046 
vn -0.8273842 0.2953762 0.4776905 
vn 0.8273842 0.2953762 0.4776905 
vn 0 0.2953762 -0.955381 
vn -0.8273842 0.2953762 -0.4776905 
vn 0.4069217 0.5810842 -0.7048091 
vn -0.4069217 0.5810842 -0.7048091 
vn 0.6757969 0.7041998 0.2177182 
vn -0.6757969 0.7041998 0.2177182 
vn 0 0.955381 0.2953762 
vn 0.760933 -0.6198804 -0.1916491 
vn 0 -0.955381 -0.2953762 
vn -0.760933 -0.6198804 -0.1916491 
vn -0.7226937 0.1580526 -0.6728545 
vn 0.430323 -0.6998395 -0.5701286 
vn -0.4081371 0.8904987 0.2010877 
vn 0.7154134 0.4821697 0.5056641 
vn 0.5572762 0.8261321 0.08336007 
vn -0.7167803 0.4847598 0.5012324 
vn -0.4916357 -0.6945153 -0.5253024 
vn 0.7197046 0.1607088 -0.6754243 
vn -0.920164 0.3915332 0 
vn 0 0.02279671 -0.9997401 
vn 0 0.2435168 0.9698967 
vn 0 0.02279671 0.9997401 
vn -0.9065541 -0.4220897 0 
vn 0.8904014 0.455176 0 
vn 0.9970756 0.07642214 0 
vn 0 0.2435168 -0.9698967 

vt -2.952756 1.945649 
vt -3.51378 4.499911 
vt 2.952756 1.945649 
vt 3.51378 4.499911 
vt 5.905512 0 
vt 2.952756 -5.114323 
vt 2.952756 5.114323 
vt -2.952756 -5.114323 
vt -2.952756 5.114323 
vt -5.905512 0 
vt 3.51378 0.459133 
vt -3.51378 0.459133 
vt 2.811024 4.58001 
vt -2.811024 4.58001 
vt 2.398082E-14 4.58001 
vt -5.622047 2.842171E-14 
vt -2.811024 4.868836 
vt -4.216536 -2.434418 
vt -2.355319 2.842171E-14 
vt -7.105427E-15 -4.868836 
vt -1.17766 -2.039766 
vt 1.17766 -2.039766 
vt 4.216536 -2.434418 
vt 2.355319 2.842171E-14 
vt 2.811024 4.868836 
vt 5.622047 2.842171E-14 
vt -1.17766 2.039766 
vt 1.17766 2.039766 
vt 2.545926 0.905796 
vt 1.75689 2.519572 
vt 0.6364815 0.905796 
vt -2.545926 0.905796 
vt -1.272963 0.905796 
vt -0.6364815 0.905796 
vt 1.272963 0.905796 
vt 1.550755 2.072909 
vt -1.75689 2.519572 
vt -1.550755 2.072909 
vt 0.8784449 3.549791 
vt -0.8784449 3.549791 
vt -7.068123E-15 4.58001 
vt -7.061128E-15 1.489352 
vt -2.664535E-14 4.58001 
vt 1.825813 1.467023 
vt 4.973799E-14 1.629992 
vt 2.434418 2.676411 
vt -2.434418 2.676411 
vt 4.707346E-14 0.5835732 
vt 6.661338E-14 -2.161139 
vt 1.217209 0.2576359 
vt -1.217209 0.2576359 
vt -7.061018E-14 0.8701764 
vt -8.970602E-14 -2.161139 
vt -5.995204E-14 1.773293 
vt -1.825813 1.467023 
vt 5.86244 2.839259 
vt 5.146413 2.511683 
vt 5.503202 3.624494 
vt 4.787175 3.296918 
vt -5.503202 3.624494 
vt -4.787175 3.296918 
vt -5.86244 2.839259 
vt -5.146413 2.511683 
vt -0.6364815 6.51223 
vt -0.6364815 5.724829 
vt -1.272963 6.51223 
vt -1.272963 5.724829 
vt -2.545926 6.51223 
vt -2.545926 5.724829 
vt 6.3956 1.559518 
vt 5.666112 1.263124 
vt 5.818248 2.980497 
vt 5.088761 2.684103 
vt -1.550755 5.724829 
vt -1.550755 6.51223 
vt 1.550755 5.724829 
vt 1.550755 6.51223 
vt -6.3956 1.559518 
vt -5.818248 2.980497 
vt -5.666112 1.263124 
vt -5.088761 2.684103 
vt 2.545926 6.51223 
vt 2.545926 5.724829 
vt 1.272963 6.51223 
vt 1.272963 5.724829 
vt 0.6364815 6.51223 
vt 0.6364815 5.724829 
vt -5.294377 4.345712 
vt -4.701796 5.208173 
vt -4.525106 3.962507 
vt -4.092522 4.592103 
vt 0.5917192 7.242165 
vt 2.415363 7.056486 
vt 0.7513056 6.390526 
vt 2.082566 6.25498 
vt -3.019851 6.112587 
vt -2.803089 5.280939 
vt -4.136959 5.529576 
vt -3.618578 4.855341 
vt 5.486989 4.626665 
vt 4.711941 4.276505 
vt 4.731463 5.750141 
vt 4.160407 5.096642 
vt 4.472749 4.028664 
vt 3.716188 4.6745 
vt 5.157257 4.545141 
vt 4.120871 5.429849 
vt -5.495622 4.611527 
vt -4.742836 5.736841 
vt -4.705313 4.278796 
vt -4.155778 5.100274 
vt -2.504967 6.090212 
vt -2.893557 6.864067 
vt -1.177375 6.343113 
vt -1.074938 7.210507 
vt 5.127349 4.573452 
vt 4.386833 4.142226 
vt 4.61639 5.318127 
vt 4.013833 4.685839 
vt -1.062992 5.380112 
vt -0.496294 7.83303 
vt 1.062992 5.380112 
vt 0.496294 7.83303 
vt 0.1025932 8.542762 
vt -0.8899948 8.542762 
vt 0.8532323 10.15539 
vt -0.06583071 10.15539 
vt 1.062992 5.850729 
vt -1.062992 5.850729 
vt 0.8899948 8.17787 
vt -0.1025932 8.17787 
vt 0.8899948 8.542762 
vt -0.1025932 8.542762 
vt 0.06583071 10.15539 
vt -0.8532323 10.15539 
vt -0.496294 7.800052 
vt -0.4595315 9.57844 
vt 0.496294 7.800052 
vt 0.4595315 9.57844 
vt 0.496294 7.213437 
vt -0.496294 7.213437 
vt 0.4595315 9.024086 
vt -0.4595315 9.024086 
vt 1.062992 6.199555 
vt -1.062992 6.199555 
vt 0.496294 8.463262 
vt -0.496294 8.463262 
vt 0.1025932 8.17787 
vt -0.8899948 8.17787 
vt -0.06583071 -0.4595315 
vt -0.06583071 0.4595315 
vt 0.8532323 -0.4595315 
vt 0.8532323 0.4595315 
vt -1.062992 -1.062992 
vt 1.062992 -1.062992 
vt 1.062992 1.062992 
vt -1.062992 1.062992 
vt 1.120043 0.4654344 
vt 0.2314802 0.7033687 
vt 1.564324 1.348287 
vt 0.2314802 1.467254 
vt -1.12491 0.4864132 
vt -1.569192 1.369266 
vt -0.2363479 0.9335678 
vt -0.2363479 1.592843 
vt 1.094385E-14 1.489352 

usemtl pumpkin

f 2/2/1 1/1/1 3/3/1 
f 3/3/1 4/4/1 2/2/1 
f 6/1/2 5/3/2 7/4/2 
f 7/4/2 8/2/2 6/1/2 
f 3/1/3 6/3/3 8/4/3 
f 8/4/3 4/2/3 3/1/3 
f 9/6/4 5/5/4 6/7/4 
f 6/7/4 10/8/4 9/6/4 
f 6/7/4 3/9/4 10/8/4 
f 3/9/4 1/10/4 10/8/4 
f 9/1/5 10/3/5 11/4/5 
f 11/4/5 12/2/5 9/1/5 
f 2/4/6 11/2/6 10/1/6 
f 10/1/6 1/3/6 2/4/6 
f 4/12/7 8/11/7 13/13/7 
f 13/13/7 14/14/7 4/12/7 
f 7/12/8 12/11/8 15/15/8 
f 15/15/8 16/14/8 7/12/8 
f 13/17/9 16/16/9 15/18/9 
f 15/18/9 17/19/9 13/17/9 
f 15/18/9 18/20/9 17/19/9 
f 18/20/9 19/21/9 17/19/9 
f 18/20/9 20/22/9 19/21/9 
f 18/20/9 21/23/9 20/22/9 
f 21/23/9 22/24/9 20/22/9 
f 21/23/9 14/25/9 22/24/9 
f 21/23/9 23/26/9 14/25/9 
f 24/27/9 14/25/9 13/17/9 
f 13/17/9 17/19/9 24/27/9 
f 24/27/9 25/28/9 14/25/9 
f 25/28/9 22/24/9 14/25/9 
f 9/3/10 12/4/10 7/2/10 
f 7/2/10 5/1/10 9/3/10 
f 23/14/11 2/12/11 4/11/11 
f 4/11/11 14/13/11 23/14/11 
f 7/11/12 16/13/12 13/14/12 
f 13/14/12 8/12/12 7/11/12 
f 26/29/13 12/12/13 11/11/13 
f 11/11/13 27/30/13 26/29/13 
f 26/29/13 28/31/13 12/12/13 
f 28/31/13 29/32/13 12/12/13 
f 28/31/13 30/33/13 29/32/13 
f 28/31/13 31/34/13 30/33/13 
f 26/29/13 32/35/13 28/31/13 
f 27/30/13 33/36/13 26/29/13 
f 34/37/13 12/12/13 29/32/13 
f 33/36/13 27/30/13 34/37/13 
f 29/32/13 35/38/13 34/37/13 
f 35/38/13 33/36/13 34/37/13 
f 27/30/13 36/39/13 34/37/13 
f 36/39/13 37/40/13 34/37/13 
f 36/39/13 18/41/13 37/40/13 
f 31/34/13 28/31/13 38/42/13 
f 21/43/14 11/12/14 2/11/14 
f 2/11/14 23/13/14 21/43/14 
f 39/45/15 37/44/15 18/46/15 
f 39/45/15 18/46/15 15/47/15 
f 40/48/15 39/45/15 15/47/15 
f 40/48/15 15/47/15 12/49/15 
f 12/49/15 34/50/15 40/48/15 
f 41/52/16 27/51/16 11/53/16 
f 11/53/16 21/46/16 41/52/16 
f 21/46/16 42/54/16 41/52/16 
f 42/54/16 21/46/16 18/47/16 
f 18/47/16 36/55/16 42/54/16 
f 43/57/17 31/56/17 38/58/17 
f 38/58/17 44/59/17 43/57/17 
f 44/61/18 38/60/18 28/62/18 
f 28/62/18 45/63/18 44/61/18 
f 45/65/19 28/64/19 32/66/19 
f 32/66/19 46/67/19 45/65/19 
f 32/66/19 26/68/19 46/67/19 
f 26/68/19 47/69/19 46/67/19 
f 47/71/20 26/70/20 33/72/20 
f 33/72/20 48/73/20 47/71/20 
f 35/75/21 49/74/21 48/76/21 
f 48/76/21 33/77/21 35/75/21 
f 35/79/22 29/78/22 50/80/22 
f 50/80/22 49/81/22 35/79/22 
f 50/83/19 29/82/19 30/84/19 
f 30/84/19 51/85/19 50/83/19 
f 30/84/19 31/86/19 51/85/19 
f 31/86/19 43/87/19 51/85/19 
f 39/89/23 40/88/23 52/90/23 
f 52/90/23 53/91/23 39/89/23 
f 37/93/24 39/92/24 53/94/24 
f 53/94/24 54/95/24 37/93/24 
f 52/97/25 40/96/25 34/98/25 
f 34/98/25 55/99/25 52/97/25 
f 55/101/26 34/100/26 37/102/26 
f 37/102/26 54/103/26 55/101/26 
f 57/105/27 56/104/27 27/106/27 
f 27/106/27 41/107/27 57/105/27 
f 36/109/28 27/108/28 56/110/28 
f 56/110/28 58/111/28 36/109/28 
f 36/113/29 58/112/29 59/114/29 
f 59/114/29 42/115/29 36/113/29 
f 57/117/30 41/116/30 42/118/30 
f 42/118/30 59/119/30 57/117/30 

usemtl metal

f 61/121/31 60/120/31 62/122/31 
f 62/122/31 63/123/31 61/121/31 
f 64/125/32 61/124/32 65/126/32 
f 65/126/32 66/127/32 64/125/32 
f 62/129/33 67/128/33 68/130/33 
f 68/130/33 63/131/33 62/129/33 
f 63/133/34 68/132/34 69/134/34 
f 69/134/34 70/135/34 63/133/34 
f 65/137/35 61/136/35 63/138/35 
f 63/138/35 70/139/35 65/137/35 
f 68/141/36 64/140/36 66/142/36 
f 66/142/36 69/143/36 68/141/36 
f 67/145/37 71/144/37 64/146/37 
f 64/146/37 68/147/37 67/145/37 
f 71/129/38 60/128/38 61/148/38 
f 61/148/38 64/149/38 71/129/38 
f 69/151/9 66/150/9 65/152/9 
f 65/152/9 70/153/9 69/151/9 
f 71/154/9 19/21/9 20/22/9 
f 20/22/9 60/155/9 71/154/9 
f 20/22/9 62/156/9 60/155/9 
f 19/21/9 71/154/9 67/157/9 
f 19/21/9 67/157/9 24/27/9 
f 24/27/9 17/19/9 19/21/9 
f 67/157/9 25/28/9 24/27/9 
f 67/157/9 62/156/9 25/28/9 
f 62/156/9 20/22/9 25/28/9 
f 20/22/9 22/24/9 25/28/9 

usemtl light

f 52/159/15 55/158/15 54/160/15 
f 54/160/15 53/161/15 52/159/15 
f 58/163/16 56/162/16 57/164/16 
f 57/164/16 59/165/16 58/163/16 
f 44/166/13 45/31/13 46/35/13 
f 46/35/13 47/29/13 44/166/13 
f 47/29/13 48/36/13 44/166/13 
f 48/36/13 49/38/13 44/166/13 
f 43/34/13 44/166/13 49/38/13 
f 51/33/13 43/34/13 49/38/13 
f 49/38/13 50/32/13 51/33/13 
g pumpkinCarved




usemtl pumpkin

f 2/2/1 1/1/1 3/3/1 
f 3/3/1 4/4/1 2/2/1 
f 6/1/2 5/3/2 7/4/2 
f 7/4/2 8/2/2 6/1/2 
f 3/1/3 6/3/3 8/4/3 
f 8/4/3 4/2/3 3/1/3 
f 9/6/4 5/5/4 6/7/4 
f 6/7/4 10/8/4 9/6/4 
f 6/7/4 3/9/4 10/8/4 
f 3/9/4 1/10/4 10/8/4 
f 9/1/5 10/3/5 11/4/5 
f 11/4/5 12/2/5 9/1/5 
f 2/4/6 11/2/6 10/1/6 
f 10/1/6 1/3/6 2/4/6 
f 4/12/7 8/11/7 13/13/7 
f 13/13/7 14/14/7 4/12/7 
f 7/12/8 12/11/8 15/15/8 
f 15/15/8 16/14/8 7/12/8 
f 13/17/9 16/16/9 15/18/9 
f 15/18/9 17/19/9 13/17/9 
f 15/18/9 18/20/9 17/19/9 
f 18/20/9 19/21/9 17/19/9 
f 18/20/9 20/22/9 19/21/9 
f 18/20/9 21/23/9 20/22/9 
f 21/23/9 22/24/9 20/22/9 
f 21/23/9 14/25/9 22/24/9 
f 21/23/9 23/26/9 14/25/9 
f 24/27/9 14/25/9 13/17/9 
f 13/17/9 17/19/9 24/27/9 
f 24/27/9 25/28/9 14/25/9 
f 25/28/9 22/24/9 14/25/9 
f 9/3/10 12/4/10 7/2/10 
f 7/2/10 5/1/10 9/3/10 
f 23/14/11 2/12/11 4/11/11 
f 4/11/11 14/13/11 23/14/11 
f 7/11/12 16/13/12 13/14/12 
f 13/14/12 8/12/12 7/11/12 
f 26/29/13 12/12/13 11/11/13 
f 11/11/13 27/30/13 26/29/13 
f 26/29/13 28/31/13 12/12/13 
f 28/31/13 29/32/13 12/12/13 
f 28/31/13 30/33/13 29/32/13 
f 28/31/13 31/34/13 30/33/13 
f 26/29/13 32/35/13 28/31/13 
f 27/30/13 33/36/13 26/29/13 
f 34/37/13 12/12/13 29/32/13 
f 33/36/13 27/30/13 34/37/13 
f 29/32/13 35/38/13 34/37/13 
f 35/38/13 33/36/13 34/37/13 
f 27/30/13 36/39/13 34/37/13 
f 36/39/13 37/40/13 34/37/13 
f 36/39/13 18/41/13 37/40/13 
f 31/34/13 28/31/13 38/42/13 
f 21/43/14 11/12/14 2/11/14 
f 2/11/14 23/13/14 21/43/14 
f 39/45/15 37/44/15 18/46/15 
f 39/45/15 18/46/15 15/47/15 
f 40/48/15 39/45/15 15/47/15 
f 40/48/15 15/47/15 12/49/15 
f 12/49/15 34/50/15 40/48/15 
f 41/52/16 27/51/16 11/53/16 
f 11/53/16 21/46/16 41/52/16 
f 21/46/16 42/54/16 41/52/16 
f 42/54/16 21/46/16 18/47/16 
f 18/47/16 36/55/16 42/54/16 
f 43/57/17 31/56/17 38/58/17 
f 38/58/17 44/59/17 43/57/17 
f 44/61/18 38/60/18 28/62/18 
f 28/62/18 45/63/18 44/61/18 
f 45/65/19 28/64/19 32/66/19 
f 32/66/19 46/67/19 45/65/19 
f 32/66/19 26/68/19 46/67/19 
f 26/68/19 47/69/19 46/67/19 
f 47/71/20 26/70/20 33/72/20 
f 33/72/20 48/73/20 47/71/20 
f 35/75/21 49/74/21 48/76/21 
f 48/76/21 33/77/21 35/75/21 
f 35/79/22 29/78/22 50/80/22 
f 50/80/22 49/81/22 35/79/22 
f 50/83/19 29/82/19 30/84/19 
f 30/84/19 51/85/19 50/83/19 
f 30/84/19 31/86/19 51/85/19 
f 31/86/19 43/87/19 51/85/19 
f 39/89/23 40/88/23 52/90/23 
f 52/90/23 53/91/23 39/89/23 
f 37/93/24 39/92/24 53/94/24 
f 53/94/24 54/95/24 37/93/24 
f 52/97/25 40/96/25 34/98/25 
f 34/98/25 55/99/25 52/97/25 
f 55/101/26 34/100/26 37/102/26 
f 37/102/26 54/103/26 55/101/26 
f 57/105/27 56/104/27 27/106/27 
f 27/106/27 41/107/27 57/105/27 
f 36/109/28 27/108/28 56/110/28 
f 56/110/28 58/111/28 36/109/28 
f 36/113/29 58/112/29 59/114/29 
f 59/114/29 42/115/29 36/113/29 
f 57/117/30 41/116/30 42/118/30 
f 42/118/30 59/119/30 57/117/30 

usemtl metal

f 61/121/31 60/120/31 62/122/31 
f 62/122/31 63/123/31 61/121/31 
f 64/125/32 61/124/32 65/126/32 
f 65/126/32 66/127/32 64/125/32 
f 62/129/33 67/128/33 68/130/33 
f 68/130/33 63/131/33 62/129/33 
f 63/133/34 68/132/34 69/134/34 
f 69/134/34 70/135/34 63/133/34 
f 65/137/35 61/136/35 63/138/35 
f 63/138/35 70/139/35 65/137/35 
f 68/141/36 64/140/36 66/142/36 
f 66/142/36 69/143/36 68/141/36 
f 67/145/37 71/144/37 64/146/37 
f 64/146/37 68/147/37 67/145/37 
f 71/129/38 60/128/38 61/148/38 
f 61/148/38 64/149/38 71/129/38 
f 69/151/9 66/150/9 65/152/9 
f 65/152/9 70/153/9 69/151/9 
f 71/154/9 19/21/9 20/22/9 
f 20/22/9 60/155/9 71/154/9 
f 20/22/9 62/156/9 60/155/9 
f 19/21/9 71/154/9 67/157/9 
f 19/21/9 67/157/9 24/27/9 
f 24/27/9 17/19/9 19/21/9 
f 67/157/9 25/28/9 24/27/9 
f 67/157/9 62/156/9 25/28/9 
f 62/156/9 20/22/9 25/28/9 
f 20/22/9 22/24/9 25/28/9 

usemtl light

f 52/159/15 55/158/15 54/160/15 
f 54/160/15 53/161/15 52/159/15 
f 58/163/16 56/162/16 57/164/16 
f 57/164/16 59/165/16 58/163/16 
f 44/166/13 45/31/13 46/35/13 
f 46/35/13 47/29/13 44/166/13 
f 47/29/13 48/36/13 44/166/13 
f 48/36/13 49/38/13 44/166/13 
f 43/34/13 44/166/13 49/38/13 
f 51/33/13 43/34/13 49/38/13 
f 49/38/13 50/32/13 51/33/13 
