# Created by Kenney (www.kenney.nl) 

mtllib pumpkinTall.mtl 

g pumpkinTall

v 0.12 0 -3.609557E-16 
v 0.06 0 -0.1039231 
v 0.06 0 0.1039231 
v -0.06 0 0.1039231 
v -0.06 0 -0.1039231 
v -0.12 0 -3.609557E-16 
v 0.06959999 0.07 -0.1205507 
v 0.1392 0.07 -7.219114E-16 
v -0.06959999 0.07 -0.1205507 
v 0.105792 0.19 -1.082867E-15 
v 0.052896 0.19 0.09161856 
v 0.052896 0.19 -0.09161856 
v 0.04866976 0.19 -1.082867E-15 
v 0.02433488 0.19 -0.04214925 
v -0.052896 0.19 -0.09161856 
v -0.02433488 0.19 -0.04214925 
v -0.04866976 0.19 -1.082867E-15 
v 0.02433488 0.19 0.04214925 
v -0.052896 0.19 0.09161856 
v -0.02433488 0.19 0.04214925 
v -0.105792 0.19 -1.082867E-15 
v -0.1392 0.07 -7.219114E-16 
v -0.06959999 0.07 0.1205507 
v 0.06959999 0.07 0.1205507 
v -0.02 0.19 -0.02 
v -0.02275 0.23 -0.01275 
v -0.02 0.19 0.02 
v -0.02275 0.23 0.01275 
v 0.00275 0.23 0.01275 
v 0.008415 0.26 0.008415 
v -0.008415 0.26 0.008415 
v -0.008415 0.26 -0.008415 
v 0.02 0.19 0.02 
v 0.02 0.19 -0.02 
v 0.00275 0.23 -0.01275 
v 0.008415 0.26 -0.008415 

vn 0 -1 0 
vn 0.8425804 -0.2311078 -0.486464 
vn 0 -0.2311078 -0.9729282 
vn 0 1 0 
vn -0.8425804 -0.2311078 -0.486464 
vn -0.8425804 -0.2311078 0.486464 
vn 0 -0.2311078 0.9729282 
vn 0.8425804 -0.2311078 0.486464 
vn -0.8419012 0.2343853 0.4860719 
vn 0.8419012 0.2343853 -0.4860719 
vn 0 0.2343853 0.9721438 
vn 0.8419012 0.2343853 0.4860719 
vn -0.8419012 0.2343853 -0.4860719 
vn 0 0.2343853 -0.9721438 
vn -0.9976451 -0.0685881 0 
vn 0 0.1430146 0.9897205 
vn -0.9022843 0.4311415 0 
vn 0 0.1783442 0.9839681 
vn 0 0.1783442 -0.9839681 
vn 0.9182522 0.3959962 0 
vn 0.9826341 -0.1855541 0 
vn 0 0.1430146 -0.9897205 

vt 4.72441 -1.421085E-14 
vt 2.362205 -4.091459 
vt 2.362205 4.091459 
vt -2.362205 4.091459 
vt -2.362205 -4.091459 
vt -4.72441 -1.421085E-14 
vt 2.740157 3.778157 
vt 2.362205 0.945568 
vt -2.740157 3.778157 
vt -2.362205 0.945568 
vt -4.16504 -4.263256E-14 
vt -2.08252 3.60703 
vt -2.08252 -3.60703 
vt -1.916132 -4.263256E-14 
vt -0.9580662 -1.659419 
vt 2.08252 -3.60703 
vt 0.9580662 -1.659419 
vt 1.916132 -4.263256E-14 
vt -0.9580662 1.659419 
vt 2.08252 3.60703 
vt 0.9580662 1.659419 
vt 4.16504 -4.263256E-14 
vt -2.08252 6.426507 
vt 2.08252 6.426507 
vt -2.740157 1.566722 
vt 2.740157 1.566722 
vt -0.7874016 7.516706 
vt -0.5019685 9.095226 
vt 0.7874016 7.516706 
vt 0.5019685 9.095226 
vt 0.1082677 8.890248 
vt -0.8956693 8.890248 
vt 0.3312992 10.08362 
vt -0.3312992 10.08362 
vt -0.5019685 7.784131 
vt -0.3312992 9.093144 
vt 0.5019685 7.784131 
vt 0.3312992 9.093144 
vt 0.7874016 7.219963 
vt -0.7874016 7.219963 
vt 0.1082677 8.820425 
vt -0.8956693 8.820425 
vt 0.8956693 8.820425 
vt -0.1082677 8.820425 
vt 0.7874016 6.557007 
vt -0.7874016 6.557007 
vt 0.5019685 8.272008 
vt -0.5019685 8.272008 
vt 0.5019685 8.917957 
vt -0.5019685 8.917957 
vt 0.3312992 10.11993 
vt -0.3312992 10.11993 
vt 0.8956693 8.890248 
vt -0.1082677 8.890248 
vt -0.3312992 -0.3312992 
vt -0.3312992 0.3312992 
vt 0.3312992 -0.3312992 
vt 0.3312992 0.3312992 
vt -0.7874016 -0.7874016 
vt 0.7874016 -0.7874016 
vt 0.7874016 0.7874016 
vt -0.7874016 0.7874016 

usemtl pumpkin

f 2/2/1 1/1/1 3/3/1 
f 3/3/1 4/4/1 2/2/1 
f 4/4/1 5/5/1 2/2/1 
f 4/4/1 6/6/1 5/5/1 
f 2/8/2 7/7/2 8/9/2 
f 8/9/2 1/10/2 2/8/2 
f 2/10/3 5/8/3 9/7/3 
f 9/7/3 7/9/3 2/10/3 
f 11/12/4 10/11/4 12/13/4 
f 12/13/4 13/14/4 11/12/4 
f 12/13/4 14/15/4 13/14/4 
f 12/13/4 15/16/4 14/15/4 
f 15/16/4 16/17/4 14/15/4 
f 15/16/4 17/18/4 16/17/4 
f 11/12/4 13/14/4 18/19/4 
f 18/19/4 19/20/4 11/12/4 
f 17/18/4 15/16/4 19/20/4 
f 18/19/4 20/21/4 19/20/4 
f 20/21/4 17/18/4 19/20/4 
f 15/16/4 21/22/4 19/20/4 
f 22/7/5 9/9/5 5/10/5 
f 5/10/5 6/8/5 22/7/5 
f 23/7/6 22/9/6 6/10/6 
f 6/10/6 4/8/6 23/7/6 
f 4/10/7 3/8/7 24/7/7 
f 24/7/7 23/9/7 4/10/7 
f 1/8/8 8/7/8 24/9/8 
f 24/9/8 3/10/8 1/8/8 
f 19/24/9 21/23/9 22/25/9 
f 22/25/9 23/26/9 19/24/9 
f 8/25/10 7/26/10 12/24/10 
f 12/24/10 10/23/10 8/25/10 
f 23/25/11 24/26/11 11/24/11 
f 11/24/11 19/23/11 23/25/11 
f 8/26/12 10/24/12 11/23/12 
f 11/23/12 24/25/12 8/26/12 
f 15/23/13 9/25/13 22/26/13 
f 22/26/13 21/24/13 15/23/13 
f 7/25/14 9/26/14 15/24/14 
f 15/24/14 12/23/14 7/25/14 

usemtl metal

f 26/28/15 25/27/15 27/29/15 
f 27/29/15 28/30/15 26/28/15 
f 28/32/16 29/31/16 30/33/16 
f 30/33/16 31/34/16 28/32/16 
f 32/36/17 26/35/17 28/37/17 
f 28/37/17 31/38/17 32/36/17 
f 27/40/18 33/39/18 29/41/18 
f 29/41/18 28/42/18 27/40/18 
f 34/40/19 25/39/19 26/43/19 
f 26/43/19 35/44/19 34/40/19 
f 33/46/20 34/45/20 35/47/20 
f 35/47/20 29/48/20 33/46/20 
f 29/50/21 35/49/21 36/51/21 
f 36/51/21 30/52/21 29/50/21 
f 35/54/22 26/53/22 32/33/22 
f 32/33/22 36/34/22 35/54/22 
f 30/56/4 36/55/4 32/57/4 
f 32/57/4 31/58/4 30/56/4 
f 18/19/4 13/14/4 14/15/4 
f 14/15/4 34/59/4 18/19/4 
f 14/15/4 16/17/4 34/59/4 
f 16/17/4 25/60/4 34/59/4 
f 16/17/4 27/61/4 25/60/4 
f 16/17/4 20/21/4 27/61/4 
f 16/17/4 17/18/4 20/21/4 
f 33/62/4 20/21/4 18/19/4 
f 18/19/4 34/59/4 33/62/4 
f 33/62/4 27/61/4 20/21/4 
g pumpkinTall




usemtl pumpkin

f 2/2/1 1/1/1 3/3/1 
f 3/3/1 4/4/1 2/2/1 
f 4/4/1 5/5/1 2/2/1 
f 4/4/1 6/6/1 5/5/1 
f 2/8/2 7/7/2 8/9/2 
f 8/9/2 1/10/2 2/8/2 
f 2/10/3 5/8/3 9/7/3 
f 9/7/3 7/9/3 2/10/3 
f 11/12/4 10/11/4 12/13/4 
f 12/13/4 13/14/4 11/12/4 
f 12/13/4 14/15/4 13/14/4 
f 12/13/4 15/16/4 14/15/4 
f 15/16/4 16/17/4 14/15/4 
f 15/16/4 17/18/4 16/17/4 
f 11/12/4 13/14/4 18/19/4 
f 18/19/4 19/20/4 11/12/4 
f 17/18/4 15/16/4 19/20/4 
f 18/19/4 20/21/4 19/20/4 
f 20/21/4 17/18/4 19/20/4 
f 15/16/4 21/22/4 19/20/4 
f 22/7/5 9/9/5 5/10/5 
f 5/10/5 6/8/5 22/7/5 
f 23/7/6 22/9/6 6/10/6 
f 6/10/6 4/8/6 23/7/6 
f 4/10/7 3/8/7 24/7/7 
f 24/7/7 23/9/7 4/10/7 
f 1/8/8 8/7/8 24/9/8 
f 24/9/8 3/10/8 1/8/8 
f 19/24/9 21/23/9 22/25/9 
f 22/25/9 23/26/9 19/24/9 
f 8/25/10 7/26/10 12/24/10 
f 12/24/10 10/23/10 8/25/10 
f 23/25/11 24/26/11 11/24/11 
f 11/24/11 19/23/11 23/25/11 
f 8/26/12 10/24/12 11/23/12 
f 11/23/12 24/25/12 8/26/12 
f 15/23/13 9/25/13 22/26/13 
f 22/26/13 21/24/13 15/23/13 
f 7/25/14 9/26/14 15/24/14 
f 15/24/14 12/23/14 7/25/14 

usemtl metal

f 26/28/15 25/27/15 27/29/15 
f 27/29/15 28/30/15 26/28/15 
f 28/32/16 29/31/16 30/33/16 
f 30/33/16 31/34/16 28/32/16 
f 32/36/17 26/35/17 28/37/17 
f 28/37/17 31/38/17 32/36/17 
f 27/40/18 33/39/18 29/41/18 
f 29/41/18 28/42/18 27/40/18 
f 34/40/19 25/39/19 26/43/19 
f 26/43/19 35/44/19 34/40/19 
f 33/46/20 34/45/20 35/47/20 
f 35/47/20 29/48/20 33/46/20 
f 29/50/21 35/49/21 36/51/21 
f 36/51/21 30/52/21 29/50/21 
f 35/54/22 26/53/22 32/33/22 
f 32/33/22 36/34/22 35/54/22 
f 30/56/4 36/55/4 32/57/4 
f 32/57/4 31/58/4 30/56/4 
f 18/19/4 13/14/4 14/15/4 
f 14/15/4 34/59/4 18/19/4 
f 14/15/4 16/17/4 34/59/4 
f 16/17/4 25/60/4 34/59/4 
f 16/17/4 27/61/4 25/60/4 
f 16/17/4 20/21/4 27/61/4 
f 16/17/4 17/18/4 20/21/4 
f 33/62/4 20/21/4 18/19/4 
f 18/19/4 34/59/4 33/62/4 
f 33/62/4 27/61/4 20/21/4 
