# Created by Kenney (www.kenney.nl) 

mtllib shovelDirt.mtl 

g shovelDirt

v -0.1721743 0.20335 0.2728798 
v -0.06231574 0 0.2982297 
v -0.2321271 0.20335 0.3958711 
v -0.1634627 0 0.5057297 
v -0.4096623 0.1252276 0.275528 
v -0.3409157 0.20335 0.2964609 
v -0.4773157 0 0.2982297 
v -0.2657344 0.20335 0.3958711 
v -0.3203892 0 0.5057297 
v -0.1721743 0.20335 0.2478985 
v -0.3359398 0.20335 0.2005883 
v -0.3064369 0.20335 0.2799627 
v -0.3533928 0.20335 0.2799627 
v -0.3674572 0.20335 0.2005883 
v -0.3674572 0.20335 0.2613657 
v -0.3082582 0.20335 0.2964609 
v -0.5462183 0.6206312 0.3807741 
v -0.5552901 0.6411748 0.3862787 
v -0.5462183 0.613757 0.4064291 
v -0.5552901 0.6343006 0.4119338 
v -0.5960196 0.5607533 0.3922268 
v -0.5960196 0.5676275 0.3665718 
v -0.6204152 0.5702261 0.394765 
v -0.6204152 0.5771003 0.36911 
v -0.5227282 0.5978237 0.3746629 
v -0.5227282 0.5909495 0.4003178 
v -0.5129212 0.6213881 0.3809769 
v -0.5129212 0.6145139 0.4066319 
v -0.5519664 0.6182629 0.3801395 
v -0.5519664 0.6113887 0.4057945 
v -0.5910552 0.6021583 0.3758243 
v -0.5910552 0.595284 0.4014793 
v -0.5968032 0.5997901 0.3751898 
v -0.5968032 0.5929158 0.4008448 
v -0.4157279 0.3097397 0.297471 
v -0.4157279 0.3028655 0.323126 
v -0.5398296 0.5907779 0.372775 
v -0.5398296 0.5839037 0.3984299 
v -0.5789183 0.567799 0.3941147 
v -0.5789183 0.5746733 0.3684597 
v -0.605875 0.6203337 0.3806944 
v -0.605875 0.6134595 0.4063494 
v -0.4548167 0.2936351 0.2931558 
v -0.4548167 0.2867609 0.3188108 
v -0.5389724 0.6803831 0.3967846 
v -0.5389724 0.6735089 0.4224396 
v -0.6464664 0.6360953 0.3849177 
v -0.6464664 0.6292211 0.4105727 
v -0.4251839 0.09649684 0.2513315 
v -0.4773157 0 0.09072972 
v -0.4266586 0.09376719 0.2670983 
v -0.3898217 0.1619528 0.2688704 
v -0.3203892 0 0.09072972 
v -0.1325472 0 0.01439759 
v 0 0 0.1068197 
v -0.1619759 0.142345 0.08762738 
v -0.08341128 0.142345 0.1424086 
v -0.08705087 0.142345 0.1656505 
v -0.1749637 0.142345 0.2127874 
v -0.1792523 0.142345 0.08492198 
v -0.2302932 0.142345 0.1968033 
v -0.229706 0.142345 0.193054 
v -0.2244883 0 0 
v -0.01699471 0 0.2153456 
v -0.06231574 0 0.2396458 
v -0.2731851 0 0.1043665 
v -0.2333981 0.1352709 0.1919283 
v -0.1173777 0.1019205 0.2066913 
v -0.4326848 0.09946739 0.2686256 
v -0.4432732 0.1167613 0.2732595 
v -0.4859971 0.2135132 0.2991841 
v -0.4322501 0.2356571 0.3051175 
v -0.3931614 0.2517617 0.3094327 
v -0.3394144 0.2739056 0.3153662 
v -0.3394144 0.2780302 0.2999732 
v -0.3931614 0.2558863 0.2940398 
v -0.4326848 0.1035919 0.2532326 
v -0.4432732 0.1208859 0.2578665 
v -0.4322501 0.2425313 0.2794625 
v -0.3931614 0.2586359 0.2837778 
v -0.4322501 0.2397816 0.2897245 
v -0.4859971 0.2176377 0.2837911 
v -0.4185427 0.20874 0.281407 
v -0.3794539 0.2248447 0.2857222 

vn 0.7908595 0.4753151 0.3855085 
vn -0.7017342 0.475315 0.5307022 
vn 0 1 0 
vn -0.9198214 -0.3789685 -0.1015443 
vn -0.3729878 -0.896221 -0.2401417 
vn 0.9278362 -0.3602786 -0.09653635 
vn -0.3923371 0.8884794 0.2380673 
vn 0.9198214 0.3789685 0.1015443 
vn 0.3923371 -0.8884794 -0.2380673 
vn 0 0.258819 -0.9659258 
vn -0.8798157 0.475315 0 
vn 0 0.475315 -0.8798157 
vn 0.1230313 0.4789704 -0.8691666 
vn 0 -0.258819 0.9659258 
vn 0 0.475315 0.8798157 
vn 0.5032212 0.475315 -0.7216953 
vn 0.1361166 0.475315 -0.8692226 
vn 0.8692226 0.475315 0.1361166 
vn 0 -1 0 
vn 0.2441847 0.475315 -0.8452511 
vn 0.4157469 0.475315 0.7753903 
vn -0.810084 0.4770352 -0.3408831 
vn -0.8396674 0.4789704 -0.2560191 
vn -0.8692226 0.475315 -0.1361166 
vn -0.7972962 0.475315 -0.3720139 
vn 0.8798157 0.475315 0 
vn -0.786935 -0.5960108 -0.1597006 
vn -0.8607421 -0.4916963 -0.1317496 
vn 0.1141424 -0.01086104 -0.993405 
vn -0.6996633 -0.6901276 -0.1849191 

vt -12.62721 7.702398 
vt -11.62918 -1.397128 
vt -18.01404 7.702398 
vt -20.71736 -1.397128 
vt -1.076695 -4.886817 
vt 1.213212 -1.390987 
vt -1.970462 -10.49051 
vt 6.120217 -1.390987 
vt 8.271979 -10.49051 
vt 6.778517 9.759786 
vt 6.778517 10.7433 
vt 13.22598 7.897178 
vt 9.138861 15.58548 
vt 12.06445 11.02215 
vt 10.46199 15.58548 
vt 13.9131 11.02215 
vt 14.46682 7.897178 
vt 14.46682 10.28999 
vt 12.13615 11.67169 
vt 13.42188 11.67169 
vt 17.26027 30.08872 
vt 17.51487 30.96272 
vt 18.26421 29.79627 
vt 18.51881 30.67027 
vt 25.68639 19.98391 
vt 24.83714 20.594 
vt 26.29034 20.82463 
vt 25.4411 21.43471 
vt -12.54158 14.03115 
vt -13.5462 13.74103 
vt -12.82879 15.02567 
vt -13.83341 14.73555 
vt 1.521701 -12.23386 
vt 2.385204 -12.82359 
vt 0.5781253 -13.61546 
vt 1.441628 -14.2052 
vt 2.523958 -12.62042 
vt 1.660456 -12.03069 
vt 0.4393708 -13.81863 
vt 1.302874 -14.40836 
vt -13.4367 16.96309 
vt -14.44064 16.67064 
vt -16.91964 28.91942 
vt -17.92358 28.62696 
vt -1.441628 -14.2052 
vt -0.5781253 -13.61546 
vt -1.028814 -14.80965 
vt -0.1653109 -14.21991 
vt -17.26027 30.08872 
vt -18.26421 29.79627 
vt -17.51487 30.96272 
vt -18.51881 30.67027 
vt 13.4367 16.96309 
vt 16.91964 28.91942 
vt 14.44064 16.67064 
vt 17.92358 28.62696 
vt -2.798018 -12.21914 
vt -1.934515 -11.62941 
vt -2.385204 -12.82359 
vt -1.521701 -12.23386 
vt 2.34733 -11.02495 
vt 3.210833 -11.61469 
vt -0.2475035 -14.82437 
vt 0.6159993 -15.4141 
vt 17.90617 14.1537 
vt 16.36724 14.81011 
vt 22.79206 25.60851 
vt 21.25313 26.26492 
vt 24.4258 25.70744 
vt 23.49619 26.63224 
vt 25.45144 28.11201 
vt 20.57985 26.5521 
vt 23.85334 27.46958 
vt 21.86181 28.31904 
vt 21.21939 29.91713 
vt 20.19375 27.51256 
vt 23.26989 26.72877 
vt 21.73096 27.38518 
vt 21.50466 27.4817 
vt 23.46534 25.32133 
vt 7.897178 0.1674258 
vt 9.894941 -4.61405 
vt 3.572036 -8.9321 
vt 11.74133 -8.9321 
vt 10.51568 -4.736197 
vt 10.84756 -3.328404 
vt 10.28999 0.1674258 
vt 10.58545 -1.685021 
vt 18.79196 1.697842 
vt 12.61375 1.697842 
vt 14.46682 10.79737 
vt 13.22598 10.79737 
vt 17.12436 29.62218 
vt 17.8555 32.13203 
vt 18.1283 29.32972 
vt 18.85943 31.83957 
vt -17.12436 29.62218 
vt -18.1283 29.32972 
vt -17.8555 32.13203 
vt -18.85943 31.83957 
vt -2.523958 -12.62042 
vt -1.660456 -12.03069 
vt -1.302874 -14.40836 
vt -0.4393708 -13.81863 
vt -20.57985 26.5521 
vt -23.49619 26.63224 
vt -20.19375 27.51256 
vt -23.26989 26.72877 
vt -21.73096 27.38518 
vt -21.50466 27.4817 
vt -21.86181 28.31904 
vt -21.21939 29.91713 
vt -21.25313 26.26492 
vt -24.4258 25.70744 
vt -22.79206 25.60851 
vt -16.36724 14.81011 
vt -17.90617 14.1537 
vt -25.45144 28.11201 
vt -23.85334 27.46958 
vt -23.46534 25.32133 
vt -6.435538 -9.463817 
vt -12.61375 -9.463817 
vt -9.138861 -0.3642904 
vt -10.46199 -0.3642904 
vt 3.956338 1.639688 
vt -2.405385 1.639688 
vt 3.257719 8.009356 
vt -0.5130594 8.009356 
vt 3.283909 5.606639 
vt 3.4272 6.521675 
vt 6.377003 3.449897 
vt 6.888334 8.377458 
vt 7.057175 3.343385 
vt 9.06666 7.748161 
vt 9.043545 7.600551 
vt 8.731711 0.6499217 
vt 5.06787 0.6499217 
vt 6.454949 7.01959 
vt 5.766489 7.01959 
vt -4.154863 -0.3092562 
vt -8.47961 -0.3092562 
vt -6.047189 6.060412 
vt -6.973377 6.060412 
vt -2.453376 11.74133 
vt -2.453376 9.434873 
vt -6.435538 19.91062 
vt -5.218395 0.5668343 
vt -8.838123 0 
vt -12.61375 19.91062 
vt -10.75532 4.108918 
vt -12.61375 3.572036 
vt -18.79196 11.74133 
vt -18.79196 3.572036 
vt -0.6690833 8.478174 
vt 0 4.205498 
vt 11.12682 3.295138 
vt 9.192393 3.295138 
vt 10.51459 12.39466 
vt 6.730741 9.348252 
vt 6.560034 9.664806 
vt 4.292631 9.664806 
vt 3.803476 12.39466 
vt 2.181145 7.855889 
vt -4.595935 -3.401227 
vt -6.620526 -3.401227 
vt -6.102169 2.968441 
vt -7.917944 1.159524 
vt -10.02943 2.968441 
vt 8.886871 0.9261891 
vt 8.90817 1.242743 
vt 9.057578 1.242743 
vt 3.737038 -3.806884 
vt 6.0138 2.562784 
vt 8.271225 -3.806884 
vt 10.71158 2.562784 
vt 10.73288 2.246231 
vt -8.137454 5.726877 
vt -9.434873 1.166126 
vt -9.759786 10.26565 
vt -11.74133 1.166126 
vt -10.7433 10.26565 
vt -0.8145823 -3.243434 
vt -0.5191246 -1.390987 
vt 0.3988436 -1.390987 
vt -16.79758 6.287491 
vt -17.03483 6.519825 
vt -16.12844 7.569781 
vt -17.4517 7.224707 
vt -19.13375 11.16821 
vt -13.42188 10.75397 
vt -12.13615 10.75397 
vt -17.01772 12.07077 
vt -15.47879 12.72717 
vt -13.36277 13.62973 
vt 3.164519 -10.57004 
vt 3.682621 -10.92389 
vt 1.867102 -12.46975 
vt 12.43243 11.08919 
vt 12.67584 11.8711 
vt 13.03148 10.9027 
vt 13.27489 11.68462 
vt 17.01772 12.07077 
vt 15.47879 12.72717 
vt 0.9235264 -13.85136 
vt -0.3738903 -15.75106 
vt 0.1442114 -16.1049 
vt 12.80336 14.78896 
vt 12.82024 13.35137 
vt 13.20494 14.67198 
vt 13.8073 14.49651 
vt 12.00588 10.55583 
vt 12.60824 10.38036 
vt 15.10569 8.077654 
vt 13.55743 8.711733 
vt 15.65057 9.408097 
vt 14.1023 10.04218 
vt -12.80336 14.78896 
vt -12.82024 13.35137 
vt -13.20494 14.67198 
vt -13.8073 14.49651 
vt 13.8438 12.17334 
vt 13.99162 12.55933 
vt 14.45877 12.02485 
vt 14.57752 12.33495 
vt -12.27942 11.49483 
vt -12.9329 11.49483 
vt 16.73952 6.230637 
vt 15.34731 8.898549 
vt 17.03483 6.519825 
vt 17.4517 7.224707 
vt 19.13375 11.16821 
vt 16.47806 10.80555 
vt 13.9131 10.58585 
vt 12.06445 10.58585 
vt 14.93913 11.46195 
vt 13.36277 13.62973 

usemtl wood

f 2/2/1 1/1/1 3/3/1 
f 3/3/1 4/4/1 2/2/1 
f 6/6/2 5/5/2 7/7/2 
f 7/7/2 8/8/2 6/6/2 
f 7/7/2 9/9/2 8/8/2 
f 1/11/3 10/10/3 11/12/3 
f 11/12/3 3/13/3 1/11/3 
f 11/12/3 12/14/3 3/13/3 
f 12/14/3 8/15/3 3/13/3 
f 11/12/3 13/16/3 12/14/3 
f 11/12/3 14/17/3 13/16/3 
f 14/17/3 15/18/3 13/16/3 
f 8/15/3 12/14/3 16/19/3 
f 16/19/3 6/20/3 8/15/3 
f 18/22/4 17/21/4 19/23/4 
f 19/23/4 20/24/4 18/22/4 
f 22/26/5 21/25/5 23/27/5 
f 23/27/5 24/28/5 22/26/5 
f 26/30/6 25/29/6 27/31/6 
f 27/31/6 28/32/6 26/30/6 
f 30/34/7 29/33/7 31/35/7 
f 31/35/7 32/36/7 30/34/7 
f 29/33/7 30/34/7 19/37/7 
f 19/37/7 17/38/7 29/33/7 
f 32/36/7 31/35/7 33/39/7 
f 33/39/7 34/40/7 32/36/7 
f 36/42/8 35/41/8 37/43/8 
f 37/43/8 38/44/8 36/42/8 
f 40/46/9 39/45/9 21/47/9 
f 21/47/9 22/48/9 40/46/9 
f 34/50/8 33/49/8 41/51/8 
f 41/51/8 42/52/8 34/50/8 
f 40/54/4 43/53/4 44/55/4 
f 44/55/4 39/56/4 40/54/4 
f 25/58/9 26/57/9 38/59/9 
f 38/59/9 37/60/9 25/58/9 
f 46/62/7 45/61/7 47/63/7 
f 47/63/7 48/64/7 46/62/7 
f 35/66/10 43/65/10 40/67/10 
f 40/67/10 37/68/10 35/66/10 
f 40/67/10 24/69/10 37/68/10 
f 24/69/10 33/70/10 37/68/10 
f 24/69/10 47/71/10 33/70/10 
f 33/70/10 25/72/10 37/68/10 
f 47/71/10 41/73/10 33/70/10 
f 47/71/10 18/74/10 41/73/10 
f 47/71/10 45/75/10 18/74/10 
f 27/76/10 25/72/10 33/70/10 
f 18/74/10 45/75/10 27/76/10 
f 33/70/10 31/77/10 27/76/10 
f 31/77/10 29/78/10 27/76/10 
f 29/78/10 17/79/10 27/76/10 
f 17/79/10 18/74/10 27/76/10 
f 40/67/10 22/80/10 24/69/10 
f 49/82/11 14/81/11 50/83/11 
f 50/83/11 7/84/11 49/82/11 
f 7/84/11 51/85/11 49/82/11 
f 7/84/11 5/86/11 51/85/11 
f 15/87/11 14/81/11 49/82/11 
f 49/82/11 52/88/11 15/87/11 
f 53/90/13 50/89/12 14/91/12 
f 14/91/12 11/92/13 53/90/13 
f 47/94/4 24/93/4 23/95/4 
f 23/95/4 48/96/4 47/94/4 
f 28/98/8 27/97/8 45/99/8 
f 45/99/8 46/100/8 28/98/8 
f 18/102/9 20/101/9 42/103/9 
f 42/103/9 41/104/9 18/102/9 
f 34/106/14 26/105/14 28/107/14 
f 28/107/14 32/108/14 34/106/14 
f 28/107/14 30/109/14 32/108/14 
f 28/107/14 19/110/14 30/109/14 
f 28/107/14 20/111/14 19/110/14 
f 28/107/14 46/112/14 20/111/14 
f 38/113/14 26/105/14 34/106/14 
f 38/113/14 34/106/14 23/114/14 
f 38/113/14 23/114/14 39/115/14 
f 36/116/14 38/113/14 39/115/14 
f 39/115/14 44/117/14 36/116/14 
f 34/106/14 48/118/14 23/114/14 
f 20/111/14 46/112/14 48/118/14 
f 34/106/14 42/119/14 48/118/14 
f 42/119/14 20/111/14 48/118/14 
f 21/120/14 39/115/14 23/114/14 
f 9/122/15 4/121/15 3/123/15 
f 3/123/15 8/124/15 9/122/15 
f 55/126/16 54/125/16 56/127/16 
f 56/127/16 57/128/16 55/126/16 
f 58/130/3 57/129/3 56/131/3 
f 56/131/3 59/132/3 58/130/3 
f 56/131/3 60/133/3 59/132/3 
f 60/133/3 61/134/3 59/132/3 
f 60/133/3 62/135/3 61/134/3 
f 54/137/17 63/136/17 60/138/17 
f 60/138/17 56/139/17 54/137/17 
f 64/141/18 55/140/18 57/142/18 
f 57/142/18 58/143/18 64/141/18 
f 65/145/19 2/144/19 4/146/19 
f 4/146/19 54/147/19 65/145/19 
f 4/146/19 63/148/19 54/147/19 
f 4/146/19 9/149/19 63/148/19 
f 9/149/19 66/150/19 63/148/19 
f 9/149/19 53/151/19 66/150/19 
f 9/149/19 7/152/19 53/151/19 
f 7/152/19 50/153/19 53/151/19 
f 64/154/19 65/145/19 54/147/19 
f 54/147/19 55/155/19 64/154/19 
f 66/157/20 53/156/13 11/158/13 
f 11/158/13 67/159/20 66/157/20 
f 11/158/13 61/160/20 67/159/20 
f 11/158/13 59/161/20 61/160/20 
f 59/161/20 11/158/13 10/162/20 
f 10/162/20 68/163/20 59/161/20 
f 65/165/21 64/164/21 58/166/21 
f 58/166/21 68/167/21 65/165/21 
f 58/166/21 59/168/21 68/167/21 
f 62/170/23 67/169/22 61/171/24 
f 60/173/25 63/172/25 66/174/25 
f 66/174/25 62/175/23 60/173/25 
f 66/174/25 67/176/22 62/175/23 
f 65/178/26 68/177/26 10/179/26 
f 10/179/26 2/180/26 65/178/26 
f 10/179/26 1/181/26 2/180/26 
f 15/183/2 52/182/2 13/184/2 

usemtl stone

f 69/186/14 51/185/14 5/187/14 
f 5/187/14 70/188/14 69/186/14 
f 5/187/14 71/189/14 70/188/14 
f 5/187/14 6/190/14 71/189/14 
f 6/190/14 16/191/14 71/189/14 
f 16/191/14 72/192/14 71/189/14 
f 16/191/14 73/193/14 72/192/14 
f 16/191/14 74/194/14 73/193/14 
f 44/117/14 72/192/14 73/193/14 
f 73/193/14 36/116/14 44/117/14 
f 74/196/7 75/195/7 76/197/7 
f 76/197/7 73/34/7 74/196/7 
f 35/60/9 36/59/9 44/45/9 
f 44/45/9 43/46/9 35/60/9 
f 78/199/28 77/198/27 69/200/27 
f 69/200/27 70/201/28 78/199/28 
f 80/203/10 79/202/10 43/65/10 
f 43/65/10 35/66/10 80/203/10 
f 72/36/7 81/204/7 82/205/7 
f 82/205/7 71/206/7 72/36/7 
f 43/53/4 79/207/4 83/208/4 
f 83/208/4 81/209/4 43/53/4 
f 81/209/4 72/210/4 43/53/4 
f 72/210/4 44/55/4 43/53/4 
f 82/209/4 78/211/4 70/212/4 
f 70/212/4 71/210/4 82/209/4 
f 84/214/29 83/213/29 79/215/29 
f 79/215/29 80/216/29 84/214/29 
f 84/218/8 80/217/8 35/41/8 
f 35/41/8 76/219/8 84/218/8 
f 35/41/8 73/220/8 76/219/8 
f 35/41/8 36/42/8 73/220/8 
f 77/222/27 49/221/30 51/223/30 
f 51/223/30 69/224/27 77/222/27 
f 16/226/8 12/225/8 75/219/8 
f 75/219/8 74/220/8 16/226/8 
f 52/228/10 49/227/10 77/229/10 
f 77/229/10 78/230/10 52/228/10 
f 78/230/10 82/231/10 52/228/10 
f 82/231/10 83/232/10 52/228/10 
f 83/232/10 13/233/10 52/228/10 
f 83/232/10 12/234/10 13/233/10 
f 82/231/10 81/202/10 83/232/10 
f 12/234/10 83/232/10 84/235/10 
f 84/235/10 75/236/10 12/234/10 
f 84/235/10 76/203/10 75/236/10 
g shovelDirt




usemtl wood

f 2/2/1 1/1/1 3/3/1 
f 3/3/1 4/4/1 2/2/1 
f 6/6/2 5/5/2 7/7/2 
f 7/7/2 8/8/2 6/6/2 
f 7/7/2 9/9/2 8/8/2 
f 1/11/3 10/10/3 11/12/3 
f 11/12/3 3/13/3 1/11/3 
f 11/12/3 12/14/3 3/13/3 
f 12/14/3 8/15/3 3/13/3 
f 11/12/3 13/16/3 12/14/3 
f 11/12/3 14/17/3 13/16/3 
f 14/17/3 15/18/3 13/16/3 
f 8/15/3 12/14/3 16/19/3 
f 16/19/3 6/20/3 8/15/3 
f 18/22/4 17/21/4 19/23/4 
f 19/23/4 20/24/4 18/22/4 
f 22/26/5 21/25/5 23/27/5 
f 23/27/5 24/28/5 22/26/5 
f 26/30/6 25/29/6 27/31/6 
f 27/31/6 28/32/6 26/30/6 
f 30/34/7 29/33/7 31/35/7 
f 31/35/7 32/36/7 30/34/7 
f 29/33/7 30/34/7 19/37/7 
f 19/37/7 17/38/7 29/33/7 
f 32/36/7 31/35/7 33/39/7 
f 33/39/7 34/40/7 32/36/7 
f 36/42/8 35/41/8 37/43/8 
f 37/43/8 38/44/8 36/42/8 
f 40/46/9 39/45/9 21/47/9 
f 21/47/9 22/48/9 40/46/9 
f 34/50/8 33/49/8 41/51/8 
f 41/51/8 42/52/8 34/50/8 
f 40/54/4 43/53/4 44/55/4 
f 44/55/4 39/56/4 40/54/4 
f 25/58/9 26/57/9 38/59/9 
f 38/59/9 37/60/9 25/58/9 
f 46/62/7 45/61/7 47/63/7 
f 47/63/7 48/64/7 46/62/7 
f 35/66/10 43/65/10 40/67/10 
f 40/67/10 37/68/10 35/66/10 
f 40/67/10 24/69/10 37/68/10 
f 24/69/10 33/70/10 37/68/10 
f 24/69/10 47/71/10 33/70/10 
f 33/70/10 25/72/10 37/68/10 
f 47/71/10 41/73/10 33/70/10 
f 47/71/10 18/74/10 41/73/10 
f 47/71/10 45/75/10 18/74/10 
f 27/76/10 25/72/10 33/70/10 
f 18/74/10 45/75/10 27/76/10 
f 33/70/10 31/77/10 27/76/10 
f 31/77/10 29/78/10 27/76/10 
f 29/78/10 17/79/10 27/76/10 
f 17/79/10 18/74/10 27/76/10 
f 40/67/10 22/80/10 24/69/10 
f 49/82/11 14/81/11 50/83/11 
f 50/83/11 7/84/11 49/82/11 
f 7/84/11 51/85/11 49/82/11 
f 7/84/11 5/86/11 51/85/11 
f 15/87/11 14/81/11 49/82/11 
f 49/82/11 52/88/11 15/87/11 
f 53/90/13 50/89/12 14/91/12 
f 14/91/12 11/92/13 53/90/13 
f 47/94/4 24/93/4 23/95/4 
f 23/95/4 48/96/4 47/94/4 
f 28/98/8 27/97/8 45/99/8 
f 45/99/8 46/100/8 28/98/8 
f 18/102/9 20/101/9 42/103/9 
f 42/103/9 41/104/9 18/102/9 
f 34/106/14 26/105/14 28/107/14 
f 28/107/14 32/108/14 34/106/14 
f 28/107/14 30/109/14 32/108/14 
f 28/107/14 19/110/14 30/109/14 
f 28/107/14 20/111/14 19/110/14 
f 28/107/14 46/112/14 20/111/14 
f 38/113/14 26/105/14 34/106/14 
f 38/113/14 34/106/14 23/114/14 
f 38/113/14 23/114/14 39/115/14 
f 36/116/14 38/113/14 39/115/14 
f 39/115/14 44/117/14 36/116/14 
f 34/106/14 48/118/14 23/114/14 
f 20/111/14 46/112/14 48/118/14 
f 34/106/14 42/119/14 48/118/14 
f 42/119/14 20/111/14 48/118/14 
f 21/120/14 39/115/14 23/114/14 
f 9/122/15 4/121/15 3/123/15 
f 3/123/15 8/124/15 9/122/15 
f 55/126/16 54/125/16 56/127/16 
f 56/127/16 57/128/16 55/126/16 
f 58/130/3 57/129/3 56/131/3 
f 56/131/3 59/132/3 58/130/3 
f 56/131/3 60/133/3 59/132/3 
f 60/133/3 61/134/3 59/132/3 
f 60/133/3 62/135/3 61/134/3 
f 54/137/17 63/136/17 60/138/17 
f 60/138/17 56/139/17 54/137/17 
f 64/141/18 55/140/18 57/142/18 
f 57/142/18 58/143/18 64/141/18 
f 65/145/19 2/144/19 4/146/19 
f 4/146/19 54/147/19 65/145/19 
f 4/146/19 63/148/19 54/147/19 
f 4/146/19 9/149/19 63/148/19 
f 9/149/19 66/150/19 63/148/19 
f 9/149/19 53/151/19 66/150/19 
f 9/149/19 7/152/19 53/151/19 
f 7/152/19 50/153/19 53/151/19 
f 64/154/19 65/145/19 54/147/19 
f 54/147/19 55/155/19 64/154/19 
f 66/157/20 53/156/13 11/158/13 
f 11/158/13 67/159/20 66/157/20 
f 11/158/13 61/160/20 67/159/20 
f 11/158/13 59/161/20 61/160/20 
f 59/161/20 11/158/13 10/162/20 
f 10/162/20 68/163/20 59/161/20 
f 65/165/21 64/164/21 58/166/21 
f 58/166/21 68/167/21 65/165/21 
f 58/166/21 59/168/21 68/167/21 
f 62/170/23 67/169/22 61/171/24 
f 60/173/25 63/172/25 66/174/25 
f 66/174/25 62/175/23 60/173/25 
f 66/174/25 67/176/22 62/175/23 
f 65/178/26 68/177/26 10/179/26 
f 10/179/26 2/180/26 65/178/26 
f 10/179/26 1/181/26 2/180/26 
f 15/183/2 52/182/2 13/184/2 

usemtl stone

f 69/186/14 51/185/14 5/187/14 
f 5/187/14 70/188/14 69/186/14 
f 5/187/14 71/189/14 70/188/14 
f 5/187/14 6/190/14 71/189/14 
f 6/190/14 16/191/14 71/189/14 
f 16/191/14 72/192/14 71/189/14 
f 16/191/14 73/193/14 72/192/14 
f 16/191/14 74/194/14 73/193/14 
f 44/117/14 72/192/14 73/193/14 
f 73/193/14 36/116/14 44/117/14 
f 74/196/7 75/195/7 76/197/7 
f 76/197/7 73/34/7 74/196/7 
f 35/60/9 36/59/9 44/45/9 
f 44/45/9 43/46/9 35/60/9 
f 78/199/28 77/198/27 69/200/27 
f 69/200/27 70/201/28 78/199/28 
f 80/203/10 79/202/10 43/65/10 
f 43/65/10 35/66/10 80/203/10 
f 72/36/7 81/204/7 82/205/7 
f 82/205/7 71/206/7 72/36/7 
f 43/53/4 79/207/4 83/208/4 
f 83/208/4 81/209/4 43/53/4 
f 81/209/4 72/210/4 43/53/4 
f 72/210/4 44/55/4 43/53/4 
f 82/209/4 78/211/4 70/212/4 
f 70/212/4 71/210/4 82/209/4 
f 84/214/29 83/213/29 79/215/29 
f 79/215/29 80/216/29 84/214/29 
f 84/218/8 80/217/8 35/41/8 
f 35/41/8 76/219/8 84/218/8 
f 35/41/8 73/220/8 76/219/8 
f 35/41/8 36/42/8 73/220/8 
f 77/222/27 49/221/30 51/223/30 
f 51/223/30 69/224/27 77/222/27 
f 16/226/8 12/225/8 75/219/8 
f 75/219/8 74/220/8 16/226/8 
f 52/228/10 49/227/10 77/229/10 
f 77/229/10 78/230/10 52/228/10 
f 78/230/10 82/231/10 52/228/10 
f 82/231/10 83/232/10 52/228/10 
f 83/232/10 13/233/10 52/228/10 
f 83/232/10 12/234/10 13/233/10 
f 82/231/10 81/202/10 83/232/10 
f 12/234/10 83/232/10 84/235/10 
f 84/235/10 75/236/10 12/234/10 
f 84/235/10 76/203/10 75/236/10 
