# Created by Kenney (www.kenney.nl) 

mtllib shovel.mtl 

g shovel

v 0.048 3.986728E-32 0.4276 
v 0.0704 3.986728E-32 0.45 
v 0.048 0.032 0.4276 
v 0.0704 0.032 0.45 
v -0.048 3.986728E-32 0.4276 
v -0.048 0.032 0.4276 
v -0.0704 3.986728E-32 0.45 
v -0.0704 0.032 0.45 
v 0.0256 3.986728E-32 0.4648709 
v -0.0256 3.986728E-32 0.4648709 
v 0.0256 0.032 0.4648709 
v -0.0256 0.032 0.4648709 
v 0.03312905 0.032 0.4648709 
v 0.03312905 3.986728E-32 0.4648709 
v -0.03312905 3.986728E-32 0.4648709 
v -0.03312905 0.032 0.4648709 
v 0.03312905 3.986728E-32 0.492729 
v 0.03312905 0.032 0.492729 
v 0.0256 0.032 0.04649913 
v 0.0256 3.986728E-32 0.04649913 
v 0.0256 0.032 0.4276 
v 0.0256 3.986728E-32 0.4276 
v -0.0256 3.986728E-32 0.4276 
v -0.0256 0.032 0.4276 
v -0.0256 3.986728E-32 0.04649913 
v -0.0256 0.032 0.04649913 
v -0.03312905 0.032 0.492729 
v -0.03312905 3.986728E-32 0.492729 
v -0.0704 3.986728E-32 0.53 
v -0.0704 0.032 0.53 
v 0.0704 3.986728E-32 0.53 
v 0.0704 0.032 0.53 
v 0.096 3.986728E-32 -0.0228 
v 0.0256 3.986728E-32 -0.0228 
v 0.096 0.0192 -0.0228 
v 0.0256 0.0192 -0.0228 
v -0.06788225 3.986728E-32 -0.2218822 
v -0.06788225 0.0192 -0.2218822 
v -0.08313844 3.986728E-32 -0.202 
v -0.08313844 0.0192 -0.202 
v 0.02484663 3.986728E-32 -0.2467289 
v -2.165734E-15 3.986728E-32 -0.25 
v -0.02484663 3.986728E-32 -0.2467289 
v -0.0256 3.986728E-32 -0.0228 
v -0.048 3.986728E-32 -0.2371384 
v -0.096 3.986728E-32 -0.0228 
v -0.09272888 3.986728E-32 -0.1788466 
v -0.096 3.986728E-32 -0.154 
v 0.048 3.986728E-32 -0.2371384 
v 0.06788225 3.986728E-32 -0.2218822 
v 0.08313844 3.986728E-32 -0.202 
v 0.09272888 3.986728E-32 -0.1788466 
v 0.096 3.986728E-32 -0.154 
v -0.09272888 0.0192 -0.1788466 
v 0.09272888 0.0192 -0.1788466 
v 0.096 0.0192 -0.154 
v 0.02484663 0.0192 -0.2467289 
v 0.048 0.0192 -0.2371384 
v -0.048 0.0192 -0.2371384 
v -0.02484663 0.0192 -0.2467289 
v -2.165734E-15 0.0192 -0.25 
v 0.08313844 0.0192 -0.202 
v 0.06788225 0.0192 -0.2218822 
v -0.096 0.0192 -0.154 
v -0.096 0.0192 -0.0228 
v -0.0256 0.0192 -0.0228 
v 0.0256 0.032 -0.0228 
v -0.0256 0.032 -0.0228 
v 0.0256 0.0192 -0.06489382 
v -0.0256 0.0192 -0.06489382 

vn 0.7071068 0 -0.7071068 
vn -0.7071068 0 -0.7071068 
vn 0 0 1 
vn -1 0 0 
vn 1 0 0 
vn 0 0 -1 
vn 0 -1 0 
vn 0 1 0 
vn -0.8660254 0 -0.5 
vn -0.9659258 0 -0.258819 
vn 0.9659258 0 -0.258819 
vn 0.9914449 0 -0.1305262 
vn 0.258819 0 -0.9659258 
vn 0.5 0 -0.8660254 
vn -0.5 0 -0.8660254 
vn -0.258819 0 -0.9659258 
vn 0.8660254 0 -0.5 
vn -0.9914449 0 -0.1305262 
vn 0 0.9567446 -0.2909294 

vt -13.24016 1.569578E-30 
vt -14.48734 1.569578E-30 
vt -13.24016 1.259843 
vt -14.48734 1.259843 
vt 13.24016 1.569578E-30 
vt 13.24016 1.259843 
vt 14.48734 1.569578E-30 
vt 14.48734 1.259843 
vt 1.007874 1.569578E-30 
vt -1.007874 1.569578E-30 
vt 1.007874 1.259843 
vt -1.007874 1.259843 
vt 1.304293 1.259843 
vt 1.304293 1.569578E-30 
vt -1.304293 1.569578E-30 
vt -1.304293 1.259843 
vt 18.30201 1.569578E-30 
vt 18.30201 1.259843 
vt 19.39878 1.569578E-30 
vt 19.39878 1.259843 
vt -1.830674 1.259843 
vt -1.830674 1.569578E-30 
vt -16.83465 1.259843 
vt -16.83465 1.569578E-30 
vt 1.889764 1.569578E-30 
vt 1.889764 1.259843 
vt -1.889764 1.569578E-30 
vt -1.889764 1.259843 
vt 1.830674 1.569578E-30 
vt 1.830674 1.259843 
vt 16.83465 1.569578E-30 
vt 16.83465 1.259843 
vt -18.30201 1.259843 
vt -18.30201 1.569578E-30 
vt -19.39878 1.259843 
vt -19.39878 1.569578E-30 
vt 17.71654 1.569578E-30 
vt 17.71654 1.259843 
vt 20.86614 1.569578E-30 
vt 20.86614 1.259843 
vt 2.771654 17.71654 
vt 1.304293 19.39878 
vt 2.771654 20.86614 
vt -2.771654 20.86614 
vt 1.889764 16.83465 
vt -1.304293 19.39878 
vt -1.304293 18.30201 
vt -1.889764 16.83465 
vt -2.771654 17.71654 
vt -1.007874 16.83465 
vt -1.007874 18.30201 
vt 1.304293 18.30201 
vt 1.007874 16.83465 
vt 1.007874 18.30201 
vt 1.007874 1.830674 
vt -1.007874 1.830674 
vt 2.771654 1.569578E-30 
vt -2.771654 1.569578E-30 
vt 2.771654 1.259843 
vt -2.771654 1.259843 
vt -17.71654 1.259843 
vt -17.71654 1.569578E-30 
vt -20.86614 1.259843 
vt -20.86614 1.569578E-30 
vt 3.779528 1.569578E-30 
vt 3.779528 0.7559055 
vt 1.007874 0.7559055 
vt -5.303422 1.569578E-30 
vt -5.303422 0.7559055 
vt -4.316768 1.569578E-30 
vt -4.316768 0.7559055 
vt 1.007874 -0.8976378 
vt 0.9782137 -9.713736 
vt -8.526513E-14 -9.84252 
vt -0.9782137 -9.713736 
vt -1.007874 -0.8976378 
vt -1.889764 -9.336159 
vt -3.779528 -0.8976378 
vt -2.672529 -8.735521 
vt -3.273167 -7.952756 
vt -3.650743 -7.041206 
vt -3.779528 -6.062992 
vt 1.889764 -9.336159 
vt 2.672529 -8.735521 
vt 3.273167 -7.952756 
vt 3.650743 -7.041206 
vt 3.779528 -6.062992 
vt 3.779528 -0.8976378 
vt -6.094802 1.569578E-30 
vt -6.094802 0.7559055 
vt -5.108147 1.569578E-30 
vt -5.108147 0.7559055 
vt 6.50445 0.7559055 
vt 6.50445 1.569578E-30 
vt 5.517795 0.7559055 
vt 5.517795 1.569578E-30 
vt 2.813534 1.569578E-30 
vt 1.826879 1.569578E-30 
vt 2.813534 0.7559055 
vt 1.826879 0.7559055 
vt -1.826879 1.569578E-30 
vt -2.813534 1.569578E-30 
vt -1.826879 0.7559055 
vt -2.813534 0.7559055 
vt -0.2980519 1.569578E-30 
vt -1.284707 1.569578E-30 
vt -0.2980519 0.7559055 
vt -1.284707 0.7559055 
vt -3.197588 1.569578E-30 
vt -4.184243 1.569578E-30 
vt -3.197588 0.7559055 
vt -4.184243 0.7559055 
vt 6.062992 0.7559055 
vt 6.062992 1.569578E-30 
vt 0.8976378 0.7559055 
vt 0.8976378 1.569578E-30 
vt 6.094802 0.7559055 
vt 6.094802 1.569578E-30 
vt 5.108147 0.7559055 
vt 5.108147 1.569578E-30 
vt 5.303422 0.7559055 
vt 5.303422 1.569578E-30 
vt 4.316768 0.7559055 
vt 4.316768 1.569578E-30 
vt 4.184243 1.569578E-30 
vt 3.197588 1.569578E-30 
vt 4.184243 0.7559055 
vt 3.197588 0.7559055 
vt -6.50445 1.569578E-30 
vt -6.50445 0.7559055 
vt -5.517795 1.569578E-30 
vt -5.517795 0.7559055 
vt -6.062992 1.569578E-30 
vt -6.062992 0.7559055 
vt -0.8976378 1.569578E-30 
vt -0.8976378 0.7559055 
vt -3.779528 1.569578E-30 
vt -1.007874 0.7559055 
vt -3.779528 0.7559055 
vt 1.284707 1.569578E-30 
vt 0.2980519 1.569578E-30 
vt 1.284707 0.7559055 
vt 0.2980519 0.7559055 
vt -1.007874 -2.554875 
vt 1.007874 -2.554875 
vt 8.526513E-14 -9.84252 
vt -0.8976378 1.259843 
vt -2.554875 0.7559055 
vt 2.554875 0.7559055 
vt 0.8976378 1.259843 
vt -1.007874 -2.224447 
vt -1.007874 -0.4922848 
vt 1.007874 -2.224447 
vt 1.007874 -0.4922848 

usemtl wood

f 2/2/1 1/1/1 3/3/1 
f 3/3/1 4/4/1 2/2/1 
f 6/6/2 5/5/2 7/7/2 
f 7/7/2 8/8/2 6/6/2 
f 10/10/3 9/9/3 11/11/3 
f 11/11/3 12/12/3 10/10/3 
f 13/13/3 11/11/3 9/9/3 
f 9/9/3 14/14/3 13/13/3 
f 15/15/3 10/10/3 12/12/3 
f 12/12/3 16/16/3 15/15/3 
f 13/18/4 14/17/4 17/19/4 
f 17/19/4 18/20/4 13/18/4 
f 20/22/5 19/21/5 21/23/5 
f 21/23/5 22/24/5 20/22/5 
f 23/9/6 5/25/6 6/26/6 
f 6/26/6 24/11/6 23/9/6 
f 1/27/6 22/10/6 21/12/6 
f 21/12/6 3/28/6 1/27/6 
f 26/30/4 25/29/4 23/31/4 
f 23/31/4 24/32/4 26/30/4 
f 15/34/5 16/33/5 27/35/5 
f 27/35/5 28/36/5 15/34/5 
f 8/38/4 7/37/4 29/39/4 
f 29/39/4 30/40/4 8/38/4 
f 17/42/7 2/41/7 31/43/7 
f 31/43/7 29/44/7 17/42/7 
f 17/42/7 1/45/7 2/41/7 
f 29/44/7 28/46/7 17/42/7 
f 29/44/7 15/47/7 28/46/7 
f 29/44/7 5/48/7 15/47/7 
f 29/44/7 7/49/7 5/48/7 
f 15/47/7 5/48/7 23/50/7 
f 23/50/7 10/51/7 15/47/7 
f 1/45/7 17/42/7 14/52/7 
f 14/52/7 22/53/7 1/45/7 
f 14/52/7 9/54/7 22/53/7 
f 9/54/7 10/51/7 22/53/7 
f 10/51/7 20/55/7 22/53/7 
f 10/51/7 25/56/7 20/55/7 
f 10/51/7 23/50/7 25/56/7 
f 29/58/3 31/57/3 32/59/3 
f 32/59/3 30/60/3 29/58/3 
f 2/62/5 4/61/5 32/63/5 
f 32/63/5 31/64/5 2/62/5 
f 17/15/6 28/14/6 27/13/6 
f 27/13/6 18/16/6 17/15/6 
f 21/50/8 19/56/8 26/55/8 
f 26/55/8 11/51/8 21/50/8 
f 26/55/8 12/54/8 11/51/8 
f 26/55/8 24/53/8 12/54/8 
f 24/53/8 6/45/8 12/54/8 
f 6/45/8 16/52/8 12/54/8 
f 6/45/8 27/42/8 16/52/8 
f 27/42/8 6/45/8 30/43/8 
f 18/46/8 27/42/8 30/43/8 
f 18/46/8 30/43/8 32/44/8 
f 3/48/8 18/46/8 32/44/8 
f 32/44/8 4/49/8 3/48/8 
f 3/48/8 13/47/8 18/46/8 
f 13/47/8 3/48/8 21/50/8 
f 21/50/8 11/51/8 13/47/8 
f 6/45/8 8/41/8 30/43/8 

usemtl stone

f 34/9/3 33/65/3 35/66/3 
f 35/66/3 36/67/3 34/9/3 
f 38/69/2 37/68/2 39/70/9 
f 39/70/9 40/71/9 38/69/2 
f 34/72/7 20/55/7 25/56/7 
f 25/56/7 41/73/7 34/72/7 
f 25/56/7 42/74/7 41/73/7 
f 25/56/7 43/75/7 42/74/7 
f 25/56/7 44/76/7 43/75/7 
f 44/76/7 45/77/7 43/75/7 
f 44/76/7 46/78/7 45/77/7 
f 46/78/7 37/79/7 45/77/7 
f 46/78/7 39/80/7 37/79/7 
f 46/78/7 47/81/7 39/80/7 
f 46/78/7 48/82/7 47/81/7 
f 34/72/7 41/73/7 49/83/7 
f 34/72/7 49/83/7 50/84/7 
f 34/72/7 50/84/7 51/85/7 
f 34/72/7 51/85/7 52/86/7 
f 34/72/7 52/86/7 53/87/7 
f 53/87/7 33/88/7 34/72/7 
f 40/90/9 39/89/9 47/91/10 
f 47/91/10 54/92/10 40/90/9 
f 52/94/11 55/93/11 56/95/12 
f 56/95/12 53/96/12 52/94/11 
f 49/98/14 41/97/13 57/99/13 
f 57/99/13 58/100/14 49/98/14 
f 20/10/6 25/9/6 26/11/6 
f 26/11/6 19/12/6 20/10/6 
f 43/102/16 45/101/15 59/103/15 
f 59/103/15 60/104/16 43/102/16 
f 42/106/6 43/105/16 60/107/16 
f 60/107/16 61/108/6 42/106/6 
f 45/110/15 37/109/2 38/111/2 
f 38/111/2 59/112/15 45/110/15 
f 53/114/5 56/113/5 35/115/5 
f 35/115/5 33/116/5 53/114/5 
f 51/118/17 62/117/17 55/119/11 
f 55/119/11 52/120/11 51/118/17 
f 50/122/1 63/121/1 62/123/17 
f 62/123/17 51/124/17 50/122/1 
f 50/126/1 49/125/14 58/127/14 
f 58/127/14 63/128/1 50/126/1 
f 54/130/10 47/129/10 48/131/18 
f 48/131/18 64/132/18 54/130/10 
f 64/134/4 48/133/4 46/135/4 
f 46/135/4 65/136/4 64/134/4 
f 46/137/3 44/10/3 66/138/3 
f 66/138/3 65/139/3 46/137/3 
f 41/141/13 42/140/6 61/142/6 
f 61/142/6 57/143/13 41/141/13 
f 19/56/8 67/76/8 68/72/8 
f 68/72/8 26/55/8 19/56/8 
f 69/144/8 58/77/8 57/75/8 
f 57/75/8 70/145/8 69/144/8 
f 57/75/8 61/146/8 70/145/8 
f 61/146/8 60/73/8 70/145/8 
f 60/73/8 59/83/8 70/145/8 
f 59/83/8 66/72/8 70/145/8 
f 59/83/8 65/88/8 66/72/8 
f 59/83/8 38/84/8 65/88/8 
f 38/84/8 40/85/8 65/88/8 
f 40/85/8 54/86/8 65/88/8 
f 54/86/8 64/87/8 65/88/8 
f 58/77/8 69/144/8 36/76/8 
f 63/79/8 58/77/8 36/76/8 
f 62/80/8 63/79/8 36/76/8 
f 55/81/8 62/80/8 36/76/8 
f 55/81/8 36/76/8 35/78/8 
f 35/78/8 56/82/8 55/81/8 
f 66/136/4 44/135/4 25/29/4 
f 25/29/4 68/147/4 66/136/4 
f 25/29/4 26/30/4 68/147/4 
f 70/148/4 66/136/4 68/147/4 
f 36/115/5 69/149/5 67/150/5 
f 67/150/5 19/21/5 36/115/5 
f 19/21/5 34/116/5 36/115/5 
f 19/21/5 20/22/5 34/116/5 
f 67/152/19 69/151/19 70/153/19 
f 70/153/19 68/154/19 67/152/19 
g shovel




usemtl wood

f 2/2/1 1/1/1 3/3/1 
f 3/3/1 4/4/1 2/2/1 
f 6/6/2 5/5/2 7/7/2 
f 7/7/2 8/8/2 6/6/2 
f 10/10/3 9/9/3 11/11/3 
f 11/11/3 12/12/3 10/10/3 
f 13/13/3 11/11/3 9/9/3 
f 9/9/3 14/14/3 13/13/3 
f 15/15/3 10/10/3 12/12/3 
f 12/12/3 16/16/3 15/15/3 
f 13/18/4 14/17/4 17/19/4 
f 17/19/4 18/20/4 13/18/4 
f 20/22/5 19/21/5 21/23/5 
f 21/23/5 22/24/5 20/22/5 
f 23/9/6 5/25/6 6/26/6 
f 6/26/6 24/11/6 23/9/6 
f 1/27/6 22/10/6 21/12/6 
f 21/12/6 3/28/6 1/27/6 
f 26/30/4 25/29/4 23/31/4 
f 23/31/4 24/32/4 26/30/4 
f 15/34/5 16/33/5 27/35/5 
f 27/35/5 28/36/5 15/34/5 
f 8/38/4 7/37/4 29/39/4 
f 29/39/4 30/40/4 8/38/4 
f 17/42/7 2/41/7 31/43/7 
f 31/43/7 29/44/7 17/42/7 
f 17/42/7 1/45/7 2/41/7 
f 29/44/7 28/46/7 17/42/7 
f 29/44/7 15/47/7 28/46/7 
f 29/44/7 5/48/7 15/47/7 
f 29/44/7 7/49/7 5/48/7 
f 15/47/7 5/48/7 23/50/7 
f 23/50/7 10/51/7 15/47/7 
f 1/45/7 17/42/7 14/52/7 
f 14/52/7 22/53/7 1/45/7 
f 14/52/7 9/54/7 22/53/7 
f 9/54/7 10/51/7 22/53/7 
f 10/51/7 20/55/7 22/53/7 
f 10/51/7 25/56/7 20/55/7 
f 10/51/7 23/50/7 25/56/7 
f 29/58/3 31/57/3 32/59/3 
f 32/59/3 30/60/3 29/58/3 
f 2/62/5 4/61/5 32/63/5 
f 32/63/5 31/64/5 2/62/5 
f 17/15/6 28/14/6 27/13/6 
f 27/13/6 18/16/6 17/15/6 
f 21/50/8 19/56/8 26/55/8 
f 26/55/8 11/51/8 21/50/8 
f 26/55/8 12/54/8 11/51/8 
f 26/55/8 24/53/8 12/54/8 
f 24/53/8 6/45/8 12/54/8 
f 6/45/8 16/52/8 12/54/8 
f 6/45/8 27/42/8 16/52/8 
f 27/42/8 6/45/8 30/43/8 
f 18/46/8 27/42/8 30/43/8 
f 18/46/8 30/43/8 32/44/8 
f 3/48/8 18/46/8 32/44/8 
f 32/44/8 4/49/8 3/48/8 
f 3/48/8 13/47/8 18/46/8 
f 13/47/8 3/48/8 21/50/8 
f 21/50/8 11/51/8 13/47/8 
f 6/45/8 8/41/8 30/43/8 

usemtl stone

f 34/9/3 33/65/3 35/66/3 
f 35/66/3 36/67/3 34/9/3 
f 38/69/2 37/68/2 39/70/9 
f 39/70/9 40/71/9 38/69/2 
f 34/72/7 20/55/7 25/56/7 
f 25/56/7 41/73/7 34/72/7 
f 25/56/7 42/74/7 41/73/7 
f 25/56/7 43/75/7 42/74/7 
f 25/56/7 44/76/7 43/75/7 
f 44/76/7 45/77/7 43/75/7 
f 44/76/7 46/78/7 45/77/7 
f 46/78/7 37/79/7 45/77/7 
f 46/78/7 39/80/7 37/79/7 
f 46/78/7 47/81/7 39/80/7 
f 46/78/7 48/82/7 47/81/7 
f 34/72/7 41/73/7 49/83/7 
f 34/72/7 49/83/7 50/84/7 
f 34/72/7 50/84/7 51/85/7 
f 34/72/7 51/85/7 52/86/7 
f 34/72/7 52/86/7 53/87/7 
f 53/87/7 33/88/7 34/72/7 
f 40/90/9 39/89/9 47/91/10 
f 47/91/10 54/92/10 40/90/9 
f 52/94/11 55/93/11 56/95/12 
f 56/95/12 53/96/12 52/94/11 
f 49/98/14 41/97/13 57/99/13 
f 57/99/13 58/100/14 49/98/14 
f 20/10/6 25/9/6 26/11/6 
f 26/11/6 19/12/6 20/10/6 
f 43/102/16 45/101/15 59/103/15 
f 59/103/15 60/104/16 43/102/16 
f 42/106/6 43/105/16 60/107/16 
f 60/107/16 61/108/6 42/106/6 
f 45/110/15 37/109/2 38/111/2 
f 38/111/2 59/112/15 45/110/15 
f 53/114/5 56/113/5 35/115/5 
f 35/115/5 33/116/5 53/114/5 
f 51/118/17 62/117/17 55/119/11 
f 55/119/11 52/120/11 51/118/17 
f 50/122/1 63/121/1 62/123/17 
f 62/123/17 51/124/17 50/122/1 
f 50/126/1 49/125/14 58/127/14 
f 58/127/14 63/128/1 50/126/1 
f 54/130/10 47/129/10 48/131/18 
f 48/131/18 64/132/18 54/130/10 
f 64/134/4 48/133/4 46/135/4 
f 46/135/4 65/136/4 64/134/4 
f 46/137/3 44/10/3 66/138/3 
f 66/138/3 65/139/3 46/137/3 
f 41/141/13 42/140/6 61/142/6 
f 61/142/6 57/143/13 41/141/13 
f 19/56/8 67/76/8 68/72/8 
f 68/72/8 26/55/8 19/56/8 
f 69/144/8 58/77/8 57/75/8 
f 57/75/8 70/145/8 69/144/8 
f 57/75/8 61/146/8 70/145/8 
f 61/146/8 60/73/8 70/145/8 
f 60/73/8 59/83/8 70/145/8 
f 59/83/8 66/72/8 70/145/8 
f 59/83/8 65/88/8 66/72/8 
f 59/83/8 38/84/8 65/88/8 
f 38/84/8 40/85/8 65/88/8 
f 40/85/8 54/86/8 65/88/8 
f 54/86/8 64/87/8 65/88/8 
f 58/77/8 69/144/8 36/76/8 
f 63/79/8 58/77/8 36/76/8 
f 62/80/8 63/79/8 36/76/8 
f 55/81/8 62/80/8 36/76/8 
f 55/81/8 36/76/8 35/78/8 
f 35/78/8 56/82/8 55/81/8 
f 66/136/4 44/135/4 25/29/4 
f 25/29/4 68/147/4 66/136/4 
f 25/29/4 26/30/4 68/147/4 
f 70/148/4 66/136/4 68/147/4 
f 36/115/5 69/149/5 67/150/5 
f 67/150/5 19/21/5 36/115/5 
f 19/21/5 34/116/5 36/115/5 
f 19/21/5 20/22/5 34/116/5 
f 67/152/19 69/151/19 70/153/19 
f 70/153/19 68/154/19 67/152/19 
