# Created by Kenney (www.kenney.nl) 

mtllib trunkLong.mtl 

g trunkLong

v -0.2472363 1.1122 0.3895532 
v -0.2472363 1.1122 0.4192827 
v -0.3460959 1.1122 0.3324766 
v -0.3718424 1.1122 0.3473414 
v -0.4404241 0.0648 0.163863 
v -0.2472363 0.0648 0.052326 
v -0.4133778 0.2673 0.1794782 
v -0.2472363 0.2673 0.08355635 
v -0.4404241 0.0648 0.386937 
v -0.3618433 0.1076437 0.4256981 
v -0.2472363 0.0648 0.498474 
v -0.2472363 0.2673 0.4672436 
v -0.3578717 0.1671156 0.4188191 
v -0.4098332 0.1671156 0.3888191 
v -0.4138048 0.1076437 0.3956981 
v -0.4133778 0.2673 0.3713218 
v 0 0.149606 0.2473698 
v 0 0.149606 0.3034302 
v -0.006684129 0.1996512 0.2512289 
v -0.006684129 0.1996512 0.2995711 
v -0.05404857 0.0648 0.386937 
v -0.08109485 0.2673 0.3713218 
v -0.06209291 0.1250294 0.2294488 
v -0.07305051 0.2070706 0.2357752 
v -0.08109485 0.2673 0.1794782 
v -0.07305051 0.2070706 0.3150248 
v -0.06209291 0.1250294 0.3213512 
v -0.05404857 0.0648 0.163863 
v -0.3460959 1.26295 0.2183234 
v -0.3460959 1.26295 0.3324766 
v -0.3718424 1.26295 0.2034586 
v -0.3718424 1.26295 0.3473414 
v -0.3718424 0.9668499 0.2034586 
v -0.3460959 0.9668499 0.2183234 
v -0.2472363 0.9668499 0.1315173 
v -0.2472363 0.9668499 0.1612468 
v -0.1226302 0.873625 0.2034586 
v -0.1483767 0.873625 0.2183234 
v -0.2472363 0.873625 0.1315173 
v -0.2472363 0.873625 0.1612468 
v -0.1226302 1.2265 0.3473414 
v -0.1483767 1.2265 0.3324766 
v -0.1226302 1.294375 0.3473414 
v -0.1483767 1.294375 0.3324766 
v -0.2472363 1.2265 0.3895532 
v -0.2472363 1.2265 0.4192827 
v -0.1226302 1.294375 0.2034586 
v -0.1483767 1.294375 0.2183234 
v -0.00873292 0 0.1377 
v -0.2472363 0 0 
v -0.00873292 0 0.4131 
v -0.2472363 0 0.5508 
v -0.4857397 0 0.4131 
v -0.4857397 0 0.1377 
v -0.2472363 0.873625 0.4192827 
v -0.3718424 0.873625 0.3473414 
v -0.3718424 0.873625 0.2034586 
v -0.1226302 0.873625 0.3473414 
v -0.3460959 0.873625 0.3324766 
v -0.2472363 0.873625 0.3895532 
v -0.3460959 0.873625 0.2183234 
v -0.1483767 0.873625 0.3324766 
v -0.1154235 0.2673 0.1992978 
v -0.1154235 0.2673 0.3515022 
v -0.2472363 0.2673 0.1231957 
v -0.2051148 0.670258 0.1397496 
v -0.2071652 0.7301177 0.1433008 
v -0.1552036 0.7301177 0.1733008 
v -0.1531533 0.670258 0.1697496 
v -0.2472363 0.2673 0.4276043 
v -0.4052075 0.386568 0.2034917 
v -0.4052075 0.386568 0.2534917 
v -0.4017904 0.4364511 0.2534917 
v -0.4017904 0.4364511 0.2034917 
v -0.3790491 0.2673 0.1992978 
v -0.3790491 0.2673 0.3515022 
v -0.172291 0.4597489 0.408751 
v -0.1743413 0.5196086 0.4051998 
v -0.2263028 0.5196086 0.4351998 
v -0.2242525 0.4597489 0.438751 
v -0.1330297 0.6878223 0.03229445 
v -0.1344854 0.7303227 0.03481581 
v -0.09613701 0.6878223 0.05359445 
v -0.09759271 0.7303227 0.05611581 
v -0.08103942 0.489066 0.5968033 
v -0.1070202 0.489066 0.6118033 
v -0.08206457 0.5189958 0.5950277 
v -0.1080453 0.5189958 0.6100277 
v -0.544248 0.4053644 0.2127417 
v -0.5420952 0.4367908 0.2127417 
v -0.544248 0.4053644 0.2442417 
v -0.5420952 0.4367908 0.2442417 
v -0.4186016 0.1298031 0.5060066 
v -0.4549747 0.1298031 0.4850066 
v -0.4158215 0.1714334 0.5011913 
v -0.4521946 0.1714334 0.4801913 

vn 0 1 0 
vn -0.4955991 0.1323863 -0.8584028 
vn -0.4955991 0.1323863 0.8584028 
vn 0.9911981 0.1323863 0 
vn -0.9911981 0.1323863 0 
vn 0.4955991 0.1323863 0.8584028 
vn 0.1111026 0.9938089 0 
vn 0.2367421 0.1060916 -0.9657628 
vn 0.5 0 0.8660254 
vn 0.2367421 0.1060916 0.9657628 
vn 0.5 0 -0.8660254 
vn 0.3680256 -0.9298156 0 
vn -0.5 0 0.8660254 
vn -1 0 0 
vn 0 -1 0 
vn 0.8194954 0.5730858 0 
vn 0.4097477 0.5730858 0.7097038 
vn -0.4097477 0.5730858 -0.7097038 
vn -0.4097477 0.5730858 0.7097038 
vn 0.4097477 0.5730858 -0.7097038 
vn -0.8194954 0.5730858 0 
vn 0.4955991 0.1323863 -0.8584028 
vn -0.5 0 -0.8660254 
vn 1 0 0 
vn -0.9985263 -0.05426898 0 
vn -0.4992632 -0.05426897 0.8647491 
vn 0.9976619 0.0683433 0 
vn 0.498831 0.0683433 -0.8640006 
vn -0.4992632 -0.05426897 -0.8647491 
vn -0.498831 0.0683433 0.8640006 
vn -0.9976619 0.0683433 0 
vn 0.9985263 -0.05426898 0 
vn -0.498831 0.0683433 -0.8640006 
vn 0.4992632 -0.05426897 0.8647491 
vn 0.4992632 -0.05426897 -0.8647491 
vn 0.498831 0.0683433 0.8640006 
vn -0.8307837 0.004563536 -0.5565766 
vn 0.06740419 -0.9908717 -0.1167475 
vn 0.8974013 0.004563536 0.4411915 
vn -0.0007865895 0.9999988 0.001362413 
vn 0.8993648 0.004869258 -0.4371718 
vn -0.8282844 0.004869259 0.5602869 
vn 0.06962504 -0.9902573 0.1205941 
vn 0.001455423 0.9999958 0.002520867 
vn -0.1339681 -0.9909856 0 
vn -0.06577354 0.004505715 0.9978244 
vn -0.06577354 0.004505715 -0.9978244 
vn 0.002421076 0.9999971 0 
vn 0.8181148 0.01186681 0.5749325 
vn 0.02150233 0.9990748 -0.03724312 
vn -0.9069635 0.01186681 -0.421042 
vn -0.1103511 -0.9753413 0.1911336 

vt 12.01693 18.93425 
vt 12.01693 20.37925 
vt 16.822 16.16004 
vt 18.07341 16.88254 
vt 22.52114 2.618036 
vt 11.67862 2.618036 
vt 21.76216 12.54796 
vt 12.4376 12.54796 
vt -9.135313 -0.4513323 
vt -4.885602 1.64958 
vt 1.707207 -0.4513323 
vt 0.9482303 9.478589 
vt -4.885602 4.565882 
vt -7.801904 4.565882 
vt -7.801904 1.64958 
vt -8.376337 9.478589 
vt -12.02342 7.207604 
vt -14.74824 7.207604 
vt -12.21099 9.661652 
vt -14.56067 9.661652 
vt 7.964567 0.2879131 
vt 8.723543 10.21783 
vt 18.80709 0.2879131 
vt 18.04811 10.21783 
vt -11.67862 1.139545 
vt -22.52114 1.139545 
vt -12.4376 11.06947 
vt -21.76216 11.06947 
vt -11.15237 6.423113 
vt -11.45986 10.44614 
vt -8.723543 13.39959 
vt -18.04811 13.39959 
vt -15.31179 10.44614 
vt -15.61928 6.423113 
vt -7.964567 3.469667 
vt -18.80709 3.469667 
vt -12.21099 1.401017 
vt -14.56067 1.401017 
vt -11.45986 4.646852 
vt -15.31179 4.646852 
vt 16.822 10.61162 
vt 18.07341 9.889114 
vt 0.2760217 7.268142 
vt -2.862605 8.469472 
vt 0.7200907 11.27839 
vt -2.591723 10.91573 
vt -22.6483 54.05852 
vt -24.09331 54.05852 
vt -22.6483 61.38573 
vt -24.09331 61.38573 
vt -6.649971 4.509568 
vt -7.09404 8.519818 
vt -3.511345 5.710898 
vt -3.782227 8.157151 
vt 10.70748 46.99378 
vt 9.262475 46.99378 
vt 10.70748 61.38573 
vt 9.262475 61.38573 
vt -14.74824 2.676138 
vt -12.02342 2.676138 
vt -15.61928 -0.5696974 
vt -11.15237 -0.5696974 
vt 12.01693 6.392402 
vt 12.01693 7.837405 
vt 5.960446 9.889114 
vt 7.211856 10.61162 
vt 3.279372 59.61407 
vt 1.834368 59.61407 
vt 3.279372 62.91314 
vt 1.834368 62.91314 
vt 18.93425 54.05852 
vt 18.93425 59.61407 
vt 20.37925 54.05852 
vt 20.37925 59.61407 
vt 5.960446 16.88254 
vt 7.211856 16.16004 
vt -0.4244639 6.692914 
vt -12.01693 0 
vt -0.4244639 20.07874 
vt -12.01693 26.77165 
vt -23.6094 20.07874 
vt -23.6094 6.692914 
vt -6.692914 0.2432542 
vt -20.07874 0.2432542 
vt -7.964567 4.086603 
vt -18.80709 4.086603 
vt -10.40697 -9.84359 
vt -23.79279 -9.84359 
vt -11.67862 -6.000241 
vt -22.52114 -6.000241 
vt 23.79279 -3.443366 
vt 10.40697 -3.443366 
vt 22.52114 0.3999825 
vt 11.67862 0.3999825 
vt 2.97886 -16.73032 
vt -10.40697 -16.73032 
vt 1.707207 -12.88697 
vt -9.135313 -12.88697 
vt 10.40697 3.443366 
vt -2.97886 3.443366 
vt 9.135313 7.286715 
vt -1.707207 7.286715 
vt 6.692914 -13.53021 
vt 7.964567 -9.686861 
vt 20.07874 -13.53021 
vt 18.80709 -9.686861 
vt 9.135313 4.208912 
vt -1.707207 4.208912 
vt 8.376337 14.13883 
vt -0.9482303 14.13883 
vt -0.2173406 42.46257 
vt -7.210766 42.46257 
vt -0.2173406 54.05852 
vt -7.210766 54.05852 
vt 11.55146 42.46257 
vt 10.10645 42.46257 
vt 11.55146 62.91314 
vt 10.10645 62.91314 
vt 9.889114 42.46257 
vt 9.889114 46.99378 
vt 16.88254 42.46257 
vt 9.889114 61.38573 
vt 16.88254 61.38573 
vt 16.88254 54.05852 
vt 20.59659 42.46257 
vt 13.60317 42.46257 
vt 20.59659 46.99378 
vt 13.60317 46.99378 
vt -6.392402 46.99378 
vt -6.392402 42.46257 
vt -7.837405 46.99378 
vt -7.837405 42.46257 
vt -13.60317 42.46257 
vt -20.59659 42.46257 
vt -13.60317 59.61407 
vt -20.59659 54.05852 
vt -20.59659 59.61407 
vt -9.889114 62.91314 
vt -9.889114 42.46257 
vt -16.88254 62.91314 
vt -16.88254 42.46257 
vt -16.88254 59.61407 
vt 6.488264 42.46257 
vt 0.9398425 42.46257 
vt 6.488264 54.05852 
vt 0.9398425 54.05852 
vt -14.32567 42.46257 
vt -19.87409 42.46257 
vt -14.32567 46.99378 
vt -19.87409 46.99378 
vt -10.61162 61.38573 
vt -10.61162 46.99378 
vt -16.16004 61.38573 
vt -10.61162 42.46257 
vt -16.16004 42.46257 
vt -16.16004 54.05852 
vt 19.87409 42.46257 
vt 14.32567 42.46257 
vt 19.87409 54.05852 
vt 14.32567 59.61407 
vt 19.87409 59.61407 
vt 10.61162 42.46257 
vt 10.61162 62.91314 
vt 16.16004 42.46257 
vt 16.16004 62.91314 
vt 16.16004 59.61407 
vt 9.686879 13.27744 
vt 10.61162 42.79138 
vt 17.08477 13.27744 
vt 16.16004 42.79138 
vt -0.01510552 13.58048 
vt -7.413001 13.58048 
vt -0.9398425 43.09442 
vt -6.488264 43.09442 
vt -8.723543 13.23113 
vt -18.04811 13.23113 
vt -9.889114 42.77065 
vt -16.88254 42.77065 
vt -0.9482303 13.61276 
vt 5.237672 33.24445 
vt 8.376337 13.61276 
vt 7.210766 43.15228 
vt 5.237672 36.16076 
vt 2.32137 36.16076 
vt 2.32137 33.24445 
vt 0.2173406 43.15228 
vt 20.79883 12.32225 
vt 13.40093 12.32225 
vt 19.87409 41.83619 
vt 14.32567 41.83619 
vt 0.9482303 11.20695 
vt -8.376337 11.20695 
vt -0.2173406 40.74646 
vt -7.210766 40.74646 
vt 9.889114 41.12809 
vt 9.890719 17.39919 
vt 8.723543 11.58858 
vt 18.04811 11.58858 
vt 12.32097 17.39919 
vt 12.32097 19.82944 
vt 16.88254 41.12809 
vt 9.890719 19.82944 
vt -9.686879 11.97315 
vt -17.08477 11.97315 
vt -10.61162 41.48709 
vt -16.16004 41.48709 
vt 21.76216 12.79148 
vt 12.4376 12.79148 
vt 20.59659 42.331 
vt 13.60317 42.331 
vt -13.40093 12.92833 
vt -20.79883 12.92833 
vt -14.32567 42.44227 
vt -19.87409 42.44227 
vt 7.413001 11.67011 
vt 0.01510552 11.67011 
vt 6.488264 41.18405 
vt 0.9398425 41.18405 
vt -21.76216 12.02823 
vt -17.18596 21.40414 
vt -12.4376 12.02823 
vt -13.60317 41.56774 
vt -17.18596 24.32044 
vt -20.10226 24.32044 
vt -20.10226 21.40414 
vt -20.59659 41.56774 
vt 4.902885 33.41075 
vt 5.044081 35.47651 
vt 11.1921 32.55703 
vt 11.39096 35.46655 
vt 2.744234 -0.04354979 
vt 4.814808 -0.04354979 
vt 2.32137 -6.376338 
vt 5.237672 -6.376338 
vt -4.399315 33.44517 
vt -10.68853 32.59145 
vt -4.540511 35.51093 
vt -10.88739 35.50097 
vt -2.744234 -4.677993 
vt -2.32137 -11.01078 
vt -4.814808 -4.677993 
vt -5.237672 -11.01078 
vt 4.814808 33.66732 
vt 2.744234 33.66732 
vt 4.814808 35.73789 
vt 2.744234 35.73789 
vt -17.91503 22.13321 
vt -19.37318 22.13321 
vt -17.91503 23.59136 
vt -19.37318 23.59136 
vt -14.0084 25.33433 
vt -14.2072 22.42481 
vt -24.26735 25.30454 
vt -24.36676 23.84978 
vt 11.3579 25.15322 
vt 21.61686 25.12344 
vt 11.55671 22.24371 
vt 21.71626 23.66868 
vt -17.91503 26.23646 
vt -17.18596 16.0034 
vt -19.37318 26.23646 
vt -20.10226 16.0034 
vt -17.91503 -22.97872 
vt -19.37318 -22.97872 
vt -17.18596 -12.74565 
vt -20.10226 -12.74565 
vt 10.34032 17.84879 
vt 10.34032 19.37984 
vt 11.87138 17.84879 
vt 11.87138 19.37984 
vt 12.32097 22.03473 
vt 9.890719 22.03473 
vt 11.87138 28.85427 
vt 10.34032 28.85427 
vt -18.84207 18.72773 
vt -25.61508 19.64134 
vt -18.67634 21.15232 
vt -25.51067 21.16883 
vt 20.30303 18.82759 
vt 20.1373 21.25218 
vt 27.07604 19.7412 
vt 26.97162 21.2687 
vt -9.890719 19.58034 
vt -12.32097 19.58034 
vt -10.34032 26.39988 
vt -11.87138 26.39988 
vt -5.323047 2.087025 
vt -7.364459 2.087025 
vt -5.323047 4.128437 
vt -7.364459 4.128437 
vt -26.6566 8.152076 
vt -27.04115 5.261239 
vt -31.55181 8.361959 
vt -31.821 6.338374 
vt 4.885602 26.65158 
vt 5.323047 31.53172 
vt 7.801904 26.65158 
vt 7.364459 31.53172 
vt 25.52925 8.002111 
vt 30.42447 8.211995 
vt 25.9138 5.111274 
vt 30.69365 6.188409 
vt -4.885602 27.20871 
vt -7.801904 27.20871 
vt -5.323047 32.08886 
vt -7.364459 32.08886 
vt 5.610165 9.686879 
vt 5.610165 17.08477 
vt 12.01693 5.987931 
vt 12.01693 20.78372 
vt 18.42369 9.686879 
vt 18.42369 17.08477 

usemtl woodDark

f 2/2/1 1/1/1 3/3/1 
f 3/3/1 4/4/1 2/2/1 
f 6/6/2 5/5/2 7/7/2 
f 7/7/2 8/8/2 6/6/2 
f 10/10/3 9/9/3 11/11/3 
f 11/11/3 12/12/3 10/10/3 
f 12/12/3 13/13/3 10/10/3 
f 12/12/3 14/14/3 13/13/3 
f 9/9/3 10/10/3 15/15/3 
f 15/15/3 16/16/3 9/9/3 
f 15/15/3 14/14/3 16/16/3 
f 14/14/3 12/12/3 16/16/3 
f 18/18/4 17/17/4 19/19/4 
f 19/19/4 20/20/4 18/18/4 
f 7/22/5 5/21/5 9/23/5 
f 9/23/5 16/24/5 7/22/5 
f 11/26/6 21/25/6 22/27/6 
f 22/27/6 12/28/6 11/26/6 
f 24/30/4 23/29/4 25/31/4 
f 25/31/4 22/32/4 24/30/4 
f 22/32/4 26/33/4 24/30/4 
f 22/32/4 27/34/4 26/33/4 
f 28/35/4 25/31/4 23/29/4 
f 23/29/4 21/36/4 28/35/4 
f 23/29/4 27/34/4 21/36/4 
f 27/34/4 22/32/4 21/36/4 
f 20/38/7 19/37/7 24/39/7 
f 24/39/7 26/40/7 20/38/7 
f 30/3/1 29/41/1 31/42/1 
f 31/42/1 32/4/1 30/3/1 
f 17/44/8 23/43/8 24/45/8 
f 24/45/8 19/46/8 17/44/8 
f 4/48/9 3/47/9 30/49/9 
f 30/49/9 32/50/9 4/48/9 
f 26/52/10 27/51/10 18/53/10 
f 18/53/10 20/54/10 26/52/10 
f 34/56/11 33/55/11 31/57/11 
f 31/57/11 29/58/11 34/56/11 
f 17/60/12 18/59/12 27/61/12 
f 27/61/12 23/62/12 17/60/12 
f 36/64/1 35/63/1 33/42/1 
f 33/42/1 34/41/1 36/64/1 
f 38/66/1 37/65/1 39/63/1 
f 39/63/1 40/64/1 38/66/1 
f 42/68/13 41/67/13 43/69/13 
f 43/69/13 44/70/13 42/68/13 
f 45/72/14 1/71/14 2/73/14 
f 2/73/14 46/74/14 45/72/14 
f 43/75/1 47/65/1 48/66/1 
f 48/66/1 44/76/1 43/75/1 
f 46/2/1 41/75/1 42/76/1 
f 42/76/1 45/1/1 46/2/1 
f 50/78/15 49/77/15 51/79/15 
f 51/79/15 52/80/15 50/78/15 
f 52/80/15 53/81/15 50/78/15 
f 53/81/15 54/82/15 50/78/15 
f 51/84/16 49/83/16 28/85/16 
f 28/85/16 21/86/16 51/84/16 
f 52/88/17 51/87/17 21/89/17 
f 21/89/17 11/90/17 52/88/17 
f 50/92/18 54/91/18 5/93/18 
f 5/93/18 6/94/18 50/92/18 
f 53/96/19 52/95/19 11/97/19 
f 11/97/19 9/98/19 53/96/19 
f 49/100/20 50/99/20 6/101/20 
f 6/101/20 28/102/20 49/100/20 
f 5/104/21 54/103/21 53/105/21 
f 53/105/21 9/106/21 5/104/21 
f 28/108/22 6/107/22 8/109/22 
f 8/109/22 25/110/22 28/108/22 
f 56/112/13 55/111/13 2/113/13 
f 2/113/13 4/114/13 56/112/13 
f 37/116/23 38/115/23 48/117/23 
f 48/117/23 47/118/23 37/116/23 
f 33/120/14 57/119/14 56/121/14 
f 56/121/14 31/122/14 33/120/14 
f 56/121/14 32/123/14 31/122/14 
f 56/121/14 4/124/14 32/123/14 
f 39/126/23 57/125/23 33/127/23 
f 33/127/23 35/128/23 39/126/23 
f 39/130/24 35/129/24 36/131/24 
f 36/131/24 40/132/24 39/130/24 
f 55/134/9 58/133/9 41/135/9 
f 41/135/9 2/136/9 55/134/9 
f 41/135/9 46/137/9 2/136/9 
f 37/139/24 47/138/24 43/140/24 
f 43/140/24 58/141/24 37/139/24 
f 43/140/24 41/142/24 58/141/24 
f 60/144/11 59/143/11 3/145/11 
f 3/145/11 1/146/11 60/144/11 
f 61/148/9 40/147/9 36/149/9 
f 36/149/9 34/150/9 61/148/9 
f 34/152/24 29/151/24 30/153/24 
f 30/153/24 61/154/24 34/152/24 
f 30/153/24 59/155/24 61/154/24 
f 30/153/24 3/156/24 59/155/24 
f 62/158/23 60/157/23 1/159/23 
f 1/159/23 42/160/23 62/158/23 
f 1/159/23 45/161/23 42/160/23 
f 48/163/14 38/162/14 62/164/14 
f 62/164/14 44/165/14 48/163/14 
f 62/164/14 42/166/14 44/165/14 
f 38/168/25 63/167/25 64/169/25 
f 64/169/25 62/170/25 38/168/25 
f 65/172/26 63/171/26 38/173/26 
f 38/173/26 40/174/26 65/172/26 
f 22/176/27 25/175/27 37/177/27 
f 37/177/27 58/178/27 22/176/27 
f 66/180/28 25/179/28 8/181/28 
f 8/181/28 39/182/28 66/180/28 
f 39/182/28 67/183/28 66/180/28 
f 39/182/28 68/184/28 67/183/28 
f 25/179/28 66/180/28 69/185/28 
f 69/185/28 37/186/28 25/179/28 
f 69/185/28 68/184/28 37/186/28 
f 68/184/28 39/182/28 37/186/28 
f 64/188/29 70/187/29 60/189/29 
f 60/189/29 62/190/29 64/188/29 
f 16/192/30 12/191/30 55/193/30 
f 55/193/30 56/194/30 16/192/30 
f 71/196/31 57/195/31 7/197/31 
f 7/197/31 16/198/31 71/196/31 
f 16/198/31 72/199/31 71/196/31 
f 16/198/31 73/200/31 72/199/31 
f 16/198/31 56/201/31 73/200/31 
f 74/202/31 56/201/31 57/195/31 
f 57/195/31 71/196/31 74/202/31 
f 74/202/31 73/200/31 56/201/31 
f 76/204/32 75/203/32 61/205/32 
f 61/205/32 59/206/32 76/204/32 
f 8/208/33 7/207/33 57/209/33 
f 57/209/33 39/210/33 8/208/33 
f 75/212/34 65/211/34 40/213/34 
f 40/213/34 61/214/34 75/212/34 
f 70/216/35 76/215/35 59/217/35 
f 59/217/35 60/218/35 70/216/35 
f 77/220/36 12/219/36 22/221/36 
f 22/221/36 58/222/36 77/220/36 
f 58/222/36 78/223/36 77/220/36 
f 58/222/36 79/224/36 78/223/36 
f 12/219/36 77/220/36 80/225/36 
f 80/225/36 55/226/36 12/219/36 
f 80/225/36 79/224/36 55/226/36 
f 79/224/36 58/222/36 55/226/36 
f 82/228/37 81/227/37 66/229/37 
f 66/229/37 67/230/37 82/228/37 
f 81/232/38 83/231/38 69/233/38 
f 69/233/38 66/234/38 81/232/38 
f 69/236/39 83/235/39 84/237/39 
f 84/237/39 68/238/39 69/236/39 
f 68/240/40 84/239/40 82/241/40 
f 82/241/40 67/242/40 68/240/40 
f 83/244/28 81/243/28 82/245/28 
f 82/245/28 84/246/28 83/244/28 
f 86/248/36 85/247/36 87/249/36 
f 87/249/36 88/250/36 86/248/36 
f 77/252/41 78/251/41 87/253/41 
f 87/253/41 85/254/41 77/252/41 
f 88/256/42 79/255/42 80/257/42 
f 80/257/42 86/258/42 88/256/42 
f 77/260/43 85/259/43 86/261/43 
f 86/261/43 80/262/43 77/260/43 
f 88/264/44 87/263/44 78/265/44 
f 78/265/44 79/266/44 88/264/44 
f 90/268/31 89/267/31 91/269/31 
f 91/269/31 92/270/31 90/268/31 
f 71/272/45 72/271/45 91/273/45 
f 91/273/45 89/274/45 71/272/45 
f 91/276/46 72/275/46 73/277/46 
f 73/277/46 92/278/46 91/276/46 
f 74/280/47 71/279/47 89/281/47 
f 89/281/47 90/282/47 74/280/47 
f 73/284/48 74/283/48 90/285/48 
f 90/285/48 92/286/48 73/284/48 
f 94/288/3 93/287/3 95/289/3 
f 95/289/3 96/290/3 94/288/3 
f 10/292/49 13/291/49 95/293/49 
f 95/293/49 93/294/49 10/292/49 
f 95/296/50 13/295/50 14/297/50 
f 14/297/50 96/298/50 95/296/50 
f 96/300/51 14/299/51 15/301/51 
f 15/301/51 94/302/51 96/300/51 
f 15/304/52 10/303/52 93/305/52 
f 93/305/52 94/306/52 15/304/52 

usemtl wood

f 64/308/1 63/307/1 65/309/1 
f 65/309/1 70/310/1 64/308/1 
f 65/309/1 75/311/1 70/310/1 
f 75/311/1 76/312/1 70/310/1 
g trunkLong




usemtl woodDark

f 2/2/1 1/1/1 3/3/1 
f 3/3/1 4/4/1 2/2/1 
f 6/6/2 5/5/2 7/7/2 
f 7/7/2 8/8/2 6/6/2 
f 10/10/3 9/9/3 11/11/3 
f 11/11/3 12/12/3 10/10/3 
f 12/12/3 13/13/3 10/10/3 
f 12/12/3 14/14/3 13/13/3 
f 9/9/3 10/10/3 15/15/3 
f 15/15/3 16/16/3 9/9/3 
f 15/15/3 14/14/3 16/16/3 
f 14/14/3 12/12/3 16/16/3 
f 18/18/4 17/17/4 19/19/4 
f 19/19/4 20/20/4 18/18/4 
f 7/22/5 5/21/5 9/23/5 
f 9/23/5 16/24/5 7/22/5 
f 11/26/6 21/25/6 22/27/6 
f 22/27/6 12/28/6 11/26/6 
f 24/30/4 23/29/4 25/31/4 
f 25/31/4 22/32/4 24/30/4 
f 22/32/4 26/33/4 24/30/4 
f 22/32/4 27/34/4 26/33/4 
f 28/35/4 25/31/4 23/29/4 
f 23/29/4 21/36/4 28/35/4 
f 23/29/4 27/34/4 21/36/4 
f 27/34/4 22/32/4 21/36/4 
f 20/38/7 19/37/7 24/39/7 
f 24/39/7 26/40/7 20/38/7 
f 30/3/1 29/41/1 31/42/1 
f 31/42/1 32/4/1 30/3/1 
f 17/44/8 23/43/8 24/45/8 
f 24/45/8 19/46/8 17/44/8 
f 4/48/9 3/47/9 30/49/9 
f 30/49/9 32/50/9 4/48/9 
f 26/52/10 27/51/10 18/53/10 
f 18/53/10 20/54/10 26/52/10 
f 34/56/11 33/55/11 31/57/11 
f 31/57/11 29/58/11 34/56/11 
f 17/60/12 18/59/12 27/61/12 
f 27/61/12 23/62/12 17/60/12 
f 36/64/1 35/63/1 33/42/1 
f 33/42/1 34/41/1 36/64/1 
f 38/66/1 37/65/1 39/63/1 
f 39/63/1 40/64/1 38/66/1 
f 42/68/13 41/67/13 43/69/13 
f 43/69/13 44/70/13 42/68/13 
f 45/72/14 1/71/14 2/73/14 
f 2/73/14 46/74/14 45/72/14 
f 43/75/1 47/65/1 48/66/1 
f 48/66/1 44/76/1 43/75/1 
f 46/2/1 41/75/1 42/76/1 
f 42/76/1 45/1/1 46/2/1 
f 50/78/15 49/77/15 51/79/15 
f 51/79/15 52/80/15 50/78/15 
f 52/80/15 53/81/15 50/78/15 
f 53/81/15 54/82/15 50/78/15 
f 51/84/16 49/83/16 28/85/16 
f 28/85/16 21/86/16 51/84/16 
f 52/88/17 51/87/17 21/89/17 
f 21/89/17 11/90/17 52/88/17 
f 50/92/18 54/91/18 5/93/18 
f 5/93/18 6/94/18 50/92/18 
f 53/96/19 52/95/19 11/97/19 
f 11/97/19 9/98/19 53/96/19 
f 49/100/20 50/99/20 6/101/20 
f 6/101/20 28/102/20 49/100/20 
f 5/104/21 54/103/21 53/105/21 
f 53/105/21 9/106/21 5/104/21 
f 28/108/22 6/107/22 8/109/22 
f 8/109/22 25/110/22 28/108/22 
f 56/112/13 55/111/13 2/113/13 
f 2/113/13 4/114/13 56/112/13 
f 37/116/23 38/115/23 48/117/23 
f 48/117/23 47/118/23 37/116/23 
f 33/120/14 57/119/14 56/121/14 
f 56/121/14 31/122/14 33/120/14 
f 56/121/14 32/123/14 31/122/14 
f 56/121/14 4/124/14 32/123/14 
f 39/126/23 57/125/23 33/127/23 
f 33/127/23 35/128/23 39/126/23 
f 39/130/24 35/129/24 36/131/24 
f 36/131/24 40/132/24 39/130/24 
f 55/134/9 58/133/9 41/135/9 
f 41/135/9 2/136/9 55/134/9 
f 41/135/9 46/137/9 2/136/9 
f 37/139/24 47/138/24 43/140/24 
f 43/140/24 58/141/24 37/139/24 
f 43/140/24 41/142/24 58/141/24 
f 60/144/11 59/143/11 3/145/11 
f 3/145/11 1/146/11 60/144/11 
f 61/148/9 40/147/9 36/149/9 
f 36/149/9 34/150/9 61/148/9 
f 34/152/24 29/151/24 30/153/24 
f 30/153/24 61/154/24 34/152/24 
f 30/153/24 59/155/24 61/154/24 
f 30/153/24 3/156/24 59/155/24 
f 62/158/23 60/157/23 1/159/23 
f 1/159/23 42/160/23 62/158/23 
f 1/159/23 45/161/23 42/160/23 
f 48/163/14 38/162/14 62/164/14 
f 62/164/14 44/165/14 48/163/14 
f 62/164/14 42/166/14 44/165/14 
f 38/168/25 63/167/25 64/169/25 
f 64/169/25 62/170/25 38/168/25 
f 65/172/26 63/171/26 38/173/26 
f 38/173/26 40/174/26 65/172/26 
f 22/176/27 25/175/27 37/177/27 
f 37/177/27 58/178/27 22/176/27 
f 66/180/28 25/179/28 8/181/28 
f 8/181/28 39/182/28 66/180/28 
f 39/182/28 67/183/28 66/180/28 
f 39/182/28 68/184/28 67/183/28 
f 25/179/28 66/180/28 69/185/28 
f 69/185/28 37/186/28 25/179/28 
f 69/185/28 68/184/28 37/186/28 
f 68/184/28 39/182/28 37/186/28 
f 64/188/29 70/187/29 60/189/29 
f 60/189/29 62/190/29 64/188/29 
f 16/192/30 12/191/30 55/193/30 
f 55/193/30 56/194/30 16/192/30 
f 71/196/31 57/195/31 7/197/31 
f 7/197/31 16/198/31 71/196/31 
f 16/198/31 72/199/31 71/196/31 
f 16/198/31 73/200/31 72/199/31 
f 16/198/31 56/201/31 73/200/31 
f 74/202/31 56/201/31 57/195/31 
f 57/195/31 71/196/31 74/202/31 
f 74/202/31 73/200/31 56/201/31 
f 76/204/32 75/203/32 61/205/32 
f 61/205/32 59/206/32 76/204/32 
f 8/208/33 7/207/33 57/209/33 
f 57/209/33 39/210/33 8/208/33 
f 75/212/34 65/211/34 40/213/34 
f 40/213/34 61/214/34 75/212/34 
f 70/216/35 76/215/35 59/217/35 
f 59/217/35 60/218/35 70/216/35 
f 77/220/36 12/219/36 22/221/36 
f 22/221/36 58/222/36 77/220/36 
f 58/222/36 78/223/36 77/220/36 
f 58/222/36 79/224/36 78/223/36 
f 12/219/36 77/220/36 80/225/36 
f 80/225/36 55/226/36 12/219/36 
f 80/225/36 79/224/36 55/226/36 
f 79/224/36 58/222/36 55/226/36 
f 82/228/37 81/227/37 66/229/37 
f 66/229/37 67/230/37 82/228/37 
f 81/232/38 83/231/38 69/233/38 
f 69/233/38 66/234/38 81/232/38 
f 69/236/39 83/235/39 84/237/39 
f 84/237/39 68/238/39 69/236/39 
f 68/240/40 84/239/40 82/241/40 
f 82/241/40 67/242/40 68/240/40 
f 83/244/28 81/243/28 82/245/28 
f 82/245/28 84/246/28 83/244/28 
f 86/248/36 85/247/36 87/249/36 
f 87/249/36 88/250/36 86/248/36 
f 77/252/41 78/251/41 87/253/41 
f 87/253/41 85/254/41 77/252/41 
f 88/256/42 79/255/42 80/257/42 
f 80/257/42 86/258/42 88/256/42 
f 77/260/43 85/259/43 86/261/43 
f 86/261/43 80/262/43 77/260/43 
f 88/264/44 87/263/44 78/265/44 
f 78/265/44 79/266/44 88/264/44 
f 90/268/31 89/267/31 91/269/31 
f 91/269/31 92/270/31 90/268/31 
f 71/272/45 72/271/45 91/273/45 
f 91/273/45 89/274/45 71/272/45 
f 91/276/46 72/275/46 73/277/46 
f 73/277/46 92/278/46 91/276/46 
f 74/280/47 71/279/47 89/281/47 
f 89/281/47 90/282/47 74/280/47 
f 73/284/48 74/283/48 90/285/48 
f 90/285/48 92/286/48 73/284/48 
f 94/288/3 93/287/3 95/289/3 
f 95/289/3 96/290/3 94/288/3 
f 10/292/49 13/291/49 95/293/49 
f 95/293/49 93/294/49 10/292/49 
f 95/296/50 13/295/50 14/297/50 
f 14/297/50 96/298/50 95/296/50 
f 96/300/51 14/299/51 15/301/51 
f 15/301/51 94/302/51 96/300/51 
f 15/304/52 10/303/52 93/305/52 
f 93/305/52 94/306/52 15/304/52 

usemtl wood

f 64/308/1 63/307/1 65/309/1 
f 65/309/1 70/310/1 64/308/1 
f 65/309/1 75/311/1 70/310/1 
f 75/311/1 76/312/1 70/310/1 
