# Created by Kenney (www.kenney.nl) 

mtllib urn.mtl 

g urn

v -0.01886127 0.17 0.01886127 
v -0.1553547 0.17 0.01886127 
v -0.01886127 0.34 0.01886127 
v -0.1553547 0.34 0.01886127 
v -0.1553547 0.34 0.1553547 
v -0.1553547 0.17 0.1553547 
v -0.01886127 0.17 0.1553547 
v -0.01886127 0.34 0.1553547 
v -0.04515442 0.11 0.1290616 
v -0.1290616 0.11 0.1290616 
v -0.015708 0.14 0.158508 
v -0.158508 0.14 0.158508 
v -0.002108 0 0.172108 
v -0.002108 0 0.002108 
v -0.172108 0 0.172108 
v -0.172108 0 0.002108 
v -0.015708 0.06 0.158508 
v -0.04515442 0.06 0.04515442 
v -0.015708 0.06 0.015708 
v -0.158508 0.06 0.015708 
v -0.1290616 0.06 0.04515442 
v -0.1290616 0.06 0.1290616 
v -0.04515442 0.06 0.1290616 
v -0.158508 0.06 0.158508 
v -0.1290616 0.11 0.04515442 
v -0.04515442 0.11 0.04515442 
v -0.002108 0.04 0.002108 
v -0.002108 0.04 0.172108 
v -0.172108 0.04 0.002108 
v -0.172108 0.04 0.172108 
v -0.158508 0.14 0.015708 
v -0.015708 0.14 0.015708 
v 0 0.34 0.174216 
v 0 0.34 0 
v -0.174216 0.34 0 
v -0.174216 0.34 0.174216 
v -0.174216 0.3 0 
v -0.174216 0.3 0.174216 
v 0 0.3 0.174216 
v 0 0.3 0 

vn 0 0 1 
vn 1 0 0 
vn 0 1 0 
vn -1 0 0 
vn 0 0 -1 
vn 0 -0.7004917 0.7136606 
vn 0 -1 0 
vn 0.8269265 0.56231 0 
vn 0 0.56231 -0.8269265 
vn -0.8269265 0.56231 0 
vn 0 0.56231 0.8269265 
vn -0.7136606 -0.7004917 0 
vn 0.7136606 -0.7004917 0 
vn 0 -0.7004917 -0.7136606 
vn 0 -0.09770527 -0.9952154 
vn 0.9952154 -0.09770527 0 
vn -0.9952154 -0.09770527 0 
vn 0 -0.09770527 0.9952154 

vt -0.7425696 6.692914 
vt -6.116328 6.692914 
vt -0.7425696 13.38583 
vt -6.116328 13.38583 
vt 0.7425696 0.7425696 
vt 0.7425696 6.116328 
vt 6.116328 0.7425696 
vt 6.116328 6.116328 
vt 0.7425696 6.692914 
vt 0.7425696 13.38583 
vt 6.116328 6.692914 
vt 6.116328 13.38583 
vt -1.777733 6.64997 
vt -5.081164 6.64997 
vt -0.6184252 8.304961 
vt -6.240472 8.304961 
vt -0.08299213 6.775906 
vt -0.08299213 0.08299213 
vt -6.775906 6.775906 
vt -6.775906 0.08299213 
vt 0.6184252 6.240472 
vt 1.777733 1.777733 
vt 0.6184252 0.6184252 
vt 6.240472 0.6184252 
vt 5.081164 1.777733 
vt 5.081164 5.081164 
vt 1.777733 5.081164 
vt 6.240472 6.240472 
vt 5.081164 2.362205 
vt 1.777733 2.362205 
vt 5.081164 4.330709 
vt 1.777733 4.330709 
vt -1.777733 2.362205 
vt -5.081164 2.362205 
vt -1.777733 4.330709 
vt -5.081164 4.330709 
vt -0.08299213 1.348914 
vt -6.775906 1.348914 
vt -0.6184252 2.301116 
vt -6.240472 2.301116 
vt 6.775906 1.348914 
vt 0.08299213 1.348914 
vt 6.240472 2.301116 
vt 0.6184252 2.301116 
vt 0.08299213 -2.507913 
vt 0.6184252 -1.555711 
vt 6.775906 -2.507913 
vt 6.240472 -1.555711 
vt -0.08299213 -2.507913 
vt -6.775906 -2.507913 
vt -0.6184252 -1.555711 
vt -6.240472 -1.555711 
vt 0.6184252 8.304961 
vt 6.240472 8.304961 
vt 1.777733 6.64997 
vt 5.081164 6.64997 
vt 6.775906 0 
vt 0.08299213 0 
vt 6.775906 1.574803 
vt 0.08299213 1.574803 
vt 0.08299213 0.08299213 
vt 0.08299213 6.775906 
vt 6.775906 0.08299213 
vt 6.775906 6.775906 
vt -0.6184252 3.500361 
vt -1.777733 1.845369 
vt -6.240472 3.500361 
vt -5.081164 1.845369 
vt -0.08299213 1.574803 
vt -0.08299213 0 
vt -6.775906 1.574803 
vt -6.775906 0 
vt 5.081164 1.845369 
vt 1.777733 1.845369 
vt 6.240472 3.500361 
vt 0.6184252 3.500361 
vt 0 6.858898 
vt 0 0 
vt 6.858898 0 
vt 6.858898 6.858898 
vt 0 11.81102 
vt 0 13.38583 
vt 6.858898 11.81102 
vt 6.858898 13.38583 
vt -6.858898 11.81102 
vt -6.858898 13.38583 
vt 6.240472 5.425016 
vt 0.6184252 5.425016 
vt 6.858898 11.75451 
vt -1.540744E-33 11.75451 
vt 0 11.75451 
vt -0.6184252 5.425016 
vt -6.858898 11.75451 
vt -6.240472 5.425016 
vt -5.347443E-17 12.42466 
vt 6.858898 12.42466 
vt 0.6184252 6.095166 
vt 6.240472 6.095166 
vt -0.6184252 6.095166 
vt -6.240472 6.095166 
vt 4.585293E-18 12.42466 
vt -6.858898 12.42466 

usemtl metal

f 2/2/1 1/1/1 3/3/1 
f 3/3/1 4/4/1 2/2/1 
f 2/1/2 4/3/2 5/4/2 
f 5/4/2 6/2/2 2/1/2 
f 7/6/3 1/5/3 2/7/3 
f 2/7/3 6/8/3 7/6/3 
f 3/10/4 1/9/4 7/11/4 
f 7/11/4 8/12/4 3/10/4 
f 7/9/5 6/11/5 5/12/5 
f 5/12/5 8/10/5 7/9/5 
f 10/14/6 9/13/6 11/15/6 
f 11/15/6 12/16/6 10/14/6 
f 14/18/7 13/17/7 15/19/7 
f 15/19/7 16/20/7 14/18/7 
f 18/22/3 17/21/3 19/23/3 
f 19/23/3 20/24/3 18/22/3 
f 20/24/3 21/25/3 18/22/3 
f 20/24/3 22/26/3 21/25/3 
f 17/21/3 18/22/3 23/27/3 
f 23/27/3 24/28/3 17/21/3 
f 23/27/3 22/26/3 24/28/3 
f 22/26/3 20/24/3 24/28/3 
f 18/30/5 21/29/5 25/31/5 
f 25/31/5 26/32/5 18/30/5 
f 9/27/3 26/22/3 25/25/3 
f 25/25/3 10/26/3 9/27/3 
f 25/32/4 21/30/4 22/29/4 
f 22/29/4 10/31/4 25/32/4 
f 22/34/1 23/33/1 9/35/1 
f 9/35/1 10/36/1 22/34/1 
f 18/33/2 26/35/2 9/36/2 
f 9/36/2 23/34/2 18/33/2 
f 28/38/8 27/37/8 19/39/8 
f 19/39/8 17/40/8 28/38/8 
f 27/42/9 29/41/9 20/43/9 
f 20/43/9 19/44/9 27/42/9 
f 20/46/10 29/45/10 30/47/10 
f 30/47/10 24/48/10 20/46/10 
f 30/50/11 28/49/11 17/51/11 
f 17/51/11 24/52/11 30/50/11 
f 12/54/12 31/53/12 25/55/12 
f 25/55/12 10/56/12 12/54/12 
f 14/58/5 16/57/5 29/59/5 
f 29/59/5 27/60/5 14/58/5 
f 28/62/3 27/61/3 29/63/3 
f 29/63/3 30/64/3 28/62/3 
f 26/66/13 32/65/13 11/67/13 
f 11/67/13 9/68/13 26/66/13 
f 29/60/4 16/58/4 15/57/4 
f 15/57/4 30/59/4 29/60/4 
f 14/70/2 27/69/2 28/71/2 
f 28/71/2 13/72/2 14/70/2 
f 15/72/1 13/70/1 28/69/1 
f 28/69/1 30/71/1 15/72/1 
f 26/74/14 25/73/14 31/75/14 
f 31/75/14 32/76/14 26/74/14 
f 3/5/3 33/77/3 34/78/3 
f 34/78/3 35/79/3 3/5/3 
f 35/79/3 4/7/3 3/5/3 
f 35/79/3 5/8/3 4/7/3 
f 33/77/3 3/5/3 8/6/3 
f 8/6/3 36/80/3 33/77/3 
f 8/6/3 5/8/3 36/80/3 
f 5/8/3 35/79/3 36/80/3 
f 35/82/4 37/81/4 38/83/4 
f 38/83/4 36/84/4 35/82/4 
f 38/85/1 39/81/1 33/82/1 
f 33/82/1 36/86/1 38/85/1 
f 40/81/2 34/82/2 33/86/2 
f 33/86/2 39/85/2 40/81/2 
f 40/81/5 37/83/5 35/84/5 
f 35/84/5 34/82/5 40/81/5 
f 32/88/15 31/87/15 37/89/15 
f 37/89/15 40/90/15 32/88/15 
f 32/92/16 40/91/16 39/93/16 
f 39/93/16 11/94/16 32/92/16 
f 38/96/17 37/95/17 31/97/17 
f 31/97/17 12/98/17 38/96/17 
f 12/100/18 11/99/18 39/101/18 
f 39/101/18 38/102/18 12/100/18 
g urn




usemtl metal

f 2/2/1 1/1/1 3/3/1 
f 3/3/1 4/4/1 2/2/1 
f 2/1/2 4/3/2 5/4/2 
f 5/4/2 6/2/2 2/1/2 
f 7/6/3 1/5/3 2/7/3 
f 2/7/3 6/8/3 7/6/3 
f 3/10/4 1/9/4 7/11/4 
f 7/11/4 8/12/4 3/10/4 
f 7/9/5 6/11/5 5/12/5 
f 5/12/5 8/10/5 7/9/5 
f 10/14/6 9/13/6 11/15/6 
f 11/15/6 12/16/6 10/14/6 
f 14/18/7 13/17/7 15/19/7 
f 15/19/7 16/20/7 14/18/7 
f 18/22/3 17/21/3 19/23/3 
f 19/23/3 20/24/3 18/22/3 
f 20/24/3 21/25/3 18/22/3 
f 20/24/3 22/26/3 21/25/3 
f 17/21/3 18/22/3 23/27/3 
f 23/27/3 24/28/3 17/21/3 
f 23/27/3 22/26/3 24/28/3 
f 22/26/3 20/24/3 24/28/3 
f 18/30/5 21/29/5 25/31/5 
f 25/31/5 26/32/5 18/30/5 
f 9/27/3 26/22/3 25/25/3 
f 25/25/3 10/26/3 9/27/3 
f 25/32/4 21/30/4 22/29/4 
f 22/29/4 10/31/4 25/32/4 
f 22/34/1 23/33/1 9/35/1 
f 9/35/1 10/36/1 22/34/1 
f 18/33/2 26/35/2 9/36/2 
f 9/36/2 23/34/2 18/33/2 
f 28/38/8 27/37/8 19/39/8 
f 19/39/8 17/40/8 28/38/8 
f 27/42/9 29/41/9 20/43/9 
f 20/43/9 19/44/9 27/42/9 
f 20/46/10 29/45/10 30/47/10 
f 30/47/10 24/48/10 20/46/10 
f 30/50/11 28/49/11 17/51/11 
f 17/51/11 24/52/11 30/50/11 
f 12/54/12 31/53/12 25/55/12 
f 25/55/12 10/56/12 12/54/12 
f 14/58/5 16/57/5 29/59/5 
f 29/59/5 27/60/5 14/58/5 
f 28/62/3 27/61/3 29/63/3 
f 29/63/3 30/64/3 28/62/3 
f 26/66/13 32/65/13 11/67/13 
f 11/67/13 9/68/13 26/66/13 
f 29/60/4 16/58/4 15/57/4 
f 15/57/4 30/59/4 29/60/4 
f 14/70/2 27/69/2 28/71/2 
f 28/71/2 13/72/2 14/70/2 
f 15/72/1 13/70/1 28/69/1 
f 28/69/1 30/71/1 15/72/1 
f 26/74/14 25/73/14 31/75/14 
f 31/75/14 32/76/14 26/74/14 
f 3/5/3 33/77/3 34/78/3 
f 34/78/3 35/79/3 3/5/3 
f 35/79/3 4/7/3 3/5/3 
f 35/79/3 5/8/3 4/7/3 
f 33/77/3 3/5/3 8/6/3 
f 8/6/3 36/80/3 33/77/3 
f 8/6/3 5/8/3 36/80/3 
f 5/8/3 35/79/3 36/80/3 
f 35/82/4 37/81/4 38/83/4 
f 38/83/4 36/84/4 35/82/4 
f 38/85/1 39/81/1 33/82/1 
f 33/82/1 36/86/1 38/85/1 
f 40/81/2 34/82/2 33/86/2 
f 33/86/2 39/85/2 40/81/2 
f 40/81/5 37/83/5 35/84/5 
f 35/84/5 34/82/5 40/81/5 
f 32/88/15 31/87/15 37/89/15 
f 37/89/15 40/90/15 32/88/15 
f 32/92/16 40/91/16 39/93/16 
f 39/93/16 11/94/16 32/92/16 
f 38/96/17 37/95/17 31/97/17 
f 31/97/17 12/98/17 38/96/17 
f 12/100/18 11/99/18 39/101/18 
f 39/101/18 38/102/18 12/100/18 
g urnLid

v -0.1042471 0.37 0.06996888 
v -0.1042471 0.39 0.06996888 
v -0.1042471 0.37 0.1042471 
v -0.1042471 0.39 0.1042471 
v -0.06996888 0.37 0.06996888 
v -0.06996888 0.39 0.06996888 
v -0.06996888 0.37 0.1042471 
v -0.06996888 0.39 0.1042471 
v -0.01567944 0.37 0.1585366 
v -0.01567944 0.37 0.01567944 
v -0.1585366 0.37 0.01567944 
v -0.1585366 0.37 0.1585366 
v 0 0.36 0 
v 0 0.36 0.174216 
v -0.174216 0.36 0 
v -0.174216 0.36 0.174216 

vn 0.5377239 0.843121 0 
vn -0.5377239 0.843121 0 
vn 0 0.843121 0.5377239 
vn 0 0.843121 -0.5377239 

vt 2.75468 1.181102 
vt 2.75468 1.968504 
vt 4.104217 1.181102 
vt 4.104217 1.968504 
vt -2.75468 1.181102 
vt -4.104217 1.181102 
vt -2.75468 1.968504 
vt -4.104217 1.968504 
vt 2.75468 2.75468 
vt 2.75468 4.104217 
vt 4.104217 2.75468 
vt 4.104217 4.104217 
vt -6.858898 6.858898 
vt -6.858898 0 
vt 0.6173008 6.241597 
vt 0.6173008 0.6173008 
vt 6.241597 0.6173008 
vt 6.241597 6.241597 
vt -9.62965E-35 0.4234047 
vt -6.858898 0.4234047 
vt -0.6173008 1.155566 
vt -6.241597 1.155566 
vt 0.6173008 -4.627314 
vt 6.241597 -4.627314 
vt 1.551297E-17 -5.359476 
vt 6.858898 -5.359476 
vt 4.505398E-17 -5.359476 
vt -6.858898 -5.359476 
vt -0.6173008 -4.627314 
vt -6.241597 -4.627314 
vt 0 0.4234047 
vt 0.6173008 1.155566 
vt 6.858898 0.4234047 
vt 6.241597 1.155566 
vt 0 0.7874016 
vt -6.858898 0.7874016 
vt 6.858898 0.7874016 

usemtl metal

f 42/104/4 41/103/4 43/105/4 
f 43/105/4 44/106/4 42/104/4 
f 45/103/5 41/105/5 42/106/5 
f 42/106/5 46/104/5 45/103/5 
f 43/108/1 47/107/1 48/109/1 
f 48/109/1 44/110/1 43/108/1 
f 45/107/2 46/109/2 48/110/2 
f 48/110/2 47/108/2 45/107/2 
f 48/112/3 46/111/3 42/113/3 
f 42/113/3 44/114/3 48/112/3 
f 34/78/7 33/77/7 36/115/7 
f 36/115/7 35/116/7 34/78/7 
f 45/111/3 49/117/3 50/118/3 
f 50/118/3 51/119/3 45/111/3 
f 51/119/3 41/113/3 45/111/3 
f 51/119/3 43/114/3 41/113/3 
f 49/117/3 45/111/3 47/112/3 
f 47/112/3 52/120/3 49/117/3 
f 47/112/3 43/114/3 52/120/3 
f 43/114/3 51/119/3 52/120/3 
f 54/122/19 53/121/19 50/123/19 
f 50/123/19 49/124/19 54/122/19 
f 52/126/20 51/125/20 55/127/20 
f 55/127/20 56/128/20 52/126/20 
f 56/130/21 54/129/21 49/131/21 
f 49/131/21 52/132/21 56/130/21 
f 50/134/22 53/133/22 55/135/22 
f 55/135/22 51/136/22 50/134/22 
f 36/116/1 33/78/1 54/137/1 
f 54/137/1 56/138/1 36/116/1 
f 55/137/4 35/78/4 36/79/4 
f 36/79/4 56/139/4 55/137/4 
f 34/78/5 35/79/5 55/139/5 
f 55/139/5 53/137/5 34/78/5 
f 34/78/2 53/137/2 54/138/2 
f 54/138/2 33/116/2 34/78/2 
